<svg width="3233" height="1699" xmlns="http://www.w3.org/2000/svg" xmlns:xlink="http://www.w3.org/1999/xlink" overflow="hidden"><defs><clipPath id="clip0"><rect x="236" y="1806" width="3233" height="1699"/></clipPath></defs><g clip-path="url(#clip0)" transform="translate(-236 -1806)"><path d="M455.5 2027.5C563.196 2027.5 650.5 2114.8 650.5 2222.5 650.5 2330.2 563.196 2417.5 455.5 2417.5 347.805 2417.5 260.5 2330.2 260.5 2222.5 260.5 2114.8 347.805 2027.5 455.5 2027.5Z" stroke="#FFFFFF" stroke-width="4.58333" stroke-miterlimit="8" fill="#181717" fill-rule="evenodd"/><path d="M0 0 0.000360892 195.14" stroke="#FFC000" stroke-width="25.9843" stroke-miterlimit="8" fill="none" fill-rule="evenodd" transform="matrix(-1 1.22465e-16 1.22465e-16 1 455 2027)"/><path d="M455 2209C462.18 2209 468 2214.82 468 2222 468 2229.18 462.18 2235 455 2235 447.82 2235 442 2229.18 442 2222 442 2214.82 447.82 2209 455 2209Z" fill="#FFC000" fill-rule="evenodd"/><path d="M455.5 2235.5C563.195 2235.5 650.5 2322.58 650.5 2430 650.5 2537.42 563.195 2624.5 455.5 2624.5 347.805 2624.5 260.5 2537.42 260.5 2430 260.5 2322.58 347.805 2235.5 455.5 2235.5Z" stroke="#FFFFFF" stroke-width="4.58333" stroke-miterlimit="8" fill="#181717" fill-rule="evenodd"/><path d="M0 0 194.625 0.000360892" stroke="#70AD47" stroke-width="25.9843" stroke-miterlimit="8" fill="none" fill-rule="evenodd" transform="matrix(-1 1.22465e-16 1.22465e-16 1 649.625 2430)"/><path d="M0 0 0.000360892 195.14" stroke="#70AD47" stroke-width="25.9843" stroke-miterlimit="8" fill="none" fill-rule="evenodd" transform="matrix(-1 1.22465e-16 1.22465e-16 1 455 2235)"/><path d="M455 2417C462.18 2417 468 2422.82 468 2430 468 2437.18 462.18 2443 455 2443 447.82 2443 442 2437.18 442 2430 442 2422.82 447.82 2417 455 2417Z" fill="#70AD47" fill-rule="evenodd"/><path d="M857.5 2222.5C857.5 2330.2 770.42 2417.5 663 2417.5 555.581 2417.5 468.5 2330.2 468.5 2222.5 468.5 2114.8 555.581 2027.5 663 2027.5 770.42 2027.5 857.5 2114.8 857.5 2222.5Z" stroke="#FFFFFF" stroke-width="4.58333" stroke-miterlimit="8" fill="#181717" fill-rule="evenodd"/><path d="M0 0 194.625 0.000360892" stroke="#7030A0" stroke-width="25.9843" stroke-miterlimit="8" fill="none" fill-rule="evenodd" transform="matrix(-1.83697e-16 -1 -1 1.83697e-16 663 2416.62)"/><path d="M0 0 0.000360892 195.14" stroke="#7030A0" stroke-width="25.9843" stroke-miterlimit="8" fill="none" fill-rule="evenodd" transform="matrix(-1.83697e-16 -1 -1 1.83697e-16 857.14 2222)"/><path d="M675 2222C675 2229.18 669.18 2235 662 2235 654.82 2235 649 2229.18 649 2222 649 2214.82 654.82 2209 662 2209 669.18 2209 675 2214.82 675 2222Z" fill="#7030A0" fill-rule="evenodd"/><path d="M663.5 2209.5C555.805 2209.5 468.5 2122.2 468.5 2014.5 468.5 1906.8 555.805 1819.5 663.5 1819.5 771.196 1819.5 858.5 1906.8 858.5 2014.5 858.5 2122.2 771.196 2209.5 663.5 2209.5Z" stroke="#FFFFFF" stroke-width="4.58333" stroke-miterlimit="8" fill="#181717" fill-rule="evenodd"/><path d="M0 0 194.625 0.000360892" stroke="#5B9BD5" stroke-width="25.9843" stroke-miterlimit="8" fill="none" fill-rule="evenodd" transform="matrix(1 0 0 -1 468 2014)"/><path d="M0 0 0.000360892 195.14" stroke="#5B9BD5" stroke-width="25.9843" stroke-miterlimit="8" fill="none" fill-rule="evenodd" transform="matrix(1 0 0 -1 663 2209.14)"/><path d="M663 2027C655.82 2027 650 2021.18 650 2014 650 2006.82 655.82 2001 663 2001 670.18 2001 676 2006.82 676 2014 676 2021.18 670.18 2027 663 2027Z" fill="#5B9BD5" fill-rule="evenodd"/><path d="M909.5 2222.5C909.5 2114.8 996.805 2027.5 1104.5 2027.5 1212.2 2027.5 1299.5 2114.8 1299.5 2222.5 1299.5 2330.2 1212.2 2417.5 1104.5 2417.5 996.805 2417.5 909.5 2330.2 909.5 2222.5Z" stroke="#FFFFFF" stroke-width="4.58333" stroke-miterlimit="8" fill="#181717" fill-rule="evenodd"/><path d="M0 0 0.000360892 195.14" stroke="#FFC000" stroke-width="25.9843" stroke-miterlimit="8" fill="none" fill-rule="evenodd" transform="matrix(6.12323e-17 1 1 -6.12323e-17 909 2222)"/><path d="M1092 2221C1092 2213.82 1097.82 2208 1105 2208 1112.18 2208 1118 2213.82 1118 2221 1118 2228.18 1112.18 2234 1105 2234 1097.82 2234 1092 2228.18 1092 2221Z" fill="#FFC000" fill-rule="evenodd"/><path d="M1104.5 2624.5C996.805 2624.5 909.5 2537.42 909.5 2430 909.5 2322.58 996.805 2235.5 1104.5 2235.5 1212.2 2235.5 1299.5 2322.58 1299.5 2430 1299.5 2537.42 1212.2 2624.5 1104.5 2624.5Z" stroke="#FFFFFF" stroke-width="4.58333" stroke-miterlimit="8" fill="#181717" fill-rule="evenodd"/><path d="M0 0 194.625 0.000360892" stroke="#70AD47" stroke-width="25.9843" stroke-miterlimit="8" fill="none" fill-rule="evenodd" transform="matrix(1 0 0 -1 909 2430)"/><path d="M0 0 0.000360892 195.14" stroke="#70AD47" stroke-width="25.9843" stroke-miterlimit="8" fill="none" fill-rule="evenodd" transform="matrix(1 0 0 -1 1104 2624.14)"/><path d="M1104 2442C1096.82 2442 1091 2436.18 1091 2429 1091 2421.82 1096.82 2416 1104 2416 1111.18 2416 1117 2421.82 1117 2429 1117 2436.18 1111.18 2442 1104 2442Z" fill="#70AD47" fill-rule="evenodd"/><path d="M1507.5 2222.5C1507.5 2330.2 1420.2 2417.5 1312.5 2417.5 1204.8 2417.5 1117.5 2330.2 1117.5 2222.5 1117.5 2114.8 1204.8 2027.5 1312.5 2027.5 1420.2 2027.5 1507.5 2114.8 1507.5 2222.5Z" stroke="#FFFFFF" stroke-width="4.58333" stroke-miterlimit="8" fill="#181717" fill-rule="evenodd"/><path d="M0 0 194.625 0.000360892" stroke="#7030A0" stroke-width="25.9843" stroke-miterlimit="8" fill="none" fill-rule="evenodd" transform="matrix(-1.83697e-16 -1 -1 1.83697e-16 1312 2416.62)"/><path d="M0 0 0.000360892 195.14" stroke="#7030A0" stroke-width="25.9843" stroke-miterlimit="8" fill="none" fill-rule="evenodd" transform="matrix(-1.83697e-16 -1 -1 1.83697e-16 1507.14 2222)"/><path d="M1325 2222C1325 2229.18 1319.18 2235 1312 2235 1304.82 2235 1299 2229.18 1299 2222 1299 2214.82 1304.82 2209 1312 2209 1319.18 2209 1325 2214.82 1325 2222Z" fill="#7030A0" fill-rule="evenodd"/><path d="M1507.5 2014.5C1507.5 2122.2 1420.42 2209.5 1313 2209.5 1205.58 2209.5 1118.5 2122.2 1118.5 2014.5 1118.5 1906.8 1205.58 1819.5 1313 1819.5 1420.42 1819.5 1507.5 1906.8 1507.5 2014.5Z" stroke="#FFFFFF" stroke-width="4.58333" stroke-miterlimit="8" fill="#181717" fill-rule="evenodd"/><path d="M0 0 194.625 0.000360892" stroke="#5B9BD5" stroke-width="25.9843" stroke-miterlimit="8" fill="none" fill-rule="evenodd" transform="matrix(-1.83697e-16 -1 -1 1.83697e-16 1312 2208.62)"/><path d="M0 0 0.000360892 195.14" stroke="#5B9BD5" stroke-width="25.9843" stroke-miterlimit="8" fill="none" fill-rule="evenodd" transform="matrix(-1.83697e-16 -1 -1 1.83697e-16 1507.14 2014)"/><path d="M1325 2014C1325 2021.18 1319.18 2027 1312 2027 1304.82 2027 1299 2021.18 1299 2014 1299 2006.82 1304.82 2001 1312 2001 1319.18 2001 1325 2006.82 1325 2014Z" fill="#5B9BD5" fill-rule="evenodd"/><path d="M1559.5 2222.5C1559.5 2114.8 1646.8 2027.5 1754.5 2027.5 1862.2 2027.5 1949.5 2114.8 1949.5 2222.5 1949.5 2330.2 1862.2 2417.5 1754.5 2417.5 1646.8 2417.5 1559.5 2330.2 1559.5 2222.5Z" stroke="#FFFFFF" stroke-width="4.58333" stroke-miterlimit="8" fill="#181717" fill-rule="evenodd"/><path d="M0 0 0.000360892 195.14" stroke="#FFC000" stroke-width="25.9843" stroke-miterlimit="8" fill="none" fill-rule="evenodd" transform="matrix(6.12323e-17 1 1 -6.12323e-17 1559 2222)"/><path d="M1741 2221C1741 2213.82 1746.82 2208 1754 2208 1761.18 2208 1767 2213.82 1767 2221 1767 2228.18 1761.18 2234 1754 2234 1746.82 2234 1741 2228.18 1741 2221Z" fill="#FFC000" fill-rule="evenodd"/><path d="M1754.5 2235.5C1862.2 2235.5 1949.5 2322.58 1949.5 2430 1949.5 2537.42 1862.2 2624.5 1754.5 2624.5 1646.8 2624.5 1559.5 2537.42 1559.5 2430 1559.5 2322.58 1646.8 2235.5 1754.5 2235.5Z" stroke="#FFFFFF" stroke-width="4.58333" stroke-miterlimit="8" fill="#181717" fill-rule="evenodd"/><path d="M0 0 194.625 0.000360892" stroke="#70AD47" stroke-width="25.9843" stroke-miterlimit="8" fill="none" fill-rule="evenodd" transform="matrix(-1 1.22465e-16 1.22465e-16 1 1948.62 2430)"/><path d="M0 0 0.000360892 195.14" stroke="#70AD47" stroke-width="25.9843" stroke-miterlimit="8" fill="none" fill-rule="evenodd" transform="matrix(-1 1.22465e-16 1.22465e-16 1 1754 2235)"/><path d="M1754 2417C1761.18 2417 1767 2422.82 1767 2430 1767 2437.18 1761.18 2443 1754 2443 1746.82 2443 1741 2437.18 1741 2430 1741 2422.82 1746.82 2417 1754 2417Z" fill="#70AD47" fill-rule="evenodd"/><path d="M1767.5 2222.5C1767.5 2114.8 1854.8 2027.5 1962.5 2027.5 2070.2 2027.5 2157.5 2114.8 2157.5 2222.5 2157.5 2330.2 2070.2 2417.5 1962.5 2417.5 1854.8 2417.5 1767.5 2330.2 1767.5 2222.5Z" stroke="#FFFFFF" stroke-width="4.58333" stroke-miterlimit="8" fill="#181717" fill-rule="evenodd"/><path d="M0 0 194.625 0.000360892" stroke="#7030A0" stroke-width="25.9843" stroke-miterlimit="8" fill="none" fill-rule="evenodd" transform="matrix(6.12323e-17 1 1 -6.12323e-17 1962 2027)"/><path d="M0 0 0.000360892 195.14" stroke="#7030A0" stroke-width="25.9843" stroke-miterlimit="8" fill="none" fill-rule="evenodd" transform="matrix(6.12323e-17 1 1 -6.12323e-17 1767 2222)"/><path d="M1949 2221C1949 2213.82 1954.82 2208 1962 2208 1969.18 2208 1975 2213.82 1975 2221 1975 2228.18 1969.18 2234 1962 2234 1954.82 2234 1949 2228.18 1949 2221Z" fill="#7030A0" fill-rule="evenodd"/><path d="M1962.5 2209.5C1854.8 2209.5 1767.5 2122.2 1767.5 2014.5 1767.5 1906.8 1854.8 1819.5 1962.5 1819.5 2070.2 1819.5 2157.5 1906.8 2157.5 2014.5 2157.5 2122.2 2070.2 2209.5 1962.5 2209.5Z" stroke="#FFFFFF" stroke-width="4.58333" stroke-miterlimit="8" fill="#181717" fill-rule="evenodd"/><path d="M0 0 194.625 0.000360892" stroke="#5B9BD5" stroke-width="25.9843" stroke-miterlimit="8" fill="none" fill-rule="evenodd" transform="matrix(1 0 0 -1 1767 2014)"/><path d="M0 0 0.000360892 195.14" stroke="#5B9BD5" stroke-width="25.9843" stroke-miterlimit="8" fill="none" fill-rule="evenodd" transform="matrix(1 0 0 -1 1962 2209.14)"/><path d="M1962 2027C1954.82 2027 1949 2021.18 1949 2014 1949 2006.82 1954.82 2001 1962 2001 1969.18 2001 1975 2006.82 1975 2014 1975 2021.18 1969.18 2027 1962 2027Z" fill="#5B9BD5" fill-rule="evenodd"/><path d="M2209.5 2222.5C2209.5 2114.8 2296.58 2027.5 2404 2027.5 2511.42 2027.5 2598.5 2114.8 2598.5 2222.5 2598.5 2330.2 2511.42 2417.5 2404 2417.5 2296.58 2417.5 2209.5 2330.2 2209.5 2222.5Z" stroke="#FFFFFF" stroke-width="4.58333" stroke-miterlimit="8" fill="#181717" fill-rule="evenodd"/><path d="M0 0 0.000360892 195.14" stroke="#FFC000" stroke-width="25.9843" stroke-miterlimit="8" fill="none" fill-rule="evenodd" transform="matrix(6.12323e-17 1 1 -6.12323e-17 2209 2222)"/><path d="M2391 2221C2391 2213.82 2396.82 2208 2404 2208 2411.18 2208 2417 2213.82 2417 2221 2417 2228.18 2411.18 2234 2404 2234 2396.82 2234 2391 2228.18 2391 2221Z" fill="#FFC000" fill-rule="evenodd"/><path d="M2598.5 2430C2598.5 2537.42 2511.42 2624.5 2404 2624.5 2296.58 2624.5 2209.5 2537.42 2209.5 2430 2209.5 2322.58 2296.58 2235.5 2404 2235.5 2511.42 2235.5 2598.5 2322.58 2598.5 2430Z" stroke="#FFFFFF" stroke-width="4.58333" stroke-miterlimit="8" fill="#181717" fill-rule="evenodd"/><path d="M0 0 194.625 0.000360892" stroke="#70AD47" stroke-width="25.9843" stroke-miterlimit="8" fill="none" fill-rule="evenodd" transform="matrix(-1.83697e-16 -1 -1 1.83697e-16 2404 2624.62)"/><path d="M0 0 0.000360892 195.14" stroke="#70AD47" stroke-width="25.9843" stroke-miterlimit="8" fill="none" fill-rule="evenodd" transform="matrix(-1.83697e-16 -1 -1 1.83697e-16 2598.14 2430)"/><path d="M2416 2430C2416 2437.18 2410.18 2443 2403 2443 2395.82 2443 2390 2437.18 2390 2430 2390 2422.82 2395.82 2417 2403 2417 2410.18 2417 2416 2422.82 2416 2430Z" fill="#70AD47" fill-rule="evenodd"/><path d="M2612 2417.5C2504.58 2417.5 2417.5 2330.2 2417.5 2222.5 2417.5 2114.8 2504.58 2027.5 2612 2027.5 2719.42 2027.5 2806.5 2114.8 2806.5 2222.5 2806.5 2330.2 2719.42 2417.5 2612 2417.5Z" stroke="#FFFFFF" stroke-width="4.58333" stroke-miterlimit="8" fill="#181717" fill-rule="evenodd"/><path d="M0 0 194.625 0.000360892" stroke="#7030A0" stroke-width="25.9843" stroke-miterlimit="8" fill="none" fill-rule="evenodd" transform="matrix(1 0 0 -1 2417 2222)"/><path d="M0 0 0.000360892 195.14" stroke="#7030A0" stroke-width="25.9843" stroke-miterlimit="8" fill="none" fill-rule="evenodd" transform="matrix(1 0 0 -1 2611 2416.14)"/><path d="M2611 2234C2603.82 2234 2598 2228.18 2598 2221 2598 2213.82 2603.82 2208 2611 2208 2618.18 2208 2624 2213.82 2624 2221 2624 2228.18 2618.18 2234 2611 2234Z" fill="#7030A0" fill-rule="evenodd"/><path d="M2612.5 2209.5C2504.8 2209.5 2417.5 2122.2 2417.5 2014.5 2417.5 1906.8 2504.8 1819.5 2612.5 1819.5 2720.2 1819.5 2807.5 1906.8 2807.5 2014.5 2807.5 2122.2 2720.2 2209.5 2612.5 2209.5Z" stroke="#FFFFFF" stroke-width="4.58333" stroke-miterlimit="8" fill="#181717" fill-rule="evenodd"/><path d="M0 0 194.625 0.000360892" stroke="#5B9BD5" stroke-width="25.9843" stroke-miterlimit="8" fill="none" fill-rule="evenodd" transform="matrix(1 0 0 -1 2417 2014)"/><path d="M0 0 0.000360892 195.14" stroke="#5B9BD5" stroke-width="25.9843" stroke-miterlimit="8" fill="none" fill-rule="evenodd" transform="matrix(1 0 0 -1 2612 2209.14)"/><path d="M2611 2027C2603.82 2027 2598 2021.18 2598 2014 2598 2006.82 2603.82 2001 2611 2001 2618.18 2001 2624 2006.82 2624 2014 2624 2021.18 2618.18 2027 2611 2027Z" fill="#5B9BD5" fill-rule="evenodd"/><path d="M3053.5 2027.5C3161.2 2027.5 3248.5 2114.8 3248.5 2222.5 3248.5 2330.2 3161.2 2417.5 3053.5 2417.5 2945.8 2417.5 2858.5 2330.2 2858.5 2222.5 2858.5 2114.8 2945.8 2027.5 3053.5 2027.5Z" stroke="#FFFFFF" stroke-width="4.58333" stroke-miterlimit="8" fill="#181717" fill-rule="evenodd"/><path d="M0 0 0.000360892 195.14" stroke="#FFC000" stroke-width="25.9843" stroke-miterlimit="8" fill="none" fill-rule="evenodd" transform="matrix(-1 1.22465e-16 1.22465e-16 1 3053 2027)"/><path d="M3053 2209C3060.18 2209 3066 2214.82 3066 2222 3066 2229.18 3060.18 2235 3053 2235 3045.82 2235 3040 2229.18 3040 2222 3040 2214.82 3045.82 2209 3053 2209Z" fill="#FFC000" fill-rule="evenodd"/><path d="M3053.5 2624.5C2945.8 2624.5 2858.5 2537.42 2858.5 2430 2858.5 2322.58 2945.8 2235.5 3053.5 2235.5 3161.2 2235.5 3248.5 2322.58 3248.5 2430 3248.5 2537.42 3161.2 2624.5 3053.5 2624.5Z" stroke="#FFFFFF" stroke-width="4.58333" stroke-miterlimit="8" fill="#181717" fill-rule="evenodd"/><path d="M0 0 194.625 0.000360892" stroke="#70AD47" stroke-width="25.9843" stroke-miterlimit="8" fill="none" fill-rule="evenodd" transform="matrix(1 0 0 -1 2858 2430)"/><path d="M0 0 0.000360892 195.14" stroke="#70AD47" stroke-width="25.9843" stroke-miterlimit="8" fill="none" fill-rule="evenodd" transform="matrix(1 0 0 -1 3053 2624.14)"/><path d="M3053 2442C3045.82 2442 3040 2436.18 3040 2429 3040 2421.82 3045.82 2416 3053 2416 3060.18 2416 3066 2421.82 3066 2429 3066 2436.18 3060.18 2442 3053 2442Z" fill="#70AD47" fill-rule="evenodd"/><path d="M3261.5 2417.5C3153.8 2417.5 3066.5 2330.2 3066.5 2222.5 3066.5 2114.8 3153.8 2027.5 3261.5 2027.5 3369.2 2027.5 3456.5 2114.8 3456.5 2222.5 3456.5 2330.2 3369.2 2417.5 3261.5 2417.5Z" stroke="#FFFFFF" stroke-width="4.58333" stroke-miterlimit="8" fill="#181717" fill-rule="evenodd"/><path d="M0 0 194.625 0.000360892" stroke="#7030A0" stroke-width="25.9843" stroke-miterlimit="8" fill="none" fill-rule="evenodd" transform="matrix(1 0 0 -1 3066 2222)"/><path d="M0 0 0.000360892 195.14" stroke="#7030A0" stroke-width="25.9843" stroke-miterlimit="8" fill="none" fill-rule="evenodd" transform="matrix(1 0 0 -1 3261 2416.14)"/><path d="M3261 2234C3253.82 2234 3248 2228.18 3248 2221 3248 2213.82 3253.82 2208 3261 2208 3268.18 2208 3274 2213.82 3274 2221 3274 2228.18 3268.18 2234 3261 2234Z" fill="#7030A0" fill-rule="evenodd"/><path d="M3456.5 2014.5C3456.5 2122.2 3369.2 2209.5 3261.5 2209.5 3153.8 2209.5 3066.5 2122.2 3066.5 2014.5 3066.5 1906.8 3153.8 1819.5 3261.5 1819.5 3369.2 1819.5 3456.5 1906.8 3456.5 2014.5Z" stroke="#FFFFFF" stroke-width="4.58333" stroke-miterlimit="8" fill="#181717" fill-rule="evenodd"/><path d="M0 0 194.625 0.000360892" stroke="#5B9BD5" stroke-width="25.9843" stroke-miterlimit="8" fill="none" fill-rule="evenodd" transform="matrix(-1.83697e-16 -1 -1 1.83697e-16 3261 2208.62)"/><path d="M0 0 0.000360892 195.14" stroke="#5B9BD5" stroke-width="25.9843" stroke-miterlimit="8" fill="none" fill-rule="evenodd" transform="matrix(-1.83697e-16 -1 -1 1.83697e-16 3456.14 2014)"/><path d="M3274 2014C3274 2021.18 3268.18 2027 3261 2027 3253.82 2027 3248 2021.18 3248 2014 3248 2006.82 3253.82 2001 3261 2001 3268.18 2001 3274 2006.82 3274 2014Z" fill="#5B9BD5" fill-rule="evenodd"/><path d="M247 1806 870 1806 870 2637 247 2637ZM439.544 1998.54 439.544 2444.46 677.456 2444.46 677.456 1998.54Z" fill="#7F7F7F" fill-rule="evenodd" fill-opacity="0.901961"/><path d="M896 1806 1520 1806 1520 2637 896 2637ZM1088.85 1998.85 1088.85 2444.15 1327.15 2444.15 1327.15 1998.85Z" fill="#7F7F7F" fill-rule="evenodd" fill-opacity="0.901961"/><path d="M1546 1806 2170 1806 2170 2637 1546 2637ZM1738.85 1998.85 1738.85 2444.15 1977.15 2444.15 1977.15 1998.85Z" fill="#7F7F7F" fill-rule="evenodd" fill-opacity="0.901961"/><path d="M2196 1806 2819 1806 2819 2637 2196 2637ZM2388.54 1998.54 2388.54 2444.46 2626.46 2444.46 2626.46 1998.54Z" fill="#7F7F7F" fill-rule="evenodd" fill-opacity="0.901961"/><path d="M2845 1806 3469 1806 3469 2637 2845 2637ZM3037.85 1998.85 3037.85 2444.15 3276.15 2444.15 3276.15 1998.85Z" fill="#7F7F7F" fill-rule="evenodd" fill-opacity="0.901961"/><text fill="#5B9BD5" font-family="Bahnschrift,Bahnschrift_MSFontService,sans-serif" font-weight="400" font-size="46" transform="matrix(1 0 0 1 264.211 2610)">C1P90<tspan fill="#000000" font-size="46" x="120.885" y="0">-</tspan><tspan fill="#FFC000" font-size="46" x="142.656" y="0">C2P0</tspan><tspan fill="#000000" font-size="46" x="248.073" y="0">-</tspan><tspan fill="#7030A0" font-size="46" x="269.844" y="0">C3P180</tspan><tspan fill="#000000" font-size="46" x="417.083" y="0">-</tspan><tspan fill="#70AD47" font-size="46" x="438.854" y="0">C4P180</tspan><tspan font-size="46" x="649.606" y="0">C1P180</tspan><tspan fill="#000000" font-size="46" x="788.252" y="0">-</tspan><tspan fill="#FFC000" font-size="46" x="810.023" y="0">C2P90</tspan><tspan fill="#000000" font-size="46" x="938.929" y="0">-</tspan><tspan fill="#7030A0" font-size="46" x="960.7" y="0">C3P180</tspan><tspan fill="#000000" font-size="46" x="1107.94" y="0">-</tspan><tspan fill="#70AD47" font-size="46" x="1129.71" y="0">C4P0</tspan><tspan font-size="46" x="1308.09" y="0">C1P90</tspan><tspan fill="#000000" font-size="46" x="1428.98" y="0">-</tspan><tspan fill="#FFC000" font-size="46" x="1450.75" y="0">C2P90</tspan><tspan fill="#000000" font-size="46" x="1579.66" y="0">-</tspan><tspan fill="#7030A0" font-size="46" x="1601.43" y="0">C3P0</tspan><tspan fill="#000000" font-size="46" x="1707.42" y="0">-</tspan><tspan fill="#70AD47" font-size="46" x="1729.19" y="0">C4P180</tspan><tspan font-size="46" x="1941.84" y="0">C1P90</tspan><tspan fill="#000000" font-size="46" x="2062.73" y="0">-</tspan><tspan fill="#FFC000" font-size="46" x="2084.5" y="0">C2P90</tspan><tspan fill="#000000" font-size="46" x="2213.4" y="0">-</tspan><tspan fill="#7030A0" font-size="46" x="2235.18" y="0">C3P90</tspan><tspan fill="#000000" font-size="46" x="2364.65" y="0">-</tspan><tspan fill="#70AD47" font-size="46" x="2386.43" y="0">C4P90</tspan><tspan font-size="46" x="2619.31" y="0">C1P180</tspan><tspan fill="#000000" font-size="46" x="2757.95" y="0">-</tspan><tspan fill="#FFC000" font-size="46" x="2779.72" y="0">C2P0</tspan><tspan fill="#000000" font-size="46" x="2885.14" y="0">-</tspan><tspan fill="#7030A0" font-size="46" x="2906.91" y="0">C3P90</tspan><tspan fill="#000000" font-size="46" x="3036.39" y="0">-</tspan><tspan fill="#70AD47" font-size="46" x="3058.16" y="0">C4P0</tspan></text><path d="M455.5 2885.5C563.195 2885.5 650.5 2972.58 650.5 3080 650.5 3187.42 563.195 3274.5 455.5 3274.5 347.805 3274.5 260.5 3187.42 260.5 3080 260.5 2972.58 347.805 2885.5 455.5 2885.5Z" stroke="#FFFFFF" stroke-width="4.58333" stroke-miterlimit="8" fill="#181717" fill-rule="evenodd"/><path d="M0 0 0.000360892 195.14" stroke="#FFC000" stroke-width="25.9843" stroke-miterlimit="8" fill="none" fill-rule="evenodd" transform="matrix(-1 1.22465e-16 1.22465e-16 1 455 2885)"/><path d="M455 3067C462.18 3067 468 3072.82 468 3080 468 3087.18 462.18 3093 455 3093 447.82 3093 442 3087.18 442 3080 442 3072.82 447.82 3067 455 3067Z" fill="#FFC000" fill-rule="evenodd"/><path d="M650.5 3287.5C650.5 3395.2 563.195 3482.5 455.5 3482.5 347.805 3482.5 260.5 3395.2 260.5 3287.5 260.5 3179.8 347.805 3092.5 455.5 3092.5 563.195 3092.5 650.5 3179.8 650.5 3287.5Z" stroke="#FFFFFF" stroke-width="4.58333" stroke-miterlimit="8" fill="#181717" fill-rule="evenodd"/><path d="M0 0 194.625 0.000360892" stroke="#70AD47" stroke-width="25.9843" stroke-miterlimit="8" fill="none" fill-rule="evenodd" transform="matrix(-1.83697e-16 -1 -1 1.83697e-16 455 3482.62)"/><path d="M0 0 0.000360892 195.14" stroke="#70AD47" stroke-width="25.9843" stroke-miterlimit="8" fill="none" fill-rule="evenodd" transform="matrix(-1.83697e-16 -1 -1 1.83697e-16 649.14 3287)"/><path d="M467 3288C467 3295.18 461.18 3301 454 3301 446.82 3301 441 3295.18 441 3288 441 3280.82 446.82 3275 454 3275 461.18 3275 467 3280.82 467 3288Z" fill="#70AD47" fill-rule="evenodd"/><path d="M663 3274.5C555.581 3274.5 468.5 3187.42 468.5 3080 468.5 2972.58 555.581 2885.5 663 2885.5 770.42 2885.5 857.5 2972.58 857.5 3080 857.5 3187.42 770.42 3274.5 663 3274.5Z" stroke="#FFFFFF" stroke-width="4.58333" stroke-miterlimit="8" fill="#181717" fill-rule="evenodd"/><path d="M0 0 194.625 0.000360892" stroke="#7030A0" stroke-width="25.9843" stroke-miterlimit="8" fill="none" fill-rule="evenodd" transform="matrix(1 0 0 -1 468 3079)"/><path d="M0 0 0.000360892 195.14" stroke="#7030A0" stroke-width="25.9843" stroke-miterlimit="8" fill="none" fill-rule="evenodd" transform="matrix(1 0 0 -1 663 3274.14)"/><path d="M662 3092C654.82 3092 649 3086.18 649 3079 649 3071.82 654.82 3066 662 3066 669.18 3066 675 3071.82 675 3079 675 3086.18 669.18 3092 662 3092Z" fill="#7030A0" fill-rule="evenodd"/><path d="M468.5 2872C468.5 2764.58 555.804 2677.5 663.5 2677.5 771.195 2677.5 858.5 2764.58 858.5 2872 858.5 2979.42 771.195 3066.5 663.5 3066.5 555.804 3066.5 468.5 2979.42 468.5 2872Z" stroke="#FFFFFF" stroke-width="4.58333" stroke-miterlimit="8" fill="#181717" fill-rule="evenodd"/><path d="M0 0 194.625 0.000360892" stroke="#5B9BD5" stroke-width="25.9843" stroke-miterlimit="8" fill="none" fill-rule="evenodd" transform="matrix(6.12323e-17 1 1 -6.12323e-17 663 2677)"/><path d="M0 0 0.000360892 195.14" stroke="#5B9BD5" stroke-width="25.9843" stroke-miterlimit="8" fill="none" fill-rule="evenodd" transform="matrix(6.12323e-17 1 1 -6.12323e-17 468 2872)"/><path d="M650 2871C650 2863.82 655.82 2858 663 2858 670.18 2858 676 2863.82 676 2871 676 2878.18 670.18 2884 663 2884 655.82 2884 650 2878.18 650 2871Z" fill="#5B9BD5" fill-rule="evenodd"/><path d="M1104.5 2885.5C1212.2 2885.5 1299.5 2972.58 1299.5 3080 1299.5 3187.42 1212.2 3274.5 1104.5 3274.5 996.805 3274.5 909.5 3187.42 909.5 3080 909.5 2972.58 996.805 2885.5 1104.5 2885.5Z" stroke="#FFFFFF" stroke-width="4.58333" stroke-miterlimit="8" fill="#181717" fill-rule="evenodd"/><path d="M0 0 0.000360892 195.14" stroke="#FFC000" stroke-width="25.9843" stroke-miterlimit="8" fill="none" fill-rule="evenodd" transform="matrix(-1 1.22465e-16 1.22465e-16 1 1104 2885)"/><path d="M1105 3067C1112.18 3067 1118 3072.82 1118 3080 1118 3087.18 1112.18 3093 1105 3093 1097.82 3093 1092 3087.18 1092 3080 1092 3072.82 1097.82 3067 1105 3067Z" fill="#FFC000" fill-rule="evenodd"/><path d="M1104.5 3092.5C1212.2 3092.5 1299.5 3179.8 1299.5 3287.5 1299.5 3395.2 1212.2 3482.5 1104.5 3482.5 996.805 3482.5 909.5 3395.2 909.5 3287.5 909.5 3179.8 996.805 3092.5 1104.5 3092.5Z" stroke="#FFFFFF" stroke-width="4.58333" stroke-miterlimit="8" fill="#181717" fill-rule="evenodd"/><path d="M0 0 194.625 0.000360892" stroke="#70AD47" stroke-width="25.9843" stroke-miterlimit="8" fill="none" fill-rule="evenodd" transform="matrix(-1 1.22465e-16 1.22465e-16 1 1299.62 3287)"/><path d="M0 0 0.000360892 195.14" stroke="#70AD47" stroke-width="25.9843" stroke-miterlimit="8" fill="none" fill-rule="evenodd" transform="matrix(-1 1.22465e-16 1.22465e-16 1 1104 3092)"/><path d="M1105 3275C1112.18 3275 1118 3280.82 1118 3288 1118 3295.18 1112.18 3301 1105 3301 1097.82 3301 1092 3295.18 1092 3288 1092 3280.82 1097.82 3275 1105 3275Z" fill="#70AD47" fill-rule="evenodd"/><path d="M1312.5 3274.5C1204.8 3274.5 1117.5 3187.42 1117.5 3080 1117.5 2972.58 1204.8 2885.5 1312.5 2885.5 1420.2 2885.5 1507.5 2972.58 1507.5 3080 1507.5 3187.42 1420.2 3274.5 1312.5 3274.5Z" stroke="#FFFFFF" stroke-width="4.58333" stroke-miterlimit="8" fill="#181717" fill-rule="evenodd"/><path d="M0 0 194.625 0.000360892" stroke="#7030A0" stroke-width="25.9843" stroke-miterlimit="8" fill="none" fill-rule="evenodd" transform="matrix(1 0 0 -1 1117 3079)"/><path d="M0 0 0.000360892 195.14" stroke="#7030A0" stroke-width="25.9843" stroke-miterlimit="8" fill="none" fill-rule="evenodd" transform="matrix(1 0 0 -1 1312 3274.14)"/><path d="M1312 3092C1304.82 3092 1299 3086.18 1299 3079 1299 3071.82 1304.82 3066 1312 3066 1319.18 3066 1325 3071.82 1325 3079 1325 3086.18 1319.18 3092 1312 3092Z" fill="#7030A0" fill-rule="evenodd"/><path d="M1118.5 2872C1118.5 2764.58 1205.58 2677.5 1313 2677.5 1420.42 2677.5 1507.5 2764.58 1507.5 2872 1507.5 2979.42 1420.42 3066.5 1313 3066.5 1205.58 3066.5 1118.5 2979.42 1118.5 2872Z" stroke="#FFFFFF" stroke-width="4.58333" stroke-miterlimit="8" fill="#181717" fill-rule="evenodd"/><path d="M0 0 194.625 0.000360892" stroke="#5B9BD5" stroke-width="25.9843" stroke-miterlimit="8" fill="none" fill-rule="evenodd" transform="matrix(6.12323e-17 1 1 -6.12323e-17 1312 2677)"/><path d="M0 0 0.000360892 195.14" stroke="#5B9BD5" stroke-width="25.9843" stroke-miterlimit="8" fill="none" fill-rule="evenodd" transform="matrix(6.12323e-17 1 1 -6.12323e-17 1118 2872)"/><path d="M1300 2871C1300 2863.82 1305.82 2858 1313 2858 1320.18 2858 1326 2863.82 1326 2871 1326 2878.18 1320.18 2884 1313 2884 1305.82 2884 1300 2878.18 1300 2871Z" fill="#5B9BD5" fill-rule="evenodd"/><path d="M1559.5 3080C1559.5 2972.58 1646.8 2885.5 1754.5 2885.5 1862.2 2885.5 1949.5 2972.58 1949.5 3080 1949.5 3187.42 1862.2 3274.5 1754.5 3274.5 1646.8 3274.5 1559.5 3187.42 1559.5 3080Z" stroke="#FFFFFF" stroke-width="4.58333" stroke-miterlimit="8" fill="#181717" fill-rule="evenodd"/><path d="M0 0 0.000360892 195.14" stroke="#FFC000" stroke-width="25.9843" stroke-miterlimit="8" fill="none" fill-rule="evenodd" transform="matrix(6.12323e-17 1 1 -6.12323e-17 1559 3079)"/><path d="M1741 3079C1741 3071.82 1746.82 3066 1754 3066 1761.18 3066 1767 3071.82 1767 3079 1767 3086.18 1761.18 3092 1754 3092 1746.82 3092 1741 3086.18 1741 3079Z" fill="#FFC000" fill-rule="evenodd"/><path d="M1754.5 3482.5C1646.8 3482.5 1559.5 3395.2 1559.5 3287.5 1559.5 3179.8 1646.8 3092.5 1754.5 3092.5 1862.2 3092.5 1949.5 3179.8 1949.5 3287.5 1949.5 3395.2 1862.2 3482.5 1754.5 3482.5Z" stroke="#FFFFFF" stroke-width="4.58333" stroke-miterlimit="8" fill="#181717" fill-rule="evenodd"/><path d="M0 0 194.625 0.000360892" stroke="#70AD47" stroke-width="25.9843" stroke-miterlimit="8" fill="none" fill-rule="evenodd" transform="matrix(1 0 0 -1 1559 3287)"/><path d="M0 0 0.000360892 195.14" stroke="#70AD47" stroke-width="25.9843" stroke-miterlimit="8" fill="none" fill-rule="evenodd" transform="matrix(1 0 0 -1 1754 3482.14)"/><path d="M1754 3300C1746.82 3300 1741 3294.18 1741 3287 1741 3279.82 1746.82 3274 1754 3274 1761.18 3274 1767 3279.82 1767 3287 1767 3294.18 1761.18 3300 1754 3300Z" fill="#70AD47" fill-rule="evenodd"/><path d="M2157.5 3080C2157.5 3187.42 2070.2 3274.5 1962.5 3274.5 1854.8 3274.5 1767.5 3187.42 1767.5 3080 1767.5 2972.58 1854.8 2885.5 1962.5 2885.5 2070.2 2885.5 2157.5 2972.58 2157.5 3080Z" stroke="#FFFFFF" stroke-width="4.58333" stroke-miterlimit="8" fill="#181717" fill-rule="evenodd"/><path d="M0 0 194.625 0.000360892" stroke="#7030A0" stroke-width="25.9843" stroke-miterlimit="8" fill="none" fill-rule="evenodd" transform="matrix(-1.83697e-16 -1 -1 1.83697e-16 1962 3274.62)"/><path d="M0 0 0.000360892 195.14" stroke="#7030A0" stroke-width="25.9843" stroke-miterlimit="8" fill="none" fill-rule="evenodd" transform="matrix(-1.83697e-16 -1 -1 1.83697e-16 2157.14 3079)"/><path d="M1975 3080C1975 3087.18 1969.18 3093 1962 3093 1954.82 3093 1949 3087.18 1949 3080 1949 3072.82 1954.82 3067 1962 3067 1969.18 3067 1975 3072.82 1975 3080Z" fill="#7030A0" fill-rule="evenodd"/><path d="M1962.5 3066.5C1854.8 3066.5 1767.5 2979.42 1767.5 2872 1767.5 2764.58 1854.8 2677.5 1962.5 2677.5 2070.2 2677.5 2157.5 2764.58 2157.5 2872 2157.5 2979.42 2070.2 3066.5 1962.5 3066.5Z" stroke="#FFFFFF" stroke-width="4.58333" stroke-miterlimit="8" fill="#181717" fill-rule="evenodd"/><path d="M0 0 194.625 0.000360892" stroke="#5B9BD5" stroke-width="25.9843" stroke-miterlimit="8" fill="none" fill-rule="evenodd" transform="matrix(1 0 0 -1 1767 2872)"/><path d="M0 0 0.000360892 195.14" stroke="#5B9BD5" stroke-width="25.9843" stroke-miterlimit="8" fill="none" fill-rule="evenodd" transform="matrix(1 0 0 -1 1962 3066.14)"/><path d="M1962 2884C1954.82 2884 1949 2878.18 1949 2871 1949 2863.82 1954.82 2858 1962 2858 1969.18 2858 1975 2863.82 1975 2871 1975 2878.18 1969.18 2884 1962 2884Z" fill="#5B9BD5" fill-rule="evenodd"/><path d="M2404 2885.5C2511.42 2885.5 2598.5 2972.58 2598.5 3080 2598.5 3187.42 2511.42 3274.5 2404 3274.5 2296.58 3274.5 2209.5 3187.42 2209.5 3080 2209.5 2972.58 2296.58 2885.5 2404 2885.5Z" stroke="#FFFFFF" stroke-width="4.58333" stroke-miterlimit="8" fill="#181717" fill-rule="evenodd"/><path d="M0 0 0.000360892 195.14" stroke="#FFC000" stroke-width="25.9843" stroke-miterlimit="8" fill="none" fill-rule="evenodd" transform="matrix(-1 1.22465e-16 1.22465e-16 1 2404 2885)"/><path d="M2404 3067C2411.18 3067 2417 3072.82 2417 3080 2417 3087.18 2411.18 3093 2404 3093 2396.82 3093 2391 3087.18 2391 3080 2391 3072.82 2396.82 3067 2404 3067Z" fill="#FFC000" fill-rule="evenodd"/><path d="M2404 3092.5C2511.42 3092.5 2598.5 3179.8 2598.5 3287.5 2598.5 3395.2 2511.42 3482.5 2404 3482.5 2296.58 3482.5 2209.5 3395.2 2209.5 3287.5 2209.5 3179.8 2296.58 3092.5 2404 3092.5Z" stroke="#FFFFFF" stroke-width="4.58333" stroke-miterlimit="8" fill="#181717" fill-rule="evenodd"/><path d="M0 0 194.625 0.000360892" stroke="#70AD47" stroke-width="25.9843" stroke-miterlimit="8" fill="none" fill-rule="evenodd" transform="matrix(-1 1.22465e-16 1.22465e-16 1 2598.62 3287)"/><path d="M0 0 0.000360892 195.14" stroke="#70AD47" stroke-width="25.9843" stroke-miterlimit="8" fill="none" fill-rule="evenodd" transform="matrix(-1 1.22465e-16 1.22465e-16 1 2404 3092)"/><path d="M2404 3275C2411.18 3275 2417 3280.82 2417 3288 2417 3295.18 2411.18 3301 2404 3301 2396.82 3301 2391 3295.18 2391 3288 2391 3280.82 2396.82 3275 2404 3275Z" fill="#70AD47" fill-rule="evenodd"/><path d="M2612 3274.5C2504.58 3274.5 2417.5 3187.42 2417.5 3080 2417.5 2972.58 2504.58 2885.5 2612 2885.5 2719.42 2885.5 2806.5 2972.58 2806.5 3080 2806.5 3187.42 2719.42 3274.5 2612 3274.5Z" stroke="#FFFFFF" stroke-width="4.58333" stroke-miterlimit="8" fill="#181717" fill-rule="evenodd"/><path d="M0 0 194.625 0.000360892" stroke="#7030A0" stroke-width="25.9843" stroke-miterlimit="8" fill="none" fill-rule="evenodd" transform="matrix(1 0 0 -1 2417 3079)"/><path d="M0 0 0.000360892 195.14" stroke="#7030A0" stroke-width="25.9843" stroke-miterlimit="8" fill="none" fill-rule="evenodd" transform="matrix(1 0 0 -1 2611 3274.14)"/><path d="M2611 3092C2603.82 3092 2598 3086.18 2598 3079 2598 3071.82 2603.82 3066 2611 3066 2618.18 3066 2624 3071.82 2624 3079 2624 3086.18 2618.18 3092 2611 3092Z" fill="#7030A0" fill-rule="evenodd"/><path d="M2612.5 3066.5C2504.8 3066.5 2417.5 2979.42 2417.5 2872 2417.5 2764.58 2504.8 2677.5 2612.5 2677.5 2720.2 2677.5 2807.5 2764.58 2807.5 2872 2807.5 2979.42 2720.2 3066.5 2612.5 3066.5Z" stroke="#FFFFFF" stroke-width="4.58333" stroke-miterlimit="8" fill="#181717" fill-rule="evenodd"/><path d="M0 0 194.625 0.000360892" stroke="#5B9BD5" stroke-width="25.9843" stroke-miterlimit="8" fill="none" fill-rule="evenodd" transform="matrix(1 0 0 -1 2417 2872)"/><path d="M0 0 0.000360892 195.14" stroke="#5B9BD5" stroke-width="25.9843" stroke-miterlimit="8" fill="none" fill-rule="evenodd" transform="matrix(1 0 0 -1 2612 3066.14)"/><path d="M2611 2884C2603.82 2884 2598 2878.18 2598 2871 2598 2863.82 2603.82 2858 2611 2858 2618.18 2858 2624 2863.82 2624 2871 2624 2878.18 2618.18 2884 2611 2884Z" fill="#5B9BD5" fill-rule="evenodd"/><path d="M3053.5 2885.5C3161.2 2885.5 3248.5 2972.58 3248.5 3080 3248.5 3187.42 3161.2 3274.5 3053.5 3274.5 2945.8 3274.5 2858.5 3187.42 2858.5 3080 2858.5 2972.58 2945.8 2885.5 3053.5 2885.5Z" stroke="#FFFFFF" stroke-width="4.58333" stroke-miterlimit="8" fill="#181717" fill-rule="evenodd"/><path d="M0 0 0.000360892 195.14" stroke="#FFC000" stroke-width="25.9843" stroke-miterlimit="8" fill="none" fill-rule="evenodd" transform="matrix(-1 1.22465e-16 1.22465e-16 1 3053 2885)"/><path d="M3053 3067C3060.18 3067 3066 3072.82 3066 3080 3066 3087.18 3060.18 3093 3053 3093 3045.82 3093 3040 3087.18 3040 3080 3040 3072.82 3045.82 3067 3053 3067Z" fill="#FFC000" fill-rule="evenodd"/><path d="M3248.5 3287.5C3248.5 3395.2 3161.2 3482.5 3053.5 3482.5 2945.8 3482.5 2858.5 3395.2 2858.5 3287.5 2858.5 3179.8 2945.8 3092.5 3053.5 3092.5 3161.2 3092.5 3248.5 3179.8 3248.5 3287.5Z" stroke="#FFFFFF" stroke-width="4.58333" stroke-miterlimit="8" fill="#181717" fill-rule="evenodd"/><path d="M0 0 194.625 0.000360892" stroke="#70AD47" stroke-width="25.9843" stroke-miterlimit="8" fill="none" fill-rule="evenodd" transform="matrix(-1.83697e-16 -1 -1 1.83697e-16 3053 3482.62)"/><path d="M0 0 0.000360892 195.14" stroke="#70AD47" stroke-width="25.9843" stroke-miterlimit="8" fill="none" fill-rule="evenodd" transform="matrix(-1.83697e-16 -1 -1 1.83697e-16 3248.14 3287)"/><path d="M3066 3288C3066 3295.18 3060.18 3301 3053 3301 3045.82 3301 3040 3295.18 3040 3288 3040 3280.82 3045.82 3275 3053 3275 3060.18 3275 3066 3280.82 3066 3288Z" fill="#70AD47" fill-rule="evenodd"/><path d="M3261.5 3274.5C3153.8 3274.5 3066.5 3187.42 3066.5 3080 3066.5 2972.58 3153.8 2885.5 3261.5 2885.5 3369.2 2885.5 3456.5 2972.58 3456.5 3080 3456.5 3187.42 3369.2 3274.5 3261.5 3274.5Z" stroke="#FFFFFF" stroke-width="4.58333" stroke-miterlimit="8" fill="#181717" fill-rule="evenodd"/><path d="M0 0 194.625 0.000360892" stroke="#7030A0" stroke-width="25.9843" stroke-miterlimit="8" fill="none" fill-rule="evenodd" transform="matrix(1 0 0 -1 3066 3079)"/><path d="M0 0 0.000360892 195.14" stroke="#7030A0" stroke-width="25.9843" stroke-miterlimit="8" fill="none" fill-rule="evenodd" transform="matrix(1 0 0 -1 3261 3274.14)"/><path d="M3261 3092C3253.82 3092 3248 3086.18 3248 3079 3248 3071.82 3253.82 3066 3261 3066 3268.18 3066 3274 3071.82 3274 3079 3274 3086.18 3268.18 3092 3261 3092Z" fill="#7030A0" fill-rule="evenodd"/><path d="M3261.5 3066.5C3153.8 3066.5 3066.5 2979.42 3066.5 2872 3066.5 2764.58 3153.8 2677.5 3261.5 2677.5 3369.2 2677.5 3456.5 2764.58 3456.5 2872 3456.5 2979.42 3369.2 3066.5 3261.5 3066.5Z" stroke="#FFFFFF" stroke-width="4.58333" stroke-miterlimit="8" fill="#181717" fill-rule="evenodd"/><path d="M0 0 194.625 0.000360892" stroke="#5B9BD5" stroke-width="25.9843" stroke-miterlimit="8" fill="none" fill-rule="evenodd" transform="matrix(1 0 0 -1 3066 2872)"/><path d="M0 0 0.000360892 195.14" stroke="#5B9BD5" stroke-width="25.9843" stroke-miterlimit="8" fill="none" fill-rule="evenodd" transform="matrix(1 0 0 -1 3261 3066.14)"/><path d="M3261 2884C3253.82 2884 3248 2878.18 3248 2871 3248 2863.82 3253.82 2858 3261 2858 3268.18 2858 3274 2863.82 3274 2871 3274 2878.18 3268.18 2884 3261 2884Z" fill="#5B9BD5" fill-rule="evenodd"/><path d="M247 2663 870 2663 870 3495 247 3495ZM439.544 2855.54 439.544 3302.46 677.456 3302.46 677.456 2855.54Z" fill="#7F7F7F" fill-rule="evenodd" fill-opacity="0.901961"/><path d="M896 2663 1520 2663 1520 3495 896 3495ZM1088.85 2855.85 1088.85 3302.15 1327.15 3302.15 1327.15 2855.85Z" fill="#7F7F7F" fill-rule="evenodd" fill-opacity="0.901961"/><path d="M1546 2663 2170 2663 2170 3495 1546 3495ZM1738.85 2855.85 1738.85 3302.15 1977.15 3302.15 1977.15 2855.85Z" fill="#7F7F7F" fill-rule="evenodd" fill-opacity="0.901961"/><path d="M2196 2663 2819 2663 2819 3495 2196 3495ZM2388.54 2855.54 2388.54 3302.46 2626.46 3302.46 2626.46 2855.54Z" fill="#7F7F7F" fill-rule="evenodd" fill-opacity="0.901961"/><path d="M2845 2663 3469 2663 3469 3495 2845 3495ZM3037.85 2855.85 3037.85 3302.15 3276.15 3302.15 3276.15 2855.85Z" fill="#7F7F7F" fill-rule="evenodd" fill-opacity="0.901961"/><text fill="#5B9BD5" font-family="Bahnschrift,Bahnschrift_MSFontService,sans-serif" font-weight="400" font-size="46" transform="matrix(1 0 0 1 287.349 3468)">C1P0<tspan fill="#000000" font-size="46" x="97.3959" y="0">-</tspan><tspan fill="#FFC000" font-size="46" x="119.167" y="0">C2P0</tspan><tspan fill="#000000" font-size="46" x="224.583" y="0">-</tspan><tspan fill="#7030A0" font-size="46" x="246.354" y="0">C3P90</tspan><tspan fill="#000000" font-size="46" x="375.833" y="0">-</tspan><tspan fill="#70AD47" font-size="46" x="397.604" y="0">C4P90</tspan><tspan font-size="46" x="634.101" y="0">C1P0</tspan><tspan fill="#000000" font-size="46" x="731.497" y="0">-</tspan><tspan fill="#FFC000" font-size="46" x="753.268" y="0">C2P0</tspan><tspan fill="#000000" font-size="46" x="858.685" y="0">-</tspan><tspan fill="#7030A0" font-size="46" x="880.456" y="0">C3P90</tspan><tspan fill="#000000" font-size="46" x="1009.93" y="0">-</tspan><tspan fill="#70AD47" font-size="46" x="1031.71" y="0">C4P180</tspan><tspan font-size="46" x="1284.95" y="0">C1P90</tspan><tspan fill="#000000" font-size="46" x="1405.84" y="0">-</tspan><tspan fill="#FFC000" font-size="46" x="1427.61" y="0">C2P90</tspan><tspan fill="#000000" font-size="46" x="1556.52" y="0">-</tspan><tspan fill="#7030A0" font-size="46" x="1578.29" y="0">C3P180</tspan><tspan fill="#000000" font-size="46" x="1725.53" y="0">-</tspan><tspan fill="#70AD47" font-size="46" x="1747.3" y="0">C4P0</tspan><tspan font-size="46" x="1934.56" y="0">C1P90</tspan><tspan fill="#000000" font-size="46" x="2055.45" y="0">-</tspan><tspan fill="#FFC000" font-size="46" x="2077.22" y="0">C2P0</tspan><tspan fill="#000000" font-size="46" x="2182.63" y="0">-</tspan><tspan fill="#7030A0" font-size="46" x="2204.41" y="0">C3P90</tspan><tspan fill="#000000" font-size="46" x="2333.88" y="0">-</tspan><tspan fill="#70AD47" font-size="46" x="2355.66" y="0">C4P180</tspan><tspan font-size="46" x="2593.05" y="0">C1P90</tspan><tspan fill="#000000" font-size="46" x="2713.93" y="0">-</tspan><tspan fill="#FFC000" font-size="46" x="2735.7" y="0">C2P0</tspan><tspan fill="#000000" font-size="46" x="2841.12" y="0">-</tspan><tspan fill="#7030A0" font-size="46" x="2862.89" y="0">C3P90</tspan><tspan fill="#000000" font-size="46" x="2992.37" y="0">-</tspan><tspan fill="#70AD47" font-size="46" x="3014.14" y="0">C4P90</tspan></text></g></svg>