<svg width="2338" height="1040" xmlns="http://www.w3.org/2000/svg" xmlns:xlink="http://www.w3.org/1999/xlink" overflow="hidden"><defs><clipPath id="clip0"><rect x="533" y="1299" width="2338" height="1040"/></clipPath></defs><g clip-path="url(#clip0)" transform="translate(-533 -1299)"><rect x="0" y="0" width="155.924" height="415.748" fill="#404040" transform="matrix(0.707107 -0.707107 -0.707107 -0.707107 1099.15 1976.28)"/><rect x="0" y="0" width="155.924" height="285.827" fill="#262626" transform="matrix(0.707107 -0.707107 -0.707107 -0.707107 1053.22 1930.34)"/><path d="M0 19.4882C-2.48141e-15 8.72516 8.72621-2.48111e-15 19.4905-4.96221e-15 30.2549-9.92443e-15 38.9811 8.72516 38.9811 19.4882 38.9811 30.2512 30.2549 38.9764 19.4905 38.9764 8.72621 38.9764-1.2407e-14 30.2512 0 19.4882Z" fill-rule="evenodd" transform="matrix(0.707107 -0.707107 -0.707107 -0.707107 1131.11 1925.56)"/><path d="M0 19.4882C-2.48141e-15 8.72516 8.72621-2.48111e-15 19.4905-4.96221e-15 30.2549-9.92443e-15 38.9811 8.72516 38.9811 19.4882 38.9811 30.2512 30.2549 38.9764 19.4905 38.9764 8.72621 38.9764-1.2407e-14 30.2512 0 19.4882Z" fill-rule="evenodd" transform="matrix(0.707107 -0.707107 -0.707107 -0.707107 883.265 1677.69)"/><rect x="0" y="0" width="12.9936" height="32.4803" transform="matrix(0.707107 -0.707107 -0.707107 -0.707107 1149.68 1925.76)"/><rect x="0" y="0" width="12.9936" height="32.4803" transform="matrix(0.707107 -0.707107 -0.707107 -0.707107 878.673 1654.72)"/><path d="M0 77.9528C-9.9256e-15 34.9006 34.9048-9.92443e-15 77.962-1.98489e-14 121.019-3.96977e-14 155.924 34.9006 155.924 77.9528 155.924 121.005 121.019 155.906 77.962 155.906 34.9048 155.906-4.9628e-14 121.005 0 77.9528Z" fill="#0D0D0D" fill-rule="evenodd" transform="matrix(0.707107 -0.707107 -0.707107 -0.707107 1053.22 1930.35)"/><path d="M0 32C-4.13768e-15 14.3269 14.5507-4.07402e-15 32.5-8.14805e-15 50.4492-1.62961e-14 65 14.3269 65 32 65 49.6731 50.4492 63.9999 32.5 63.9999 14.5507 63.9999-2.06884e-14 49.6731 0 32Z" fill="#3B3838" fill-rule="evenodd" transform="matrix(1 0 0 -1 1020 1851)"/><rect x="0" y="0" width="155.924" height="415.748" fill="#404040" transform="matrix(-0.707107 0.707107 0.707107 0.707107 746.53 1924.17)"/><rect x="0" y="0" width="155.924" height="285.827" fill="#262626" transform="matrix(-0.707107 0.707107 0.707107 0.707107 792.464 1970.11)"/><path d="M0 19.4882C-2.48141e-15 8.72516 8.72621-2.48111e-15 19.4905-4.96221e-15 30.2549-9.92443e-15 38.9811 8.72516 38.9811 19.4882 38.9811 30.2512 30.2549 38.9764 19.4905 38.9764 8.72621 38.9764-1.2407e-14 30.2512 0 19.4882Z" fill-rule="evenodd" transform="matrix(-0.707107 0.707107 0.707107 0.707107 714.571 1974.89)"/><path d="M0 19.4882C-2.48141e-15 8.72516 8.72621-2.48111e-15 19.4905-4.96221e-15 30.2549-9.92443e-15 38.9811 8.72516 38.9811 19.4882 38.9811 30.2512 30.2549 38.9764 19.4905 38.9764 8.72621 38.9764-1.2407e-14 30.2512 0 19.4882Z" fill-rule="evenodd" transform="matrix(-0.707107 0.707107 0.707107 0.707107 962.416 2222.76)"/><rect x="0" y="0" width="12.9936" height="32.4803" transform="matrix(-0.707107 0.707107 0.707107 0.707107 695.996 1974.69)"/><rect x="0" y="0" width="12.9936" height="32.4803" transform="matrix(-0.707107 0.707107 0.707107 0.707107 967.008 2245.73)"/><path d="M0 77.9528C-9.9256e-15 34.9006 34.9048-9.92443e-15 77.962-1.98489e-14 121.019-3.96977e-14 155.924 34.9006 155.924 77.9528 155.924 121.005 121.019 155.906 77.962 155.906 34.9048 155.906-4.9628e-14 121.005 0 77.9528Z" fill="#0D0D0D" fill-rule="evenodd" transform="matrix(-0.707107 0.707107 0.707107 0.707107 792.464 1970.1)"/><path d="M0 32.5C-4.13768e-15 14.5507 14.5507-4.13768e-15 32.5-8.27536e-15 50.4492-1.65507e-14 65 14.5507 65 32.5 65 50.4492 50.4492 65 32.5 65 14.5507 65-2.06884e-14 50.4492 0 32.5Z" fill="#3B3838" fill-rule="evenodd" transform="matrix(1 0 0 -1 760 2111)"/><rect x="0" y="0" width="155.924" height="415.748" fill="#404040" transform="matrix(-0.707107 0.707107 0.707107 0.707107 746.53 1664.3)"/><rect x="0" y="0" width="155.924" height="285.827" fill="#262626" transform="matrix(-0.707107 0.707107 0.707107 0.707107 792.464 1710.23)"/><path d="M0 19.4882C-2.48141e-15 8.72516 8.72621-2.48111e-15 19.4905-4.96221e-15 30.2549-9.92443e-15 38.9811 8.72516 38.9811 19.4882 38.9811 30.2512 30.2549 38.9764 19.4905 38.9764 8.72621 38.9764-1.2407e-14 30.2512 0 19.4882Z" fill-rule="evenodd" transform="matrix(-0.707107 0.707107 0.707107 0.707107 714.571 1715.02)"/><path d="M0 19.4882C-2.48141e-15 8.72516 8.72621-2.48111e-15 19.4905-4.96221e-15 30.2549-9.92443e-15 38.9811 8.72516 38.9811 19.4882 38.9811 30.2512 30.2549 38.9764 19.4905 38.9764 8.72621 38.9764-1.2407e-14 30.2512 0 19.4882Z" fill-rule="evenodd" transform="matrix(-0.707107 0.707107 0.707107 0.707107 962.416 1962.89)"/><rect x="0" y="0" width="12.9936" height="32.4803" transform="matrix(-0.707107 0.707107 0.707107 0.707107 695.996 1714.82)"/><rect x="0" y="0" width="12.9936" height="32.4803" transform="matrix(-0.707107 0.707107 0.707107 0.707107 967.008 1985.86)"/><path d="M0 77.9528C-9.9256e-15 34.9006 34.9048-9.92443e-15 77.962-1.98489e-14 121.019-3.96977e-14 155.924 34.9006 155.924 77.9528 155.924 121.005 121.019 155.906 77.962 155.906 34.9048 155.906-4.9628e-14 121.005 0 77.9528Z" fill="#0D0D0D" fill-rule="evenodd" transform="matrix(-0.707107 0.707107 0.707107 0.707107 792.464 1710.23)"/><path d="M0 32C-4.13768e-15 14.3269 14.5507-4.07402e-15 32.5-8.14805e-15 50.4492-1.62961e-14 65 14.3269 65 32 65 49.6731 50.4492 63.9999 32.5 63.9999 14.5507 63.9999-2.06884e-14 49.6731 0 32Z" fill="#3B3838" fill-rule="evenodd" transform="matrix(1 0 0 -1 760 1851)"/><rect x="0" y="0" width="155.924" height="415.748" fill="#404040" transform="matrix(0.707107 -0.707107 -0.707107 -0.707107 1099.15 1716.4)"/><rect x="0" y="0" width="155.924" height="285.827" fill="#262626" transform="matrix(0.707107 -0.707107 -0.707107 -0.707107 1053.22 1670.47)"/><path d="M0 19.4882C-2.48141e-15 8.72516 8.72621-2.48111e-15 19.4905-4.96221e-15 30.2549-9.92443e-15 38.9811 8.72516 38.9811 19.4882 38.9811 30.2512 30.2549 38.9764 19.4905 38.9764 8.72621 38.9764-1.2407e-14 30.2512 0 19.4882Z" fill-rule="evenodd" transform="matrix(0.707107 -0.707107 -0.707107 -0.707107 1131.11 1665.69)"/><path d="M0 19.4882C-2.48141e-15 8.72516 8.72621-2.48111e-15 19.4905-4.96221e-15 30.2549-9.92443e-15 38.9811 8.72516 38.9811 19.4882 38.9811 30.2512 30.2549 38.9764 19.4905 38.9764 8.72621 38.9764-1.2407e-14 30.2512 0 19.4882Z" fill-rule="evenodd" transform="matrix(0.707107 -0.707107 -0.707107 -0.707107 883.266 1417.81)"/><rect x="0" y="0" width="12.9936" height="32.4803" transform="matrix(0.707107 -0.707107 -0.707107 -0.707107 1149.68 1665.89)"/><rect x="0" y="0" width="12.9936" height="32.4803" transform="matrix(0.707107 -0.707107 -0.707107 -0.707107 878.673 1394.84)"/><path d="M0 77.9528C-9.9256e-15 34.9006 34.9048-9.92443e-15 77.962-1.98489e-14 121.019-3.96977e-14 155.924 34.9006 155.924 77.9528 155.924 121.005 121.019 155.906 77.962 155.906 34.9048 155.906-4.9628e-14 121.005 0 77.9528Z" fill="#0D0D0D" fill-rule="evenodd" transform="matrix(0.707107 -0.707107 -0.707107 -0.707107 1053.22 1670.48)"/><path d="M0 32.5C-4.13768e-15 14.5507 14.5507-4.13768e-15 32.5-8.27536e-15 50.4492-1.65507e-14 65 14.5507 65 32.5 65 50.4492 50.4492 65 32.5 65 14.5507 65-2.06884e-14 50.4492 0 32.5Z" fill="#3B3838" fill-rule="evenodd" transform="matrix(1 0 0 -1 1021 1592)"/><rect x="0" y="0" width="155.924" height="415.748" fill="#404040" transform="matrix(0.707107 -0.707107 -0.707107 -0.707107 1618.84 1976.28)"/><rect x="0" y="0" width="155.924" height="285.827" fill="#262626" transform="matrix(0.707107 -0.707107 -0.707107 -0.707107 1572.9 1930.34)"/><path d="M0 19.4882C-2.48141e-15 8.72516 8.72621-2.48111e-15 19.4905-4.96221e-15 30.2549-9.92443e-15 38.9811 8.72516 38.9811 19.4882 38.9811 30.2512 30.2549 38.9764 19.4905 38.9764 8.72621 38.9764-1.2407e-14 30.2512 0 19.4882Z" fill-rule="evenodd" transform="matrix(0.707107 -0.707107 -0.707107 -0.707107 1650.79 1925.56)"/><path d="M0 19.4882C-2.48141e-15 8.72516 8.72621-2.48111e-15 19.4905-4.96221e-15 30.2549-9.92443e-15 38.9811 8.72516 38.9811 19.4882 38.9811 30.2512 30.2549 38.9764 19.4905 38.9764 8.72621 38.9764-1.2407e-14 30.2512 0 19.4882Z" fill-rule="evenodd" transform="matrix(0.707107 -0.707107 -0.707107 -0.707107 1402.95 1677.69)"/><rect x="0" y="0" width="12.9936" height="32.4803" transform="matrix(0.707107 -0.707107 -0.707107 -0.707107 1669.37 1925.76)"/><rect x="0" y="0" width="12.9936" height="32.4803" transform="matrix(0.707107 -0.707107 -0.707107 -0.707107 1398.36 1654.72)"/><path d="M0 77.9528C-9.9256e-15 34.9006 34.9048-9.92443e-15 77.962-1.98489e-14 121.019-3.96977e-14 155.924 34.9006 155.924 77.9528 155.924 121.005 121.019 155.906 77.962 155.906 34.9048 155.906-4.9628e-14 121.005 0 77.9528Z" fill="#0D0D0D" fill-rule="evenodd" transform="matrix(0.707107 -0.707107 -0.707107 -0.707107 1572.9 1930.35)"/><path d="M0 32C-4.13768e-15 14.3269 14.5507-4.07402e-15 32.5-8.14805e-15 50.4492-1.62961e-14 65 14.3269 65 32 65 49.6731 50.4492 63.9999 32.5 63.9999 14.5507 63.9999-2.06884e-14 49.6731 0 32Z" fill="#3B3838" fill-rule="evenodd" transform="matrix(1 0 0 -1 1540 1851)"/><rect x="0" y="0" width="155.924" height="415.748" fill="#404040" transform="matrix(-0.707107 0.707107 0.707107 0.707107 1266.21 1924.17)"/><rect x="0" y="0" width="155.924" height="285.827" fill="#262626" transform="matrix(-0.707107 0.707107 0.707107 0.707107 1312.15 1970.11)"/><path d="M0 19.4882C-2.48141e-15 8.72516 8.72621-2.48111e-15 19.4905-4.96221e-15 30.2549-9.92443e-15 38.9811 8.72516 38.9811 19.4882 38.9811 30.2512 30.2549 38.9764 19.4905 38.9764 8.72621 38.9764-1.2407e-14 30.2512 0 19.4882Z" fill-rule="evenodd" transform="matrix(-0.707107 0.707107 0.707107 0.707107 1234.26 1974.89)"/><path d="M0 19.4882C-2.48141e-15 8.72516 8.72621-2.48111e-15 19.4905-4.96221e-15 30.2549-9.92443e-15 38.9811 8.72516 38.9811 19.4882 38.9811 30.2512 30.2549 38.9764 19.4905 38.9764 8.72621 38.9764-1.2407e-14 30.2512 0 19.4882Z" fill-rule="evenodd" transform="matrix(-0.707107 0.707107 0.707107 0.707107 1482.1 2222.76)"/><rect x="0" y="0" width="12.9936" height="32.4803" transform="matrix(-0.707107 0.707107 0.707107 0.707107 1215.68 1974.69)"/><rect x="0" y="0" width="12.9936" height="32.4803" transform="matrix(-0.707107 0.707107 0.707107 0.707107 1486.69 2245.73)"/><path d="M0 77.9528C-9.9256e-15 34.9006 34.9048-9.92443e-15 77.962-1.98489e-14 121.019-3.96977e-14 155.924 34.9006 155.924 77.9528 155.924 121.005 121.019 155.906 77.962 155.906 34.9048 155.906-4.9628e-14 121.005 0 77.9528Z" fill="#0D0D0D" fill-rule="evenodd" transform="matrix(-0.707107 0.707107 0.707107 0.707107 1312.15 1970.1)"/><path d="M0 32.5C-4.13768e-15 14.5507 14.5507-4.13768e-15 32.5-8.27536e-15 50.4492-1.65507e-14 65 14.5507 65 32.5 65 50.4492 50.4492 65 32.5 65 14.5507 65-2.06884e-14 50.4492 0 32.5Z" fill="#3B3838" fill-rule="evenodd" transform="matrix(1 0 0 -1 1280 2111)"/><rect x="0" y="0" width="155.924" height="415.748" fill="#404040" transform="matrix(-0.707107 0.707107 0.707107 0.707107 1266.21 1664.3)"/><rect x="0" y="0" width="155.924" height="285.827" fill="#262626" transform="matrix(-0.707107 0.707107 0.707107 0.707107 1312.15 1710.23)"/><path d="M0 19.4882C-2.48141e-15 8.72516 8.72621-2.48111e-15 19.4905-4.96221e-15 30.2549-9.92443e-15 38.9811 8.72516 38.9811 19.4882 38.9811 30.2512 30.2549 38.9764 19.4905 38.9764 8.72621 38.9764-1.2407e-14 30.2512 0 19.4882Z" fill-rule="evenodd" transform="matrix(-0.707107 0.707107 0.707107 0.707107 1234.26 1715.02)"/><path d="M0 19.4882C-2.48141e-15 8.72516 8.72621-2.48111e-15 19.4905-4.96221e-15 30.2549-9.92443e-15 38.9811 8.72516 38.9811 19.4882 38.9811 30.2512 30.2549 38.9764 19.4905 38.9764 8.72621 38.9764-1.2407e-14 30.2512 0 19.4882Z" fill-rule="evenodd" transform="matrix(-0.707107 0.707107 0.707107 0.707107 1482.1 1962.89)"/><rect x="0" y="0" width="12.9936" height="32.4803" transform="matrix(-0.707107 0.707107 0.707107 0.707107 1215.68 1714.82)"/><rect x="0" y="0" width="12.9936" height="32.4803" transform="matrix(-0.707107 0.707107 0.707107 0.707107 1486.69 1985.86)"/><path d="M0 77.9528C-9.9256e-15 34.9006 34.9048-9.92443e-15 77.962-1.98489e-14 121.019-3.96977e-14 155.924 34.9006 155.924 77.9528 155.924 121.005 121.019 155.906 77.962 155.906 34.9048 155.906-4.9628e-14 121.005 0 77.9528Z" fill="#0D0D0D" fill-rule="evenodd" transform="matrix(-0.707107 0.707107 0.707107 0.707107 1312.15 1710.23)"/><path d="M0 32C-4.13768e-15 14.3269 14.5507-4.07402e-15 32.5-8.14805e-15 50.4492-1.62961e-14 65 14.3269 65 32 65 49.6731 50.4492 63.9999 32.5 63.9999 14.5507 63.9999-2.06884e-14 49.6731 0 32Z" fill="#3B3838" fill-rule="evenodd" transform="matrix(1 0 0 -1 1280 1851)"/><rect x="0" y="0" width="155.924" height="415.748" fill="#404040" transform="matrix(0.707107 -0.707107 -0.707107 -0.707107 1618.84 1716.4)"/><rect x="0" y="0" width="155.924" height="285.827" fill="#262626" transform="matrix(0.707107 -0.707107 -0.707107 -0.707107 1572.9 1670.47)"/><path d="M0 19.4882C-2.48141e-15 8.72516 8.72621-2.48111e-15 19.4905-4.96221e-15 30.2549-9.92443e-15 38.9811 8.72516 38.9811 19.4882 38.9811 30.2512 30.2549 38.9764 19.4905 38.9764 8.72621 38.9764-1.2407e-14 30.2512 0 19.4882Z" fill-rule="evenodd" transform="matrix(0.707107 -0.707107 -0.707107 -0.707107 1650.8 1665.69)"/><path d="M0 19.4882C-2.48141e-15 8.72516 8.72621-2.48111e-15 19.4905-4.96221e-15 30.2549-9.92443e-15 38.9811 8.72516 38.9811 19.4882 38.9811 30.2512 30.2549 38.9764 19.4905 38.9764 8.72621 38.9764-1.2407e-14 30.2512 0 19.4882Z" fill-rule="evenodd" transform="matrix(0.707107 -0.707107 -0.707107 -0.707107 1402.95 1417.81)"/><rect x="0" y="0" width="12.9936" height="32.4803" transform="matrix(0.707107 -0.707107 -0.707107 -0.707107 1669.37 1665.89)"/><rect x="0" y="0" width="12.9936" height="32.4803" transform="matrix(0.707107 -0.707107 -0.707107 -0.707107 1398.36 1394.84)"/><path d="M0 77.9528C-9.9256e-15 34.9006 34.9048-9.92443e-15 77.962-1.98489e-14 121.019-3.96977e-14 155.924 34.9006 155.924 77.9528 155.924 121.005 121.019 155.906 77.962 155.906 34.9048 155.906-4.9628e-14 121.005 0 77.9528Z" fill="#0D0D0D" fill-rule="evenodd" transform="matrix(0.707107 -0.707107 -0.707107 -0.707107 1572.9 1670.48)"/><path d="M0 32.5C-4.13768e-15 14.5507 14.5507-4.13768e-15 32.5-8.27536e-15 50.4492-1.65507e-14 65 14.5507 65 32.5 65 50.4492 50.4492 65 32.5 65 14.5507 65-2.06884e-14 50.4492 0 32.5Z" fill="#3B3838" fill-rule="evenodd" transform="matrix(1 0 0 -1 1540 1592)"/><rect x="0" y="0" width="155.924" height="415.748" fill="#404040" transform="matrix(0.707107 -0.707107 -0.707107 -0.707107 2138.52 1975.57)"/><rect x="0" y="0" width="155.924" height="285.827" fill="#262626" transform="matrix(0.707107 -0.707107 -0.707107 -0.707107 2092.59 1929.64)"/><path d="M0 19.4882C-2.48141e-15 8.72516 8.72621-2.48111e-15 19.4905-4.96221e-15 30.2549-9.92443e-15 38.9811 8.72516 38.9811 19.4882 38.9811 30.2512 30.2549 38.9764 19.4905 38.9764 8.72621 38.9764-1.2407e-14 30.2512 0 19.4882Z" fill-rule="evenodd" transform="matrix(0.707107 -0.707107 -0.707107 -0.707107 2170.48 1924.85)"/><path d="M0 19.4882C-2.48141e-15 8.72516 8.72621-2.48111e-15 19.4905-4.96221e-15 30.2549-9.92443e-15 38.9811 8.72516 38.9811 19.4882 38.9811 30.2512 30.2549 38.9764 19.4905 38.9764 8.72621 38.9764-1.2407e-14 30.2512 0 19.4882Z" fill-rule="evenodd" transform="matrix(0.707107 -0.707107 -0.707107 -0.707107 1922.64 1676.98)"/><rect x="0" y="0" width="12.9936" height="32.4803" transform="matrix(0.707107 -0.707107 -0.707107 -0.707107 2189.05 1925.05)"/><rect x="0" y="0" width="12.9936" height="32.4803" transform="matrix(0.707107 -0.707107 -0.707107 -0.707107 1918.04 1654.01)"/><path d="M0 77.9528C-9.9256e-15 34.9006 34.9048-9.92443e-15 77.962-1.98489e-14 121.019-3.96977e-14 155.924 34.9006 155.924 77.9528 155.924 121.005 121.019 155.906 77.962 155.906 34.9048 155.906-4.9628e-14 121.005 0 77.9528Z" fill="#0D0D0D" fill-rule="evenodd" transform="matrix(0.707107 -0.707107 -0.707107 -0.707107 2092.59 1929.64)"/><path d="M0 32.5C-4.13768e-15 14.5507 14.5507-4.13768e-15 32.5-8.27536e-15 50.4492-1.65507e-14 65 14.5507 65 32.5 65 50.4492 50.4492 65 32.5 65 14.5507 65-2.06884e-14 50.4492 0 32.5Z" fill="#3B3838" fill-rule="evenodd" transform="matrix(1 0 0 -1 2060 1851)"/><rect x="0" y="0" width="155.924" height="415.748" fill="#404040" transform="matrix(-0.707107 0.707107 0.707107 0.707107 1785.9 1923.47)"/><rect x="0" y="0" width="155.924" height="285.827" fill="#262626" transform="matrix(-0.707107 0.707107 0.707107 0.707107 1831.83 1969.4)"/><path d="M0 19.4882C-2.48141e-15 8.72516 8.72621-2.48111e-15 19.4905-4.96221e-15 30.2549-9.92443e-15 38.9811 8.72516 38.9811 19.4882 38.9811 30.2512 30.2549 38.9764 19.4905 38.9764 8.72621 38.9764-1.2407e-14 30.2512 0 19.4882Z" fill-rule="evenodd" transform="matrix(-0.707107 0.707107 0.707107 0.707107 1753.94 1974.18)"/><path d="M0 19.4882C-2.48141e-15 8.72516 8.72621-2.48111e-15 19.4905-4.96221e-15 30.2549-9.92443e-15 38.9811 8.72516 38.9811 19.4882 38.9811 30.2512 30.2549 38.9764 19.4905 38.9764 8.72621 38.9764-1.2407e-14 30.2512 0 19.4882Z" fill-rule="evenodd" transform="matrix(-0.707107 0.707107 0.707107 0.707107 2001.79 2222.06)"/><rect x="0" y="0" width="12.9936" height="32.4803" transform="matrix(-0.707107 0.707107 0.707107 0.707107 1735.37 1973.98)"/><rect x="0" y="0" width="12.9936" height="32.4803" transform="matrix(-0.707107 0.707107 0.707107 0.707107 2006.38 2245.03)"/><path d="M0 77.9528C-9.9256e-15 34.9006 34.9048-9.92443e-15 77.962-1.98489e-14 121.019-3.96977e-14 155.924 34.9006 155.924 77.9528 155.924 121.005 121.019 155.906 77.962 155.906 34.9048 155.906-4.9628e-14 121.005 0 77.9528Z" fill="#0D0D0D" fill-rule="evenodd" transform="matrix(-0.707107 0.707107 0.707107 0.707107 1831.83 1969.4)"/><path d="M0 32.5C-4.13768e-15 14.5507 14.5507-4.13768e-15 32.5-8.27536e-15 50.4492-1.65507e-14 65 14.5507 65 32.5 65 50.4492 50.4492 65 32.5 65 14.5507 65-2.06884e-14 50.4492 0 32.5Z" fill="#3B3838" fill-rule="evenodd" transform="matrix(1 0 0 -1 1800 2111)"/><rect x="0" y="0" width="155.924" height="415.748" fill="#404040" transform="matrix(-0.707107 0.707107 0.707107 0.707107 1785.9 1663.59)"/><rect x="0" y="0" width="155.924" height="285.827" fill="#262626" transform="matrix(-0.707107 0.707107 0.707107 0.707107 1831.83 1709.53)"/><path d="M0 19.4882C-2.48141e-15 8.72516 8.72621-2.48111e-15 19.4905-4.96221e-15 30.2549-9.92443e-15 38.9811 8.72516 38.9811 19.4882 38.9811 30.2512 30.2549 38.9764 19.4905 38.9764 8.72621 38.9764-1.2407e-14 30.2512 0 19.4882Z" fill-rule="evenodd" transform="matrix(-0.707107 0.707107 0.707107 0.707107 1753.94 1714.31)"/><path d="M0 19.4882C-2.48141e-15 8.72516 8.72621-2.48111e-15 19.4905-4.96221e-15 30.2549-9.92443e-15 38.9811 8.72516 38.9811 19.4882 38.9811 30.2512 30.2549 38.9764 19.4905 38.9764 8.72621 38.9764-1.2407e-14 30.2512 0 19.4882Z" fill-rule="evenodd" transform="matrix(-0.707107 0.707107 0.707107 0.707107 2001.79 1962.18)"/><rect x="0" y="0" width="12.9936" height="32.4803" transform="matrix(-0.707107 0.707107 0.707107 0.707107 1735.37 1714.11)"/><rect x="0" y="0" width="12.9936" height="32.4803" transform="matrix(-0.707107 0.707107 0.707107 0.707107 2006.38 1985.15)"/><path d="M0 77.9528C-9.9256e-15 34.9006 34.9048-9.92443e-15 77.962-1.98489e-14 121.019-3.96977e-14 155.924 34.9006 155.924 77.9528 155.924 121.005 121.019 155.906 77.962 155.906 34.9048 155.906-4.9628e-14 121.005 0 77.9528Z" fill="#0D0D0D" fill-rule="evenodd" transform="matrix(-0.707107 0.707107 0.707107 0.707107 1831.83 1709.52)"/><path d="M0 32.5C-4.13768e-15 14.5507 14.5507-4.13768e-15 32.5-8.27536e-15 50.4492-1.65507e-14 65 14.5507 65 32.5 65 50.4492 50.4492 65 32.5 65 14.5507 65-2.06884e-14 50.4492 0 32.5Z" fill="#3B3838" fill-rule="evenodd" transform="matrix(1 0 0 -1 1800 1851)"/><rect x="0" y="0" width="155.924" height="415.748" fill="#404040" transform="matrix(0.707107 -0.707107 -0.707107 -0.707107 2138.52 1715.7)"/><rect x="0" y="0" width="155.924" height="285.827" fill="#262626" transform="matrix(0.707107 -0.707107 -0.707107 -0.707107 2092.59 1669.77)"/><path d="M0 19.4882C-2.48141e-15 8.72516 8.72621-2.48111e-15 19.4905-4.96221e-15 30.2549-9.92443e-15 38.9811 8.72516 38.9811 19.4882 38.9811 30.2512 30.2549 38.9764 19.4905 38.9764 8.72621 38.9764-1.2407e-14 30.2512 0 19.4882Z" fill-rule="evenodd" transform="matrix(0.707107 -0.707107 -0.707107 -0.707107 2170.48 1664.98)"/><path d="M0 19.4882C-2.48141e-15 8.72516 8.72621-2.48111e-15 19.4905-4.96221e-15 30.2549-9.92443e-15 38.9811 8.72516 38.9811 19.4882 38.9811 30.2512 30.2549 38.9764 19.4905 38.9764 8.72621 38.9764-1.2407e-14 30.2512 0 19.4882Z" fill-rule="evenodd" transform="matrix(0.707107 -0.707107 -0.707107 -0.707107 1922.64 1417.11)"/><rect x="0" y="0" width="12.9936" height="32.4803" transform="matrix(0.707107 -0.707107 -0.707107 -0.707107 2189.05 1665.18)"/><rect x="0" y="0" width="12.9936" height="32.4803" transform="matrix(0.707107 -0.707107 -0.707107 -0.707107 1918.04 1394.14)"/><path d="M0 77.9528C-9.9256e-15 34.9006 34.9048-9.92443e-15 77.962-1.98489e-14 121.019-3.96977e-14 155.924 34.9006 155.924 77.9528 155.924 121.005 121.019 155.906 77.962 155.906 34.9048 155.906-4.9628e-14 121.005 0 77.9528Z" fill="#0D0D0D" fill-rule="evenodd" transform="matrix(0.707107 -0.707107 -0.707107 -0.707107 2092.59 1669.77)"/><path d="M0 32.5C-4.13768e-15 14.5507 14.5507-4.13768e-15 32.5-8.27536e-15 50.4492-1.65507e-14 65 14.5507 65 32.5 65 50.4492 50.4492 65 32.5 65 14.5507 65-2.06884e-14 50.4492 0 32.5Z" fill="#3B3838" fill-rule="evenodd" transform="matrix(1 0 0 -1 2060 1591)"/><rect x="0" y="0" width="155.924" height="415.748" fill="#404040" transform="matrix(0.707107 -0.707107 -0.707107 -0.707107 2658.21 1975.57)"/><rect x="0" y="0" width="155.924" height="285.827" fill="#262626" transform="matrix(0.707107 -0.707107 -0.707107 -0.707107 2612.27 1929.64)"/><path d="M0 19.4882C-2.48141e-15 8.72516 8.72621-2.48111e-15 19.4905-4.96221e-15 30.2549-9.92443e-15 38.9811 8.72516 38.9811 19.4882 38.9811 30.2512 30.2549 38.9764 19.4905 38.9764 8.72621 38.9764-1.2407e-14 30.2512 0 19.4882Z" fill-rule="evenodd" transform="matrix(0.707107 -0.707107 -0.707107 -0.707107 2690.16 1924.85)"/><path d="M0 19.4882C-2.48141e-15 8.72516 8.72621-2.48111e-15 19.4905-4.96221e-15 30.2549-9.92443e-15 38.9811 8.72516 38.9811 19.4882 38.9811 30.2512 30.2549 38.9764 19.4905 38.9764 8.72621 38.9764-1.2407e-14 30.2512 0 19.4882Z" fill-rule="evenodd" transform="matrix(0.707107 -0.707107 -0.707107 -0.707107 2442.32 1676.98)"/><rect x="0" y="0" width="12.9936" height="32.4803" transform="matrix(0.707107 -0.707107 -0.707107 -0.707107 2708.74 1925.05)"/><rect x="0" y="0" width="12.9936" height="32.4803" transform="matrix(0.707107 -0.707107 -0.707107 -0.707107 2437.73 1654.01)"/><path d="M0 77.9528C-9.9256e-15 34.9006 34.9048-9.92443e-15 77.962-1.98489e-14 121.019-3.96977e-14 155.924 34.9006 155.924 77.9528 155.924 121.005 121.019 155.906 77.962 155.906 34.9048 155.906-4.9628e-14 121.005 0 77.9528Z" fill="#0D0D0D" fill-rule="evenodd" transform="matrix(0.707107 -0.707107 -0.707107 -0.707107 2612.27 1929.64)"/><path d="M0 32.5C-4.13768e-15 14.5507 14.5507-4.13768e-15 32.5-8.27536e-15 50.4492-1.65507e-14 65 14.5507 65 32.5 65 50.4492 50.4492 65 32.5 65 14.5507 65-2.06884e-14 50.4492 0 32.5Z" fill="#3B3838" fill-rule="evenodd" transform="matrix(1 0 0 -1 2579 1851)"/><rect x="0" y="0" width="155.924" height="415.748" fill="#404040" transform="matrix(-0.707107 0.707107 0.707107 0.707107 2305.58 1923.47)"/><rect x="0" y="0" width="155.924" height="285.827" fill="#262626" transform="matrix(-0.707107 0.707107 0.707107 0.707107 2351.52 1969.4)"/><path d="M0 19.4882C-2.48141e-15 8.72516 8.72621-2.48111e-15 19.4905-4.96221e-15 30.2549-9.92443e-15 38.9811 8.72516 38.9811 19.4882 38.9811 30.2512 30.2549 38.9764 19.4905 38.9764 8.72621 38.9764-1.2407e-14 30.2512 0 19.4882Z" fill-rule="evenodd" transform="matrix(-0.707107 0.707107 0.707107 0.707107 2273.63 1974.18)"/><path d="M0 19.4882C-2.48141e-15 8.72516 8.72621-2.48111e-15 19.4905-4.96221e-15 30.2549-9.92443e-15 38.9811 8.72516 38.9811 19.4882 38.9811 30.2512 30.2549 38.9764 19.4905 38.9764 8.72621 38.9764-1.2407e-14 30.2512 0 19.4882Z" fill-rule="evenodd" transform="matrix(-0.707107 0.707107 0.707107 0.707107 2521.47 2222.06)"/><rect x="0" y="0" width="12.9936" height="32.4803" transform="matrix(-0.707107 0.707107 0.707107 0.707107 2255.05 1973.98)"/><rect x="0" y="0" width="12.9936" height="32.4803" transform="matrix(-0.707107 0.707107 0.707107 0.707107 2526.06 2245.03)"/><path d="M0 77.9528C-9.9256e-15 34.9006 34.9048-9.92443e-15 77.962-1.98489e-14 121.019-3.96977e-14 155.924 34.9006 155.924 77.9528 155.924 121.005 121.019 155.906 77.962 155.906 34.9048 155.906-4.9628e-14 121.005 0 77.9528Z" fill="#0D0D0D" fill-rule="evenodd" transform="matrix(-0.707107 0.707107 0.707107 0.707107 2351.52 1969.4)"/><path d="M0 32.5C-4.13768e-15 14.5507 14.5507-4.13768e-15 32.5-8.27536e-15 50.4492-1.65507e-14 65 14.5507 65 32.5 65 50.4492 50.4492 65 32.5 65 14.5507 65-2.06884e-14 50.4492 0 32.5Z" fill="#3B3838" fill-rule="evenodd" transform="matrix(1 0 0 -1 2319 2111)"/><rect x="0" y="0" width="155.924" height="415.748" fill="#404040" transform="matrix(-0.707107 0.707107 0.707107 0.707107 2305.58 1663.59)"/><rect x="0" y="0" width="155.924" height="285.827" fill="#262626" transform="matrix(-0.707107 0.707107 0.707107 0.707107 2351.52 1709.53)"/><path d="M0 19.4882C-2.48141e-15 8.72516 8.72621-2.48111e-15 19.4905-4.96221e-15 30.2549-9.92443e-15 38.9811 8.72516 38.9811 19.4882 38.9811 30.2512 30.2549 38.9764 19.4905 38.9764 8.72621 38.9764-1.2407e-14 30.2512 0 19.4882Z" fill-rule="evenodd" transform="matrix(-0.707107 0.707107 0.707107 0.707107 2273.63 1714.31)"/><path d="M0 19.4882C-2.48141e-15 8.72516 8.72621-2.48111e-15 19.4905-4.96221e-15 30.2549-9.92443e-15 38.9811 8.72516 38.9811 19.4882 38.9811 30.2512 30.2549 38.9764 19.4905 38.9764 8.72621 38.9764-1.2407e-14 30.2512 0 19.4882Z" fill-rule="evenodd" transform="matrix(-0.707107 0.707107 0.707107 0.707107 2521.47 1962.18)"/><rect x="0" y="0" width="12.9936" height="32.4803" transform="matrix(-0.707107 0.707107 0.707107 0.707107 2255.05 1714.11)"/><rect x="0" y="0" width="12.9936" height="32.4803" transform="matrix(-0.707107 0.707107 0.707107 0.707107 2526.06 1985.15)"/><path d="M0 77.9528C-9.9256e-15 34.9006 34.9048-9.92443e-15 77.962-1.98489e-14 121.019-3.96977e-14 155.924 34.9006 155.924 77.9528 155.924 121.005 121.019 155.906 77.962 155.906 34.9048 155.906-4.9628e-14 121.005 0 77.9528Z" fill="#0D0D0D" fill-rule="evenodd" transform="matrix(-0.707107 0.707107 0.707107 0.707107 2351.52 1709.52)"/><path d="M0 32.5C-4.13768e-15 14.5507 14.5507-4.13768e-15 32.5-8.27536e-15 50.4492-1.65507e-14 65 14.5507 65 32.5 65 50.4492 50.4492 65 32.5 65 14.5507 65-2.06884e-14 50.4492 0 32.5Z" fill="#3B3838" fill-rule="evenodd" transform="matrix(1 0 0 -1 2319 1851)"/><rect x="0" y="0" width="155.924" height="415.748" fill="#404040" transform="matrix(0.707107 -0.707107 -0.707107 -0.707107 2658.21 1715.7)"/><rect x="0" y="0" width="155.924" height="285.827" fill="#262626" transform="matrix(0.707107 -0.707107 -0.707107 -0.707107 2612.27 1669.77)"/><path d="M0 19.4882C-2.48141e-15 8.72516 8.72621-2.48111e-15 19.4905-4.96221e-15 30.2549-9.92443e-15 38.9811 8.72516 38.9811 19.4882 38.9811 30.2512 30.2549 38.9764 19.4905 38.9764 8.72621 38.9764-1.2407e-14 30.2512 0 19.4882Z" fill-rule="evenodd" transform="matrix(0.707107 -0.707107 -0.707107 -0.707107 2690.17 1664.98)"/><path d="M0 19.4882C-2.48141e-15 8.72516 8.72621-2.48111e-15 19.4905-4.96221e-15 30.2549-9.92443e-15 38.9811 8.72516 38.9811 19.4882 38.9811 30.2512 30.2549 38.9764 19.4905 38.9764 8.72621 38.9764-1.2407e-14 30.2512 0 19.4882Z" fill-rule="evenodd" transform="matrix(0.707107 -0.707107 -0.707107 -0.707107 2442.32 1417.11)"/><rect x="0" y="0" width="12.9936" height="32.4803" transform="matrix(0.707107 -0.707107 -0.707107 -0.707107 2708.74 1665.18)"/><rect x="0" y="0" width="12.9936" height="32.4803" transform="matrix(0.707107 -0.707107 -0.707107 -0.707107 2437.73 1394.14)"/><path d="M0 77.9528C-9.9256e-15 34.9006 34.9048-9.92443e-15 77.962-1.98489e-14 121.019-3.96977e-14 155.924 34.9006 155.924 77.9528 155.924 121.005 121.019 155.906 77.962 155.906 34.9048 155.906-4.9628e-14 121.005 0 77.9528Z" fill="#0D0D0D" fill-rule="evenodd" transform="matrix(0.707107 -0.707107 -0.707107 -0.707107 2612.27 1669.77)"/><path d="M0 32.5C-4.13768e-15 14.5507 14.5507-4.13768e-15 32.5-8.27536e-15 50.4492-1.65507e-14 65 14.5507 65 32.5 65 50.4492 50.4492 65 32.5 65 14.5507 65-2.06884e-14 50.4492 0 32.5Z" fill="#3B3838" fill-rule="evenodd" transform="matrix(1 0 0 -1 2579 1591)"/><path d="M572 1819C572 1696.95 670.721 1598 792.5 1598 914.279 1598 1013 1696.95 1013 1819 1013 1941.06 914.279 2040 792.5 2040 670.721 2040 572 1941.06 572 1819Z" stroke="#404040" stroke-width="2.29167" stroke-miterlimit="8" fill="#000000" fill-rule="evenodd" fill-opacity="0.980392"/><path d="M0 0 155.906 0.000360892" stroke="#FFFFFF" stroke-width="25.9843" stroke-linecap="round" stroke-miterlimit="8" fill="none" fill-rule="evenodd" transform="matrix(6.12323e-17 1 1 -6.12323e-17 793 1611)"/><path d="M1091 1819C1091 1696.95 1189.95 1598 1312 1598 1434.06 1598 1533 1696.95 1533 1819 1533 1941.06 1434.06 2040 1312 2040 1189.95 2040 1091 1941.06 1091 1819Z" stroke="#404040" stroke-width="2.29167" stroke-miterlimit="8" fill="#000000" fill-rule="evenodd" fill-opacity="0.980392"/><path d="M0 0 155.906 0.000360892" stroke="#FFFFFF" stroke-width="25.9843" stroke-linecap="round" stroke-miterlimit="8" fill="none" fill-rule="evenodd" transform="matrix(6.12323e-17 1 1 -6.12323e-17 1312 1611)"/><path d="M1611 1819C1611 1696.95 1709.95 1598 1832 1598 1954.05 1598 2053 1696.95 2053 1819 2053 1941.06 1954.05 2040 1832 2040 1709.95 2040 1611 1941.06 1611 1819Z" stroke="#404040" stroke-width="2.29167" stroke-miterlimit="8" fill="#000000" fill-rule="evenodd" fill-opacity="0.980392"/><path d="M0 0 155.906 0.000360892" stroke="#FFFFFF" stroke-width="25.9843" stroke-linecap="round" stroke-miterlimit="8" fill="none" fill-rule="evenodd" transform="matrix(6.12323e-17 1 1 -6.12323e-17 1832 1611)"/><path d="M2131 1819C2131 1696.95 2229.72 1598 2351.5 1598 2473.28 1598 2572 1696.95 2572 1819 2572 1941.06 2473.28 2040 2351.5 2040 2229.72 2040 2131 1941.06 2131 1819Z" stroke="#404040" stroke-width="2.29167" stroke-miterlimit="8" fill="#000000" fill-rule="evenodd" fill-opacity="0.980392"/><path d="M0 0 155.906 0.000360892" stroke="#FFFFFF" stroke-width="25.9843" stroke-linecap="round" stroke-miterlimit="8" fill="none" fill-rule="evenodd" transform="matrix(6.12323e-17 1 1 -6.12323e-17 2352 1611)"/><path d="M792.5 1858C914.279 1858 1013 1956.94 1013 2079 1013 2201.05 914.279 2300 792.5 2300 670.721 2300 572 2201.05 572 2079 572 1956.94 670.721 1858 792.5 1858Z" stroke="#404040" stroke-width="2.29167" stroke-miterlimit="8" fill="#000000" fill-rule="evenodd" fill-opacity="0.980392"/><path d="M0 0 155.906 0.000360892" stroke="#FFFFFF" stroke-width="25.9843" stroke-linecap="round" stroke-miterlimit="8" fill="none" fill-rule="evenodd" transform="matrix(-1 1.22465e-16 1.22465e-16 1 999.905 2079)"/><path d="M0 0 0.000360892 155.905" stroke="#FFFFFF" stroke-width="25.9843" stroke-linecap="round" stroke-miterlimit="8" fill="none" fill-rule="evenodd" transform="matrix(-1 1.22465e-16 1.22465e-16 1 793 1871)"/><path d="M1312 1858C1434.06 1858 1533 1956.95 1533 2079 1533 2201.05 1434.06 2300 1312 2300 1189.95 2300 1091 2201.05 1091 2079 1091 1956.95 1189.95 1858 1312 1858Z" stroke="#404040" stroke-width="2.29167" stroke-miterlimit="8" fill="#000000" fill-rule="evenodd" fill-opacity="0.980392"/><path d="M0 0 155.906 0.000360892" stroke="#FFFFFF" stroke-width="25.9843" stroke-linecap="round" stroke-miterlimit="8" fill="none" fill-rule="evenodd" transform="matrix(-1 1.22465e-16 1.22465e-16 1 1519.91 2079)"/><path d="M0 0 0.000360892 155.905" stroke="#FFFFFF" stroke-width="25.9843" stroke-linecap="round" stroke-miterlimit="8" fill="none" fill-rule="evenodd" transform="matrix(-1 1.22465e-16 1.22465e-16 1 1312 1871)"/><path d="M1832 1858C1954.06 1858 2053 1956.94 2053 2079 2053 2201.05 1954.06 2300 1832 2300 1709.95 2300 1611 2201.05 1611 2079 1611 1956.94 1709.95 1858 1832 1858Z" stroke="#404040" stroke-width="2.29167" stroke-miterlimit="8" fill="#000000" fill-rule="evenodd" fill-opacity="0.980392"/><path d="M0 0 155.906 0.000360892" stroke="#FFFFFF" stroke-width="25.9843" stroke-linecap="round" stroke-miterlimit="8" fill="none" fill-rule="evenodd" transform="matrix(-1 1.22465e-16 1.22465e-16 1 2039.91 2079)"/><path d="M0 0 0.000360892 155.905" stroke="#FFFFFF" stroke-width="25.9843" stroke-linecap="round" stroke-miterlimit="8" fill="none" fill-rule="evenodd" transform="matrix(-1 1.22465e-16 1.22465e-16 1 1832 1871)"/><path d="M2351.5 1858C2473.28 1858 2572 1956.94 2572 2079 2572 2201.05 2473.28 2300 2351.5 2300 2229.72 2300 2131 2201.05 2131 2079 2131 1956.94 2229.72 1858 2351.5 1858Z" stroke="#404040" stroke-width="2.29167" stroke-miterlimit="8" fill="#000000" fill-rule="evenodd" fill-opacity="0.980392"/><path d="M0 0 155.906 0.000360892" stroke="#FFFFFF" stroke-width="25.9843" stroke-linecap="round" stroke-miterlimit="8" fill="none" fill-rule="evenodd" transform="matrix(-1 1.22465e-16 1.22465e-16 1 2559.91 2079)"/><path d="M0 0 0.000360892 155.905" stroke="#FFFFFF" stroke-width="25.9843" stroke-linecap="round" stroke-miterlimit="8" fill="none" fill-rule="evenodd" transform="matrix(-1 1.22465e-16 1.22465e-16 1 2352 1871)"/><path d="M1273 1819C1273 1941.06 1174.05 2040 1052 2040 929.945 2040 831 1941.06 831 1819 831 1696.95 929.945 1598 1052 1598 1174.05 1598 1273 1696.95 1273 1819Z" stroke="#404040" stroke-width="2.29167" stroke-miterlimit="8" fill-rule="evenodd"/><path d="M0 0 155.906 0.000360892" stroke="#FFFFFF" stroke-width="25.9843" stroke-linecap="round" stroke-miterlimit="8" fill="none" fill-rule="evenodd" transform="matrix(-1.83697e-16 -1 -1 1.83697e-16 1052 2026.91)"/><path d="M0 0 0.000360892 155.905" stroke="#FFFFFF" stroke-width="25.9843" stroke-linecap="round" stroke-miterlimit="8" fill="none" fill-rule="evenodd" transform="matrix(-1.83697e-16 -1 -1 1.83697e-16 1259.91 1819)"/><path d="M1793 1819C1793 1941.06 1694.05 2040 1572 2040 1449.95 2040 1351 1941.06 1351 1819 1351 1696.95 1449.95 1598 1572 1598 1694.05 1598 1793 1696.95 1793 1819Z" stroke="#404040" stroke-width="2.29167" stroke-miterlimit="8" fill-rule="evenodd"/><path d="M0 0 155.906 0.000360892" stroke="#FFFFFF" stroke-width="25.9843" stroke-linecap="round" stroke-miterlimit="8" fill="none" fill-rule="evenodd" transform="matrix(-1.83697e-16 -1 -1 1.83697e-16 1572 2026.91)"/><path d="M0 0 0.000360892 155.905" stroke="#FFFFFF" stroke-width="25.9843" stroke-linecap="round" stroke-miterlimit="8" fill="none" fill-rule="evenodd" transform="matrix(-1.83697e-16 -1 -1 1.83697e-16 1779.9 1819)"/><path d="M2313 1819C2313 1941.06 2214.05 2040 2092 2040 1969.95 2040 1871 1941.06 1871 1819 1871 1696.95 1969.95 1598 2092 1598 2214.05 1598 2313 1696.95 2313 1819Z" stroke="#404040" stroke-width="2.29167" stroke-miterlimit="8" fill="#000000" fill-rule="evenodd" fill-opacity="0.980392"/><path d="M0 0 155.906 0.000360892" stroke="#FFFFFF" stroke-width="25.9843" stroke-linecap="round" stroke-miterlimit="8" fill="none" fill-rule="evenodd" transform="matrix(-1.83697e-16 -1 -1 1.83697e-16 2092 2026.91)"/><path d="M0 0 0.000360892 155.905" stroke="#FFFFFF" stroke-width="25.9843" stroke-linecap="round" stroke-miterlimit="8" fill="none" fill-rule="evenodd" transform="matrix(-1.83697e-16 -1 -1 1.83697e-16 2299.91 1819)"/><path d="M2832 1819C2832 1941.06 2733.28 2040 2611.5 2040 2489.72 2040 2391 1941.06 2391 1819 2391 1696.95 2489.72 1598 2611.5 1598 2733.28 1598 2832 1696.95 2832 1819Z" stroke="#404040" stroke-width="2.29167" stroke-miterlimit="8" fill="#000000" fill-rule="evenodd" fill-opacity="0.980392"/><path d="M0 0 155.906 0.000360892" stroke="#FFFFFF" stroke-width="25.9843" stroke-linecap="round" stroke-miterlimit="8" fill="none" fill-rule="evenodd" transform="matrix(-1.83697e-16 -1 -1 1.83697e-16 2611 2026.91)"/><path d="M0 0 0.000360892 155.905" stroke="#FFFFFF" stroke-width="25.9843" stroke-linecap="round" stroke-miterlimit="8" fill="none" fill-rule="evenodd" transform="matrix(-1.83697e-16 -1 -1 1.83697e-16 2818.91 1819)"/><path d="M1052 1780C929.945 1780 831 1681.05 831 1559 831 1436.94 929.945 1338 1052 1338 1174.05 1338 1273 1436.94 1273 1559 1273 1681.05 1174.05 1780 1052 1780Z" stroke="#404040" stroke-width="2.29167" stroke-miterlimit="8" fill="#000000" fill-rule="evenodd" fill-opacity="0.980392"/><path d="M0 0 155.906 0.000360892" stroke="#FFFFFF" stroke-width="25.9843" stroke-linecap="round" stroke-miterlimit="8" fill="none" fill-rule="evenodd" transform="matrix(1 0 0 -1 844 1559)"/><path d="M0 0 0.000360892 155.905" stroke="#FFFFFF" stroke-width="25.9843" stroke-linecap="round" stroke-miterlimit="8" fill="none" fill-rule="evenodd" transform="matrix(1 0 0 -1 1052 1766.91)"/><path d="M1572 1780C1449.94 1780 1351 1681.05 1351 1559 1351 1436.94 1449.94 1338 1572 1338 1694.05 1338 1793 1436.94 1793 1559 1793 1681.05 1694.05 1780 1572 1780Z" stroke="#404040" stroke-width="2.29167" stroke-miterlimit="8" fill="#000000" fill-rule="evenodd" fill-opacity="0.980392"/><path d="M0 0 155.906 0.000360892" stroke="#FFFFFF" stroke-width="25.9843" stroke-linecap="round" stroke-miterlimit="8" fill="none" fill-rule="evenodd" transform="matrix(1 0 0 -1 1364 1559)"/><path d="M0 0 0.000360892 155.905" stroke="#FFFFFF" stroke-width="25.9843" stroke-linecap="round" stroke-miterlimit="8" fill="none" fill-rule="evenodd" transform="matrix(1 0 0 -1 1572 1766.91)"/><path d="M2092 1780C1969.95 1780 1871 1681.05 1871 1559 1871 1436.94 1969.95 1338 2092 1338 2214.05 1338 2313 1436.94 2313 1559 2313 1681.05 2214.05 1780 2092 1780Z" stroke="#404040" stroke-width="2.29167" stroke-miterlimit="8" fill="#000000" fill-rule="evenodd" fill-opacity="0.980392"/><path d="M0 0 155.906 0.000360892" stroke="#FFFFFF" stroke-width="25.9843" stroke-linecap="round" stroke-miterlimit="8" fill="none" fill-rule="evenodd" transform="matrix(1 0 0 -1 1884 1559)"/><path d="M0 0 0.000360892 155.905" stroke="#FFFFFF" stroke-width="25.9843" stroke-linecap="round" stroke-miterlimit="8" fill="none" fill-rule="evenodd" transform="matrix(1 0 0 -1 2092 1766.91)"/><path d="M2611.5 1780C2489.72 1780 2391 1681.05 2391 1559 2391 1436.94 2489.72 1338 2611.5 1338 2733.28 1338 2832 1436.94 2832 1559 2832 1681.05 2733.28 1780 2611.5 1780Z" stroke="#404040" stroke-width="2.29167" stroke-miterlimit="8" fill="#000000" fill-rule="evenodd" fill-opacity="0.980392"/><path d="M0 0 155.906 0.000360892" stroke="#FFFFFF" stroke-width="25.9843" stroke-linecap="round" stroke-miterlimit="8" fill="none" fill-rule="evenodd" transform="matrix(1 0 0 -1 2404 1559)"/><path d="M0 0 0.000360892 155.905" stroke="#FFFFFF" stroke-width="25.9843" stroke-linecap="round" stroke-miterlimit="8" fill="none" fill-rule="evenodd" transform="matrix(1 0 0 -1 2611 1766.91)"/><rect x="533" y="1533" width="234" height="572" fill="#404040" fill-opacity="0.74902"/><rect x="1078" y="1533" width="208" height="572" fill="#404040" fill-opacity="0.74902"/><rect x="533" y="1299" width="2338" height="234" fill="#404040" fill-opacity="0.74902"/><rect x="533" y="2105" width="2338" height="234" fill="#404040" fill-opacity="0.74902"/><rect x="1598" y="1533" width="208" height="572" fill="#404040" fill-opacity="0.74902"/><rect x="2637" y="1533" width="234" height="572" fill="#404040" fill-opacity="0.74902"/><rect x="2118" y="1533" width="208" height="572" fill="#404040" fill-opacity="0.74902"/></g></svg>