<svg width="2338" height="1040" xmlns="http://www.w3.org/2000/svg" xmlns:xlink="http://www.w3.org/1999/xlink" overflow="hidden"><defs><clipPath id="clip0"><rect x="520" y="1299" width="2338" height="1040"/></clipPath></defs><g clip-path="url(#clip0)" transform="translate(-520 -1299)"><rect x="520" y="1299" width="2338" height="1040" fill="#4472C4"/><rect x="0" y="0" width="155.924" height="415.748" fill="#005696" transform="matrix(0.707107 -0.707107 -0.707107 -0.707107 1086.16 1975.57)"/><rect x="0" y="0" width="155.924" height="285.827" fill="#0072C8" transform="matrix(0.707107 -0.707107 -0.707107 -0.707107 1040.22 1929.64)"/><path d="M0 19.4882C-2.48141e-15 8.72516 8.72621-2.48111e-15 19.4905-4.96221e-15 30.2549-9.92443e-15 38.9811 8.72516 38.9811 19.4882 38.9811 30.2512 30.2549 38.9764 19.4905 38.9764 8.72621 38.9764-1.2407e-14 30.2512 0 19.4882Z" fill-rule="evenodd" transform="matrix(0.707107 -0.707107 -0.707107 -0.707107 1118.12 1924.85)"/><path d="M0 19.4882C-2.48141e-15 8.72516 8.72621-2.48111e-15 19.4905-4.96221e-15 30.2549-9.92443e-15 38.9811 8.72516 38.9811 19.4882 38.9811 30.2512 30.2549 38.9764 19.4905 38.9764 8.72621 38.9764-1.2407e-14 30.2512 0 19.4882Z" fill-rule="evenodd" transform="matrix(0.707107 -0.707107 -0.707107 -0.707107 870.274 1676.98)"/><rect x="0" y="0" width="12.9936" height="32.4803" transform="matrix(0.707107 -0.707107 -0.707107 -0.707107 1136.69 1925.05)"/><rect x="0" y="0" width="12.9936" height="32.4803" transform="matrix(0.707107 -0.707107 -0.707107 -0.707107 865.681 1654.01)"/><path d="M0 77.9528C-9.9256e-15 34.9006 34.9048-9.92443e-15 77.962-1.98489e-14 121.019-3.96977e-14 155.924 34.9006 155.924 77.9528 155.924 121.005 121.019 155.906 77.962 155.906 34.9048 155.906-4.9628e-14 121.005 0 77.9528Z" fill="#008FFA" fill-rule="evenodd" transform="matrix(0.707107 -0.707107 -0.707107 -0.707107 1040.22 1929.64)"/><path d="M0 32.5C-4.1377e-15 14.5507 14.5508-4.13768e-15 32.5002-8.27536e-15 50.4495-1.65507e-14 65.0003 14.5507 65.0003 32.5 65.0003 50.4492 50.4495 65 32.5002 65 14.5508 65-2.06885e-14 50.4492 0 32.5Z" fill="#E7E6E6" fill-rule="evenodd" transform="matrix(1 0 0 -1 1007 1851)"/><rect x="0" y="0" width="155.924" height="415.748" fill="#005696" transform="matrix(-0.707107 0.707107 0.707107 0.707107 733.538 1923.47)"/><rect x="0" y="0" width="155.924" height="285.827" fill="#0072C8" transform="matrix(-0.707107 0.707107 0.707107 0.707107 779.472 1969.4)"/><path d="M0 19.4882C-2.48141e-15 8.72516 8.72621-2.48111e-15 19.4905-4.96221e-15 30.2549-9.92443e-15 38.9811 8.72516 38.9811 19.4882 38.9811 30.2512 30.2549 38.9764 19.4905 38.9764 8.72621 38.9764-1.2407e-14 30.2512 0 19.4882Z" fill-rule="evenodd" transform="matrix(-0.707107 0.707107 0.707107 0.707107 701.579 1974.18)"/><path d="M0 19.4882C-2.48141e-15 8.72516 8.72621-2.48111e-15 19.4905-4.96221e-15 30.2549-9.92443e-15 38.9811 8.72516 38.9811 19.4882 38.9811 30.2512 30.2549 38.9764 19.4905 38.9764 8.72621 38.9764-1.2407e-14 30.2512 0 19.4882Z" fill-rule="evenodd" transform="matrix(-0.707107 0.707107 0.707107 0.707107 949.424 2222.06)"/><rect x="0" y="0" width="12.9936" height="32.4803" transform="matrix(-0.707107 0.707107 0.707107 0.707107 683.005 1973.98)"/><rect x="0" y="0" width="12.9936" height="32.4803" transform="matrix(-0.707107 0.707107 0.707107 0.707107 954.016 2245.03)"/><path d="M0 77.9528C-9.9256e-15 34.9006 34.9048-9.92443e-15 77.962-1.98489e-14 121.019-3.96977e-14 155.924 34.9006 155.924 77.9528 155.924 121.005 121.019 155.906 77.962 155.906 34.9048 155.906-4.9628e-14 121.005 0 77.9528Z" fill="#008FFA" fill-rule="evenodd" transform="matrix(-0.707107 0.707107 0.707107 0.707107 779.473 1969.4)"/><path d="M0 32.5C-4.13768e-15 14.5507 14.5507-4.13768e-15 32.5-8.27536e-15 50.4492-1.65507e-14 65 14.5507 65 32.5 65 50.4492 50.4492 65 32.5 65 14.5507 65-2.06884e-14 50.4492 0 32.5Z" fill="#E7E6E6" fill-rule="evenodd" transform="matrix(1 0 0 -1 747 2111)"/><rect x="0" y="0" width="155.924" height="415.748" fill="#005696" transform="matrix(-0.707107 0.707107 0.707107 0.707107 733.538 1663.59)"/><rect x="0" y="0" width="155.924" height="285.827" fill="#0072C8" transform="matrix(-0.707107 0.707107 0.707107 0.707107 779.472 1709.53)"/><path d="M0 19.4882C-2.48141e-15 8.72516 8.72621-2.48111e-15 19.4905-4.96221e-15 30.2549-9.92443e-15 38.9811 8.72516 38.9811 19.4882 38.9811 30.2512 30.2549 38.9764 19.4905 38.9764 8.72621 38.9764-1.2407e-14 30.2512 0 19.4882Z" fill-rule="evenodd" transform="matrix(-0.707107 0.707107 0.707107 0.707107 701.579 1714.31)"/><path d="M0 19.4882C-2.48141e-15 8.72516 8.72621-2.48111e-15 19.4905-4.96221e-15 30.2549-9.92443e-15 38.9811 8.72516 38.9811 19.4882 38.9811 30.2512 30.2549 38.9764 19.4905 38.9764 8.72621 38.9764-1.2407e-14 30.2512 0 19.4882Z" fill-rule="evenodd" transform="matrix(-0.707107 0.707107 0.707107 0.707107 949.424 1962.19)"/><rect x="0" y="0" width="12.9936" height="32.4803" transform="matrix(-0.707107 0.707107 0.707107 0.707107 683.005 1714.11)"/><rect x="0" y="0" width="12.9936" height="32.4803" transform="matrix(-0.707107 0.707107 0.707107 0.707107 954.016 1985.15)"/><path d="M0 77.9528C-9.9256e-15 34.9006 34.9048-9.92443e-15 77.962-1.98489e-14 121.019-3.96977e-14 155.924 34.9006 155.924 77.9528 155.924 121.005 121.019 155.906 77.962 155.906 34.9048 155.906-4.9628e-14 121.005 0 77.9528Z" fill="#008FFA" fill-rule="evenodd" transform="matrix(-0.707107 0.707107 0.707107 0.707107 779.473 1709.52)"/><path d="M0 32.5C-4.13768e-15 14.5507 14.5507-4.13768e-15 32.5-8.27536e-15 50.4492-1.65507e-14 65 14.5507 65 32.5 65 50.4492 50.4492 65 32.5 65 14.5507 65-2.06884e-14 50.4492 0 32.5Z" fill="#E7E6E6" fill-rule="evenodd" transform="matrix(1 0 0 -1 747 1851)"/><rect x="0" y="0" width="155.924" height="415.748" fill="#005696" transform="matrix(0.707107 -0.707107 -0.707107 -0.707107 1086.16 1715.7)"/><rect x="0" y="0" width="155.924" height="285.827" fill="#0072C8" transform="matrix(0.707107 -0.707107 -0.707107 -0.707107 1040.23 1669.77)"/><path d="M0 19.4882C-2.48141e-15 8.72516 8.72621-2.48111e-15 19.4905-4.96221e-15 30.2549-9.92443e-15 38.9811 8.72516 38.9811 19.4882 38.9811 30.2512 30.2549 38.9764 19.4905 38.9764 8.72621 38.9764-1.2407e-14 30.2512 0 19.4882Z" fill-rule="evenodd" transform="matrix(0.707107 -0.707107 -0.707107 -0.707107 1118.12 1664.98)"/><path d="M0 19.4882C-2.48141e-15 8.72516 8.72621-2.48111e-15 19.4905-4.96221e-15 30.2549-9.92443e-15 38.9811 8.72516 38.9811 19.4882 38.9811 30.2512 30.2549 38.9764 19.4905 38.9764 8.72621 38.9764-1.2407e-14 30.2512 0 19.4882Z" fill-rule="evenodd" transform="matrix(0.707107 -0.707107 -0.707107 -0.707107 870.274 1417.11)"/><rect x="0" y="0" width="12.9936" height="32.4803" transform="matrix(0.707107 -0.707107 -0.707107 -0.707107 1136.69 1665.18)"/><rect x="0" y="0" width="12.9936" height="32.4803" transform="matrix(0.707107 -0.707107 -0.707107 -0.707107 865.681 1394.14)"/><path d="M0 77.9528C-9.9256e-15 34.9006 34.9048-9.92443e-15 77.962-1.98489e-14 121.019-3.96977e-14 155.924 34.9006 155.924 77.9528 155.924 121.005 121.019 155.906 77.962 155.906 34.9048 155.906-4.9628e-14 121.005 0 77.9528Z" fill="#008FFA" fill-rule="evenodd" transform="matrix(0.707107 -0.707107 -0.707107 -0.707107 1040.23 1669.77)"/><path d="M0 32.5C-4.13768e-15 14.5507 14.5507-4.13768e-15 32.5-8.27536e-15 50.4492-1.65507e-14 65 14.5507 65 32.5 65 50.4492 50.4492 65 32.5 65 14.5507 65-2.06884e-14 50.4492 0 32.5Z" fill="#E7E6E6" fill-rule="evenodd" transform="matrix(1 0 0 -1 1008 1591)"/><rect x="0" y="0" width="155.924" height="415.748" fill="#005696" transform="matrix(0.707107 -0.707107 -0.707107 -0.707107 1605.84 1975.57)"/><rect x="0" y="0" width="155.924" height="285.827" fill="#0072C8" transform="matrix(0.707107 -0.707107 -0.707107 -0.707107 1559.91 1929.64)"/><path d="M0 19.4882C-2.48141e-15 8.72516 8.72621-2.48111e-15 19.4905-4.96221e-15 30.2549-9.92443e-15 38.9811 8.72516 38.9811 19.4882 38.9811 30.2512 30.2549 38.9764 19.4905 38.9764 8.72621 38.9764-1.2407e-14 30.2512 0 19.4882Z" fill-rule="evenodd" transform="matrix(0.707107 -0.707107 -0.707107 -0.707107 1637.8 1924.85)"/><path d="M0 19.4882C-2.48141e-15 8.72516 8.72621-2.48111e-15 19.4905-4.96221e-15 30.2549-9.92443e-15 38.9811 8.72516 38.9811 19.4882 38.9811 30.2512 30.2549 38.9764 19.4905 38.9764 8.72621 38.9764-1.2407e-14 30.2512 0 19.4882Z" fill-rule="evenodd" transform="matrix(0.707107 -0.707107 -0.707107 -0.707107 1389.96 1676.98)"/><rect x="0" y="0" width="12.9936" height="32.4803" transform="matrix(0.707107 -0.707107 -0.707107 -0.707107 1656.38 1925.05)"/><rect x="0" y="0" width="12.9936" height="32.4803" transform="matrix(0.707107 -0.707107 -0.707107 -0.707107 1385.37 1654.01)"/><path d="M0 77.9528C-9.9256e-15 34.9006 34.9048-9.92443e-15 77.962-1.98489e-14 121.019-3.96977e-14 155.924 34.9006 155.924 77.9528 155.924 121.005 121.019 155.906 77.962 155.906 34.9048 155.906-4.9628e-14 121.005 0 77.9528Z" fill="#008FFA" fill-rule="evenodd" transform="matrix(0.707107 -0.707107 -0.707107 -0.707107 1559.91 1929.64)"/><path d="M0 32.5C-4.13768e-15 14.5507 14.5507-4.13768e-15 32.5-8.27536e-15 50.4492-1.65507e-14 65 14.5507 65 32.5 65 50.4492 50.4492 65 32.5 65 14.5507 65-2.06884e-14 50.4492 0 32.5Z" fill="#E7E6E6" fill-rule="evenodd" transform="matrix(1 0 0 -1 1527 1851)"/><rect x="0" y="0" width="155.924" height="415.748" fill="#005696" transform="matrix(-0.707107 0.707107 0.707107 0.707107 1253.22 1923.47)"/><rect x="0" y="0" width="155.924" height="285.827" fill="#0072C8" transform="matrix(-0.707107 0.707107 0.707107 0.707107 1299.16 1969.4)"/><path d="M0 19.4882C-2.48141e-15 8.72516 8.72621-2.48111e-15 19.4905-4.96221e-15 30.2549-9.92443e-15 38.9811 8.72516 38.9811 19.4882 38.9811 30.2512 30.2549 38.9764 19.4905 38.9764 8.72621 38.9764-1.2407e-14 30.2512 0 19.4882Z" fill-rule="evenodd" transform="matrix(-0.707107 0.707107 0.707107 0.707107 1221.26 1974.18)"/><path d="M0 19.4882C-2.48141e-15 8.72516 8.72621-2.48111e-15 19.4905-4.96221e-15 30.2549-9.92443e-15 38.9811 8.72516 38.9811 19.4882 38.9811 30.2512 30.2549 38.9764 19.4905 38.9764 8.72621 38.9764-1.2407e-14 30.2512 0 19.4882Z" fill-rule="evenodd" transform="matrix(-0.707107 0.707107 0.707107 0.707107 1469.11 2222.06)"/><rect x="0" y="0" width="12.9936" height="32.4803" transform="matrix(-0.707107 0.707107 0.707107 0.707107 1202.69 1973.98)"/><rect x="0" y="0" width="12.9936" height="32.4803" transform="matrix(-0.707107 0.707107 0.707107 0.707107 1473.7 2245.03)"/><path d="M0 77.9528C-9.9256e-15 34.9006 34.9048-9.92443e-15 77.962-1.98489e-14 121.019-3.96977e-14 155.924 34.9006 155.924 77.9528 155.924 121.005 121.019 155.906 77.962 155.906 34.9048 155.906-4.9628e-14 121.005 0 77.9528Z" fill="#008FFA" fill-rule="evenodd" transform="matrix(-0.707107 0.707107 0.707107 0.707107 1299.16 1969.4)"/><path d="M0 32.5C-4.13768e-15 14.5507 14.5507-4.13768e-15 32.5-8.27536e-15 50.4492-1.65507e-14 65 14.5507 65 32.5 65 50.4492 50.4492 65 32.5 65 14.5507 65-2.06884e-14 50.4492 0 32.5Z" fill="#E7E6E6" fill-rule="evenodd" transform="matrix(1 0 0 -1 1267 2111)"/><rect x="0" y="0" width="155.924" height="415.748" fill="#005696" transform="matrix(-0.707107 0.707107 0.707107 0.707107 1253.22 1663.59)"/><rect x="0" y="0" width="155.924" height="285.827" fill="#0072C8" transform="matrix(-0.707107 0.707107 0.707107 0.707107 1299.16 1709.53)"/><path d="M0 19.4882C-2.48141e-15 8.72516 8.72621-2.48111e-15 19.4905-4.96221e-15 30.2549-9.92443e-15 38.9811 8.72516 38.9811 19.4882 38.9811 30.2512 30.2549 38.9764 19.4905 38.9764 8.72621 38.9764-1.2407e-14 30.2512 0 19.4882Z" fill-rule="evenodd" transform="matrix(-0.707107 0.707107 0.707107 0.707107 1221.26 1714.31)"/><path d="M0 19.4882C-2.48141e-15 8.72516 8.72621-2.48111e-15 19.4905-4.96221e-15 30.2549-9.92443e-15 38.9811 8.72516 38.9811 19.4882 38.9811 30.2512 30.2549 38.9764 19.4905 38.9764 8.72621 38.9764-1.2407e-14 30.2512 0 19.4882Z" fill-rule="evenodd" transform="matrix(-0.707107 0.707107 0.707107 0.707107 1469.11 1962.19)"/><rect x="0" y="0" width="12.9936" height="32.4803" transform="matrix(-0.707107 0.707107 0.707107 0.707107 1202.69 1714.11)"/><rect x="0" y="0" width="12.9936" height="32.4803" transform="matrix(-0.707107 0.707107 0.707107 0.707107 1473.7 1985.15)"/><path d="M0 77.9528C-9.9256e-15 34.9006 34.9048-9.92443e-15 77.962-1.98489e-14 121.019-3.96977e-14 155.924 34.9006 155.924 77.9528 155.924 121.005 121.019 155.906 77.962 155.906 34.9048 155.906-4.9628e-14 121.005 0 77.9528Z" fill="#008FFA" fill-rule="evenodd" transform="matrix(-0.707107 0.707107 0.707107 0.707107 1299.16 1709.52)"/><path d="M0 32.5C-4.13768e-15 14.5507 14.5507-4.13768e-15 32.5-8.27536e-15 50.4492-1.65507e-14 65 14.5507 65 32.5 65 50.4492 50.4492 65 32.5 65 14.5507 65-2.06884e-14 50.4492 0 32.5Z" fill="#E7E6E6" fill-rule="evenodd" transform="matrix(1 0 0 -1 1267 1851)"/><rect x="0" y="0" width="155.924" height="415.748" fill="#005696" transform="matrix(0.707107 -0.707107 -0.707107 -0.707107 1605.84 1715.7)"/><rect x="0" y="0" width="155.924" height="285.827" fill="#0072C8" transform="matrix(0.707107 -0.707107 -0.707107 -0.707107 1559.91 1669.77)"/><path d="M0 19.4882C-2.48141e-15 8.72516 8.72621-2.48111e-15 19.4905-4.96221e-15 30.2549-9.92443e-15 38.9811 8.72516 38.9811 19.4882 38.9811 30.2512 30.2549 38.9764 19.4905 38.9764 8.72621 38.9764-1.2407e-14 30.2512 0 19.4882Z" fill-rule="evenodd" transform="matrix(0.707107 -0.707107 -0.707107 -0.707107 1637.8 1664.98)"/><path d="M0 19.4882C-2.48141e-15 8.72516 8.72621-2.48111e-15 19.4905-4.96221e-15 30.2549-9.92443e-15 38.9811 8.72516 38.9811 19.4882 38.9811 30.2512 30.2549 38.9764 19.4905 38.9764 8.72621 38.9764-1.2407e-14 30.2512 0 19.4882Z" fill-rule="evenodd" transform="matrix(0.707107 -0.707107 -0.707107 -0.707107 1389.96 1417.11)"/><rect x="0" y="0" width="12.9936" height="32.4803" transform="matrix(0.707107 -0.707107 -0.707107 -0.707107 1656.38 1665.18)"/><rect x="0" y="0" width="12.9936" height="32.4803" transform="matrix(0.707107 -0.707107 -0.707107 -0.707107 1385.37 1394.14)"/><path d="M0 77.9528C-9.9256e-15 34.9006 34.9048-9.92443e-15 77.962-1.98489e-14 121.019-3.96977e-14 155.924 34.9006 155.924 77.9528 155.924 121.005 121.019 155.906 77.962 155.906 34.9048 155.906-4.9628e-14 121.005 0 77.9528Z" fill="#008FFA" fill-rule="evenodd" transform="matrix(0.707107 -0.707107 -0.707107 -0.707107 1559.91 1669.77)"/><path d="M0 32.5C-4.13768e-15 14.5507 14.5507-4.13768e-15 32.5-8.27536e-15 50.4492-1.65507e-14 65 14.5507 65 32.5 65 50.4492 50.4492 65 32.5 65 14.5507 65-2.06884e-14 50.4492 0 32.5Z" fill="#E7E6E6" fill-rule="evenodd" transform="matrix(1 0 0 -1 1527 1591)"/><path d="M1078 1819C1078 1696.95 1176.95 1598 1299 1598 1421.05 1598 1520 1696.95 1520 1819 1520 1941.06 1421.05 2040 1299 2040 1176.95 2040 1078 1941.06 1078 1819Z" fill="#E7E6E6" fill-rule="evenodd" fill-opacity="0.501961"/><path d="M0 0 155.906 0.000360892" stroke="#000000" stroke-width="25.9843" stroke-linecap="round" stroke-miterlimit="8" fill="none" fill-rule="evenodd" transform="matrix(6.12323e-17 1 1 -6.12323e-17 1299 1611)"/><path d="M1299 1858C1421.06 1858 1520 1956.95 1520 2079 1520 2201.05 1421.06 2300 1299 2300 1176.95 2300 1078 2201.05 1078 2079 1078 1956.95 1176.95 1858 1299 1858Z" fill="#E7E6E6" fill-rule="evenodd" fill-opacity="0.501961"/><path d="M0 0 155.906 0.000360892" stroke="#000000" stroke-width="25.9843" stroke-linecap="round" stroke-miterlimit="8" fill="none" fill-rule="evenodd" transform="matrix(-1 1.22465e-16 1.22465e-16 1 1506.91 2079)"/><path d="M0 0 0.000360892 155.906" stroke="#000000" stroke-width="25.9843" stroke-linecap="round" stroke-miterlimit="8" fill="none" fill-rule="evenodd" transform="matrix(-1 1.22465e-16 1.22465e-16 1 1299 1871)"/><path d="M1780 1819C1780 1941.06 1681.05 2040 1559 2040 1436.94 2040 1338 1941.06 1338 1819 1338 1696.95 1436.94 1598 1559 1598 1681.05 1598 1780 1696.95 1780 1819Z" fill="#E7E6E6" fill-rule="evenodd" fill-opacity="0.501961"/><path d="M0 0 155.906 0.000360892" stroke="#000000" stroke-width="25.9843" stroke-linecap="round" stroke-miterlimit="8" fill="none" fill-rule="evenodd" transform="matrix(-1.83697e-16 -1 -1 1.83697e-16 1559 2026.91)"/><path d="M0 0 0.000360892 155.906" stroke="#000000" stroke-width="25.9843" stroke-linecap="round" stroke-miterlimit="8" fill="none" fill-rule="evenodd" transform="matrix(-1.83697e-16 -1 -1 1.83697e-16 1766.91 1819)"/><path d="M1559 1780C1436.94 1780 1338 1681.05 1338 1559 1338 1436.94 1436.94 1338 1559 1338 1681.05 1338 1780 1436.94 1780 1559 1780 1681.05 1681.05 1780 1559 1780Z" fill="#E7E6E6" fill-rule="evenodd" fill-opacity="0.501961"/><path d="M0 0 155.906 0.000360892" stroke="#000000" stroke-width="25.9843" stroke-linecap="round" stroke-miterlimit="8" fill="none" fill-rule="evenodd" transform="matrix(1 0 0 -1 1351 1559)"/><path d="M0 0 0.000360892 155.906" stroke="#000000" stroke-width="25.9843" stroke-linecap="round" stroke-miterlimit="8" fill="none" fill-rule="evenodd" transform="matrix(1 0 0 -1 1559 1766.91)"/><path d="M559 1819C559 1696.95 657.721 1598 779.5 1598 901.279 1598 1000 1696.95 1000 1819 1000 1941.06 901.279 2040 779.5 2040 657.721 2040 559 1941.06 559 1819Z" fill="#E7E6E6" fill-rule="evenodd" fill-opacity="0.501961"/><path d="M0 0 155.905 0.000360892" stroke="#000000" stroke-width="25.9843" stroke-linecap="round" stroke-miterlimit="8" fill="none" fill-rule="evenodd" transform="matrix(6.12323e-17 1 1 -6.12323e-17 780 1611)"/><path d="M779.5 1858C901.279 1858 1000 1956.94 1000 2079 1000 2201.05 901.279 2300 779.5 2300 657.721 2300 559 2201.05 559 2079 559 1956.94 657.721 1858 779.5 1858Z" fill="#E7E6E6" fill-rule="evenodd" fill-opacity="0.501961"/><path d="M0 0 155.906 0.000360892" stroke="#000000" stroke-width="25.9843" stroke-linecap="round" stroke-miterlimit="8" fill="none" fill-rule="evenodd" transform="matrix(-1 1.22465e-16 1.22465e-16 1 986.905 2079)"/><path d="M0 0 0.000360892 155.905" stroke="#000000" stroke-width="25.9843" stroke-linecap="round" stroke-miterlimit="8" fill="none" fill-rule="evenodd" transform="matrix(-1 1.22465e-16 1.22465e-16 1 780 1871)"/><path d="M1260 1819C1260 1941.06 1161.28 2040 1039.5 2040 917.721 2040 819 1941.06 819 1819 819 1696.95 917.721 1598 1039.5 1598 1161.28 1598 1260 1696.95 1260 1819Z" fill="#E7E6E6" fill-rule="evenodd" fill-opacity="0.501961"/><path d="M0 0 155.906 0.000360892" stroke="#000000" stroke-width="25.9843" stroke-linecap="round" stroke-miterlimit="8" fill="none" fill-rule="evenodd" transform="matrix(-1.83697e-16 -1 -1 1.83697e-16 1039 2026.91)"/><path d="M0 0 0.000360892 155.905" stroke="#000000" stroke-width="25.9843" stroke-linecap="round" stroke-miterlimit="8" fill="none" fill-rule="evenodd" transform="matrix(-1.83697e-16 -1 -1 1.83697e-16 1246.91 1819)"/><path d="M1039.5 1780C917.721 1780 819 1681.05 819 1559 819 1436.94 917.721 1338 1039.5 1338 1161.28 1338 1260 1436.94 1260 1559 1260 1681.05 1161.28 1780 1039.5 1780Z" fill="#E7E6E6" fill-rule="evenodd" fill-opacity="0.501961"/><path d="M0 0 155.906 0.000360892" stroke="#000000" stroke-width="25.9843" stroke-linecap="round" stroke-miterlimit="8" fill="none" fill-rule="evenodd" transform="matrix(1 0 0 -1 831 1559)"/><path d="M0 0 0.000360892 155.905" stroke="#000000" stroke-width="25.9843" stroke-linecap="round" stroke-miterlimit="8" fill="none" fill-rule="evenodd" transform="matrix(1 0 0 -1 1039 1766.91)"/><rect x="520" y="1533" width="234" height="572" fill="#FFFFFF" fill-opacity="0.74902"/><rect x="1065" y="1533" width="208" height="572" fill="#FFFFFF" fill-opacity="0.74902"/><rect x="0" y="0" width="155.924" height="415.748" fill="#005696" transform="matrix(0.707107 -0.707107 -0.707107 -0.707107 2125.53 1974.87)"/><rect x="0" y="0" width="155.924" height="285.827" fill="#0072C8" transform="matrix(0.707107 -0.707107 -0.707107 -0.707107 2079.59 1928.93)"/><path d="M0 19.4882C-2.48141e-15 8.72516 8.72621-2.48111e-15 19.4905-4.96221e-15 30.2549-9.92443e-15 38.9811 8.72516 38.9811 19.4882 38.9811 30.2512 30.2549 38.9764 19.4905 38.9764 8.72621 38.9764-1.2407e-14 30.2512 0 19.4882Z" fill-rule="evenodd" transform="matrix(0.707107 -0.707107 -0.707107 -0.707107 2157.49 1924.15)"/><path d="M0 19.4882C-2.48141e-15 8.72516 8.72621-2.48111e-15 19.4905-4.96221e-15 30.2549-9.92443e-15 38.9811 8.72516 38.9811 19.4882 38.9811 30.2512 30.2549 38.9764 19.4905 38.9764 8.72621 38.9764-1.2407e-14 30.2512 0 19.4882Z" fill-rule="evenodd" transform="matrix(0.707107 -0.707107 -0.707107 -0.707107 1909.64 1676.28)"/><rect x="0" y="0" width="12.9936" height="32.4803" transform="matrix(0.707107 -0.707107 -0.707107 -0.707107 2176.06 1924.35)"/><rect x="0" y="0" width="12.9936" height="32.4803" transform="matrix(0.707107 -0.707107 -0.707107 -0.707107 1905.05 1653.31)"/><path d="M0 77.9528C-9.9256e-15 34.9006 34.9048-9.92443e-15 77.962-1.98489e-14 121.019-3.96977e-14 155.924 34.9006 155.924 77.9528 155.924 121.005 121.019 155.906 77.962 155.906 34.9048 155.906-4.9628e-14 121.005 0 77.9528Z" fill="#008FFA" fill-rule="evenodd" transform="matrix(0.707107 -0.707107 -0.707107 -0.707107 2079.59 1928.94)"/><path d="M0 32.5C-4.13768e-15 14.5507 14.5507-4.13768e-15 32.5-8.27536e-15 50.4492-1.65507e-14 65 14.5507 65 32.5 65 50.4492 50.4492 65 32.5 65 14.5507 65-2.06884e-14 50.4492 0 32.5Z" fill="#E7E6E6" fill-rule="evenodd" transform="matrix(1 0 0 -1 2047 1850)"/><rect x="0" y="0" width="155.924" height="415.748" fill="#005696" transform="matrix(-0.707107 0.707107 0.707107 0.707107 1772.91 1922.76)"/><rect x="0" y="0" width="155.924" height="285.827" fill="#0072C8" transform="matrix(-0.707107 0.707107 0.707107 0.707107 1818.84 1968.7)"/><path d="M0 19.4882C-2.48141e-15 8.72516 8.72621-2.48111e-15 19.4905-4.96221e-15 30.2549-9.92443e-15 38.9811 8.72516 38.9811 19.4882 38.9811 30.2512 30.2549 38.9764 19.4905 38.9764 8.72621 38.9764-1.2407e-14 30.2512 0 19.4882Z" fill-rule="evenodd" transform="matrix(-0.707107 0.707107 0.707107 0.707107 1740.95 1973.48)"/><path d="M0 19.4882C-2.48141e-15 8.72516 8.72621-2.48111e-15 19.4905-4.96221e-15 30.2549-9.92443e-15 38.9811 8.72516 38.9811 19.4882 38.9811 30.2512 30.2549 38.9764 19.4905 38.9764 8.72621 38.9764-1.2407e-14 30.2512 0 19.4882Z" fill-rule="evenodd" transform="matrix(-0.707107 0.707107 0.707107 0.707107 1988.79 2221.35)"/><rect x="0" y="0" width="12.9936" height="32.4803" transform="matrix(-0.707107 0.707107 0.707107 0.707107 1722.37 1973.28)"/><rect x="0" y="0" width="12.9936" height="32.4803" transform="matrix(-0.707107 0.707107 0.707107 0.707107 1993.39 2244.32)"/><path d="M0 77.9528C-9.9256e-15 34.9006 34.9048-9.92443e-15 77.962-1.98489e-14 121.019-3.96977e-14 155.924 34.9006 155.924 77.9528 155.924 121.005 121.019 155.906 77.962 155.906 34.9048 155.906-4.9628e-14 121.005 0 77.9528Z" fill="#008FFA" fill-rule="evenodd" transform="matrix(-0.707107 0.707107 0.707107 0.707107 1818.84 1968.69)"/><path d="M0 32.5C-4.13768e-15 14.5507 14.5507-4.13768e-15 32.5-8.27536e-15 50.4492-1.65507e-14 65 14.5507 65 32.5 65 50.4492 50.4492 65 32.5 65 14.5507 65-2.06884e-14 50.4492 0 32.5Z" fill="#E7E6E6" fill-rule="evenodd" transform="matrix(1 0 0 -1 1787 2110)"/><rect x="0" y="0" width="155.924" height="415.748" fill="#005696" transform="matrix(-0.707107 0.707107 0.707107 0.707107 1772.91 1662.89)"/><rect x="0" y="0" width="155.924" height="285.827" fill="#0072C8" transform="matrix(-0.707107 0.707107 0.707107 0.707107 1818.84 1708.82)"/><path d="M0 19.4882C-2.48141e-15 8.72516 8.72621-2.48111e-15 19.4905-4.96221e-15 30.2549-9.92443e-15 38.9811 8.72516 38.9811 19.4882 38.9811 30.2512 30.2549 38.9764 19.4905 38.9764 8.72621 38.9764-1.2407e-14 30.2512 0 19.4882Z" fill-rule="evenodd" transform="matrix(-0.707107 0.707107 0.707107 0.707107 1740.95 1713.61)"/><path d="M0 19.4882C-2.48141e-15 8.72516 8.72621-2.48111e-15 19.4905-4.96221e-15 30.2549-9.92443e-15 38.9811 8.72516 38.9811 19.4882 38.9811 30.2512 30.2549 38.9764 19.4905 38.9764 8.72621 38.9764-1.2407e-14 30.2512 0 19.4882Z" fill-rule="evenodd" transform="matrix(-0.707107 0.707107 0.707107 0.707107 1988.79 1961.48)"/><rect x="0" y="0" width="12.9936" height="32.4803" transform="matrix(-0.707107 0.707107 0.707107 0.707107 1722.37 1713.41)"/><rect x="0" y="0" width="12.9936" height="32.4803" transform="matrix(-0.707107 0.707107 0.707107 0.707107 1993.39 1984.45)"/><path d="M0 77.9528C-9.9256e-15 34.9006 34.9048-9.92443e-15 77.962-1.98489e-14 121.019-3.96977e-14 155.924 34.9006 155.924 77.9528 155.924 121.005 121.019 155.906 77.962 155.906 34.9048 155.906-4.9628e-14 121.005 0 77.9528Z" fill="#008FFA" fill-rule="evenodd" transform="matrix(-0.707107 0.707107 0.707107 0.707107 1818.84 1708.82)"/><path d="M0 32.5C-4.13768e-15 14.5507 14.5507-4.13768e-15 32.5-8.27536e-15 50.4492-1.65507e-14 65 14.5507 65 32.5 65 50.4492 50.4492 65 32.5 65 14.5507 65-2.06884e-14 50.4492 0 32.5Z" fill="#E7E6E6" fill-rule="evenodd" transform="matrix(1 0 0 -1 1787 1850)"/><rect x="0" y="0" width="155.924" height="415.748" fill="#005696" transform="matrix(0.707107 -0.707107 -0.707107 -0.707107 2125.53 1714.99)"/><rect x="0" y="0" width="155.924" height="285.827" fill="#0072C8" transform="matrix(0.707107 -0.707107 -0.707107 -0.707107 2079.6 1669.06)"/><path d="M0 19.4882C-2.48141e-15 8.72516 8.72621-2.48111e-15 19.4905-4.96221e-15 30.2549-9.92443e-15 38.9811 8.72516 38.9811 19.4882 38.9811 30.2512 30.2549 38.9764 19.4905 38.9764 8.72621 38.9764-1.2407e-14 30.2512 0 19.4882Z" fill-rule="evenodd" transform="matrix(0.707107 -0.707107 -0.707107 -0.707107 2157.49 1664.28)"/><path d="M0 19.4882C-2.48141e-15 8.72516 8.72621-2.48111e-15 19.4905-4.96221e-15 30.2549-9.92443e-15 38.9811 8.72516 38.9811 19.4882 38.9811 30.2512 30.2549 38.9764 19.4905 38.9764 8.72621 38.9764-1.2407e-14 30.2512 0 19.4882Z" fill-rule="evenodd" transform="matrix(0.707107 -0.707107 -0.707107 -0.707107 1909.64 1416.4)"/><rect x="0" y="0" width="12.9936" height="32.4803" transform="matrix(0.707107 -0.707107 -0.707107 -0.707107 2176.06 1664.48)"/><rect x="0" y="0" width="12.9936" height="32.4803" transform="matrix(0.707107 -0.707107 -0.707107 -0.707107 1905.05 1393.43)"/><path d="M0 77.9528C-9.9256e-15 34.9006 34.9048-9.92443e-15 77.962-1.98489e-14 121.019-3.96977e-14 155.924 34.9006 155.924 77.9528 155.924 121.005 121.019 155.906 77.962 155.906 34.9048 155.906-4.9628e-14 121.005 0 77.9528Z" fill="#008FFA" fill-rule="evenodd" transform="matrix(0.707107 -0.707107 -0.707107 -0.707107 2079.6 1669.07)"/><path d="M0 32.5C-4.13768e-15 14.5507 14.5507-4.13768e-15 32.5-8.27536e-15 50.4492-1.65507e-14 65 14.5507 65 32.5 65 50.4492 50.4492 65 32.5 65 14.5507 65-2.06884e-14 50.4492 0 32.5Z" fill="#E7E6E6" fill-rule="evenodd" transform="matrix(1 0 0 -1 2047 1591)"/><rect x="0" y="0" width="155.924" height="415.748" fill="#005696" transform="matrix(0.707107 -0.707107 -0.707107 -0.707107 2645.21 1974.87)"/><rect x="0" y="0" width="155.924" height="285.827" fill="#0072C8" transform="matrix(0.707107 -0.707107 -0.707107 -0.707107 2599.28 1928.93)"/><path d="M0 19.4882C-2.48141e-15 8.72516 8.72621-2.48111e-15 19.4905-4.96221e-15 30.2549-9.92443e-15 38.9811 8.72516 38.9811 19.4882 38.9811 30.2512 30.2549 38.9764 19.4905 38.9764 8.72621 38.9764-1.2407e-14 30.2512 0 19.4882Z" fill-rule="evenodd" transform="matrix(0.707107 -0.707107 -0.707107 -0.707107 2677.17 1924.15)"/><path d="M0 19.4882C-2.48141e-15 8.72516 8.72621-2.48111e-15 19.4905-4.96221e-15 30.2549-9.92443e-15 38.9811 8.72516 38.9811 19.4882 38.9811 30.2512 30.2549 38.9764 19.4905 38.9764 8.72621 38.9764-1.2407e-14 30.2512 0 19.4882Z" fill-rule="evenodd" transform="matrix(0.707107 -0.707107 -0.707107 -0.707107 2429.33 1676.28)"/><rect x="0" y="0" width="12.9936" height="32.4803" transform="matrix(0.707107 -0.707107 -0.707107 -0.707107 2695.75 1924.35)"/><rect x="0" y="0" width="12.9936" height="32.4803" transform="matrix(0.707107 -0.707107 -0.707107 -0.707107 2424.74 1653.31)"/><path d="M0 77.9528C-9.9256e-15 34.9006 34.9048-9.92443e-15 77.962-1.98489e-14 121.019-3.96977e-14 155.924 34.9006 155.924 77.9528 155.924 121.005 121.019 155.906 77.962 155.906 34.9048 155.906-4.9628e-14 121.005 0 77.9528Z" fill="#008FFA" fill-rule="evenodd" transform="matrix(0.707107 -0.707107 -0.707107 -0.707107 2599.28 1928.94)"/><path d="M0 32.5C-4.13768e-15 14.5507 14.5507-4.13768e-15 32.5-8.27536e-15 50.4492-1.65507e-14 65 14.5507 65 32.5 65 50.4492 50.4492 65 32.5 65 14.5507 65-2.06884e-14 50.4492 0 32.5Z" fill="#E7E6E6" fill-rule="evenodd" transform="matrix(1 0 0 -1 2566 1850)"/><rect x="0" y="0" width="155.924" height="415.748" fill="#005696" transform="matrix(-0.707107 0.707107 0.707107 0.707107 2292.59 1922.76)"/><rect x="0" y="0" width="155.924" height="285.827" fill="#0072C8" transform="matrix(-0.707107 0.707107 0.707107 0.707107 2338.53 1968.7)"/><path d="M0 19.4882C-2.48141e-15 8.72516 8.72621-2.48111e-15 19.4905-4.96221e-15 30.2549-9.92443e-15 38.9811 8.72516 38.9811 19.4882 38.9811 30.2512 30.2549 38.9764 19.4905 38.9764 8.72621 38.9764-1.2407e-14 30.2512 0 19.4882Z" fill-rule="evenodd" transform="matrix(-0.707107 0.707107 0.707107 0.707107 2260.63 1973.48)"/><path d="M0 19.4882C-2.48141e-15 8.72516 8.72621-2.48111e-15 19.4905-4.96221e-15 30.2549-9.92443e-15 38.9811 8.72516 38.9811 19.4882 38.9811 30.2512 30.2549 38.9764 19.4905 38.9764 8.72621 38.9764-1.2407e-14 30.2512 0 19.4882Z" fill-rule="evenodd" transform="matrix(-0.707107 0.707107 0.707107 0.707107 2508.48 2221.35)"/><rect x="0" y="0" width="12.9936" height="32.4803" transform="matrix(-0.707107 0.707107 0.707107 0.707107 2242.06 1973.28)"/><rect x="0" y="0" width="12.9936" height="32.4803" transform="matrix(-0.707107 0.707107 0.707107 0.707107 2513.07 2244.32)"/><path d="M0 77.9528C-9.9256e-15 34.9006 34.9048-9.92443e-15 77.962-1.98489e-14 121.019-3.96977e-14 155.924 34.9006 155.924 77.9528 155.924 121.005 121.019 155.906 77.962 155.906 34.9048 155.906-4.9628e-14 121.005 0 77.9528Z" fill="#008FFA" fill-rule="evenodd" transform="matrix(-0.707107 0.707107 0.707107 0.707107 2338.53 1968.69)"/><path d="M0 32.5C-4.07402e-15 14.5507 14.3269-4.13768e-15 32-8.27536e-15 49.6731-1.65507e-14 63.9999 14.5507 63.9999 32.5 63.9999 50.4492 49.6731 65 32 65 14.3269 65-2.03701e-14 50.4492 0 32.5Z" fill="#E7E6E6" fill-rule="evenodd" transform="matrix(1 0 0 -1 2307 2110)"/><rect x="0" y="0" width="155.924" height="415.748" fill="#005696" transform="matrix(-0.707107 0.707107 0.707107 0.707107 2292.59 1662.89)"/><rect x="0" y="0" width="155.924" height="285.827" fill="#0072C8" transform="matrix(-0.707107 0.707107 0.707107 0.707107 2338.53 1708.82)"/><path d="M0 19.4882C-2.48141e-15 8.72516 8.72621-2.48111e-15 19.4905-4.96221e-15 30.2549-9.92443e-15 38.9811 8.72516 38.9811 19.4882 38.9811 30.2512 30.2549 38.9764 19.4905 38.9764 8.72621 38.9764-1.2407e-14 30.2512 0 19.4882Z" fill-rule="evenodd" transform="matrix(-0.707107 0.707107 0.707107 0.707107 2260.63 1713.61)"/><path d="M0 19.4882C-2.48141e-15 8.72516 8.72621-2.48111e-15 19.4905-4.96221e-15 30.2549-9.92443e-15 38.9811 8.72516 38.9811 19.4882 38.9811 30.2512 30.2549 38.9764 19.4905 38.9764 8.72621 38.9764-1.2407e-14 30.2512 0 19.4882Z" fill-rule="evenodd" transform="matrix(-0.707107 0.707107 0.707107 0.707107 2508.48 1961.48)"/><rect x="0" y="0" width="12.9936" height="32.4803" transform="matrix(-0.707107 0.707107 0.707107 0.707107 2242.06 1713.41)"/><rect x="0" y="0" width="12.9936" height="32.4803" transform="matrix(-0.707107 0.707107 0.707107 0.707107 2513.07 1984.45)"/><path d="M0 77.9528C-9.9256e-15 34.9006 34.9048-9.92443e-15 77.962-1.98489e-14 121.019-3.96977e-14 155.924 34.9006 155.924 77.9528 155.924 121.005 121.019 155.906 77.962 155.906 34.9048 155.906-4.9628e-14 121.005 0 77.9528Z" fill="#008FFA" fill-rule="evenodd" transform="matrix(-0.707107 0.707107 0.707107 0.707107 2338.53 1708.82)"/><path d="M0 32.5C-4.07402e-15 14.5507 14.3269-4.13768e-15 32-8.27536e-15 49.6731-1.65507e-14 63.9999 14.5507 63.9999 32.5 63.9999 50.4492 49.6731 65 32 65 14.3269 65-2.03701e-14 50.4492 0 32.5Z" fill="#E7E6E6" fill-rule="evenodd" transform="matrix(1 0 0 -1 2307 1850)"/><rect x="0" y="0" width="155.924" height="415.748" fill="#005696" transform="matrix(0.707107 -0.707107 -0.707107 -0.707107 2645.21 1714.99)"/><rect x="0" y="0" width="155.924" height="285.827" fill="#0072C8" transform="matrix(0.707107 -0.707107 -0.707107 -0.707107 2599.28 1669.06)"/><path d="M0 19.4882C-2.48141e-15 8.72516 8.72621-2.48111e-15 19.4905-4.96221e-15 30.2549-9.92443e-15 38.9811 8.72516 38.9811 19.4882 38.9811 30.2512 30.2549 38.9764 19.4905 38.9764 8.72621 38.9764-1.2407e-14 30.2512 0 19.4882Z" fill-rule="evenodd" transform="matrix(0.707107 -0.707107 -0.707107 -0.707107 2677.17 1664.28)"/><path d="M0 19.4882C-2.48141e-15 8.72516 8.72621-2.48111e-15 19.4905-4.96221e-15 30.2549-9.92443e-15 38.9811 8.72516 38.9811 19.4882 38.9811 30.2512 30.2549 38.9764 19.4905 38.9764 8.72621 38.9764-1.2407e-14 30.2512 0 19.4882Z" fill-rule="evenodd" transform="matrix(0.707107 -0.707107 -0.707107 -0.707107 2429.33 1416.4)"/><rect x="0" y="0" width="12.9936" height="32.4803" transform="matrix(0.707107 -0.707107 -0.707107 -0.707107 2695.75 1664.48)"/><rect x="0" y="0" width="12.9936" height="32.4803" transform="matrix(0.707107 -0.707107 -0.707107 -0.707107 2424.74 1393.43)"/><path d="M0 77.9528C-9.9256e-15 34.9006 34.9048-9.92443e-15 77.962-1.98489e-14 121.019-3.96977e-14 155.924 34.9006 155.924 77.9528 155.924 121.005 121.019 155.906 77.962 155.906 34.9048 155.906-4.9628e-14 121.005 0 77.9528Z" fill="#008FFA" fill-rule="evenodd" transform="matrix(0.707107 -0.707107 -0.707107 -0.707107 2599.28 1669.07)"/><path d="M0 32.5C-4.13768e-15 14.5507 14.5507-4.13768e-15 32.5-8.27536e-15 50.4492-1.65507e-14 65 14.5507 65 32.5 65 50.4492 50.4492 65 32.5 65 14.5507 65-2.06884e-14 50.4492 0 32.5Z" fill="#E7E6E6" fill-rule="evenodd" transform="matrix(1 0 0 -1 2566 1591)"/><path d="M2118 1819C2118 1696.95 2216.72 1598 2338.5 1598 2460.28 1598 2559 1696.95 2559 1819 2559 1941.06 2460.28 2040 2338.5 2040 2216.72 2040 2118 1941.06 2118 1819Z" fill="#E7E6E6" fill-rule="evenodd" fill-opacity="0.501961"/><path d="M0 0 155.906 0.000360892" stroke="#000000" stroke-width="25.9843" stroke-linecap="round" stroke-miterlimit="8" fill="none" fill-rule="evenodd" transform="matrix(6.12323e-17 1 1 -6.12323e-17 2339 1611)"/><path d="M2338.5 1858C2460.28 1858 2559 1956.94 2559 2079 2559 2201.05 2460.28 2300 2338.5 2300 2216.72 2300 2118 2201.05 2118 2079 2118 1956.94 2216.72 1858 2338.5 1858Z" fill="#E7E6E6" fill-rule="evenodd" fill-opacity="0.501961"/><path d="M0 0 155.906 0.000360892" stroke="#000000" stroke-width="25.9843" stroke-linecap="round" stroke-miterlimit="8" fill="none" fill-rule="evenodd" transform="matrix(-1 1.22465e-16 1.22465e-16 1 2546.91 2079)"/><path d="M0 0 0.000360892 155.906" stroke="#000000" stroke-width="25.9843" stroke-linecap="round" stroke-miterlimit="8" fill="none" fill-rule="evenodd" transform="matrix(-1 1.22465e-16 1.22465e-16 1 2339 1871)"/><path d="M2819 1819C2819 1941.06 2720.28 2040 2598.5 2040 2476.72 2040 2378 1941.06 2378 1819 2378 1696.95 2476.72 1598 2598.5 1598 2720.28 1598 2819 1696.95 2819 1819Z" fill="#E7E6E6" fill-rule="evenodd" fill-opacity="0.501961"/><path d="M0 0 155.906 0.000360892" stroke="#000000" stroke-width="25.9843" stroke-linecap="round" stroke-miterlimit="8" fill="none" fill-rule="evenodd" transform="matrix(-1.83697e-16 -1 -1 1.83697e-16 2598 2026.91)"/><path d="M0 0 0.000360892 155.906" stroke="#000000" stroke-width="25.9843" stroke-linecap="round" stroke-miterlimit="8" fill="none" fill-rule="evenodd" transform="matrix(-1.83697e-16 -1 -1 1.83697e-16 2805.91 1819)"/><path d="M2598.5 1780C2476.72 1780 2378 1681.05 2378 1559 2378 1436.94 2476.72 1338 2598.5 1338 2720.28 1338 2819 1436.94 2819 1559 2819 1681.05 2720.28 1780 2598.5 1780Z" fill="#E7E6E6" fill-rule="evenodd" fill-opacity="0.501961"/><path d="M0 0 155.906 0.000360892" stroke="#000000" stroke-width="25.9843" stroke-linecap="round" stroke-miterlimit="8" fill="none" fill-rule="evenodd" transform="matrix(1 0 0 -1 2391 1559)"/><path d="M0 0 0.000360892 155.906" stroke="#000000" stroke-width="25.9843" stroke-linecap="round" stroke-miterlimit="8" fill="none" fill-rule="evenodd" transform="matrix(1 0 0 -1 2598 1766.91)"/><path d="M1598 1819C1598 1696.95 1696.95 1598 1819 1598 1941.06 1598 2040 1696.95 2040 1819 2040 1941.06 1941.06 2040 1819 2040 1696.95 2040 1598 1941.06 1598 1819Z" fill="#E7E6E6" fill-rule="evenodd" fill-opacity="0.501961"/><path d="M0 0 155.906 0.000360892" stroke="#000000" stroke-width="25.9843" stroke-linecap="round" stroke-miterlimit="8" fill="none" fill-rule="evenodd" transform="matrix(6.12323e-17 1 1 -6.12323e-17 1819 1611)"/><path d="M1819 1858C1941.06 1858 2040 1956.95 2040 2079 2040 2201.05 1941.06 2300 1819 2300 1696.95 2300 1598 2201.05 1598 2079 1598 1956.95 1696.95 1858 1819 1858Z" fill="#E7E6E6" fill-rule="evenodd" fill-opacity="0.501961"/><path d="M0 0 155.906 0.000360892" stroke="#000000" stroke-width="25.9843" stroke-linecap="round" stroke-miterlimit="8" fill="none" fill-rule="evenodd" transform="matrix(-1 1.22465e-16 1.22465e-16 1 2026.91 2079)"/><path d="M0 0 0.000360892 155.906" stroke="#000000" stroke-width="25.9843" stroke-linecap="round" stroke-miterlimit="8" fill="none" fill-rule="evenodd" transform="matrix(-1 1.22465e-16 1.22465e-16 1 1819 1871)"/><path d="M2300 1819C2300 1941.06 2201.05 2040 2079 2040 1956.95 2040 1858 1941.06 1858 1819 1858 1696.95 1956.95 1598 2079 1598 2201.05 1598 2300 1696.95 2300 1819Z" fill="#E7E6E6" fill-rule="evenodd" fill-opacity="0.501961"/><path d="M0 0 155.906 0.000360892" stroke="#000000" stroke-width="25.9843" stroke-linecap="round" stroke-miterlimit="8" fill="none" fill-rule="evenodd" transform="matrix(-1.83697e-16 -1 -1 1.83697e-16 2079 2026.91)"/><path d="M0 0 0.000360892 155.906" stroke="#000000" stroke-width="25.9843" stroke-linecap="round" stroke-miterlimit="8" fill="none" fill-rule="evenodd" transform="matrix(-1.83697e-16 -1 -1 1.83697e-16 2286.91 1819)"/><path d="M2079 1780C1956.95 1780 1858 1681.05 1858 1559 1858 1436.94 1956.95 1338 2079 1338 2201.05 1338 2300 1436.94 2300 1559 2300 1681.05 2201.05 1780 2079 1780Z" fill="#E7E6E6" fill-rule="evenodd" fill-opacity="0.501961"/><path d="M0 0 155.906 0.000360892" stroke="#000000" stroke-width="25.9843" stroke-linecap="round" stroke-miterlimit="8" fill="none" fill-rule="evenodd" transform="matrix(1 0 0 -1 1871 1559)"/><path d="M0 0 0.000360892 155.906" stroke="#000000" stroke-width="25.9843" stroke-linecap="round" stroke-miterlimit="8" fill="none" fill-rule="evenodd" transform="matrix(1 0 0 -1 2079 1766.91)"/><rect x="520" y="1299" width="2338" height="234" fill="#FFFFFF" fill-opacity="0.74902"/><rect x="520" y="2105" width="2338" height="234" fill="#FFFFFF" fill-opacity="0.74902"/><rect x="1585" y="1533" width="208" height="572" fill="#FFFFFF" fill-opacity="0.74902"/><rect x="2624" y="1533" width="234" height="572" fill="#FFFFFF" fill-opacity="0.74902"/><rect x="2105" y="1533" width="208" height="572" fill="#FFFFFF" fill-opacity="0.74902"/></g></svg>