<svg width="2707" height="1383" xmlns="http://www.w3.org/2000/svg" xmlns:xlink="http://www.w3.org/1999/xlink" overflow="hidden"><defs><clipPath id="clip0"><rect x="466" y="167" width="2707" height="1383"/></clipPath></defs><g clip-path="url(#clip0)" transform="translate(-466 -167)"><path d="M663 728.5C770.42 728.5 857.5 815.804 857.5 923.5 857.5 1031.2 770.42 1118.5 663 1118.5 555.581 1118.5 468.5 1031.2 468.5 923.5 468.5 815.804 555.581 728.5 663 728.5Z" stroke="#FFFFFF" stroke-width="4.58333" stroke-miterlimit="8" fill="#181717" fill-rule="evenodd"/><path d="M0 0 0.000360892 195.14" stroke="#FFC000" stroke-width="25.9843" stroke-miterlimit="8" fill="none" fill-rule="evenodd" transform="matrix(-1 1.22465e-16 1.22465e-16 1 663 728)"/><path d="M663 910C670.18 910 676 915.82 676 923 676 930.18 670.18 936 663 936 655.82 936 650 930.18 650 923 650 915.82 655.82 910 663 910Z" fill="#FFC000" fill-rule="evenodd"/><path d="M663 936.5C770.42 936.5 857.5 1023.8 857.5 1131.5 857.5 1239.2 770.42 1326.5 663 1326.5 555.581 1326.5 468.5 1239.2 468.5 1131.5 468.5 1023.8 555.581 936.5 663 936.5Z" stroke="#FFFFFF" stroke-width="4.58333" stroke-miterlimit="8" fill="#181717" fill-rule="evenodd"/><path d="M0 0 194.625 0.000360892" stroke="#70AD47" stroke-width="25.9843" stroke-miterlimit="8" fill="none" fill-rule="evenodd" transform="matrix(-1 1.22465e-16 1.22465e-16 1 857.625 1131)"/><path d="M0 0 0.000360892 195.14" stroke="#70AD47" stroke-width="25.9843" stroke-miterlimit="8" fill="none" fill-rule="evenodd" transform="matrix(-1 1.22465e-16 1.22465e-16 1 663 936)"/><path d="M663 1118C670.18 1118 676 1123.82 676 1131 676 1138.18 670.18 1144 663 1144 655.82 1144 650 1138.18 650 1131 650 1123.82 655.82 1118 663 1118Z" fill="#70AD47" fill-rule="evenodd"/><path d="M871 1118.5C763.581 1118.5 676.5 1031.2 676.5 923.5 676.5 815.804 763.581 728.5 871 728.5 978.42 728.5 1065.5 815.804 1065.5 923.5 1065.5 1031.2 978.42 1118.5 871 1118.5Z" stroke="#FFFFFF" stroke-width="4.58333" stroke-miterlimit="8" fill="#181717" fill-rule="evenodd"/><path d="M0 0 194.625 0.000360892" stroke="#7030A0" stroke-width="25.9843" stroke-miterlimit="8" fill="none" fill-rule="evenodd" transform="matrix(1 0 0 -1 676 923)"/><path d="M0 0 0.000360892 195.14" stroke="#7030A0" stroke-width="25.9843" stroke-miterlimit="8" fill="none" fill-rule="evenodd" transform="matrix(1 0 0 -1 870 1118.14)"/><path d="M870 936C862.82 936 857 930.18 857 923 857 915.82 862.82 910 870 910 877.18 910 883 915.82 883 923 883 930.18 877.18 936 870 936Z" fill="#7030A0" fill-rule="evenodd"/><path d="M871.5 910.5C763.805 910.5 676.5 823.196 676.5 715.5 676.5 607.804 763.805 520.5 871.5 520.5 979.196 520.5 1066.5 607.804 1066.5 715.5 1066.5 823.196 979.196 910.5 871.5 910.5Z" stroke="#FFFFFF" stroke-width="4.58333" stroke-miterlimit="8" fill="#181717" fill-rule="evenodd"/><path d="M0 0 194.625 0.000360892" stroke="#5B9BD5" stroke-width="25.9843" stroke-miterlimit="8" fill="none" fill-rule="evenodd" transform="matrix(1 0 0 -1 676 715)"/><path d="M0 0 0.000360892 195.14" stroke="#5B9BD5" stroke-width="25.9843" stroke-miterlimit="8" fill="none" fill-rule="evenodd" transform="matrix(1 0 0 -1 871 910.14)"/><path d="M870 728C862.82 728 857 722.18 857 715 857 707.82 862.82 702 870 702 877.18 702 883 707.82 883 715 883 722.18 877.18 728 870 728Z" fill="#5B9BD5" fill-rule="evenodd"/><text fill="#5B9BD5" font-family="Bahnschrift,Bahnschrift_MSFontService,sans-serif" font-weight="400" font-size="73" transform="matrix(1 0 0 1 932.965 809)">C1<tspan fill="#FFC000" font-size="73" x="-409.345" y="78">C2</tspan><tspan fill="#7030A0" font-size="73" x="-7.1615" y="208">C3</tspan><tspan fill="#70AD47" font-size="73" x="-411.35" y="286">C4</tspan></text><path d="M1377.5 494.5C1377.5 386.804 1464.8 299.5 1572.5 299.5 1680.2 299.5 1767.5 386.804 1767.5 494.5 1767.5 602.196 1680.2 689.5 1572.5 689.5 1464.8 689.5 1377.5 602.196 1377.5 494.5Z" stroke="#FFFFFF" stroke-width="4.58333" stroke-miterlimit="8" fill="#181717" fill-rule="evenodd"/><path d="M0 0 194.625 0.000360892" stroke="#5B9BD5" stroke-width="25.9843" stroke-miterlimit="8" fill="none" fill-rule="evenodd" transform="matrix(6.12323e-17 1 1 -6.12323e-17 1572 299)"/><path d="M0 0 0.000360892 195.14" stroke="#5B9BD5" stroke-width="25.9843" stroke-miterlimit="8" fill="none" fill-rule="evenodd" transform="matrix(6.12323e-17 1 1 -6.12323e-17 1377 494)"/><path d="M1559 494C1559 486.82 1564.82 481 1572 481 1579.18 481 1585 486.82 1585 494 1585 501.18 1579.18 507 1572 507 1564.82 507 1559 501.18 1559 494Z" fill="#5B9BD5" fill-rule="evenodd"/><path d="M1572.5 1118.5C1464.8 1118.5 1377.5 1031.2 1377.5 923.5 1377.5 815.804 1464.8 728.5 1572.5 728.5 1680.2 728.5 1767.5 815.804 1767.5 923.5 1767.5 1031.2 1680.2 1118.5 1572.5 1118.5Z" stroke="#FFFFFF" stroke-width="4.58333" stroke-miterlimit="8" fill="#181717" fill-rule="evenodd"/><path d="M0 0 194.625 0.000360892" stroke="#5B9BD5" stroke-width="25.9843" stroke-miterlimit="8" fill="none" fill-rule="evenodd" transform="matrix(1 0 0 -1 1377 923)"/><path d="M0 0 0.000360892 195.14" stroke="#5B9BD5" stroke-width="25.9843" stroke-miterlimit="8" fill="none" fill-rule="evenodd" transform="matrix(1 0 0 -1 1572 1117.14)"/><path d="M1572 935C1564.82 935 1559 929.18 1559 922 1559 914.82 1564.82 909 1572 909 1579.18 909 1585 914.82 1585 922 1585 929.18 1579.18 935 1572 935Z" fill="#5B9BD5" fill-rule="evenodd"/><path d="M1767.5 1352.5C1767.5 1460.2 1680.2 1547.5 1572.5 1547.5 1464.8 1547.5 1377.5 1460.2 1377.5 1352.5 1377.5 1244.8 1464.8 1157.5 1572.5 1157.5 1680.2 1157.5 1767.5 1244.8 1767.5 1352.5Z" stroke="#FFFFFF" stroke-width="4.58333" stroke-miterlimit="8" fill="#181717" fill-rule="evenodd"/><path d="M0 0 194.625 0.000360892" stroke="#5B9BD5" stroke-width="25.9843" stroke-miterlimit="8" fill="none" fill-rule="evenodd" transform="matrix(-1.83697e-16 -1 -1 1.83697e-16 1572 1546.62)"/><path d="M0 0 0.000360892 195.14" stroke="#5B9BD5" stroke-width="25.9843" stroke-miterlimit="8" fill="none" fill-rule="evenodd" transform="matrix(-1.83697e-16 -1 -1 1.83697e-16 1767.14 1352)"/><path d="M1585 1352C1585 1359.18 1579.18 1365 1572 1365 1564.82 1365 1559 1359.18 1559 1352 1559 1344.82 1564.82 1339 1572 1339 1579.18 1339 1585 1344.82 1585 1352Z" fill="#5B9BD5" fill-rule="evenodd"/><path d="M2040.5 299.5C2148.2 299.5 2235.5 386.804 2235.5 494.5 2235.5 602.195 2148.2 689.5 2040.5 689.5 1932.8 689.5 1845.5 602.195 1845.5 494.5 1845.5 386.804 1932.8 299.5 2040.5 299.5Z" stroke="#FFFFFF" stroke-width="4.58333" stroke-miterlimit="8" fill="#181717" fill-rule="evenodd"/><path d="M0 0 0.000360892 195.14" stroke="#FFC000" stroke-width="25.9843" stroke-miterlimit="8" fill="none" fill-rule="evenodd" transform="matrix(-1 1.22465e-16 1.22465e-16 1 2040 299)"/><path d="M2040 481C2047.18 481 2053 486.82 2053 494 2053 501.18 2047.18 507 2040 507 2032.82 507 2027 501.18 2027 494 2027 486.82 2032.82 481 2040 481Z" fill="#FFC000" fill-rule="evenodd"/><path d="M1845.5 923.5C1845.5 815.804 1932.8 728.5 2040.5 728.5 2148.2 728.5 2235.5 815.804 2235.5 923.5 2235.5 1031.2 2148.2 1118.5 2040.5 1118.5 1932.8 1118.5 1845.5 1031.2 1845.5 923.5Z" stroke="#FFFFFF" stroke-width="4.58333" stroke-miterlimit="8" fill="#181717" fill-rule="evenodd"/><path d="M0 0 0.000360892 195.14" stroke="#FFC000" stroke-width="25.9843" stroke-miterlimit="8" fill="none" fill-rule="evenodd" transform="matrix(6.12323e-17 1 1 -6.12323e-17 1845 923)"/><path d="M2027 923C2027 915.82 2032.82 910 2040 910 2047.18 910 2053 915.82 2053 923 2053 930.18 2047.18 936 2040 936 2032.82 936 2027 930.18 2027 923Z" fill="#FFC000" fill-rule="evenodd"/><path d="M2313.5 494.5C2313.5 386.804 2400.58 299.5 2508 299.5 2615.42 299.5 2702.5 386.804 2702.5 494.5 2702.5 602.196 2615.42 689.5 2508 689.5 2400.58 689.5 2313.5 602.196 2313.5 494.5Z" stroke="#FFFFFF" stroke-width="4.58333" stroke-miterlimit="8" fill="#181717" fill-rule="evenodd"/><path d="M0 0 194.625 0.000360892" stroke="#7030A0" stroke-width="25.9843" stroke-miterlimit="8" fill="none" fill-rule="evenodd" transform="matrix(6.12323e-17 1 1 -6.12323e-17 2507 299)"/><path d="M0 0 0.000360892 195.14" stroke="#7030A0" stroke-width="25.9843" stroke-miterlimit="8" fill="none" fill-rule="evenodd" transform="matrix(6.12323e-17 1 1 -6.12323e-17 2313 494)"/><path d="M2495 494C2495 486.82 2500.82 481 2508 481 2515.18 481 2521 486.82 2521 494 2521 501.18 2515.18 507 2508 507 2500.82 507 2495 501.18 2495 494Z" fill="#7030A0" fill-rule="evenodd"/><path d="M2508 1118.5C2400.58 1118.5 2313.5 1031.2 2313.5 923.5 2313.5 815.804 2400.58 728.5 2508 728.5 2615.42 728.5 2702.5 815.804 2702.5 923.5 2702.5 1031.2 2615.42 1118.5 2508 1118.5Z" stroke="#FFFFFF" stroke-width="4.58333" stroke-miterlimit="8" fill="#181717" fill-rule="evenodd"/><path d="M0 0 194.625 0.000360892" stroke="#7030A0" stroke-width="25.9843" stroke-miterlimit="8" fill="none" fill-rule="evenodd" transform="matrix(1 0 0 -1 2313 923)"/><path d="M0 0 0.000360892 195.14" stroke="#7030A0" stroke-width="25.9843" stroke-miterlimit="8" fill="none" fill-rule="evenodd" transform="matrix(1 0 0 -1 2507 1118.14)"/><path d="M2507 936C2499.82 936 2494 930.18 2494 923 2494 915.82 2499.82 910 2507 910 2514.18 910 2520 915.82 2520 923 2520 930.18 2514.18 936 2507 936Z" fill="#7030A0" fill-rule="evenodd"/><path d="M2702.5 1352.5C2702.5 1460.2 2615.42 1547.5 2508 1547.5 2400.58 1547.5 2313.5 1460.2 2313.5 1352.5 2313.5 1244.8 2400.58 1157.5 2508 1157.5 2615.42 1157.5 2702.5 1244.8 2702.5 1352.5Z" stroke="#FFFFFF" stroke-width="4.58333" stroke-miterlimit="8" fill="#181717" fill-rule="evenodd"/><path d="M0 0 194.625 0.000360892" stroke="#7030A0" stroke-width="25.9843" stroke-miterlimit="8" fill="none" fill-rule="evenodd" transform="matrix(-1.83697e-16 -1 -1 1.83697e-16 2507 1546.62)"/><path d="M0 0 0.000360892 195.14" stroke="#7030A0" stroke-width="25.9843" stroke-miterlimit="8" fill="none" fill-rule="evenodd" transform="matrix(-1.83697e-16 -1 -1 1.83697e-16 2702.14 1352)"/><path d="M2520 1352C2520 1359.18 2514.18 1365 2507 1365 2499.82 1365 2494 1359.18 2494 1352 2494 1344.82 2499.82 1339 2507 1339 2514.18 1339 2520 1344.82 2520 1352Z" fill="#7030A0" fill-rule="evenodd"/><path d="M2975.5 689.5C2867.8 689.5 2780.5 602.195 2780.5 494.5 2780.5 386.804 2867.8 299.5 2975.5 299.5 3083.2 299.5 3170.5 386.804 3170.5 494.5 3170.5 602.195 3083.2 689.5 2975.5 689.5Z" stroke="#FFFFFF" stroke-width="4.58333" stroke-miterlimit="8" fill="#181717" fill-rule="evenodd"/><path d="M0 0 194.625 0.000360892" stroke="#70AD47" stroke-width="25.9843" stroke-miterlimit="8" fill="none" fill-rule="evenodd" transform="matrix(1 0 0 -1 2780 494)"/><path d="M0 0 0.000360892 195.14" stroke="#70AD47" stroke-width="25.9843" stroke-miterlimit="8" fill="none" fill-rule="evenodd" transform="matrix(1 0 0 -1 2975 689.14)"/><path d="M2975 507C2967.82 507 2962 501.18 2962 494 2962 486.82 2967.82 481 2975 481 2982.18 481 2988 486.82 2988 494 2988 501.18 2982.18 507 2975 507Z" fill="#70AD47" fill-rule="evenodd"/><path d="M3170.5 923.5C3170.5 1031.2 3083.2 1118.5 2975.5 1118.5 2867.8 1118.5 2780.5 1031.2 2780.5 923.5 2780.5 815.804 2867.8 728.5 2975.5 728.5 3083.2 728.5 3170.5 815.804 3170.5 923.5Z" stroke="#FFFFFF" stroke-width="4.58333" stroke-miterlimit="8" fill="#181717" fill-rule="evenodd"/><path d="M0 0 194.625 0.000360892" stroke="#70AD47" stroke-width="25.9843" stroke-miterlimit="8" fill="none" fill-rule="evenodd" transform="matrix(-1.83697e-16 -1 -1 1.83697e-16 2975 1117.62)"/><path d="M0 0 0.000360892 195.14" stroke="#70AD47" stroke-width="25.9843" stroke-miterlimit="8" fill="none" fill-rule="evenodd" transform="matrix(-1.83697e-16 -1 -1 1.83697e-16 3170.14 923)"/><path d="M2988 923C2988 930.18 2982.18 936 2975 936 2967.82 936 2962 930.18 2962 923 2962 915.82 2967.82 910 2975 910 2982.18 910 2988 915.82 2988 923Z" fill="#70AD47" fill-rule="evenodd"/><path d="M2975.5 1157.5C3083.2 1157.5 3170.5 1244.8 3170.5 1352.5 3170.5 1460.2 3083.2 1547.5 2975.5 1547.5 2867.8 1547.5 2780.5 1460.2 2780.5 1352.5 2780.5 1244.8 2867.8 1157.5 2975.5 1157.5Z" stroke="#FFFFFF" stroke-width="4.58333" stroke-miterlimit="8" fill="#181717" fill-rule="evenodd"/><path d="M0 0 194.625 0.000360892" stroke="#70AD47" stroke-width="25.9843" stroke-miterlimit="8" fill="none" fill-rule="evenodd" transform="matrix(-1 1.22465e-16 1.22465e-16 1 3169.62 1352)"/><path d="M0 0 0.000360892 195.14" stroke="#70AD47" stroke-width="25.9843" stroke-miterlimit="8" fill="none" fill-rule="evenodd" transform="matrix(-1 1.22465e-16 1.22465e-16 1 2975 1157)"/><path d="M2975 1339C2982.18 1339 2988 1344.82 2988 1352 2988 1359.18 2982.18 1365 2975 1365 2967.82 1365 2962 1359.18 2962 1352 2962 1344.82 2967.82 1339 2975 1339Z" fill="#70AD47" fill-rule="evenodd"/><text fill="#E7E6E6" font-family="Bahnschrift,Bahnschrift_MSFontService,sans-serif" font-weight="400" font-size="73" transform="matrix(1 0 0 1 1236.47 523)">P0<tspan font-size="73" x="-18.9063" y="429">P90</tspan><tspan font-size="73" x="-32.9426" y="858">P180</tspan><tspan fill="#5B9BD5" font-size="73" x="300.63" y="-260">C1</tspan><tspan fill="#FFC000" font-size="73" x="761.5" y="-259">C2</tspan><tspan fill="#7030A0" font-size="73" x="1228.9" y="-260">C3</tspan><tspan fill="#70AD47" font-size="73" x="1681.85" y="-260">C4</tspan></text></g></svg>