<svg width="2260" height="1018" xmlns="http://www.w3.org/2000/svg" xmlns:xlink="http://www.w3.org/1999/xlink" overflow="hidden"><defs><clipPath id="clip0"><rect x="559" y="142" width="2260" height="1018"/></clipPath></defs><g clip-path="url(#clip0)" transform="translate(-559 -142)"><rect x="0" y="0" width="155.924" height="415.748" fill="#404040" transform="matrix(0.707107 -0.707107 -0.707107 -0.707107 1086.16 806.986)"/><rect x="0" y="0" width="155.924" height="285.827" fill="#262626" transform="matrix(0.707107 -0.707107 -0.707107 -0.707107 1040.22 761.052)"/><path d="M0 19.4882C-2.48141e-15 8.72516 8.72621-2.48111e-15 19.4905-4.96221e-15 30.2549-9.92443e-15 38.9811 8.72516 38.9811 19.4882 38.9811 30.2512 30.2549 38.9764 19.4905 38.9764 8.72621 38.9764-1.2407e-14 30.2512 0 19.4882Z" fill-rule="evenodd" transform="matrix(0.707107 -0.707107 -0.707107 -0.707107 1118.12 756.268)"/><path d="M0 19.4882C-2.48141e-15 8.72516 8.72621-2.48111e-15 19.4905-4.96221e-15 30.2549-9.92443e-15 38.9811 8.72516 38.9811 19.4882 38.9811 30.2512 30.2549 38.9764 19.4905 38.9764 8.72621 38.9764-1.2407e-14 30.2512 0 19.4882Z" fill-rule="evenodd" transform="matrix(0.707107 -0.707107 -0.707107 -0.707107 870.273 508.395)"/><rect x="0" y="0" width="12.9936" height="32.4803" transform="matrix(0.707107 -0.707107 -0.707107 -0.707107 1136.69 756.468)"/><rect x="0" y="0" width="12.9936" height="32.4803" transform="matrix(0.707107 -0.707107 -0.707107 -0.707107 865.681 485.425)"/><path d="M0 77.9528C-9.9256e-15 34.9006 34.9048-9.92443e-15 77.962-1.98489e-14 121.019-3.96977e-14 155.924 34.9006 155.924 77.9528 155.924 121.005 121.019 155.906 77.962 155.906 34.9048 155.906-4.9628e-14 121.005 0 77.9528Z" fill="#0D0D0D" fill-rule="evenodd" transform="matrix(0.707107 -0.707107 -0.707107 -0.707107 1040.22 761.057)"/><path d="M0 32.5C-4.1377e-15 14.5507 14.5508-4.13768e-15 32.5002-8.27536e-15 50.4495-1.65507e-14 65.0003 14.5507 65.0003 32.5 65.0003 50.4492 50.4495 65 32.5002 65 14.5508 65-2.06885e-14 50.4492 0 32.5Z" fill="#3B3838" fill-rule="evenodd" transform="matrix(1 0 0 -1 1007 682)"/><rect x="0" y="0" width="155.924" height="415.748" fill="#404040" transform="matrix(-0.707107 0.707107 0.707107 0.707107 733.538 754.88)"/><rect x="0" y="0" width="155.924" height="285.827" fill="#262626" transform="matrix(-0.707107 0.707107 0.707107 0.707107 779.472 800.814)"/><path d="M0 19.4882C-2.48141e-15 8.72516 8.72621-2.48111e-15 19.4905-4.96221e-15 30.2549-9.92443e-15 38.9811 8.72516 38.9811 19.4882 38.9811 30.2512 30.2549 38.9764 19.4905 38.9764 8.72621 38.9764-1.2407e-14 30.2512 0 19.4882Z" fill-rule="evenodd" transform="matrix(-0.707107 0.707107 0.707107 0.707107 701.579 805.598)"/><path d="M0 19.4882C-2.48141e-15 8.72516 8.72621-2.48111e-15 19.4905-4.96221e-15 30.2549-9.92443e-15 38.9811 8.72516 38.9811 19.4882 38.9811 30.2512 30.2549 38.9764 19.4905 38.9764 8.72621 38.9764-1.2407e-14 30.2512 0 19.4882Z" fill-rule="evenodd" transform="matrix(-0.707107 0.707107 0.707107 0.707107 949.423 1053.47)"/><rect x="0" y="0" width="12.9936" height="32.4803" transform="matrix(-0.707107 0.707107 0.707107 0.707107 683.004 805.398)"/><rect x="0" y="0" width="12.9936" height="32.4803" transform="matrix(-0.707107 0.707107 0.707107 0.707107 954.016 1076.44)"/><path d="M0 77.9528C-9.9256e-15 34.9006 34.9048-9.92443e-15 77.962-1.98489e-14 121.019-3.96977e-14 155.924 34.9006 155.924 77.9528 155.924 121.005 121.019 155.906 77.962 155.906 34.9048 155.906-4.9628e-14 121.005 0 77.9528Z" fill="#0D0D0D" fill-rule="evenodd" transform="matrix(-0.707107 0.707107 0.707107 0.707107 779.472 800.809)"/><path d="M0 32.5C-4.13768e-15 14.5507 14.5507-4.13768e-15 32.5-8.27536e-15 50.4492-1.65507e-14 65 14.5507 65 32.5 65 50.4492 50.4492 65 32.5 65 14.5507 65-2.06884e-14 50.4492 0 32.5Z" fill="#3B3838" fill-rule="evenodd" transform="matrix(1 0 0 -1 747 942)"/><rect x="0" y="0" width="155.924" height="415.748" fill="#404040" transform="matrix(-0.707107 0.707107 0.707107 0.707107 733.538 495.007)"/><rect x="0" y="0" width="155.924" height="285.827" fill="#262626" transform="matrix(-0.707107 0.707107 0.707107 0.707107 779.472 540.941)"/><path d="M0 19.4882C-2.48141e-15 8.72516 8.72621-2.48111e-15 19.4905-4.96221e-15 30.2549-9.92443e-15 38.9811 8.72516 38.9811 19.4882 38.9811 30.2512 30.2549 38.9764 19.4905 38.9764 8.72621 38.9764-1.2407e-14 30.2512 0 19.4882Z" fill-rule="evenodd" transform="matrix(-0.707107 0.707107 0.707107 0.707107 701.579 545.725)"/><path d="M0 19.4882C-2.48141e-15 8.72516 8.72621-2.48111e-15 19.4905-4.96221e-15 30.2549-9.92443e-15 38.9811 8.72516 38.9811 19.4882 38.9811 30.2512 30.2549 38.9764 19.4905 38.9764 8.72621 38.9764-1.2407e-14 30.2512 0 19.4882Z" fill-rule="evenodd" transform="matrix(-0.707107 0.707107 0.707107 0.707107 949.423 793.598)"/><rect x="0" y="0" width="12.9936" height="32.4803" transform="matrix(-0.707107 0.707107 0.707107 0.707107 683.004 545.525)"/><rect x="0" y="0" width="12.9936" height="32.4803" transform="matrix(-0.707107 0.707107 0.707107 0.707107 954.016 816.568)"/><path d="M0 77.9528C-9.9256e-15 34.9006 34.9048-9.92443e-15 77.962-1.98489e-14 121.019-3.96977e-14 155.924 34.9006 155.924 77.9528 155.924 121.005 121.019 155.906 77.962 155.906 34.9048 155.906-4.9628e-14 121.005 0 77.9528Z" fill="#0D0D0D" fill-rule="evenodd" transform="matrix(-0.707107 0.707107 0.707107 0.707107 779.472 540.936)"/><path d="M0 32.5C-4.13768e-15 14.5507 14.5507-4.13768e-15 32.5-8.27536e-15 50.4492-1.65507e-14 65 14.5507 65 32.5 65 50.4492 50.4492 65 32.5 65 14.5507 65-2.06884e-14 50.4492 0 32.5Z" fill="#3B3838" fill-rule="evenodd" transform="matrix(1 0 0 -1 747 682)"/><rect x="0" y="0" width="155.924" height="415.748" fill="#404040" transform="matrix(0.707107 -0.707107 -0.707107 -0.707107 1086.16 547.113)"/><rect x="0" y="0" width="155.924" height="285.827" fill="#262626" transform="matrix(0.707107 -0.707107 -0.707107 -0.707107 1040.22 501.179)"/><path d="M0 19.4882C-2.48141e-15 8.72516 8.72621-2.48111e-15 19.4905-4.96221e-15 30.2549-9.92443e-15 38.9811 8.72516 38.9811 19.4882 38.9811 30.2512 30.2549 38.9764 19.4905 38.9764 8.72621 38.9764-1.2407e-14 30.2512 0 19.4882Z" fill-rule="evenodd" transform="matrix(0.707107 -0.707107 -0.707107 -0.707107 1118.12 496.396)"/><path d="M0 19.4882C-2.48141e-15 8.72516 8.72621-2.48111e-15 19.4905-4.96221e-15 30.2549-9.92443e-15 38.9811 8.72516 38.9811 19.4882 38.9811 30.2512 30.2549 38.9764 19.4905 38.9764 8.72621 38.9764-1.2407e-14 30.2512 0 19.4882Z" fill-rule="evenodd" transform="matrix(0.707107 -0.707107 -0.707107 -0.707107 870.274 248.522)"/><rect x="0" y="0" width="12.9936" height="32.4803" transform="matrix(0.707107 -0.707107 -0.707107 -0.707107 1136.69 496.596)"/><rect x="0" y="0" width="12.9936" height="32.4803" transform="matrix(0.707107 -0.707107 -0.707107 -0.707107 865.681 225.552)"/><path d="M0 77.9528C-9.9256e-15 34.9006 34.9048-9.92443e-15 77.962-1.98489e-14 121.019-3.96977e-14 155.924 34.9006 155.924 77.9528 155.924 121.005 121.019 155.906 77.962 155.906 34.9048 155.906-4.9628e-14 121.005 0 77.9528Z" fill="#0D0D0D" fill-rule="evenodd" transform="matrix(0.707107 -0.707107 -0.707107 -0.707107 1040.22 501.184)"/><path d="M0 32.5002C-4.13768e-15 14.5508 14.5507-4.1377e-15 32.5-8.27541e-15 50.4492-1.65508e-14 65 14.5508 65 32.5002 65 50.4495 50.4492 65.0003 32.5 65.0003 14.5507 65.0003-2.06884e-14 50.4495 0 32.5002Z" fill="#3B3838" fill-rule="evenodd" transform="matrix(1 0 0 -1 1008 423)"/><rect x="0" y="0" width="155.924" height="415.748" fill="#404040" transform="matrix(0.707107 -0.707107 -0.707107 -0.707107 1605.84 806.986)"/><rect x="0" y="0" width="155.924" height="285.827" fill="#262626" transform="matrix(0.707107 -0.707107 -0.707107 -0.707107 1559.91 761.052)"/><path d="M0 19.4882C-2.48141e-15 8.72516 8.72621-2.48111e-15 19.4905-4.96221e-15 30.2549-9.92443e-15 38.9811 8.72516 38.9811 19.4882 38.9811 30.2512 30.2549 38.9764 19.4905 38.9764 8.72621 38.9764-1.2407e-14 30.2512 0 19.4882Z" fill-rule="evenodd" transform="matrix(0.707107 -0.707107 -0.707107 -0.707107 1637.8 756.268)"/><path d="M0 19.4882C-2.48141e-15 8.72516 8.72621-2.48111e-15 19.4905-4.96221e-15 30.2549-9.92443e-15 38.9811 8.72516 38.9811 19.4882 38.9811 30.2512 30.2549 38.9764 19.4905 38.9764 8.72621 38.9764-1.2407e-14 30.2512 0 19.4882Z" fill-rule="evenodd" transform="matrix(0.707107 -0.707107 -0.707107 -0.707107 1389.96 508.395)"/><rect x="0" y="0" width="12.9936" height="32.4803" transform="matrix(0.707107 -0.707107 -0.707107 -0.707107 1656.38 756.468)"/><rect x="0" y="0" width="12.9936" height="32.4803" transform="matrix(0.707107 -0.707107 -0.707107 -0.707107 1385.37 485.425)"/><path d="M0 77.9528C-9.9256e-15 34.9006 34.9048-9.92443e-15 77.962-1.98489e-14 121.019-3.96977e-14 155.924 34.9006 155.924 77.9528 155.924 121.005 121.019 155.906 77.962 155.906 34.9048 155.906-4.9628e-14 121.005 0 77.9528Z" fill="#0D0D0D" fill-rule="evenodd" transform="matrix(0.707107 -0.707107 -0.707107 -0.707107 1559.91 761.057)"/><path d="M0 32.5C-4.13768e-15 14.5507 14.5507-4.13768e-15 32.5-8.27536e-15 50.4492-1.65507e-14 65 14.5507 65 32.5 65 50.4492 50.4492 65 32.5 65 14.5507 65-2.06884e-14 50.4492 0 32.5Z" fill="#3B3838" fill-rule="evenodd" transform="matrix(1 0 0 -1 1527 682)"/><rect x="0" y="0" width="155.924" height="415.748" fill="#404040" transform="matrix(-0.707107 0.707107 0.707107 0.707107 1253.22 754.88)"/><rect x="0" y="0" width="155.924" height="285.827" fill="#262626" transform="matrix(-0.707107 0.707107 0.707107 0.707107 1299.16 800.814)"/><path d="M0 19.4882C-2.48141e-15 8.72516 8.72621-2.48111e-15 19.4905-4.96221e-15 30.2549-9.92443e-15 38.9811 8.72516 38.9811 19.4882 38.9811 30.2512 30.2549 38.9764 19.4905 38.9764 8.72621 38.9764-1.2407e-14 30.2512 0 19.4882Z" fill-rule="evenodd" transform="matrix(-0.707107 0.707107 0.707107 0.707107 1221.26 805.598)"/><path d="M0 19.4882C-2.48141e-15 8.72516 8.72621-2.48111e-15 19.4905-4.96221e-15 30.2549-9.92443e-15 38.9811 8.72516 38.9811 19.4882 38.9811 30.2512 30.2549 38.9764 19.4905 38.9764 8.72621 38.9764-1.2407e-14 30.2512 0 19.4882Z" fill-rule="evenodd" transform="matrix(-0.707107 0.707107 0.707107 0.707107 1469.11 1053.47)"/><rect x="0" y="0" width="12.9936" height="32.4803" transform="matrix(-0.707107 0.707107 0.707107 0.707107 1202.69 805.398)"/><rect x="0" y="0" width="12.9936" height="32.4803" transform="matrix(-0.707107 0.707107 0.707107 0.707107 1473.7 1076.44)"/><path d="M0 77.9528C-9.9256e-15 34.9006 34.9048-9.92443e-15 77.962-1.98489e-14 121.019-3.96977e-14 155.924 34.9006 155.924 77.9528 155.924 121.005 121.019 155.906 77.962 155.906 34.9048 155.906-4.9628e-14 121.005 0 77.9528Z" fill="#0D0D0D" fill-rule="evenodd" transform="matrix(-0.707107 0.707107 0.707107 0.707107 1299.16 800.809)"/><path d="M0 32.5C-4.13768e-15 14.5507 14.5507-4.13768e-15 32.5-8.27536e-15 50.4492-1.65507e-14 65 14.5507 65 32.5 65 50.4492 50.4492 65 32.5 65 14.5507 65-2.06884e-14 50.4492 0 32.5Z" fill="#3B3838" fill-rule="evenodd" transform="matrix(1 0 0 -1 1267 942)"/><rect x="0" y="0" width="155.924" height="415.748" fill="#404040" transform="matrix(-0.707107 0.707107 0.707107 0.707107 1253.22 495.007)"/><rect x="0" y="0" width="155.924" height="285.827" fill="#262626" transform="matrix(-0.707107 0.707107 0.707107 0.707107 1299.16 540.941)"/><path d="M0 19.4882C-2.48141e-15 8.72516 8.72621-2.48111e-15 19.4905-4.96221e-15 30.2549-9.92443e-15 38.9811 8.72516 38.9811 19.4882 38.9811 30.2512 30.2549 38.9764 19.4905 38.9764 8.72621 38.9764-1.2407e-14 30.2512 0 19.4882Z" fill-rule="evenodd" transform="matrix(-0.707107 0.707107 0.707107 0.707107 1221.26 545.725)"/><path d="M0 19.4882C-2.48141e-15 8.72516 8.72621-2.48111e-15 19.4905-4.96221e-15 30.2549-9.92443e-15 38.9811 8.72516 38.9811 19.4882 38.9811 30.2512 30.2549 38.9764 19.4905 38.9764 8.72621 38.9764-1.2407e-14 30.2512 0 19.4882Z" fill-rule="evenodd" transform="matrix(-0.707107 0.707107 0.707107 0.707107 1469.11 793.598)"/><rect x="0" y="0" width="12.9936" height="32.4803" transform="matrix(-0.707107 0.707107 0.707107 0.707107 1202.69 545.525)"/><rect x="0" y="0" width="12.9936" height="32.4803" transform="matrix(-0.707107 0.707107 0.707107 0.707107 1473.7 816.568)"/><path d="M0 77.9528C-9.9256e-15 34.9006 34.9048-9.92443e-15 77.962-1.98489e-14 121.019-3.96977e-14 155.924 34.9006 155.924 77.9528 155.924 121.005 121.019 155.906 77.962 155.906 34.9048 155.906-4.9628e-14 121.005 0 77.9528Z" fill="#0D0D0D" fill-rule="evenodd" transform="matrix(-0.707107 0.707107 0.707107 0.707107 1299.16 540.936)"/><path d="M0 32.5C-4.13768e-15 14.5507 14.5507-4.13768e-15 32.5-8.27536e-15 50.4492-1.65507e-14 65 14.5507 65 32.5 65 50.4492 50.4492 65 32.5 65 14.5507 65-2.06884e-14 50.4492 0 32.5Z" fill="#3B3838" fill-rule="evenodd" transform="matrix(1 0 0 -1 1267 682)"/><rect x="0" y="0" width="155.924" height="415.748" fill="#404040" transform="matrix(0.707107 -0.707107 -0.707107 -0.707107 1605.84 547.113)"/><rect x="0" y="0" width="155.924" height="285.827" fill="#262626" transform="matrix(0.707107 -0.707107 -0.707107 -0.707107 1559.91 501.179)"/><path d="M0 19.4882C-2.48141e-15 8.72516 8.72621-2.48111e-15 19.4905-4.96221e-15 30.2549-9.92443e-15 38.9811 8.72516 38.9811 19.4882 38.9811 30.2512 30.2549 38.9764 19.4905 38.9764 8.72621 38.9764-1.2407e-14 30.2512 0 19.4882Z" fill-rule="evenodd" transform="matrix(0.707107 -0.707107 -0.707107 -0.707107 1637.8 496.396)"/><path d="M0 19.4882C-2.48141e-15 8.72516 8.72621-2.48111e-15 19.4905-4.96221e-15 30.2549-9.92443e-15 38.9811 8.72516 38.9811 19.4882 38.9811 30.2512 30.2549 38.9764 19.4905 38.9764 8.72621 38.9764-1.2407e-14 30.2512 0 19.4882Z" fill-rule="evenodd" transform="matrix(0.707107 -0.707107 -0.707107 -0.707107 1389.96 248.522)"/><rect x="0" y="0" width="12.9936" height="32.4803" transform="matrix(0.707107 -0.707107 -0.707107 -0.707107 1656.38 496.596)"/><rect x="0" y="0" width="12.9936" height="32.4803" transform="matrix(0.707107 -0.707107 -0.707107 -0.707107 1385.37 225.552)"/><path d="M0 77.9528C-9.9256e-15 34.9006 34.9048-9.92443e-15 77.962-1.98489e-14 121.019-3.96977e-14 155.924 34.9006 155.924 77.9528 155.924 121.005 121.019 155.906 77.962 155.906 34.9048 155.906-4.9628e-14 121.005 0 77.9528Z" fill="#0D0D0D" fill-rule="evenodd" transform="matrix(0.707107 -0.707107 -0.707107 -0.707107 1559.91 501.184)"/><path d="M0 32.5002C-4.13768e-15 14.5508 14.5507-4.1377e-15 32.5-8.27541e-15 50.4492-1.65508e-14 65 14.5508 65 32.5002 65 50.4495 50.4492 65.0003 32.5 65.0003 14.5507 65.0003-2.06884e-14 50.4495 0 32.5002Z" fill="#3B3838" fill-rule="evenodd" transform="matrix(1 0 0 -1 1527 423)"/><rect x="0" y="0" width="155.924" height="415.748" fill="#404040" transform="matrix(0.707107 -0.707107 -0.707107 -0.707107 2125.53 806.281)"/><rect x="0" y="0" width="155.924" height="285.827" fill="#262626" transform="matrix(0.707107 -0.707107 -0.707107 -0.707107 2079.59 760.347)"/><path d="M0 19.4882C-2.48141e-15 8.72516 8.72621-2.48111e-15 19.4905-4.96221e-15 30.2549-9.92443e-15 38.9811 8.72516 38.9811 19.4882 38.9811 30.2512 30.2549 38.9764 19.4905 38.9764 8.72621 38.9764-1.2407e-14 30.2512 0 19.4882Z" fill-rule="evenodd" transform="matrix(0.707107 -0.707107 -0.707107 -0.707107 2157.49 755.563)"/><path d="M0 19.4882C-2.48141e-15 8.72516 8.72621-2.48111e-15 19.4905-4.96221e-15 30.2549-9.92443e-15 38.9811 8.72516 38.9811 19.4882 38.9811 30.2512 30.2549 38.9764 19.4905 38.9764 8.72621 38.9764-1.2407e-14 30.2512 0 19.4882Z" fill-rule="evenodd" transform="matrix(0.707107 -0.707107 -0.707107 -0.707107 1909.64 507.69)"/><rect x="0" y="0" width="12.9936" height="32.4803" transform="matrix(0.707107 -0.707107 -0.707107 -0.707107 2176.06 755.763)"/><rect x="0" y="0" width="12.9936" height="32.4803" transform="matrix(0.707107 -0.707107 -0.707107 -0.707107 1905.05 484.72)"/><path d="M0 77.9528C-9.9256e-15 34.9006 34.9048-9.92443e-15 77.962-1.98489e-14 121.019-3.96977e-14 155.924 34.9006 155.924 77.9528 155.924 121.005 121.019 155.906 77.962 155.906 34.9048 155.906-4.9628e-14 121.005 0 77.9528Z" fill="#0D0D0D" fill-rule="evenodd" transform="matrix(0.707107 -0.707107 -0.707107 -0.707107 2079.59 760.352)"/><path d="M0 32C-4.13768e-15 14.3269 14.5507-4.07402e-15 32.5-8.14805e-15 50.4492-1.62961e-14 65 14.3269 65 32 65 49.6731 50.4492 63.9999 32.5 63.9999 14.5507 63.9999-2.06884e-14 49.6731 0 32Z" fill="#3B3838" fill-rule="evenodd" transform="matrix(1 0 0 -1 2047 681)"/><rect x="0" y="0" width="155.924" height="415.748" fill="#404040" transform="matrix(-0.707107 0.707107 0.707107 0.707107 1772.91 754.175)"/><rect x="0" y="0" width="155.924" height="285.827" fill="#262626" transform="matrix(-0.707107 0.707107 0.707107 0.707107 1818.84 800.109)"/><path d="M0 19.4882C-2.48141e-15 8.72516 8.72621-2.48111e-15 19.4905-4.96221e-15 30.2549-9.92443e-15 38.9811 8.72516 38.9811 19.4882 38.9811 30.2512 30.2549 38.9764 19.4905 38.9764 8.72621 38.9764-1.2407e-14 30.2512 0 19.4882Z" fill-rule="evenodd" transform="matrix(-0.707107 0.707107 0.707107 0.707107 1740.95 804.892)"/><path d="M0 19.4882C-2.48141e-15 8.72516 8.72621-2.48111e-15 19.4905-4.96221e-15 30.2549-9.92443e-15 38.9811 8.72516 38.9811 19.4882 38.9811 30.2512 30.2549 38.9764 19.4905 38.9764 8.72621 38.9764-1.2407e-14 30.2512 0 19.4882Z" fill-rule="evenodd" transform="matrix(-0.707107 0.707107 0.707107 0.707107 1988.79 1052.77)"/><rect x="0" y="0" width="12.9936" height="32.4803" transform="matrix(-0.707107 0.707107 0.707107 0.707107 1722.37 804.693)"/><rect x="0" y="0" width="12.9936" height="32.4803" transform="matrix(-0.707107 0.707107 0.707107 0.707107 1993.39 1075.74)"/><path d="M0 77.9528C-9.9256e-15 34.9006 34.9048-9.92443e-15 77.962-1.98489e-14 121.019-3.96977e-14 155.924 34.9006 155.924 77.9528 155.924 121.005 121.019 155.906 77.962 155.906 34.9048 155.906-4.9628e-14 121.005 0 77.9528Z" fill="#0D0D0D" fill-rule="evenodd" transform="matrix(-0.707107 0.707107 0.707107 0.707107 1818.84 800.104)"/><path d="M0 32.5C-4.13768e-15 14.5507 14.5507-4.13768e-15 32.5-8.27536e-15 50.4492-1.65507e-14 65 14.5507 65 32.5 65 50.4492 50.4492 65 32.5 65 14.5507 65-2.06884e-14 50.4492 0 32.5Z" fill="#3B3838" fill-rule="evenodd" transform="matrix(1 0 0 -1 1787 941)"/><rect x="0" y="0" width="155.924" height="415.748" fill="#404040" transform="matrix(-0.707107 0.707107 0.707107 0.707107 1772.91 494.302)"/><rect x="0" y="0" width="155.924" height="285.827" fill="#262626" transform="matrix(-0.707107 0.707107 0.707107 0.707107 1818.84 540.236)"/><path d="M0 19.4882C-2.48141e-15 8.72516 8.72621-2.48111e-15 19.4905-4.96221e-15 30.2549-9.92443e-15 38.9811 8.72516 38.9811 19.4882 38.9811 30.2512 30.2549 38.9764 19.4905 38.9764 8.72621 38.9764-1.2407e-14 30.2512 0 19.4882Z" fill-rule="evenodd" transform="matrix(-0.707107 0.707107 0.707107 0.707107 1740.95 545.02)"/><path d="M0 19.4882C-2.48141e-15 8.72516 8.72621-2.48111e-15 19.4905-4.96221e-15 30.2549-9.92443e-15 38.9811 8.72516 38.9811 19.4882 38.9811 30.2512 30.2549 38.9764 19.4905 38.9764 8.72621 38.9764-1.2407e-14 30.2512 0 19.4882Z" fill-rule="evenodd" transform="matrix(-0.707107 0.707107 0.707107 0.707107 1988.79 792.893)"/><rect x="0" y="0" width="12.9936" height="32.4803" transform="matrix(-0.707107 0.707107 0.707107 0.707107 1722.37 544.82)"/><rect x="0" y="0" width="12.9936" height="32.4803" transform="matrix(-0.707107 0.707107 0.707107 0.707107 1993.39 815.863)"/><path d="M0 77.9528C-9.9256e-15 34.9006 34.9048-9.92443e-15 77.962-1.98489e-14 121.019-3.96977e-14 155.924 34.9006 155.924 77.9528 155.924 121.005 121.019 155.906 77.962 155.906 34.9048 155.906-4.9628e-14 121.005 0 77.9528Z" fill="#0D0D0D" fill-rule="evenodd" transform="matrix(-0.707107 0.707107 0.707107 0.707107 1818.84 540.231)"/><path d="M0 32C-4.13768e-15 14.3269 14.5507-4.07402e-15 32.5-8.14805e-15 50.4492-1.62961e-14 65 14.3269 65 32 65 49.6731 50.4492 63.9999 32.5 63.9999 14.5507 63.9999-2.06884e-14 49.6731 0 32Z" fill="#3B3838" fill-rule="evenodd" transform="matrix(1 0 0 -1 1787 681)"/><rect x="0" y="0" width="155.924" height="415.748" fill="#404040" transform="matrix(0.707107 -0.707107 -0.707107 -0.707107 2125.53 546.408)"/><rect x="0" y="0" width="155.924" height="285.827" fill="#262626" transform="matrix(0.707107 -0.707107 -0.707107 -0.707107 2079.59 500.474)"/><path d="M0 19.4882C-2.48141e-15 8.72516 8.72621-2.48111e-15 19.4905-4.96221e-15 30.2549-9.92443e-15 38.9811 8.72516 38.9811 19.4882 38.9811 30.2512 30.2549 38.9764 19.4905 38.9764 8.72621 38.9764-1.2407e-14 30.2512 0 19.4882Z" fill-rule="evenodd" transform="matrix(0.707107 -0.707107 -0.707107 -0.707107 2157.49 495.69)"/><path d="M0 19.4882C-2.48141e-15 8.72516 8.72621-2.48111e-15 19.4905-4.96221e-15 30.2549-9.92443e-15 38.9811 8.72516 38.9811 19.4882 38.9811 30.2512 30.2549 38.9764 19.4905 38.9764 8.72621 38.9764-1.2407e-14 30.2512 0 19.4882Z" fill-rule="evenodd" transform="matrix(0.707107 -0.707107 -0.707107 -0.707107 1909.64 247.817)"/><rect x="0" y="0" width="12.9936" height="32.4803" transform="matrix(0.707107 -0.707107 -0.707107 -0.707107 2176.06 495.89)"/><rect x="0" y="0" width="12.9936" height="32.4803" transform="matrix(0.707107 -0.707107 -0.707107 -0.707107 1905.05 224.847)"/><path d="M0 77.9528C-9.9256e-15 34.9006 34.9048-9.92443e-15 77.962-1.98489e-14 121.019-3.96977e-14 155.924 34.9006 155.924 77.9528 155.924 121.005 121.019 155.906 77.962 155.906 34.9048 155.906-4.9628e-14 121.005 0 77.9528Z" fill="#0D0D0D" fill-rule="evenodd" transform="matrix(0.707107 -0.707107 -0.707107 -0.707107 2079.59 500.479)"/><path d="M0 32.5C-4.13768e-15 14.5507 14.5507-4.13768e-15 32.5-8.27536e-15 50.4492-1.65507e-14 65 14.5507 65 32.5 65 50.4492 50.4492 65 32.5 65 14.5507 65-2.06884e-14 50.4492 0 32.5Z" fill="#3B3838" fill-rule="evenodd" transform="matrix(1 0 0 -1 2047 422)"/><rect x="0" y="0" width="155.924" height="415.748" fill="#404040" transform="matrix(0.707107 -0.707107 -0.707107 -0.707107 2645.21 806.281)"/><rect x="0" y="0" width="155.924" height="285.827" fill="#262626" transform="matrix(0.707107 -0.707107 -0.707107 -0.707107 2599.28 760.347)"/><path d="M0 19.4882C-2.48141e-15 8.72516 8.72621-2.48111e-15 19.4905-4.96221e-15 30.2549-9.92443e-15 38.9811 8.72516 38.9811 19.4882 38.9811 30.2512 30.2549 38.9764 19.4905 38.9764 8.72621 38.9764-1.2407e-14 30.2512 0 19.4882Z" fill-rule="evenodd" transform="matrix(0.707107 -0.707107 -0.707107 -0.707107 2677.17 755.563)"/><path d="M0 19.4882C-2.48141e-15 8.72516 8.72621-2.48111e-15 19.4905-4.96221e-15 30.2549-9.92443e-15 38.9811 8.72516 38.9811 19.4882 38.9811 30.2512 30.2549 38.9764 19.4905 38.9764 8.72621 38.9764-1.2407e-14 30.2512 0 19.4882Z" fill-rule="evenodd" transform="matrix(0.707107 -0.707107 -0.707107 -0.707107 2429.33 507.69)"/><rect x="0" y="0" width="12.9936" height="32.4803" transform="matrix(0.707107 -0.707107 -0.707107 -0.707107 2695.75 755.763)"/><rect x="0" y="0" width="12.9936" height="32.4803" transform="matrix(0.707107 -0.707107 -0.707107 -0.707107 2424.74 484.72)"/><path d="M0 77.9528C-9.9256e-15 34.9006 34.9048-9.92443e-15 77.962-1.98489e-14 121.019-3.96977e-14 155.924 34.9006 155.924 77.9528 155.924 121.005 121.019 155.906 77.962 155.906 34.9048 155.906-4.9628e-14 121.005 0 77.9528Z" fill="#0D0D0D" fill-rule="evenodd" transform="matrix(0.707107 -0.707107 -0.707107 -0.707107 2599.28 760.352)"/><path d="M0 32C-4.13768e-15 14.3269 14.5507-4.07402e-15 32.5-8.14805e-15 50.4492-1.62961e-14 65 14.3269 65 32 65 49.6731 50.4492 63.9999 32.5 63.9999 14.5507 63.9999-2.06884e-14 49.6731 0 32Z" fill="#3B3838" fill-rule="evenodd" transform="matrix(1 0 0 -1 2566 681)"/><rect x="0" y="0" width="155.924" height="415.748" fill="#404040" transform="matrix(-0.707107 0.707107 0.707107 0.707107 2292.59 754.175)"/><rect x="0" y="0" width="155.924" height="285.827" fill="#262626" transform="matrix(-0.707107 0.707107 0.707107 0.707107 2338.53 800.109)"/><path d="M0 19.4882C-2.48141e-15 8.72516 8.72621-2.48111e-15 19.4905-4.96221e-15 30.2549-9.92443e-15 38.9811 8.72516 38.9811 19.4882 38.9811 30.2512 30.2549 38.9764 19.4905 38.9764 8.72621 38.9764-1.2407e-14 30.2512 0 19.4882Z" fill-rule="evenodd" transform="matrix(-0.707107 0.707107 0.707107 0.707107 2260.63 804.892)"/><path d="M0 19.4882C-2.48141e-15 8.72516 8.72621-2.48111e-15 19.4905-4.96221e-15 30.2549-9.92443e-15 38.9811 8.72516 38.9811 19.4882 38.9811 30.2512 30.2549 38.9764 19.4905 38.9764 8.72621 38.9764-1.2407e-14 30.2512 0 19.4882Z" fill-rule="evenodd" transform="matrix(-0.707107 0.707107 0.707107 0.707107 2508.48 1052.77)"/><rect x="0" y="0" width="12.9936" height="32.4803" transform="matrix(-0.707107 0.707107 0.707107 0.707107 2242.06 804.693)"/><rect x="0" y="0" width="12.9936" height="32.4803" transform="matrix(-0.707107 0.707107 0.707107 0.707107 2513.07 1075.74)"/><path d="M0 77.9528C-9.9256e-15 34.9006 34.9048-9.92443e-15 77.962-1.98489e-14 121.019-3.96977e-14 155.924 34.9006 155.924 77.9528 155.924 121.005 121.019 155.906 77.962 155.906 34.9048 155.906-4.9628e-14 121.005 0 77.9528Z" fill="#0D0D0D" fill-rule="evenodd" transform="matrix(-0.707107 0.707107 0.707107 0.707107 2338.53 800.104)"/><path d="M0 32.5C-4.07402e-15 14.5507 14.3269-4.13768e-15 32-8.27536e-15 49.6731-1.65507e-14 63.9999 14.5507 63.9999 32.5 63.9999 50.4492 49.6731 65 32 65 14.3269 65-2.03701e-14 50.4492 0 32.5Z" fill="#3B3838" fill-rule="evenodd" transform="matrix(1 0 0 -1 2307 941)"/><rect x="0" y="0" width="155.924" height="415.748" fill="#404040" transform="matrix(-0.707107 0.707107 0.707107 0.707107 2292.59 494.302)"/><rect x="0" y="0" width="155.924" height="285.827" fill="#262626" transform="matrix(-0.707107 0.707107 0.707107 0.707107 2338.53 540.236)"/><path d="M0 19.4882C-2.48141e-15 8.72516 8.72621-2.48111e-15 19.4905-4.96221e-15 30.2549-9.92443e-15 38.9811 8.72516 38.9811 19.4882 38.9811 30.2512 30.2549 38.9764 19.4905 38.9764 8.72621 38.9764-1.2407e-14 30.2512 0 19.4882Z" fill-rule="evenodd" transform="matrix(-0.707107 0.707107 0.707107 0.707107 2260.63 545.02)"/><path d="M0 19.4882C-2.48141e-15 8.72516 8.72621-2.48111e-15 19.4905-4.96221e-15 30.2549-9.92443e-15 38.9811 8.72516 38.9811 19.4882 38.9811 30.2512 30.2549 38.9764 19.4905 38.9764 8.72621 38.9764-1.2407e-14 30.2512 0 19.4882Z" fill-rule="evenodd" transform="matrix(-0.707107 0.707107 0.707107 0.707107 2508.48 792.893)"/><rect x="0" y="0" width="12.9936" height="32.4803" transform="matrix(-0.707107 0.707107 0.707107 0.707107 2242.06 544.82)"/><rect x="0" y="0" width="12.9936" height="32.4803" transform="matrix(-0.707107 0.707107 0.707107 0.707107 2513.07 815.863)"/><path d="M0 77.9528C-9.9256e-15 34.9006 34.9048-9.92443e-15 77.962-1.98489e-14 121.019-3.96977e-14 155.924 34.9006 155.924 77.9528 155.924 121.005 121.019 155.906 77.962 155.906 34.9048 155.906-4.9628e-14 121.005 0 77.9528Z" fill="#0D0D0D" fill-rule="evenodd" transform="matrix(-0.707107 0.707107 0.707107 0.707107 2338.53 540.231)"/><path d="M0 32C-4.07402e-15 14.3269 14.3269-4.07402e-15 32-8.14805e-15 49.6731-1.62961e-14 63.9999 14.3269 63.9999 32 63.9999 49.6731 49.6731 63.9999 32 63.9999 14.3269 63.9999-2.03701e-14 49.6731 0 32Z" fill="#3B3838" fill-rule="evenodd" transform="matrix(1 0 0 -1 2307 681)"/><rect x="0" y="0" width="155.924" height="415.748" fill="#404040" transform="matrix(0.707107 -0.707107 -0.707107 -0.707107 2645.21 546.408)"/><rect x="0" y="0" width="155.924" height="285.827" fill="#262626" transform="matrix(0.707107 -0.707107 -0.707107 -0.707107 2599.28 500.474)"/><path d="M0 19.4882C-2.48141e-15 8.72516 8.72621-2.48111e-15 19.4905-4.96221e-15 30.2549-9.92443e-15 38.9811 8.72516 38.9811 19.4882 38.9811 30.2512 30.2549 38.9764 19.4905 38.9764 8.72621 38.9764-1.2407e-14 30.2512 0 19.4882Z" fill-rule="evenodd" transform="matrix(0.707107 -0.707107 -0.707107 -0.707107 2677.17 495.69)"/><path d="M0 19.4882C-2.48141e-15 8.72516 8.72621-2.48111e-15 19.4905-4.96221e-15 30.2549-9.92443e-15 38.9811 8.72516 38.9811 19.4882 38.9811 30.2512 30.2549 38.9764 19.4905 38.9764 8.72621 38.9764-1.2407e-14 30.2512 0 19.4882Z" fill-rule="evenodd" transform="matrix(0.707107 -0.707107 -0.707107 -0.707107 2429.33 247.817)"/><rect x="0" y="0" width="12.9936" height="32.4803" transform="matrix(0.707107 -0.707107 -0.707107 -0.707107 2695.75 495.89)"/><rect x="0" y="0" width="12.9936" height="32.4803" transform="matrix(0.707107 -0.707107 -0.707107 -0.707107 2424.74 224.847)"/><path d="M0 77.9528C-9.9256e-15 34.9006 34.9048-9.92443e-15 77.962-1.98489e-14 121.019-3.96977e-14 155.924 34.9006 155.924 77.9528 155.924 121.005 121.019 155.906 77.962 155.906 34.9048 155.906-4.9628e-14 121.005 0 77.9528Z" fill="#0D0D0D" fill-rule="evenodd" transform="matrix(0.707107 -0.707107 -0.707107 -0.707107 2599.28 500.479)"/><path d="M0 32.5C-4.13768e-15 14.5507 14.5507-4.13768e-15 32.5-8.27536e-15 50.4492-1.65507e-14 65 14.5507 65 32.5 65 50.4492 50.4492 65 32.5 65 14.5507 65-2.06884e-14 50.4492 0 32.5Z" fill="#3B3838" fill-rule="evenodd" transform="matrix(1 0 0 -1 2566 422)"/><path d="M559 649.5C559 527.721 657.721 429 779.5 429 901.279 429 1000 527.721 1000 649.5 1000 771.279 901.279 870 779.5 870 657.721 870 559 771.279 559 649.5Z" fill="#767171" fill-rule="evenodd" fill-opacity="0.4"/><path d="M0 0 155.906 0.000360892" stroke="#FFFFFF" stroke-width="25.9843" stroke-linecap="round" stroke-miterlimit="8" fill="none" fill-rule="evenodd" transform="matrix(6.12323e-17 1 1 -6.12323e-17 780 442)"/><path d="M1078 649.5C1078 527.721 1176.95 429 1299 429 1421.05 429 1520 527.721 1520 649.5 1520 771.279 1421.05 870 1299 870 1176.95 870 1078 771.279 1078 649.5Z" fill="#767171" fill-rule="evenodd" fill-opacity="0.4"/><path d="M0 0 155.906 0.000360892" stroke="#FFFFFF" stroke-width="25.9843" stroke-linecap="round" stroke-miterlimit="8" fill="none" fill-rule="evenodd" transform="matrix(6.12323e-17 1 1 -6.12323e-17 1299 442)"/><path d="M1598 649.5C1598 527.721 1696.95 429 1819 429 1941.06 429 2040 527.721 2040 649.5 2040 771.279 1941.06 870 1819 870 1696.95 870 1598 771.279 1598 649.5Z" fill="#767171" fill-rule="evenodd" fill-opacity="0.4"/><path d="M0 0 155.906 0.000360892" stroke="#FFFFFF" stroke-width="25.9843" stroke-linecap="round" stroke-miterlimit="8" fill="none" fill-rule="evenodd" transform="matrix(6.12323e-17 1 1 -6.12323e-17 1819 442)"/><path d="M2118 649.5C2118 527.721 2216.72 429 2338.5 429 2460.28 429 2559 527.721 2559 649.5 2559 771.279 2460.28 870 2338.5 870 2216.72 870 2118 771.279 2118 649.5Z" fill="#767171" fill-rule="evenodd" fill-opacity="0.4"/><path d="M0 0 155.906 0.000360892" stroke="#FFFFFF" stroke-width="25.9843" stroke-linecap="round" stroke-miterlimit="8" fill="none" fill-rule="evenodd" transform="matrix(6.12323e-17 1 1 -6.12323e-17 2339 442)"/><path d="M779.5 689C901.279 689 1000 787.721 1000 909.5 1000 1031.28 901.279 1130 779.5 1130 657.721 1130 559 1031.28 559 909.5 559 787.721 657.721 689 779.5 689Z" fill="#767171" fill-rule="evenodd" fill-opacity="0.4"/><path d="M0 0 155.906 0.000360892" stroke="#FFFFFF" stroke-width="25.9843" stroke-linecap="round" stroke-miterlimit="8" fill="none" fill-rule="evenodd" transform="matrix(-1 1.22465e-16 1.22465e-16 1 986.905 909)"/><path d="M0 0 0.000360892 155.905" stroke="#FFFFFF" stroke-width="25.9843" stroke-linecap="round" stroke-miterlimit="8" fill="none" fill-rule="evenodd" transform="matrix(-1 1.22465e-16 1.22465e-16 1 780 702)"/><path d="M1299 689C1421.05 689 1520 787.721 1520 909.5 1520 1031.28 1421.05 1130 1299 1130 1176.94 1130 1078 1031.28 1078 909.5 1078 787.721 1176.94 689 1299 689Z" fill="#767171" fill-rule="evenodd" fill-opacity="0.4"/><path d="M0 0 155.906 0.000360892" stroke="#FFFFFF" stroke-width="25.9843" stroke-linecap="round" stroke-miterlimit="8" fill="none" fill-rule="evenodd" transform="matrix(-1 1.22465e-16 1.22465e-16 1 1506.91 909)"/><path d="M0 0 0.000360892 155.905" stroke="#FFFFFF" stroke-width="25.9843" stroke-linecap="round" stroke-miterlimit="8" fill="none" fill-rule="evenodd" transform="matrix(-1 1.22465e-16 1.22465e-16 1 1299 702)"/><path d="M1819 689C1941.05 689 2040 787.721 2040 909.5 2040 1031.28 1941.05 1130 1819 1130 1696.95 1130 1598 1031.28 1598 909.5 1598 787.721 1696.95 689 1819 689Z" fill="#767171" fill-rule="evenodd" fill-opacity="0.4"/><path d="M0 0 155.906 0.000360892" stroke="#FFFFFF" stroke-width="25.9843" stroke-linecap="round" stroke-miterlimit="8" fill="none" fill-rule="evenodd" transform="matrix(-1 1.22465e-16 1.22465e-16 1 2026.91 909)"/><path d="M0 0 0.000360892 155.905" stroke="#FFFFFF" stroke-width="25.9843" stroke-linecap="round" stroke-miterlimit="8" fill="none" fill-rule="evenodd" transform="matrix(-1 1.22465e-16 1.22465e-16 1 1819 702)"/><path d="M2338.5 689C2460.28 689 2559 787.721 2559 909.5 2559 1031.28 2460.28 1130 2338.5 1130 2216.72 1130 2118 1031.28 2118 909.5 2118 787.721 2216.72 689 2338.5 689Z" fill="#767171" fill-rule="evenodd" fill-opacity="0.4"/><path d="M0 0 155.906 0.000360892" stroke="#FFFFFF" stroke-width="25.9843" stroke-linecap="round" stroke-miterlimit="8" fill="none" fill-rule="evenodd" transform="matrix(-1 1.22465e-16 1.22465e-16 1 2546.91 909)"/><path d="M0 0 0.000360892 155.905" stroke="#FFFFFF" stroke-width="25.9843" stroke-linecap="round" stroke-miterlimit="8" fill="none" fill-rule="evenodd" transform="matrix(-1 1.22465e-16 1.22465e-16 1 2339 702)"/><path d="M1039.5 870C917.721 870 819 771.279 819 649.5 819 527.721 917.721 429 1039.5 429 1161.28 429 1260 527.721 1260 649.5 1260 771.279 1161.28 870 1039.5 870Z" fill="#767171" fill-rule="evenodd" fill-opacity="0.4"/><path d="M0 0 155.906 0.000360892" stroke="#FFFFFF" stroke-width="25.9843" stroke-linecap="round" stroke-miterlimit="8" fill="none" fill-rule="evenodd" transform="matrix(1 0 0 -1 831 650)"/><path d="M0 0 0.000360892 155.905" stroke="#FFFFFF" stroke-width="25.9843" stroke-linecap="round" stroke-miterlimit="8" fill="none" fill-rule="evenodd" transform="matrix(1 0 0 -1 1039 857.905)"/><path d="M1559 870C1436.94 870 1338 771.279 1338 649.5 1338 527.721 1436.94 429 1559 429 1681.05 429 1780 527.721 1780 649.5 1780 771.279 1681.05 870 1559 870Z" fill="#767171" fill-rule="evenodd" fill-opacity="0.4"/><path d="M0 0 155.906 0.000360892" stroke="#FFFFFF" stroke-width="25.9843" stroke-linecap="round" stroke-miterlimit="8" fill="none" fill-rule="evenodd" transform="matrix(1 0 0 -1 1351 650)"/><path d="M0 0 0.000360892 155.905" stroke="#FFFFFF" stroke-width="25.9843" stroke-linecap="round" stroke-miterlimit="8" fill="none" fill-rule="evenodd" transform="matrix(1 0 0 -1 1559 857.905)"/><path d="M2079 870C1956.94 870 1858 771.279 1858 649.5 1858 527.721 1956.94 429 2079 429 2201.05 429 2300 527.721 2300 649.5 2300 771.279 2201.05 870 2079 870Z" fill="#767171" fill-rule="evenodd" fill-opacity="0.4"/><path d="M0 0 155.906 0.000360892" stroke="#FFFFFF" stroke-width="25.9843" stroke-linecap="round" stroke-miterlimit="8" fill="none" fill-rule="evenodd" transform="matrix(1 0 0 -1 1871 650)"/><path d="M0 0 0.000360892 155.905" stroke="#FFFFFF" stroke-width="25.9843" stroke-linecap="round" stroke-miterlimit="8" fill="none" fill-rule="evenodd" transform="matrix(1 0 0 -1 2079 857.905)"/><path d="M2598.5 870C2476.72 870 2378 771.279 2378 649.5 2378 527.721 2476.72 429 2598.5 429 2720.28 429 2819 527.721 2819 649.5 2819 771.279 2720.28 870 2598.5 870Z" fill="#767171" fill-rule="evenodd" fill-opacity="0.4"/><path d="M0 0 155.906 0.000360892" stroke="#FFFFFF" stroke-width="25.9843" stroke-linecap="round" stroke-miterlimit="8" fill="none" fill-rule="evenodd" transform="matrix(1 0 0 -1 2391 650)"/><path d="M0 0 0.000360892 155.905" stroke="#FFFFFF" stroke-width="25.9843" stroke-linecap="round" stroke-miterlimit="8" fill="none" fill-rule="evenodd" transform="matrix(1 0 0 -1 2598 857.905)"/><path d="M1039.5 611C917.721 611 819 512.055 819 390 819 267.945 917.721 169 1039.5 169 1161.28 169 1260 267.945 1260 390 1260 512.055 1161.28 611 1039.5 611Z" fill="#767171" fill-rule="evenodd" fill-opacity="0.4"/><path d="M0 0 155.906 0.000360892" stroke="#FFFFFF" stroke-width="25.9843" stroke-linecap="round" stroke-miterlimit="8" fill="none" fill-rule="evenodd" transform="matrix(1 0 0 -1 831 390.001)"/><path d="M0 0 0.000360892 155.905" stroke="#FFFFFF" stroke-width="25.9843" stroke-linecap="round" stroke-miterlimit="8" fill="none" fill-rule="evenodd" transform="matrix(1 0 0 -1 1039 597.905)"/><path d="M1559 611C1436.94 611 1338 512.055 1338 390 1338 267.945 1436.94 169 1559 169 1681.05 169 1780 267.945 1780 390 1780 512.055 1681.05 611 1559 611Z" fill="#767171" fill-rule="evenodd" fill-opacity="0.4"/><path d="M0 0 155.906 0.000360892" stroke="#FFFFFF" stroke-width="25.9843" stroke-linecap="round" stroke-miterlimit="8" fill="none" fill-rule="evenodd" transform="matrix(1 0 0 -1 1351 390.001)"/><path d="M0 0 0.000360892 155.905" stroke="#FFFFFF" stroke-width="25.9843" stroke-linecap="round" stroke-miterlimit="8" fill="none" fill-rule="evenodd" transform="matrix(1 0 0 -1 1559 597.905)"/><path d="M2079 611C1956.94 611 1858 512.055 1858 390 1858 267.945 1956.94 169 2079 169 2201.05 169 2300 267.945 2300 390 2300 512.055 2201.05 611 2079 611Z" fill="#767171" fill-rule="evenodd" fill-opacity="0.4"/><path d="M0 0 155.906 0.000360892" stroke="#FFFFFF" stroke-width="25.9843" stroke-linecap="round" stroke-miterlimit="8" fill="none" fill-rule="evenodd" transform="matrix(1 0 0 -1 1871 390.001)"/><path d="M0 0 0.000360892 155.905" stroke="#FFFFFF" stroke-width="25.9843" stroke-linecap="round" stroke-miterlimit="8" fill="none" fill-rule="evenodd" transform="matrix(1 0 0 -1 2079 597.905)"/><path d="M2598.5 611C2476.72 611 2378 512.055 2378 390 2378 267.945 2476.72 169 2598.5 169 2720.28 169 2819 267.945 2819 390 2819 512.055 2720.28 611 2598.5 611Z" fill="#767171" fill-rule="evenodd" fill-opacity="0.4"/><path d="M0 0 155.906 0.000360892" stroke="#FFFFFF" stroke-width="25.9843" stroke-linecap="round" stroke-miterlimit="8" fill="none" fill-rule="evenodd" transform="matrix(1 0 0 -1 2391 390.001)"/><path d="M0 0 0.000360892 155.905" stroke="#FFFFFF" stroke-width="25.9843" stroke-linecap="round" stroke-miterlimit="8" fill="none" fill-rule="evenodd" transform="matrix(1 0 0 -1 2598 597.905)"/></g></svg>