<svg width="2253" height="1017" xmlns="http://www.w3.org/2000/svg" xmlns:xlink="http://www.w3.org/1999/xlink" overflow="hidden"><defs><clipPath id="clip0"><rect x="563" y="142" width="2253" height="1017"/></clipPath></defs><g clip-path="url(#clip0)" transform="translate(-563 -142)"><rect x="0" y="0" width="155.924" height="415.748" fill="#005696" transform="matrix(0.707107 -0.707107 -0.707107 -0.707107 2125.53 806.281)"/><rect x="0" y="0" width="155.924" height="285.827" fill="#0072C8" transform="matrix(0.707107 -0.707107 -0.707107 -0.707107 2079.6 760.347)"/><path d="M0 19.4882C-2.48141e-15 8.72516 8.72621-2.48111e-15 19.4905-4.96221e-15 30.2549-9.92443e-15 38.9811 8.72516 38.9811 19.4882 38.9811 30.2512 30.2549 38.9764 19.4905 38.9764 8.72621 38.9764-1.2407e-14 30.2512 0 19.4882Z" fill-rule="evenodd" transform="matrix(0.707107 -0.707107 -0.707107 -0.707107 2157.49 755.563)"/><path d="M0 19.4882C-2.48141e-15 8.72516 8.72621-2.48111e-15 19.4905-4.96221e-15 30.2549-9.92443e-15 38.9811 8.72516 38.9811 19.4882 38.9811 30.2512 30.2549 38.9764 19.4905 38.9764 8.72621 38.9764-1.2407e-14 30.2512 0 19.4882Z" fill-rule="evenodd" transform="matrix(0.707107 -0.707107 -0.707107 -0.707107 1909.64 507.69)"/><rect x="0" y="0" width="12.9936" height="32.4803" transform="matrix(0.707107 -0.707107 -0.707107 -0.707107 2176.06 755.763)"/><rect x="0" y="0" width="12.9936" height="32.4803" transform="matrix(0.707107 -0.707107 -0.707107 -0.707107 1905.05 484.72)"/><path d="M0 77.9528C-9.9256e-15 34.9006 34.9048-9.92443e-15 77.962-1.98489e-14 121.019-3.96977e-14 155.924 34.9006 155.924 77.9528 155.924 121.005 121.019 155.906 77.962 155.906 34.9048 155.906-4.9628e-14 121.005 0 77.9528Z" fill="#008FFA" fill-rule="evenodd" transform="matrix(0.707107 -0.707107 -0.707107 -0.707107 2079.6 760.352)"/><path d="M0 32C-4.13768e-15 14.3269 14.5507-4.07402e-15 32.5-8.14805e-15 50.4492-1.62961e-14 65 14.3269 65 32 65 49.6731 50.4492 63.9999 32.5 63.9999 14.5507 63.9999-2.06884e-14 49.6731 0 32Z" fill="#E7E6E6" fill-rule="evenodd" transform="matrix(1 0 0 -1 2047 681)"/><rect x="0" y="0" width="155.924" height="415.748" fill="#005696" transform="matrix(-0.707107 0.707107 0.707107 0.707107 1772.91 754.175)"/><rect x="0" y="0" width="155.924" height="285.827" fill="#0072C8" transform="matrix(-0.707107 0.707107 0.707107 0.707107 1818.84 800.109)"/><path d="M0 19.4882C-2.48141e-15 8.72516 8.72621-2.48111e-15 19.4905-4.96221e-15 30.2549-9.92443e-15 38.9811 8.72516 38.9811 19.4882 38.9811 30.2512 30.2549 38.9764 19.4905 38.9764 8.72621 38.9764-1.2407e-14 30.2512 0 19.4882Z" fill-rule="evenodd" transform="matrix(-0.707107 0.707107 0.707107 0.707107 1740.95 804.892)"/><path d="M0 19.4882C-2.48141e-15 8.72516 8.72621-2.48111e-15 19.4905-4.96221e-15 30.2549-9.92443e-15 38.9811 8.72516 38.9811 19.4882 38.9811 30.2512 30.2549 38.9764 19.4905 38.9764 8.72621 38.9764-1.2407e-14 30.2512 0 19.4882Z" fill-rule="evenodd" transform="matrix(-0.707107 0.707107 0.707107 0.707107 1988.79 1052.77)"/><rect x="0" y="0" width="12.9936" height="32.4803" transform="matrix(-0.707107 0.707107 0.707107 0.707107 1722.38 804.693)"/><rect x="0" y="0" width="12.9936" height="32.4803" transform="matrix(-0.707107 0.707107 0.707107 0.707107 1993.39 1075.74)"/><path d="M0 77.9528C-9.9256e-15 34.9006 34.9048-9.92443e-15 77.962-1.98489e-14 121.019-3.96977e-14 155.924 34.9006 155.924 77.9528 155.924 121.005 121.019 155.906 77.962 155.906 34.9048 155.906-4.9628e-14 121.005 0 77.9528Z" fill="#008FFA" fill-rule="evenodd" transform="matrix(-0.707107 0.707107 0.707107 0.707107 1818.84 800.104)"/><path d="M0 32.5C-4.13768e-15 14.5507 14.5507-4.13768e-15 32.5-8.27536e-15 50.4492-1.65507e-14 65 14.5507 65 32.5 65 50.4492 50.4492 65 32.5 65 14.5507 65-2.06884e-14 50.4492 0 32.5Z" fill="#E7E6E6" fill-rule="evenodd" transform="matrix(1 0 0 -1 1787 941)"/><rect x="0" y="0" width="155.924" height="415.748" fill="#005696" transform="matrix(-0.707107 0.707107 0.707107 0.707107 1772.91 494.302)"/><rect x="0" y="0" width="155.924" height="285.827" fill="#0072C8" transform="matrix(-0.707107 0.707107 0.707107 0.707107 1818.84 540.236)"/><path d="M0 19.4882C-2.48141e-15 8.72516 8.72621-2.48111e-15 19.4905-4.96221e-15 30.2549-9.92443e-15 38.9811 8.72516 38.9811 19.4882 38.9811 30.2512 30.2549 38.9764 19.4905 38.9764 8.72621 38.9764-1.2407e-14 30.2512 0 19.4882Z" fill-rule="evenodd" transform="matrix(-0.707107 0.707107 0.707107 0.707107 1740.95 545.02)"/><path d="M0 19.4882C-2.48141e-15 8.72516 8.72621-2.48111e-15 19.4905-4.96221e-15 30.2549-9.92443e-15 38.9811 8.72516 38.9811 19.4882 38.9811 30.2512 30.2549 38.9764 19.4905 38.9764 8.72621 38.9764-1.2407e-14 30.2512 0 19.4882Z" fill-rule="evenodd" transform="matrix(-0.707107 0.707107 0.707107 0.707107 1988.79 792.893)"/><rect x="0" y="0" width="12.9936" height="32.4803" transform="matrix(-0.707107 0.707107 0.707107 0.707107 1722.38 544.82)"/><rect x="0" y="0" width="12.9936" height="32.4803" transform="matrix(-0.707107 0.707107 0.707107 0.707107 1993.39 815.863)"/><path d="M0 77.9528C-9.9256e-15 34.9006 34.9048-9.92443e-15 77.962-1.98489e-14 121.019-3.96977e-14 155.924 34.9006 155.924 77.9528 155.924 121.005 121.019 155.906 77.962 155.906 34.9048 155.906-4.9628e-14 121.005 0 77.9528Z" fill="#008FFA" fill-rule="evenodd" transform="matrix(-0.707107 0.707107 0.707107 0.707107 1818.84 540.231)"/><path d="M0 32C-4.13768e-15 14.3269 14.5507-4.07402e-15 32.5-8.14805e-15 50.4492-1.62961e-14 65 14.3269 65 32 65 49.6731 50.4492 63.9999 32.5 63.9999 14.5507 63.9999-2.06884e-14 49.6731 0 32Z" fill="#E7E6E6" fill-rule="evenodd" transform="matrix(1 0 0 -1 1787 681)"/><rect x="0" y="0" width="155.924" height="415.748" fill="#005696" transform="matrix(0.707107 -0.707107 -0.707107 -0.707107 2125.53 546.408)"/><rect x="0" y="0" width="155.924" height="285.827" fill="#0072C8" transform="matrix(0.707107 -0.707107 -0.707107 -0.707107 2079.6 500.474)"/><path d="M0 19.4882C-2.48141e-15 8.72516 8.72621-2.48111e-15 19.4905-4.96221e-15 30.2549-9.92443e-15 38.9811 8.72516 38.9811 19.4882 38.9811 30.2512 30.2549 38.9764 19.4905 38.9764 8.72621 38.9764-1.2407e-14 30.2512 0 19.4882Z" fill-rule="evenodd" transform="matrix(0.707107 -0.707107 -0.707107 -0.707107 2157.49 495.69)"/><path d="M0 19.4882C-2.48141e-15 8.72516 8.72621-2.48111e-15 19.4905-4.96221e-15 30.2549-9.92443e-15 38.9811 8.72516 38.9811 19.4882 38.9811 30.2512 30.2549 38.9764 19.4905 38.9764 8.72621 38.9764-1.2407e-14 30.2512 0 19.4882Z" fill-rule="evenodd" transform="matrix(0.707107 -0.707107 -0.707107 -0.707107 1909.64 247.817)"/><rect x="0" y="0" width="12.9936" height="32.4803" transform="matrix(0.707107 -0.707107 -0.707107 -0.707107 2176.06 495.89)"/><rect x="0" y="0" width="12.9936" height="32.4803" transform="matrix(0.707107 -0.707107 -0.707107 -0.707107 1905.05 224.847)"/><path d="M0 77.9528C-9.9256e-15 34.9006 34.9048-9.92443e-15 77.962-1.98489e-14 121.019-3.96977e-14 155.924 34.9006 155.924 77.9528 155.924 121.005 121.019 155.906 77.962 155.906 34.9048 155.906-4.9628e-14 121.005 0 77.9528Z" fill="#008FFA" fill-rule="evenodd" transform="matrix(0.707107 -0.707107 -0.707107 -0.707107 2079.6 500.479)"/><path d="M0 32.5C-4.13768e-15 14.5507 14.5507-4.13768e-15 32.5-8.27536e-15 50.4492-1.65507e-14 65 14.5507 65 32.5 65 50.4492 50.4492 65 32.5 65 14.5507 65-2.06884e-14 50.4492 0 32.5Z" fill="#E7E6E6" fill-rule="evenodd" transform="matrix(1 0 0 -1 2047 422)"/><rect x="0" y="0" width="155.924" height="415.748" fill="#005696" transform="matrix(0.707107 -0.707107 -0.707107 -0.707107 2645.21 806.281)"/><rect x="0" y="0" width="155.924" height="285.827" fill="#0072C8" transform="matrix(0.707107 -0.707107 -0.707107 -0.707107 2599.28 760.347)"/><path d="M0 19.4882C-2.48141e-15 8.72516 8.72621-2.48111e-15 19.4905-4.96221e-15 30.2549-9.92443e-15 38.9811 8.72516 38.9811 19.4882 38.9811 30.2512 30.2549 38.9764 19.4905 38.9764 8.72621 38.9764-1.2407e-14 30.2512 0 19.4882Z" fill-rule="evenodd" transform="matrix(0.707107 -0.707107 -0.707107 -0.707107 2677.17 755.563)"/><path d="M0 19.4882C-2.48141e-15 8.72516 8.72621-2.48111e-15 19.4905-4.96221e-15 30.2549-9.92443e-15 38.9811 8.72516 38.9811 19.4882 38.9811 30.2512 30.2549 38.9764 19.4905 38.9764 8.72621 38.9764-1.2407e-14 30.2512 0 19.4882Z" fill-rule="evenodd" transform="matrix(0.707107 -0.707107 -0.707107 -0.707107 2429.33 507.69)"/><rect x="0" y="0" width="12.9936" height="32.4803" transform="matrix(0.707107 -0.707107 -0.707107 -0.707107 2695.75 755.763)"/><rect x="0" y="0" width="12.9936" height="32.4803" transform="matrix(0.707107 -0.707107 -0.707107 -0.707107 2424.74 484.72)"/><path d="M0 77.9528C-9.9256e-15 34.9006 34.9048-9.92443e-15 77.962-1.98489e-14 121.019-3.96977e-14 155.924 34.9006 155.924 77.9528 155.924 121.005 121.019 155.906 77.962 155.906 34.9048 155.906-4.9628e-14 121.005 0 77.9528Z" fill="#008FFA" fill-rule="evenodd" transform="matrix(0.707107 -0.707107 -0.707107 -0.707107 2599.28 760.352)"/><path d="M0 32C-4.13768e-15 14.3269 14.5507-4.07402e-15 32.5-8.14805e-15 50.4492-1.62961e-14 65 14.3269 65 32 65 49.6731 50.4492 63.9999 32.5 63.9999 14.5507 63.9999-2.06884e-14 49.6731 0 32Z" fill="#E7E6E6" fill-rule="evenodd" transform="matrix(1 0 0 -1 2566 681)"/><rect x="0" y="0" width="155.924" height="415.748" fill="#005696" transform="matrix(-0.707107 0.707107 0.707107 0.707107 2292.59 754.175)"/><rect x="0" y="0" width="155.924" height="285.827" fill="#0072C8" transform="matrix(-0.707107 0.707107 0.707107 0.707107 2338.53 800.109)"/><path d="M0 19.4882C-2.48141e-15 8.72516 8.72621-2.48111e-15 19.4905-4.96221e-15 30.2549-9.92443e-15 38.9811 8.72516 38.9811 19.4882 38.9811 30.2512 30.2549 38.9764 19.4905 38.9764 8.72621 38.9764-1.2407e-14 30.2512 0 19.4882Z" fill-rule="evenodd" transform="matrix(-0.707107 0.707107 0.707107 0.707107 2260.63 804.892)"/><path d="M0 19.4882C-2.48141e-15 8.72516 8.72621-2.48111e-15 19.4905-4.96221e-15 30.2549-9.92443e-15 38.9811 8.72516 38.9811 19.4882 38.9811 30.2512 30.2549 38.9764 19.4905 38.9764 8.72621 38.9764-1.2407e-14 30.2512 0 19.4882Z" fill-rule="evenodd" transform="matrix(-0.707107 0.707107 0.707107 0.707107 2508.48 1052.77)"/><rect x="0" y="0" width="12.9936" height="32.4803" transform="matrix(-0.707107 0.707107 0.707107 0.707107 2242.06 804.693)"/><rect x="0" y="0" width="12.9936" height="32.4803" transform="matrix(-0.707107 0.707107 0.707107 0.707107 2513.07 1075.74)"/><path d="M0 77.9528C-9.9256e-15 34.9006 34.9048-9.92443e-15 77.962-1.98489e-14 121.019-3.96977e-14 155.924 34.9006 155.924 77.9528 155.924 121.005 121.019 155.906 77.962 155.906 34.9048 155.906-4.9628e-14 121.005 0 77.9528Z" fill="#008FFA" fill-rule="evenodd" transform="matrix(-0.707107 0.707107 0.707107 0.707107 2338.53 800.104)"/><path d="M0 32.5C-4.07402e-15 14.5507 14.3269-4.13768e-15 32-8.27536e-15 49.6731-1.65507e-14 63.9999 14.5507 63.9999 32.5 63.9999 50.4492 49.6731 65 32 65 14.3269 65-2.03701e-14 50.4492 0 32.5Z" fill="#E7E6E6" fill-rule="evenodd" transform="matrix(1 0 0 -1 2307 941)"/><rect x="0" y="0" width="155.924" height="415.748" fill="#005696" transform="matrix(-0.707107 0.707107 0.707107 0.707107 2292.59 494.302)"/><rect x="0" y="0" width="155.924" height="285.827" fill="#0072C8" transform="matrix(-0.707107 0.707107 0.707107 0.707107 2338.53 540.236)"/><path d="M0 19.4882C-2.48141e-15 8.72516 8.72621-2.48111e-15 19.4905-4.96221e-15 30.2549-9.92443e-15 38.9811 8.72516 38.9811 19.4882 38.9811 30.2512 30.2549 38.9764 19.4905 38.9764 8.72621 38.9764-1.2407e-14 30.2512 0 19.4882Z" fill-rule="evenodd" transform="matrix(-0.707107 0.707107 0.707107 0.707107 2260.63 545.02)"/><path d="M0 19.4882C-2.48141e-15 8.72516 8.72621-2.48111e-15 19.4905-4.96221e-15 30.2549-9.92443e-15 38.9811 8.72516 38.9811 19.4882 38.9811 30.2512 30.2549 38.9764 19.4905 38.9764 8.72621 38.9764-1.2407e-14 30.2512 0 19.4882Z" fill-rule="evenodd" transform="matrix(-0.707107 0.707107 0.707107 0.707107 2508.48 792.893)"/><rect x="0" y="0" width="12.9936" height="32.4803" transform="matrix(-0.707107 0.707107 0.707107 0.707107 2242.06 544.82)"/><rect x="0" y="0" width="12.9936" height="32.4803" transform="matrix(-0.707107 0.707107 0.707107 0.707107 2513.07 815.863)"/><path d="M0 77.9528C-9.9256e-15 34.9006 34.9048-9.92443e-15 77.962-1.98489e-14 121.019-3.96977e-14 155.924 34.9006 155.924 77.9528 155.924 121.005 121.019 155.906 77.962 155.906 34.9048 155.906-4.9628e-14 121.005 0 77.9528Z" fill="#008FFA" fill-rule="evenodd" transform="matrix(-0.707107 0.707107 0.707107 0.707107 2338.53 540.231)"/><path d="M0 32C-4.07402e-15 14.3269 14.3269-4.07402e-15 32-8.14805e-15 49.6731-1.62961e-14 63.9999 14.3269 63.9999 32 63.9999 49.6731 49.6731 63.9999 32 63.9999 14.3269 63.9999-2.03701e-14 49.6731 0 32Z" fill="#E7E6E6" fill-rule="evenodd" transform="matrix(1 0 0 -1 2307 681)"/><rect x="0" y="0" width="155.924" height="415.748" fill="#005696" transform="matrix(0.707107 -0.707107 -0.707107 -0.707107 2645.21 546.408)"/><rect x="0" y="0" width="155.924" height="285.827" fill="#0072C8" transform="matrix(0.707107 -0.707107 -0.707107 -0.707107 2599.28 500.474)"/><path d="M0 19.4882C-2.48141e-15 8.72516 8.72621-2.48111e-15 19.4905-4.96221e-15 30.2549-9.92443e-15 38.9811 8.72516 38.9811 19.4882 38.9811 30.2512 30.2549 38.9764 19.4905 38.9764 8.72621 38.9764-1.2407e-14 30.2512 0 19.4882Z" fill-rule="evenodd" transform="matrix(0.707107 -0.707107 -0.707107 -0.707107 2677.17 495.69)"/><path d="M0 19.4882C-2.48141e-15 8.72516 8.72621-2.48111e-15 19.4905-4.96221e-15 30.2549-9.92443e-15 38.9811 8.72516 38.9811 19.4882 38.9811 30.2512 30.2549 38.9764 19.4905 38.9764 8.72621 38.9764-1.2407e-14 30.2512 0 19.4882Z" fill-rule="evenodd" transform="matrix(0.707107 -0.707107 -0.707107 -0.707107 2429.33 247.817)"/><rect x="0" y="0" width="12.9936" height="32.4803" transform="matrix(0.707107 -0.707107 -0.707107 -0.707107 2695.75 495.89)"/><rect x="0" y="0" width="12.9936" height="32.4803" transform="matrix(0.707107 -0.707107 -0.707107 -0.707107 2424.74 224.847)"/><path d="M0 77.9528C-9.9256e-15 34.9006 34.9048-9.92443e-15 77.962-1.98489e-14 121.019-3.96977e-14 155.924 34.9006 155.924 77.9528 155.924 121.005 121.019 155.906 77.962 155.906 34.9048 155.906-4.9628e-14 121.005 0 77.9528Z" fill="#008FFA" fill-rule="evenodd" transform="matrix(0.707107 -0.707107 -0.707107 -0.707107 2599.28 500.479)"/><path d="M0 32.5C-4.13768e-15 14.5507 14.5507-4.13768e-15 32.5-8.27536e-15 50.4492-1.65507e-14 65 14.5507 65 32.5 65 50.4492 50.4492 65 32.5 65 14.5507 65-2.06884e-14 50.4492 0 32.5Z" fill="#E7E6E6" fill-rule="evenodd" transform="matrix(1 0 0 -1 2566 422)"/><path d="M2124.5 650C2124.5 531.535 2220.53 435.5 2339 435.5 2457.46 435.5 2553.5 531.535 2553.5 650 2553.5 768.465 2457.46 864.5 2339 864.5 2220.53 864.5 2124.5 768.465 2124.5 650Z" stroke="#FFFFFF" stroke-width="4.58333" stroke-miterlimit="8" fill="#E7E6E6" fill-rule="evenodd" fill-opacity="0.501961"/><path d="M0 0 214.087 0.000360892" stroke="#000000" stroke-width="25.9843" stroke-miterlimit="8" fill="none" fill-rule="evenodd" transform="matrix(6.12323e-17 1 1 -6.12323e-17 2339 435)"/><path d="M2325 649.5C2325 641.492 2331.27 635 2339 635 2346.73 635 2353 641.492 2353 649.5 2353 657.508 2346.73 664 2339 664 2331.27 664 2325 657.508 2325 649.5Z" fill-rule="evenodd"/><path d="M2339 695.5C2457.46 695.5 2553.5 791.535 2553.5 910 2553.5 1028.46 2457.46 1124.5 2339 1124.5 2220.53 1124.5 2124.5 1028.46 2124.5 910 2124.5 791.535 2220.53 695.5 2339 695.5Z" stroke="#FFFFFF" stroke-width="4.58333" stroke-miterlimit="8" fill="#E7E6E6" fill-rule="evenodd" fill-opacity="0.501961"/><path d="M0 0 214.087 0.000360892" stroke="#000000" stroke-width="25.9843" stroke-miterlimit="8" fill="none" fill-rule="evenodd" transform="matrix(-1 1.22465e-16 1.22465e-16 1 2553.09 909)"/><path d="M0 0 0.000360892 214.654" stroke="#000000" stroke-width="25.9843" stroke-miterlimit="8" fill="none" fill-rule="evenodd" transform="matrix(-1 1.22465e-16 1.22465e-16 1 2339 695)"/><path d="M2339 895C2346.73 895 2353 901.492 2353 909.5 2353 917.508 2346.73 924 2339 924 2331.27 924 2325 917.508 2325 909.5 2325 901.492 2331.27 895 2339 895Z" fill-rule="evenodd"/><path d="M2599 864.5C2480.53 864.5 2384.5 768.465 2384.5 650 2384.5 531.535 2480.53 435.5 2599 435.5 2717.47 435.5 2813.5 531.535 2813.5 650 2813.5 768.465 2717.47 864.5 2599 864.5Z" stroke="#FFFFFF" stroke-width="4.58333" stroke-miterlimit="8" fill="#E7E6E6" fill-rule="evenodd" fill-opacity="0.501961"/><path d="M0 0 214.087 0.000360892" stroke="#000000" stroke-width="25.9843" stroke-miterlimit="8" fill="none" fill-rule="evenodd" transform="matrix(1 0 0 -1 2384 650)"/><path d="M0 0 0.000360892 214.654" stroke="#000000" stroke-width="25.9843" stroke-miterlimit="8" fill="none" fill-rule="evenodd" transform="matrix(1 0 0 -1 2598 863.654)"/><path d="M2598 664C2590.27 664 2584 657.508 2584 649.5 2584 641.492 2590.27 635 2598 635 2605.73 635 2612 641.492 2612 649.5 2612 657.508 2605.73 664 2598 664Z" fill-rule="evenodd"/><path d="M2599 604.5C2480.53 604.5 2384.5 508.465 2384.5 390 2384.5 271.535 2480.53 175.5 2599 175.5 2717.47 175.5 2813.5 271.535 2813.5 390 2813.5 508.465 2717.47 604.5 2599 604.5Z" stroke="#FFFFFF" stroke-width="4.58333" stroke-miterlimit="8" fill="#E7E6E6" fill-rule="evenodd" fill-opacity="0.501961"/><path d="M0 0 214.087 0.000360892" stroke="#000000" stroke-width="25.9843" stroke-miterlimit="8" fill="none" fill-rule="evenodd" transform="matrix(1 0 0 -1 2384 390.001)"/><path d="M0 0 0.000360892 214.654" stroke="#000000" stroke-width="25.9843" stroke-miterlimit="8" fill="none" fill-rule="evenodd" transform="matrix(1 0 0 -1 2598 603.654)"/><path d="M2598 404C2590.27 404 2584 397.508 2584 389.5 2584 381.492 2590.27 375 2598 375 2605.73 375 2612 381.492 2612 389.5 2612 397.508 2605.73 404 2598 404Z" fill-rule="evenodd"/><rect x="0" y="0" width="155.924" height="415.748" fill="#005696" transform="matrix(0.707107 -0.707107 -0.707107 -0.707107 1086.16 806.281)"/><rect x="0" y="0" width="155.924" height="285.827" fill="#0072C8" transform="matrix(0.707107 -0.707107 -0.707107 -0.707107 1040.22 760.347)"/><path d="M0 19.4882C-2.48141e-15 8.72516 8.72621-2.48111e-15 19.4905-4.96221e-15 30.2549-9.92443e-15 38.9811 8.72516 38.9811 19.4882 38.9811 30.2512 30.2549 38.9764 19.4905 38.9764 8.72621 38.9764-1.2407e-14 30.2512 0 19.4882Z" fill-rule="evenodd" transform="matrix(0.707107 -0.707107 -0.707107 -0.707107 1118.12 755.564)"/><path d="M0 19.4882C-2.48141e-15 8.72516 8.72621-2.48111e-15 19.4905-4.96221e-15 30.2549-9.92443e-15 38.9811 8.72516 38.9811 19.4882 38.9811 30.2512 30.2549 38.9764 19.4905 38.9764 8.72621 38.9764-1.2407e-14 30.2512 0 19.4882Z" fill-rule="evenodd" transform="matrix(0.707107 -0.707107 -0.707107 -0.707107 870.274 507.69)"/><rect x="0" y="0" width="12.9936" height="32.4803" transform="matrix(0.707107 -0.707107 -0.707107 -0.707107 1136.69 755.764)"/><rect x="0" y="0" width="12.9936" height="32.4803" transform="matrix(0.707107 -0.707107 -0.707107 -0.707107 865.681 484.721)"/><path d="M0 77.9528C-9.9256e-15 34.9006 34.9048-9.92443e-15 77.962-1.98489e-14 121.019-3.96977e-14 155.924 34.9006 155.924 77.9528 155.924 121.005 121.019 155.906 77.962 155.906 34.9048 155.906-4.9628e-14 121.005 0 77.9528Z" fill="#008FFA" fill-rule="evenodd" transform="matrix(0.707107 -0.707107 -0.707107 -0.707107 1040.22 760.353)"/><path d="M0 32C-4.1377e-15 14.3269 14.5508-4.07402e-15 32.5002-8.14805e-15 50.4495-1.62961e-14 65.0003 14.3269 65.0003 32 65.0003 49.6731 50.4495 63.9999 32.5002 63.9999 14.5508 63.9999-2.06885e-14 49.6731 0 32Z" fill="#E7E6E6" fill-rule="evenodd" transform="matrix(1 0 0 -1 1007 681)"/><rect x="0" y="0" width="155.924" height="415.748" fill="#005696" transform="matrix(-0.707107 0.707107 0.707107 0.707107 733.538 754.176)"/><rect x="0" y="0" width="155.924" height="285.827" fill="#0072C8" transform="matrix(-0.707107 0.707107 0.707107 0.707107 779.472 800.11)"/><path d="M0 19.4882C-2.48141e-15 8.72516 8.72621-2.48111e-15 19.4905-4.96221e-15 30.2549-9.92443e-15 38.9811 8.72516 38.9811 19.4882 38.9811 30.2512 30.2549 38.9764 19.4905 38.9764 8.72621 38.9764-1.2407e-14 30.2512 0 19.4882Z" fill-rule="evenodd" transform="matrix(-0.707107 0.707107 0.707107 0.707107 701.579 804.893)"/><path d="M0 19.4882C-2.48141e-15 8.72516 8.72621-2.48111e-15 19.4905-4.96221e-15 30.2549-9.92443e-15 38.9811 8.72516 38.9811 19.4882 38.9811 30.2512 30.2549 38.9764 19.4905 38.9764 8.72621 38.9764-1.2407e-14 30.2512 0 19.4882Z" fill-rule="evenodd" transform="matrix(-0.707107 0.707107 0.707107 0.707107 949.424 1052.77)"/><rect x="0" y="0" width="12.9936" height="32.4803" transform="matrix(-0.707107 0.707107 0.707107 0.707107 683.005 804.693)"/><rect x="0" y="0" width="12.9936" height="32.4803" transform="matrix(-0.707107 0.707107 0.707107 0.707107 954.016 1075.74)"/><path d="M0 77.9528C-9.9256e-15 34.9006 34.9048-9.92443e-15 77.962-1.98489e-14 121.019-3.96977e-14 155.924 34.9006 155.924 77.9528 155.924 121.005 121.019 155.906 77.962 155.906 34.9048 155.906-4.9628e-14 121.005 0 77.9528Z" fill="#008FFA" fill-rule="evenodd" transform="matrix(-0.707107 0.707107 0.707107 0.707107 779.473 800.104)"/><path d="M0 32.5C-4.13768e-15 14.5507 14.5507-4.13768e-15 32.5-8.27536e-15 50.4492-1.65507e-14 65 14.5507 65 32.5 65 50.4492 50.4492 65 32.5 65 14.5507 65-2.06884e-14 50.4492 0 32.5Z" fill="#E7E6E6" fill-rule="evenodd" transform="matrix(1 0 0 -1 747 941)"/><rect x="0" y="0" width="155.924" height="415.748" fill="#005696" transform="matrix(-0.707107 0.707107 0.707107 0.707107 733.538 494.303)"/><rect x="0" y="0" width="155.924" height="285.827" fill="#0072C8" transform="matrix(-0.707107 0.707107 0.707107 0.707107 779.472 540.237)"/><path d="M0 19.4882C-2.48141e-15 8.72516 8.72621-2.48111e-15 19.4905-4.96221e-15 30.2549-9.92443e-15 38.9811 8.72516 38.9811 19.4882 38.9811 30.2512 30.2549 38.9764 19.4905 38.9764 8.72621 38.9764-1.2407e-14 30.2512 0 19.4882Z" fill-rule="evenodd" transform="matrix(-0.707107 0.707107 0.707107 0.707107 701.579 545.021)"/><path d="M0 19.4882C-2.48141e-15 8.72516 8.72621-2.48111e-15 19.4905-4.96221e-15 30.2549-9.92443e-15 38.9811 8.72516 38.9811 19.4882 38.9811 30.2512 30.2549 38.9764 19.4905 38.9764 8.72621 38.9764-1.2407e-14 30.2512 0 19.4882Z" fill-rule="evenodd" transform="matrix(-0.707107 0.707107 0.707107 0.707107 949.424 792.894)"/><rect x="0" y="0" width="12.9936" height="32.4803" transform="matrix(-0.707107 0.707107 0.707107 0.707107 683.005 544.821)"/><rect x="0" y="0" width="12.9936" height="32.4803" transform="matrix(-0.707107 0.707107 0.707107 0.707107 954.016 815.864)"/><path d="M0 77.9528C-9.9256e-15 34.9006 34.9048-9.92443e-15 77.962-1.98489e-14 121.019-3.96977e-14 155.924 34.9006 155.924 77.9528 155.924 121.005 121.019 155.906 77.962 155.906 34.9048 155.906-4.9628e-14 121.005 0 77.9528Z" fill="#008FFA" fill-rule="evenodd" transform="matrix(-0.707107 0.707107 0.707107 0.707107 779.473 540.232)"/><path d="M0 32C-4.13768e-15 14.3269 14.5507-4.07402e-15 32.5-8.14805e-15 50.4492-1.62961e-14 65 14.3269 65 32 65 49.6731 50.4492 63.9999 32.5 63.9999 14.5507 63.9999-2.06884e-14 49.6731 0 32Z" fill="#E7E6E6" fill-rule="evenodd" transform="matrix(1 0 0 -1 747 681)"/><rect x="0" y="0" width="155.924" height="415.748" fill="#005696" transform="matrix(0.707107 -0.707107 -0.707107 -0.707107 1086.16 546.409)"/><rect x="0" y="0" width="155.924" height="285.827" fill="#0072C8" transform="matrix(0.707107 -0.707107 -0.707107 -0.707107 1040.23 500.475)"/><path d="M0 19.4882C-2.48141e-15 8.72516 8.72621-2.48111e-15 19.4905-4.96221e-15 30.2549-9.92443e-15 38.9811 8.72516 38.9811 19.4882 38.9811 30.2512 30.2549 38.9764 19.4905 38.9764 8.72621 38.9764-1.2407e-14 30.2512 0 19.4882Z" fill-rule="evenodd" transform="matrix(0.707107 -0.707107 -0.707107 -0.707107 1118.12 495.691)"/><path d="M0 19.4882C-2.48141e-15 8.72516 8.72621-2.48111e-15 19.4905-4.96221e-15 30.2549-9.92443e-15 38.9811 8.72516 38.9811 19.4882 38.9811 30.2512 30.2549 38.9764 19.4905 38.9764 8.72621 38.9764-1.2407e-14 30.2512 0 19.4882Z" fill-rule="evenodd" transform="matrix(0.707107 -0.707107 -0.707107 -0.707107 870.274 247.817)"/><rect x="0" y="0" width="12.9936" height="32.4803" transform="matrix(0.707107 -0.707107 -0.707107 -0.707107 1136.69 495.891)"/><rect x="0" y="0" width="12.9936" height="32.4803" transform="matrix(0.707107 -0.707107 -0.707107 -0.707107 865.681 224.848)"/><path d="M0 77.9528C-9.9256e-15 34.9006 34.9048-9.92443e-15 77.962-1.98489e-14 121.019-3.96977e-14 155.924 34.9006 155.924 77.9528 155.924 121.005 121.019 155.906 77.962 155.906 34.9048 155.906-4.9628e-14 121.005 0 77.9528Z" fill="#008FFA" fill-rule="evenodd" transform="matrix(0.707107 -0.707107 -0.707107 -0.707107 1040.23 500.479)"/><path d="M0 32.5C-4.13768e-15 14.5507 14.5507-4.13768e-15 32.5-8.27536e-15 50.4492-1.65507e-14 65 14.5507 65 32.5 65 50.4492 50.4492 65 32.5 65 14.5507 65-2.06884e-14 50.4492 0 32.5Z" fill="#E7E6E6" fill-rule="evenodd" transform="matrix(1 0 0 -1 1008 422)"/><rect x="0" y="0" width="155.924" height="415.748" fill="#005696" transform="matrix(0.707107 -0.707107 -0.707107 -0.707107 1605.84 806.281)"/><rect x="0" y="0" width="155.924" height="285.827" fill="#0072C8" transform="matrix(0.707107 -0.707107 -0.707107 -0.707107 1559.91 760.347)"/><path d="M0 19.4882C-2.48141e-15 8.72516 8.72621-2.48111e-15 19.4905-4.96221e-15 30.2549-9.92443e-15 38.9811 8.72516 38.9811 19.4882 38.9811 30.2512 30.2549 38.9764 19.4905 38.9764 8.72621 38.9764-1.2407e-14 30.2512 0 19.4882Z" fill-rule="evenodd" transform="matrix(0.707107 -0.707107 -0.707107 -0.707107 1637.8 755.564)"/><path d="M0 19.4882C-2.48141e-15 8.72516 8.72621-2.48111e-15 19.4905-4.96221e-15 30.2549-9.92443e-15 38.9811 8.72516 38.9811 19.4882 38.9811 30.2512 30.2549 38.9764 19.4905 38.9764 8.72621 38.9764-1.2407e-14 30.2512 0 19.4882Z" fill-rule="evenodd" transform="matrix(0.707107 -0.707107 -0.707107 -0.707107 1389.96 507.69)"/><rect x="0" y="0" width="12.9936" height="32.4803" transform="matrix(0.707107 -0.707107 -0.707107 -0.707107 1656.38 755.764)"/><rect x="0" y="0" width="12.9936" height="32.4803" transform="matrix(0.707107 -0.707107 -0.707107 -0.707107 1385.37 484.721)"/><path d="M0 77.9528C-9.9256e-15 34.9006 34.9048-9.92443e-15 77.962-1.98489e-14 121.019-3.96977e-14 155.924 34.9006 155.924 77.9528 155.924 121.005 121.019 155.906 77.962 155.906 34.9048 155.906-4.9628e-14 121.005 0 77.9528Z" fill="#008FFA" fill-rule="evenodd" transform="matrix(0.707107 -0.707107 -0.707107 -0.707107 1559.91 760.353)"/><path d="M0 32C-4.13768e-15 14.3269 14.5507-4.07402e-15 32.5-8.14805e-15 50.4492-1.62961e-14 65 14.3269 65 32 65 49.6731 50.4492 63.9999 32.5 63.9999 14.5507 63.9999-2.06884e-14 49.6731 0 32Z" fill="#E7E6E6" fill-rule="evenodd" transform="matrix(1 0 0 -1 1527 681)"/><rect x="0" y="0" width="155.924" height="415.748" fill="#005696" transform="matrix(-0.707107 0.707107 0.707107 0.707107 1253.22 754.176)"/><rect x="0" y="0" width="155.924" height="285.827" fill="#0072C8" transform="matrix(-0.707107 0.707107 0.707107 0.707107 1299.16 800.11)"/><path d="M0 19.4882C-2.48141e-15 8.72516 8.72621-2.48111e-15 19.4905-4.96221e-15 30.2549-9.92443e-15 38.9811 8.72516 38.9811 19.4882 38.9811 30.2512 30.2549 38.9764 19.4905 38.9764 8.72621 38.9764-1.2407e-14 30.2512 0 19.4882Z" fill-rule="evenodd" transform="matrix(-0.707107 0.707107 0.707107 0.707107 1221.26 804.893)"/><path d="M0 19.4882C-2.48141e-15 8.72516 8.72621-2.48111e-15 19.4905-4.96221e-15 30.2549-9.92443e-15 38.9811 8.72516 38.9811 19.4882 38.9811 30.2512 30.2549 38.9764 19.4905 38.9764 8.72621 38.9764-1.2407e-14 30.2512 0 19.4882Z" fill-rule="evenodd" transform="matrix(-0.707107 0.707107 0.707107 0.707107 1469.11 1052.77)"/><rect x="0" y="0" width="12.9936" height="32.4803" transform="matrix(-0.707107 0.707107 0.707107 0.707107 1202.69 804.693)"/><rect x="0" y="0" width="12.9936" height="32.4803" transform="matrix(-0.707107 0.707107 0.707107 0.707107 1473.7 1075.74)"/><path d="M0 77.9528C-9.9256e-15 34.9006 34.9048-9.92443e-15 77.962-1.98489e-14 121.019-3.96977e-14 155.924 34.9006 155.924 77.9528 155.924 121.005 121.019 155.906 77.962 155.906 34.9048 155.906-4.9628e-14 121.005 0 77.9528Z" fill="#008FFA" fill-rule="evenodd" transform="matrix(-0.707107 0.707107 0.707107 0.707107 1299.16 800.104)"/><path d="M0 32.5C-4.13768e-15 14.5507 14.5507-4.13768e-15 32.5-8.27536e-15 50.4492-1.65507e-14 65 14.5507 65 32.5 65 50.4492 50.4492 65 32.5 65 14.5507 65-2.06884e-14 50.4492 0 32.5Z" fill="#E7E6E6" fill-rule="evenodd" transform="matrix(1 0 0 -1 1267 941)"/><rect x="0" y="0" width="155.924" height="415.748" fill="#005696" transform="matrix(-0.707107 0.707107 0.707107 0.707107 1253.22 494.303)"/><rect x="0" y="0" width="155.924" height="285.827" fill="#0072C8" transform="matrix(-0.707107 0.707107 0.707107 0.707107 1299.16 540.237)"/><path d="M0 19.4882C-2.48141e-15 8.72516 8.72621-2.48111e-15 19.4905-4.96221e-15 30.2549-9.92443e-15 38.9811 8.72516 38.9811 19.4882 38.9811 30.2512 30.2549 38.9764 19.4905 38.9764 8.72621 38.9764-1.2407e-14 30.2512 0 19.4882Z" fill-rule="evenodd" transform="matrix(-0.707107 0.707107 0.707107 0.707107 1221.26 545.021)"/><path d="M0 19.4882C-2.48141e-15 8.72516 8.72621-2.48111e-15 19.4905-4.96221e-15 30.2549-9.92443e-15 38.9811 8.72516 38.9811 19.4882 38.9811 30.2512 30.2549 38.9764 19.4905 38.9764 8.72621 38.9764-1.2407e-14 30.2512 0 19.4882Z" fill-rule="evenodd" transform="matrix(-0.707107 0.707107 0.707107 0.707107 1469.11 792.894)"/><rect x="0" y="0" width="12.9936" height="32.4803" transform="matrix(-0.707107 0.707107 0.707107 0.707107 1202.69 544.821)"/><rect x="0" y="0" width="12.9936" height="32.4803" transform="matrix(-0.707107 0.707107 0.707107 0.707107 1473.7 815.864)"/><path d="M0 77.9528C-9.9256e-15 34.9006 34.9048-9.92443e-15 77.962-1.98489e-14 121.019-3.96977e-14 155.924 34.9006 155.924 77.9528 155.924 121.005 121.019 155.906 77.962 155.906 34.9048 155.906-4.9628e-14 121.005 0 77.9528Z" fill="#008FFA" fill-rule="evenodd" transform="matrix(-0.707107 0.707107 0.707107 0.707107 1299.16 540.232)"/><path d="M0 32C-4.13768e-15 14.3269 14.5507-4.07402e-15 32.5-8.14805e-15 50.4492-1.62961e-14 65 14.3269 65 32 65 49.6731 50.4492 63.9999 32.5 63.9999 14.5507 63.9999-2.06884e-14 49.6731 0 32Z" fill="#E7E6E6" fill-rule="evenodd" transform="matrix(1 0 0 -1 1267 681)"/><rect x="0" y="0" width="155.924" height="415.748" fill="#005696" transform="matrix(0.707107 -0.707107 -0.707107 -0.707107 1605.84 546.409)"/><rect x="0" y="0" width="155.924" height="285.827" fill="#0072C8" transform="matrix(0.707107 -0.707107 -0.707107 -0.707107 1559.91 500.475)"/><path d="M0 19.4882C-2.48141e-15 8.72516 8.72621-2.48111e-15 19.4905-4.96221e-15 30.2549-9.92443e-15 38.9811 8.72516 38.9811 19.4882 38.9811 30.2512 30.2549 38.9764 19.4905 38.9764 8.72621 38.9764-1.2407e-14 30.2512 0 19.4882Z" fill-rule="evenodd" transform="matrix(0.707107 -0.707107 -0.707107 -0.707107 1637.8 495.691)"/><path d="M0 19.4882C-2.48141e-15 8.72516 8.72621-2.48111e-15 19.4905-4.96221e-15 30.2549-9.92443e-15 38.9811 8.72516 38.9811 19.4882 38.9811 30.2512 30.2549 38.9764 19.4905 38.9764 8.72621 38.9764-1.2407e-14 30.2512 0 19.4882Z" fill-rule="evenodd" transform="matrix(0.707107 -0.707107 -0.707107 -0.707107 1389.96 247.817)"/><rect x="0" y="0" width="12.9936" height="32.4803" transform="matrix(0.707107 -0.707107 -0.707107 -0.707107 1656.38 495.891)"/><rect x="0" y="0" width="12.9936" height="32.4803" transform="matrix(0.707107 -0.707107 -0.707107 -0.707107 1385.37 224.848)"/><path d="M0 77.9528C-9.9256e-15 34.9006 34.9048-9.92443e-15 77.962-1.98489e-14 121.019-3.96977e-14 155.924 34.9006 155.924 77.9528 155.924 121.005 121.019 155.906 77.962 155.906 34.9048 155.906-4.9628e-14 121.005 0 77.9528Z" fill="#008FFA" fill-rule="evenodd" transform="matrix(0.707107 -0.707107 -0.707107 -0.707107 1559.91 500.479)"/><path d="M0 32.5C-4.13768e-15 14.5507 14.5507-4.13768e-15 32.5-8.27536e-15 50.4492-1.65507e-14 65 14.5507 65 32.5 65 50.4492 50.4492 65 32.5 65 14.5507 65-2.06884e-14 50.4492 0 32.5Z" fill="#E7E6E6" fill-rule="evenodd" transform="matrix(1 0 0 -1 1527 422)"/><path d="M1085.5 650C1085.5 531.535 1181.54 435.5 1300 435.5 1418.47 435.5 1514.5 531.535 1514.5 650 1514.5 768.465 1418.47 864.5 1300 864.5 1181.54 864.5 1085.5 768.465 1085.5 650Z" stroke="#FFFFFF" stroke-width="4.58333" stroke-miterlimit="8" fill="#E7E6E6" fill-rule="evenodd" fill-opacity="0.501961"/><path d="M0 0 214.087 0.000360892" stroke="#000000" stroke-width="25.9843" stroke-miterlimit="8" fill="none" fill-rule="evenodd" transform="matrix(6.12323e-17 1 1 -6.12323e-17 1299 435)"/><path d="M1285 649.5C1285 641.492 1291.49 635 1299.5 635 1307.51 635 1314 641.492 1314 649.5 1314 657.508 1307.51 664 1299.5 664 1291.49 664 1285 657.508 1285 649.5Z" fill-rule="evenodd"/><path d="M1300 695.5C1418.47 695.5 1514.5 791.535 1514.5 910 1514.5 1028.46 1418.47 1124.5 1300 1124.5 1181.54 1124.5 1085.5 1028.46 1085.5 910 1085.5 791.535 1181.54 695.5 1300 695.5Z" stroke="#FFFFFF" stroke-width="4.58333" stroke-miterlimit="8" fill="#E7E6E6" fill-rule="evenodd" fill-opacity="0.501961"/><path d="M0 0 214.087 0.000360892" stroke="#000000" stroke-width="25.9843" stroke-miterlimit="8" fill="none" fill-rule="evenodd" transform="matrix(-1 1.22465e-16 1.22465e-16 1 1513.09 909)"/><path d="M0 0 0.000360892 214.654" stroke="#000000" stroke-width="25.9843" stroke-miterlimit="8" fill="none" fill-rule="evenodd" transform="matrix(-1 1.22465e-16 1.22465e-16 1 1299 695)"/><path d="M1299.5 895C1307.51 895 1314 901.492 1314 909.5 1314 917.508 1307.51 924 1299.5 924 1291.49 924 1285 917.508 1285 909.5 1285 901.492 1291.49 895 1299.5 895Z" fill-rule="evenodd"/><path d="M1559.5 864.5C1441.31 864.5 1345.5 768.465 1345.5 650 1345.5 531.535 1441.31 435.5 1559.5 435.5 1677.69 435.5 1773.5 531.535 1773.5 650 1773.5 768.465 1677.69 864.5 1559.5 864.5Z" stroke="#FFFFFF" stroke-width="4.58333" stroke-miterlimit="8" fill="#E7E6E6" fill-rule="evenodd" fill-opacity="0.501961"/><path d="M0 0 214.087 0.000360892" stroke="#000000" stroke-width="25.9843" stroke-miterlimit="8" fill="none" fill-rule="evenodd" transform="matrix(1 0 0 -1 1345 650)"/><path d="M0 0 0.000360892 214.654" stroke="#000000" stroke-width="25.9843" stroke-miterlimit="8" fill="none" fill-rule="evenodd" transform="matrix(1 0 0 -1 1559 863.654)"/><path d="M1558.5 664C1550.49 664 1544 657.508 1544 649.5 1544 641.492 1550.49 635 1558.5 635 1566.51 635 1573 641.492 1573 649.5 1573 657.508 1566.51 664 1558.5 664Z" fill-rule="evenodd"/><path d="M1559.5 604.5C1441.31 604.5 1345.5 508.465 1345.5 390 1345.5 271.535 1441.31 175.5 1559.5 175.5 1677.69 175.5 1773.5 271.535 1773.5 390 1773.5 508.465 1677.69 604.5 1559.5 604.5Z" stroke="#FFFFFF" stroke-width="4.58333" stroke-miterlimit="8" fill="#E7E6E6" fill-rule="evenodd" fill-opacity="0.501961"/><path d="M0 0 214.087 0.000360892" stroke="#000000" stroke-width="25.9843" stroke-miterlimit="8" fill="none" fill-rule="evenodd" transform="matrix(1 0 0 -1 1345 390.001)"/><path d="M0 0 0.000360892 214.654" stroke="#000000" stroke-width="25.9843" stroke-miterlimit="8" fill="none" fill-rule="evenodd" transform="matrix(1 0 0 -1 1559 603.654)"/><path d="M1558.5 404C1550.49 404 1544 397.508 1544 389.5 1544 381.492 1550.49 375 1558.5 375 1566.51 375 1573 381.492 1573 389.5 1573 397.508 1566.51 404 1558.5 404Z" fill-rule="evenodd"/><path d="M565.5 650C565.5 531.535 661.535 435.5 780 435.5 898.465 435.5 994.5 531.535 994.5 650 994.5 768.465 898.465 864.5 780 864.5 661.535 864.5 565.5 768.465 565.5 650Z" stroke="#FFFFFF" stroke-width="4.58333" stroke-miterlimit="8" fill="#E7E6E6" fill-rule="evenodd" fill-opacity="0.501961"/><path d="M0 0 214.087 0.000360892" stroke="#000000" stroke-width="25.9843" stroke-miterlimit="8" fill="none" fill-rule="evenodd" transform="matrix(6.12323e-17 1 1 -6.12323e-17 780 435)"/><path d="M766 649.5C766 641.492 772.268 635 780 635 787.732 635 794 641.492 794 649.5 794 657.508 787.732 664 780 664 772.268 664 766 657.508 766 649.5Z" fill-rule="evenodd"/><path d="M780 695.5C898.465 695.5 994.5 791.535 994.5 910 994.5 1028.46 898.465 1124.5 780 1124.5 661.535 1124.5 565.5 1028.46 565.5 910 565.5 791.535 661.535 695.5 780 695.5Z" stroke="#FFFFFF" stroke-width="4.58333" stroke-miterlimit="8" fill="#E7E6E6" fill-rule="evenodd" fill-opacity="0.501961"/><path d="M0 0 214.087 0.000360892" stroke="#000000" stroke-width="25.9843" stroke-miterlimit="8" fill="none" fill-rule="evenodd" transform="matrix(-1 1.22465e-16 1.22465e-16 1 994.087 909)"/><path d="M0 0 0.000360892 214.654" stroke="#000000" stroke-width="25.9843" stroke-miterlimit="8" fill="none" fill-rule="evenodd" transform="matrix(-1 1.22465e-16 1.22465e-16 1 780 695)"/><path d="M780 895C787.732 895 794 901.492 794 909.5 794 917.508 787.732 924 780 924 772.268 924 766 917.508 766 909.5 766 901.492 772.268 895 780 895Z" fill-rule="evenodd"/><path d="M1040 864.5C921.535 864.5 825.5 768.465 825.5 650 825.5 531.535 921.535 435.5 1040 435.5 1158.46 435.5 1254.5 531.535 1254.5 650 1254.5 768.465 1158.46 864.5 1040 864.5Z" stroke="#FFFFFF" stroke-width="4.58333" stroke-miterlimit="8" fill="#E7E6E6" fill-rule="evenodd" fill-opacity="0.501961"/><path d="M0 0 214.087 0.000360892" stroke="#000000" stroke-width="25.9843" stroke-miterlimit="8" fill="none" fill-rule="evenodd" transform="matrix(1 0 0 -1 825 650)"/><path d="M0 0 0.000360892 214.654" stroke="#000000" stroke-width="25.9843" stroke-miterlimit="8" fill="none" fill-rule="evenodd" transform="matrix(1 0 0 -1 1039 863.654)"/><path d="M1039 664C1031.27 664 1025 657.508 1025 649.5 1025 641.492 1031.27 635 1039 635 1046.73 635 1053 641.492 1053 649.5 1053 657.508 1046.73 664 1039 664Z" fill-rule="evenodd"/><path d="M1040 604.5C921.535 604.5 825.5 508.465 825.5 390 825.5 271.535 921.535 175.5 1040 175.5 1158.46 175.5 1254.5 271.535 1254.5 390 1254.5 508.465 1158.46 604.5 1040 604.5Z" stroke="#FFFFFF" stroke-width="4.58333" stroke-miterlimit="8" fill="#E7E6E6" fill-rule="evenodd" fill-opacity="0.501961"/><path d="M0 0 214.087 0.000360892" stroke="#000000" stroke-width="25.9843" stroke-miterlimit="8" fill="none" fill-rule="evenodd" transform="matrix(1 0 0 -1 825 390.001)"/><path d="M0 0 0.000360892 214.654" stroke="#000000" stroke-width="25.9843" stroke-miterlimit="8" fill="none" fill-rule="evenodd" transform="matrix(1 0 0 -1 1039 603.654)"/><path d="M1039 404C1031.27 404 1025 397.508 1025 389.5 1025 381.492 1031.27 375 1039 375 1046.73 375 1053 381.492 1053 389.5 1053 397.508 1046.73 404 1039 404Z" fill-rule="evenodd"/><path d="M1605.5 650C1605.5 531.535 1701.31 435.5 1819.5 435.5 1937.69 435.5 2033.5 531.535 2033.5 650 2033.5 768.465 1937.69 864.5 1819.5 864.5 1701.31 864.5 1605.5 768.465 1605.5 650Z" stroke="#FFFFFF" stroke-width="4.58333" stroke-miterlimit="8" fill="#E7E6E6" fill-rule="evenodd" fill-opacity="0.501961"/><path d="M0 0 214.087 0.000360892" stroke="#000000" stroke-width="25.9843" stroke-miterlimit="8" fill="none" fill-rule="evenodd" transform="matrix(6.12323e-17 1 1 -6.12323e-17 1819 435)"/><path d="M1805 649.5C1805 641.492 1811.27 635 1819 635 1826.73 635 1833 641.492 1833 649.5 1833 657.508 1826.73 664 1819 664 1811.27 664 1805 657.508 1805 649.5Z" fill-rule="evenodd"/><path d="M1819.5 695.5C1937.69 695.5 2033.5 791.535 2033.5 910 2033.5 1028.46 1937.69 1124.5 1819.5 1124.5 1701.31 1124.5 1605.5 1028.46 1605.5 910 1605.5 791.535 1701.31 695.5 1819.5 695.5Z" stroke="#FFFFFF" stroke-width="4.58333" stroke-miterlimit="8" fill="#E7E6E6" fill-rule="evenodd" fill-opacity="0.501961"/><path d="M0 0 214.087 0.000360892" stroke="#000000" stroke-width="25.9843" stroke-miterlimit="8" fill="none" fill-rule="evenodd" transform="matrix(-1 1.22465e-16 1.22465e-16 1 2033.09 909)"/><path d="M0 0 0.000360892 214.654" stroke="#000000" stroke-width="25.9843" stroke-miterlimit="8" fill="none" fill-rule="evenodd" transform="matrix(-1 1.22465e-16 1.22465e-16 1 1819 695)"/><path d="M1819 895C1826.73 895 1833 901.492 1833 909.5 1833 917.508 1826.73 924 1819 924 1811.27 924 1805 917.508 1805 909.5 1805 901.492 1811.27 895 1819 895Z" fill-rule="evenodd"/><path d="M2079 864.5C1960.53 864.5 1864.5 768.465 1864.5 650 1864.5 531.535 1960.53 435.5 2079 435.5 2197.47 435.5 2293.5 531.535 2293.5 650 2293.5 768.465 2197.47 864.5 2079 864.5Z" stroke="#FFFFFF" stroke-width="4.58333" stroke-miterlimit="8" fill="#E7E6E6" fill-rule="evenodd" fill-opacity="0.501961"/><path d="M0 0 214.087 0.000360892" stroke="#000000" stroke-width="25.9843" stroke-miterlimit="8" fill="none" fill-rule="evenodd" transform="matrix(1 0 0 -1 1864 650)"/><path d="M0 0 0.000360892 214.654" stroke="#000000" stroke-width="25.9843" stroke-miterlimit="8" fill="none" fill-rule="evenodd" transform="matrix(1 0 0 -1 2079 863.654)"/><path d="M2078.5 664C2070.49 664 2064 657.508 2064 649.5 2064 641.492 2070.49 635 2078.5 635 2086.51 635 2093 641.492 2093 649.5 2093 657.508 2086.51 664 2078.5 664Z" fill-rule="evenodd"/><path d="M2079 604.5C1960.53 604.5 1864.5 508.465 1864.5 390 1864.5 271.535 1960.53 175.5 2079 175.5 2197.47 175.5 2293.5 271.535 2293.5 390 2293.5 508.465 2197.47 604.5 2079 604.5Z" stroke="#FFFFFF" stroke-width="4.58333" stroke-miterlimit="8" fill="#E7E6E6" fill-rule="evenodd" fill-opacity="0.501961"/><path d="M0 0 214.087 0.000360892" stroke="#000000" stroke-width="25.9843" stroke-miterlimit="8" fill="none" fill-rule="evenodd" transform="matrix(1 0 0 -1 1864 390.001)"/><path d="M0 0 0.000360892 214.654" stroke="#000000" stroke-width="25.9843" stroke-miterlimit="8" fill="none" fill-rule="evenodd" transform="matrix(1 0 0 -1 2079 603.654)"/><path d="M2078.5 404C2070.49 404 2064 397.508 2064 389.5 2064 381.492 2070.49 375 2078.5 375 2086.51 375 2093 381.492 2093 389.5 2093 397.508 2086.51 404 2078.5 404Z" fill-rule="evenodd"/></g></svg>