<svg width="1154" height="1017" xmlns="http://www.w3.org/2000/svg" xmlns:xlink="http://www.w3.org/1999/xlink" overflow="hidden"><defs><clipPath id="clip0"><rect x="980" y="525" width="1154" height="1017"/></clipPath></defs><g clip-path="url(#clip0)" transform="translate(-980 -525)"><rect x="0" y="0" width="155.924" height="415.748" fill="#005696" transform="matrix(0.707107 -0.707107 -0.707107 -0.707107 1443.44 1189.55)"/><rect x="0" y="0" width="155.924" height="285.827" fill="#0072C8" transform="matrix(0.707107 -0.707107 -0.707107 -0.707107 1397.51 1143.61)"/><path d="M0 19.4882C-2.48141e-15 8.72516 8.72621-2.48111e-15 19.4905-4.96221e-15 30.2549-9.92443e-15 38.9811 8.72516 38.9811 19.4882 38.9811 30.2512 30.2549 38.9764 19.4905 38.9764 8.72621 38.9764-1.2407e-14 30.2512 0 19.4882Z" fill-rule="evenodd" transform="matrix(0.707107 -0.707107 -0.707107 -0.707107 1475.4 1138.83)"/><path d="M0 19.4882C-2.48141e-15 8.72516 8.72621-2.48111e-15 19.4905-4.96221e-15 30.2549-9.92443e-15 38.9811 8.72516 38.9811 19.4882 38.9811 30.2512 30.2549 38.9764 19.4905 38.9764 8.72621 38.9764-1.2407e-14 30.2512 0 19.4882Z" fill-rule="evenodd" transform="matrix(0.707107 -0.707107 -0.707107 -0.707107 1227.56 890.957)"/><rect x="0" y="0" width="12.9936" height="32.4803" transform="matrix(0.707107 -0.707107 -0.707107 -0.707107 1493.98 1139.03)"/><rect x="0" y="0" width="12.9936" height="32.4803" transform="matrix(0.707107 -0.707107 -0.707107 -0.707107 1222.96 867.988)"/><path d="M0 77.9528C-9.9256e-15 34.9006 34.9048-9.92443e-15 77.962-1.98489e-14 121.019-3.96977e-14 155.924 34.9006 155.924 77.9528 155.924 121.005 121.019 155.906 77.962 155.906 34.9048 155.906-4.9628e-14 121.005 0 77.9528Z" fill="#008FFA" fill-rule="evenodd" transform="matrix(0.707107 -0.707107 -0.707107 -0.707107 1397.51 1143.62)"/><path d="M0 32.5C-4.13768e-15 14.5507 14.5507-4.13768e-15 32.5-8.27536e-15 50.4492-1.65507e-14 65 14.5507 65 32.5 65 50.4492 50.4492 65 32.5 65 14.5507 65-2.06884e-14 50.4492 0 32.5Z" fill="#E7E6E6" fill-rule="evenodd" transform="matrix(1 0 0 -1 1365 1065)"/><rect x="0" y="0" width="155.924" height="415.748" fill="#005696" transform="matrix(-0.707107 0.707107 0.707107 0.707107 1090.82 1137.44)"/><rect x="0" y="0" width="155.924" height="285.827" fill="#0072C8" transform="matrix(-0.707107 0.707107 0.707107 0.707107 1136.76 1183.38)"/><path d="M0 19.4882C-2.48141e-15 8.72516 8.72621-2.48111e-15 19.4905-4.96221e-15 30.2549-9.92443e-15 38.9811 8.72516 38.9811 19.4882 38.9811 30.2512 30.2549 38.9764 19.4905 38.9764 8.72621 38.9764-1.2407e-14 30.2512 0 19.4882Z" fill-rule="evenodd" transform="matrix(-0.707107 0.707107 0.707107 0.707107 1058.86 1188.16)"/><path d="M0 19.4882C-2.48141e-15 8.72516 8.72621-2.48111e-15 19.4905-4.96221e-15 30.2549-9.92443e-15 38.9811 8.72516 38.9811 19.4882 38.9811 30.2512 30.2549 38.9764 19.4905 38.9764 8.72621 38.9764-1.2407e-14 30.2512 0 19.4882Z" fill-rule="evenodd" transform="matrix(-0.707107 0.707107 0.707107 0.707107 1306.71 1436.03)"/><rect x="0" y="0" width="12.9936" height="32.4803" transform="matrix(-0.707107 0.707107 0.707107 0.707107 1040.29 1187.96)"/><rect x="0" y="0" width="12.9936" height="32.4803" transform="matrix(-0.707107 0.707107 0.707107 0.707107 1311.3 1459)"/><path d="M0 77.9528C-9.9256e-15 34.9006 34.9048-9.92443e-15 77.962-1.98489e-14 121.019-3.96977e-14 155.924 34.9006 155.924 77.9528 155.924 121.005 121.019 155.906 77.962 155.906 34.9048 155.906-4.9628e-14 121.005 0 77.9528Z" fill="#008FFA" fill-rule="evenodd" transform="matrix(-0.707107 0.707107 0.707107 0.707107 1136.76 1183.37)"/><path d="M0 32.5002C-4.13768e-15 14.5508 14.5507-4.1377e-15 32.5-8.27541e-15 50.4492-1.65508e-14 65 14.5508 65 32.5002 65 50.4495 50.4492 65.0003 32.5 65.0003 14.5507 65.0003-2.06884e-14 50.4495 0 32.5002Z" fill="#E7E6E6" fill-rule="evenodd" transform="matrix(1 0 0 -1 1105 1325)"/><rect x="0" y="0" width="155.924" height="415.748" fill="#005696" transform="matrix(-0.707107 0.707107 0.707107 0.707107 1090.82 877.57)"/><rect x="0" y="0" width="155.924" height="285.827" fill="#0072C8" transform="matrix(-0.707107 0.707107 0.707107 0.707107 1136.76 923.504)"/><path d="M0 19.4882C-2.48141e-15 8.72516 8.72621-2.48111e-15 19.4905-4.96221e-15 30.2549-9.92443e-15 38.9811 8.72516 38.9811 19.4882 38.9811 30.2512 30.2549 38.9764 19.4905 38.9764 8.72621 38.9764-1.2407e-14 30.2512 0 19.4882Z" fill-rule="evenodd" transform="matrix(-0.707107 0.707107 0.707107 0.707107 1058.86 928.288)"/><path d="M0 19.4882C-2.48141e-15 8.72516 8.72621-2.48111e-15 19.4905-4.96221e-15 30.2549-9.92443e-15 38.9811 8.72516 38.9811 19.4882 38.9811 30.2512 30.2549 38.9764 19.4905 38.9764 8.72621 38.9764-1.2407e-14 30.2512 0 19.4882Z" fill-rule="evenodd" transform="matrix(-0.707107 0.707107 0.707107 0.707107 1306.71 1176.16)"/><rect x="0" y="0" width="12.9936" height="32.4803" transform="matrix(-0.707107 0.707107 0.707107 0.707107 1040.29 928.088)"/><rect x="0" y="0" width="12.9936" height="32.4803" transform="matrix(-0.707107 0.707107 0.707107 0.707107 1311.3 1199.13)"/><path d="M0 77.9528C-9.9256e-15 34.9006 34.9048-9.92443e-15 77.962-1.98489e-14 121.019-3.96977e-14 155.924 34.9006 155.924 77.9528 155.924 121.005 121.019 155.906 77.962 155.906 34.9048 155.906-4.9628e-14 121.005 0 77.9528Z" fill="#008FFA" fill-rule="evenodd" transform="matrix(-0.707107 0.707107 0.707107 0.707107 1136.76 923.499)"/><path d="M0 32.5C-4.13768e-15 14.5507 14.5507-4.13768e-15 32.5-8.27536e-15 50.4492-1.65507e-14 65 14.5507 65 32.5 65 50.4492 50.4492 65 32.5 65 14.5507 65-2.06884e-14 50.4492 0 32.5Z" fill="#E7E6E6" fill-rule="evenodd" transform="matrix(1 0 0 -1 1105 1065)"/><rect x="0" y="0" width="155.924" height="415.748" fill="#005696" transform="matrix(0.707107 -0.707107 -0.707107 -0.707107 1443.44 929.676)"/><rect x="0" y="0" width="155.924" height="285.827" fill="#0072C8" transform="matrix(0.707107 -0.707107 -0.707107 -0.707107 1397.51 883.742)"/><path d="M0 19.4882C-2.48141e-15 8.72516 8.72621-2.48111e-15 19.4905-4.96221e-15 30.2549-9.92443e-15 38.9811 8.72516 38.9811 19.4882 38.9811 30.2512 30.2549 38.9764 19.4905 38.9764 8.72621 38.9764-1.2407e-14 30.2512 0 19.4882Z" fill-rule="evenodd" transform="matrix(0.707107 -0.707107 -0.707107 -0.707107 1475.4 878.958)"/><path d="M0 19.4882C-2.48141e-15 8.72516 8.72621-2.48111e-15 19.4905-4.96221e-15 30.2549-9.92443e-15 38.9811 8.72516 38.9811 19.4882 38.9811 30.2512 30.2549 38.9764 19.4905 38.9764 8.72621 38.9764-1.2407e-14 30.2512 0 19.4882Z" fill-rule="evenodd" transform="matrix(0.707107 -0.707107 -0.707107 -0.707107 1227.56 631.084)"/><rect x="0" y="0" width="12.9936" height="32.4803" transform="matrix(0.707107 -0.707107 -0.707107 -0.707107 1493.98 879.158)"/><rect x="0" y="0" width="12.9936" height="32.4803" transform="matrix(0.707107 -0.707107 -0.707107 -0.707107 1222.96 608.115)"/><path d="M0 77.9528C-9.9256e-15 34.9006 34.9048-9.92443e-15 77.962-1.98489e-14 121.019-3.96977e-14 155.924 34.9006 155.924 77.9528 155.924 121.005 121.019 155.906 77.962 155.906 34.9048 155.906-4.9628e-14 121.005 0 77.9528Z" fill="#008FFA" fill-rule="evenodd" transform="matrix(0.707107 -0.707107 -0.707107 -0.707107 1397.51 883.746)"/><path d="M0 32.5C-4.13768e-15 14.5507 14.5507-4.13768e-15 32.5-8.27536e-15 50.4492-1.65507e-14 65 14.5507 65 32.5 65 50.4492 50.4492 65 32.5 65 14.5507 65-2.06884e-14 50.4492 0 32.5Z" fill="#E7E6E6" fill-rule="evenodd" transform="matrix(1 0 0 -1 1365 805)"/><rect x="0" y="0" width="155.924" height="415.748" fill="#005696" transform="matrix(0.707107 -0.707107 -0.707107 -0.707107 1963.13 1189.55)"/><rect x="0" y="0" width="155.924" height="285.827" fill="#0072C8" transform="matrix(0.707107 -0.707107 -0.707107 -0.707107 1917.19 1143.61)"/><path d="M0 19.4882C-2.48141e-15 8.72516 8.72621-2.48111e-15 19.4905-4.96221e-15 30.2549-9.92443e-15 38.9811 8.72516 38.9811 19.4882 38.9811 30.2512 30.2549 38.9764 19.4905 38.9764 8.72621 38.9764-1.2407e-14 30.2512 0 19.4882Z" fill-rule="evenodd" transform="matrix(0.707107 -0.707107 -0.707107 -0.707107 1995.09 1138.83)"/><path d="M0 19.4882C-2.48141e-15 8.72516 8.72621-2.48111e-15 19.4905-4.96221e-15 30.2549-9.92443e-15 38.9811 8.72516 38.9811 19.4882 38.9811 30.2512 30.2549 38.9764 19.4905 38.9764 8.72621 38.9764-1.2407e-14 30.2512 0 19.4882Z" fill-rule="evenodd" transform="matrix(0.707107 -0.707107 -0.707107 -0.707107 1747.24 890.957)"/><rect x="0" y="0" width="12.9936" height="32.4803" transform="matrix(0.707107 -0.707107 -0.707107 -0.707107 2013.66 1139.03)"/><rect x="0" y="0" width="12.9936" height="32.4803" transform="matrix(0.707107 -0.707107 -0.707107 -0.707107 1742.65 867.988)"/><path d="M0 77.9528C-9.9256e-15 34.9006 34.9048-9.92443e-15 77.962-1.98489e-14 121.019-3.96977e-14 155.924 34.9006 155.924 77.9528 155.924 121.005 121.019 155.906 77.962 155.906 34.9048 155.906-4.9628e-14 121.005 0 77.9528Z" fill="#008FFA" fill-rule="evenodd" transform="matrix(0.707107 -0.707107 -0.707107 -0.707107 1917.19 1143.62)"/><path d="M0 32.5C-4.13768e-15 14.5507 14.5507-4.13768e-15 32.5-8.27536e-15 50.4492-1.65507e-14 65 14.5507 65 32.5 65 50.4492 50.4492 65 32.5 65 14.5507 65-2.06884e-14 50.4492 0 32.5Z" fill="#E7E6E6" fill-rule="evenodd" transform="matrix(1 0 0 -1 1884 1065)"/><rect x="0" y="0" width="155.924" height="415.748" fill="#005696" transform="matrix(-0.707107 0.707107 0.707107 0.707107 1610.51 1137.44)"/><rect x="0" y="0" width="155.924" height="285.827" fill="#0072C8" transform="matrix(-0.707107 0.707107 0.707107 0.707107 1656.44 1183.38)"/><path d="M0 19.4882C-2.48141e-15 8.72516 8.72621-2.48111e-15 19.4905-4.96221e-15 30.2549-9.92443e-15 38.9811 8.72516 38.9811 19.4882 38.9811 30.2512 30.2549 38.9764 19.4905 38.9764 8.72621 38.9764-1.2407e-14 30.2512 0 19.4882Z" fill-rule="evenodd" transform="matrix(-0.707107 0.707107 0.707107 0.707107 1578.55 1188.16)"/><path d="M0 19.4882C-2.48141e-15 8.72516 8.72621-2.48111e-15 19.4905-4.96221e-15 30.2549-9.92443e-15 38.9811 8.72516 38.9811 19.4882 38.9811 30.2512 30.2549 38.9764 19.4905 38.9764 8.72621 38.9764-1.2407e-14 30.2512 0 19.4882Z" fill-rule="evenodd" transform="matrix(-0.707107 0.707107 0.707107 0.707107 1826.39 1436.03)"/><rect x="0" y="0" width="12.9936" height="32.4803" transform="matrix(-0.707107 0.707107 0.707107 0.707107 1559.97 1187.96)"/><rect x="0" y="0" width="12.9936" height="32.4803" transform="matrix(-0.707107 0.707107 0.707107 0.707107 1830.98 1459)"/><path d="M0 77.9528C-9.9256e-15 34.9006 34.9048-9.92443e-15 77.962-1.98489e-14 121.019-3.96977e-14 155.924 34.9006 155.924 77.9528 155.924 121.005 121.019 155.906 77.962 155.906 34.9048 155.906-4.9628e-14 121.005 0 77.9528Z" fill="#008FFA" fill-rule="evenodd" transform="matrix(-0.707107 0.707107 0.707107 0.707107 1656.44 1183.37)"/><path d="M0 32.5002C-4.13768e-15 14.5508 14.5507-4.1377e-15 32.5-8.27541e-15 50.4492-1.65508e-14 65 14.5508 65 32.5002 65 50.4495 50.4492 65.0003 32.5 65.0003 14.5507 65.0003-2.06884e-14 50.4495 0 32.5002Z" fill="#E7E6E6" fill-rule="evenodd" transform="matrix(1 0 0 -1 1624 1325)"/><rect x="0" y="0" width="155.924" height="415.748" fill="#005696" transform="matrix(-0.707107 0.707107 0.707107 0.707107 1610.51 877.57)"/><rect x="0" y="0" width="155.924" height="285.827" fill="#0072C8" transform="matrix(-0.707107 0.707107 0.707107 0.707107 1656.44 923.504)"/><path d="M0 19.4882C-2.48141e-15 8.72516 8.72621-2.48111e-15 19.4905-4.96221e-15 30.2549-9.92443e-15 38.9811 8.72516 38.9811 19.4882 38.9811 30.2512 30.2549 38.9764 19.4905 38.9764 8.72621 38.9764-1.2407e-14 30.2512 0 19.4882Z" fill-rule="evenodd" transform="matrix(-0.707107 0.707107 0.707107 0.707107 1578.55 928.288)"/><path d="M0 19.4882C-2.48141e-15 8.72516 8.72621-2.48111e-15 19.4905-4.96221e-15 30.2549-9.92443e-15 38.9811 8.72516 38.9811 19.4882 38.9811 30.2512 30.2549 38.9764 19.4905 38.9764 8.72621 38.9764-1.2407e-14 30.2512 0 19.4882Z" fill-rule="evenodd" transform="matrix(-0.707107 0.707107 0.707107 0.707107 1826.39 1176.16)"/><rect x="0" y="0" width="12.9936" height="32.4803" transform="matrix(-0.707107 0.707107 0.707107 0.707107 1559.97 928.088)"/><rect x="0" y="0" width="12.9936" height="32.4803" transform="matrix(-0.707107 0.707107 0.707107 0.707107 1830.98 1199.13)"/><path d="M0 77.9528C-9.9256e-15 34.9006 34.9048-9.92443e-15 77.962-1.98489e-14 121.019-3.96977e-14 155.924 34.9006 155.924 77.9528 155.924 121.005 121.019 155.906 77.962 155.906 34.9048 155.906-4.9628e-14 121.005 0 77.9528Z" fill="#008FFA" fill-rule="evenodd" transform="matrix(-0.707107 0.707107 0.707107 0.707107 1656.44 923.499)"/><path d="M0 32.5C-4.13768e-15 14.5507 14.5507-4.13768e-15 32.5-8.27536e-15 50.4492-1.65507e-14 65 14.5507 65 32.5 65 50.4492 50.4492 65 32.5 65 14.5507 65-2.06884e-14 50.4492 0 32.5Z" fill="#E7E6E6" fill-rule="evenodd" transform="matrix(1 0 0 -1 1624 1065)"/><rect x="0" y="0" width="155.924" height="415.748" fill="#005696" transform="matrix(0.707107 -0.707107 -0.707107 -0.707107 1963.13 929.676)"/><rect x="0" y="0" width="155.924" height="285.827" fill="#0072C8" transform="matrix(0.707107 -0.707107 -0.707107 -0.707107 1917.19 883.742)"/><path d="M0 19.4882C-2.48141e-15 8.72516 8.72621-2.48111e-15 19.4905-4.96221e-15 30.2549-9.92443e-15 38.9811 8.72516 38.9811 19.4882 38.9811 30.2512 30.2549 38.9764 19.4905 38.9764 8.72621 38.9764-1.2407e-14 30.2512 0 19.4882Z" fill-rule="evenodd" transform="matrix(0.707107 -0.707107 -0.707107 -0.707107 1995.09 878.958)"/><path d="M0 19.4882C-2.48141e-15 8.72516 8.72621-2.48111e-15 19.4905-4.96221e-15 30.2549-9.92443e-15 38.9811 8.72516 38.9811 19.4882 38.9811 30.2512 30.2549 38.9764 19.4905 38.9764 8.72621 38.9764-1.2407e-14 30.2512 0 19.4882Z" fill-rule="evenodd" transform="matrix(0.707107 -0.707107 -0.707107 -0.707107 1747.24 631.084)"/><rect x="0" y="0" width="12.9936" height="32.4803" transform="matrix(0.707107 -0.707107 -0.707107 -0.707107 2013.66 879.158)"/><rect x="0" y="0" width="12.9936" height="32.4803" transform="matrix(0.707107 -0.707107 -0.707107 -0.707107 1742.65 608.115)"/><path d="M0 77.9528C-9.9256e-15 34.9006 34.9048-9.92443e-15 77.962-1.98489e-14 121.019-3.96977e-14 155.924 34.9006 155.924 77.9528 155.924 121.005 121.019 155.906 77.962 155.906 34.9048 155.906-4.9628e-14 121.005 0 77.9528Z" fill="#008FFA" fill-rule="evenodd" transform="matrix(0.707107 -0.707107 -0.707107 -0.707107 1917.19 883.746)"/><path d="M0 32.5C-4.13768e-15 14.5507 14.5507-4.13768e-15 32.5-8.27536e-15 50.4492-1.65507e-14 65 14.5507 65 32.5 65 50.4492 50.4492 65 32.5 65 14.5507 65-2.06884e-14 50.4492 0 32.5Z" fill="#E7E6E6" fill-rule="evenodd" transform="matrix(1 0 0 -1 1884 805)"/><path d="M1442.5 1033.5C1442.5 915.311 1538.53 819.5 1657 819.5 1775.46 819.5 1871.5 915.311 1871.5 1033.5 1871.5 1151.69 1775.46 1247.5 1657 1247.5 1538.53 1247.5 1442.5 1151.69 1442.5 1033.5Z" stroke="#FFFFFF" stroke-width="4.58333" stroke-miterlimit="8" fill="#E7E6E6" fill-rule="evenodd" fill-opacity="0.501961"/><path d="M0 0 214.087 0.000360892" stroke="#000000" stroke-width="25.9843" stroke-miterlimit="8" fill="none" fill-rule="evenodd" transform="matrix(6.12323e-17 1 1 -6.12323e-17 1656 819)"/><path d="M1642 1032.5C1642 1024.49 1648.49 1018 1656.5 1018 1664.51 1018 1671 1024.49 1671 1032.5 1671 1040.51 1664.51 1047 1656.5 1047 1648.49 1047 1642 1040.51 1642 1032.5Z" fill-rule="evenodd"/><path d="M1657 1078.5C1775.46 1078.5 1871.5 1174.53 1871.5 1293 1871.5 1411.46 1775.46 1507.5 1657 1507.5 1538.53 1507.5 1442.5 1411.46 1442.5 1293 1442.5 1174.53 1538.53 1078.5 1657 1078.5Z" stroke="#FFFFFF" stroke-width="4.58333" stroke-miterlimit="8" fill="#E7E6E6" fill-rule="evenodd" fill-opacity="0.501961"/><path d="M0 0 214.087 0.000360892" stroke="#000000" stroke-width="25.9843" stroke-miterlimit="8" fill="none" fill-rule="evenodd" transform="matrix(-1 1.22465e-16 1.22465e-16 1 1871.09 1293)"/><path d="M0 0 0.000360892 214.654" stroke="#000000" stroke-width="25.9843" stroke-miterlimit="8" fill="none" fill-rule="evenodd" transform="matrix(-1 1.22465e-16 1.22465e-16 1 1656 1078)"/><path d="M1656.5 1279C1664.51 1279 1671 1285.27 1671 1293 1671 1300.73 1664.51 1307 1656.5 1307 1648.49 1307 1642 1300.73 1642 1293 1642 1285.27 1648.49 1279 1656.5 1279Z" fill-rule="evenodd"/><path d="M1917 1247.5C1798.53 1247.5 1702.5 1151.69 1702.5 1033.5 1702.5 915.311 1798.53 819.5 1917 819.5 2035.46 819.5 2131.5 915.311 2131.5 1033.5 2131.5 1151.69 2035.46 1247.5 1917 1247.5Z" stroke="#FFFFFF" stroke-width="4.58333" stroke-miterlimit="8" fill="#E7E6E6" fill-rule="evenodd" fill-opacity="0.501961"/><path d="M0 0 214.087 0.000360892" stroke="#000000" stroke-width="25.9843" stroke-miterlimit="8" fill="none" fill-rule="evenodd" transform="matrix(1 0 0 -1 1702 1033)"/><path d="M0 0 0.000360892 214.654" stroke="#000000" stroke-width="25.9843" stroke-miterlimit="8" fill="none" fill-rule="evenodd" transform="matrix(1 0 0 -1 1916 1247.65)"/><path d="M1916 1047C1908.27 1047 1902 1040.51 1902 1032.5 1902 1024.49 1908.27 1018 1916 1018 1923.73 1018 1930 1024.49 1930 1032.5 1930 1040.51 1923.73 1047 1916 1047Z" fill-rule="evenodd"/><path d="M1917 987.5C1798.53 987.5 1702.5 891.689 1702.5 773.5 1702.5 655.311 1798.53 559.5 1917 559.5 2035.46 559.5 2131.5 655.311 2131.5 773.5 2131.5 891.689 2035.46 987.5 1917 987.5Z" stroke="#FFFFFF" stroke-width="4.58333" stroke-miterlimit="8" fill="#E7E6E6" fill-rule="evenodd" fill-opacity="0.501961"/><path d="M0 0 214.087 0.000360892" stroke="#000000" stroke-width="25.9843" stroke-miterlimit="8" fill="none" fill-rule="evenodd" transform="matrix(1 0 0 -1 1702 773)"/><path d="M0 0 0.000360892 214.654" stroke="#000000" stroke-width="25.9843" stroke-miterlimit="8" fill="none" fill-rule="evenodd" transform="matrix(1 0 0 -1 1916 987.654)"/><path d="M1916 787C1908.27 787 1902 780.508 1902 772.5 1902 764.492 1908.27 758 1916 758 1923.73 758 1930 764.492 1930 772.5 1930 780.508 1923.73 787 1916 787Z" fill-rule="evenodd"/></g></svg>