<svg width="2084" height="784" xmlns="http://www.w3.org/2000/svg" xmlns:xlink="http://www.w3.org/1999/xlink" overflow="hidden"><defs><clipPath id="clip0"><rect x="778" y="258" width="2084" height="784"/></clipPath></defs><g clip-path="url(#clip0)" transform="translate(-778 -258)"><path d="M1170.5 260.5C1242.3 260.5 1300.5 318.703 1300.5 390.5 1300.5 462.297 1242.3 520.5 1170.5 520.5 1098.7 520.5 1040.5 462.297 1040.5 390.5 1040.5 318.703 1098.7 260.5 1170.5 260.5Z" stroke="#E7E6E6" stroke-width="4.58333" stroke-miterlimit="8" fill="none" fill-rule="evenodd"/><path d="M1169.5 383C1173.09 383 1176 385.91 1176 389.5L1176 389.5C1176 393.09 1173.09 396 1169.5 396L1052.5 396C1048.91 396 1046 393.09 1046 389.5L1046 389.5C1046 385.91 1048.91 383 1052.5 383Z" fill="#E7E6E6" fill-rule="evenodd"/><path d="M1176 506.5C1176 510.09 1173.09 513 1169.5 513L1169.5 513C1165.91 513 1163 510.09 1163 506.5L1163 389.5C1163 385.91 1165.91 383 1169.5 383L1169.5 383C1173.09 383 1176 385.91 1176 389.5Z" fill="#E7E6E6" fill-rule="evenodd"/><path d="M780.5 390.5C780.5 318.703 838.703 260.5 910.5 260.5 982.297 260.5 1040.5 318.703 1040.5 390.5 1040.5 462.297 982.297 520.5 910.5 520.5 838.703 520.5 780.5 462.297 780.5 390.5Z" stroke="#E7E6E6" stroke-width="4.58333" stroke-miterlimit="8" fill="none" fill-rule="evenodd"/><path d="M1026.5 383C1030.09 383 1033 385.91 1033 389.5L1033 389.5C1033 393.09 1030.09 396 1026.5 396L909.5 396C905.91 396 903 393.09 903 389.5L903 389.5C903 385.91 905.91 383 909.5 383Z" fill="#E7E6E6" fill-rule="evenodd"/><path d="M1300.5 650.5C1300.5 722.297 1242.3 780.5 1170.5 780.5 1098.7 780.5 1040.5 722.297 1040.5 650.5 1040.5 578.703 1098.7 520.5 1170.5 520.5 1242.3 520.5 1300.5 578.703 1300.5 650.5Z" stroke="#E7E6E6" stroke-width="4.58333" stroke-miterlimit="8" fill="none" fill-rule="evenodd"/><path d="M1176 649.5C1176 653.09 1173.09 656 1169.5 656L1169.5 656C1165.91 656 1163 653.09 1163 649.5L1163 532.5C1163 528.91 1165.91 526 1169.5 526L1169.5 526C1173.09 526 1176 528.91 1176 532.5Z" fill="#E7E6E6" fill-rule="evenodd"/><path d="M1052.5 656C1048.91 656 1046 653.09 1046 649.5L1046 649.5C1046 645.91 1048.91 643 1052.5 643L1169.5 643C1173.09 643 1176 645.91 1176 649.5L1176 649.5C1176 653.09 1173.09 656 1169.5 656Z" fill="#E7E6E6" fill-rule="evenodd"/><path d="M780.5 650.5C780.5 578.703 838.703 520.5 910.5 520.5 982.297 520.5 1040.5 578.703 1040.5 650.5 1040.5 722.297 982.297 780.5 910.5 780.5 838.703 780.5 780.5 722.297 780.5 650.5Z" stroke="#E7E6E6" stroke-width="4.58333" stroke-miterlimit="8" fill="none" fill-rule="evenodd"/><path d="M903 649.5C903 645.91 905.91 643 909.5 643L909.5 643C913.09 643 916 645.91 916 649.5L916 766.5C916 770.09 913.09 773 909.5 773L909.5 773C905.91 773 903 770.09 903 766.5Z" fill="#E7E6E6" fill-rule="evenodd"/><path d="M1026.5 643C1030.09 643 1033 645.91 1033 649.5L1033 649.5C1033 653.09 1030.09 656 1026.5 656L909.5 656C905.91 656 903 653.09 903 649.5L903 649.5C903 645.91 905.91 643 909.5 643Z" fill="#E7E6E6" fill-rule="evenodd"/><path d="M910 1039.5C838.479 1039.5 780.5 981.521 780.5 910 780.5 838.479 838.479 780.5 910 780.5 981.521 780.5 1039.5 838.479 1039.5 910 1039.5 981.521 981.521 1039.5 910 1039.5Z" stroke="#E7E6E6" stroke-width="4.58333" stroke-miterlimit="8" fill="none" fill-rule="evenodd"/><path d="M909.5 916C905.91 916 903 913.09 903 909.5L903 909.5C903 905.91 905.91 903 909.5 903L1026.5 903C1030.09 903 1033 905.91 1033 909.5L1033 909.5C1033 913.09 1030.09 916 1026.5 916Z" fill="#E7E6E6" fill-rule="evenodd"/><path d="M903 792.5C903 788.91 905.91 786 909.5 786L909.5 786C913.09 786 916 788.91 916 792.5L916 909.5C916 913.09 913.09 916 909.5 916L909.5 916C905.91 916 903 913.09 903 909.5Z" fill="#E7E6E6" fill-rule="evenodd"/><path d="M1300.5 910C1300.5 981.521 1242.3 1039.5 1170.5 1039.5 1098.7 1039.5 1040.5 981.521 1040.5 910 1040.5 838.479 1098.7 780.5 1170.5 780.5 1242.3 780.5 1300.5 838.479 1300.5 910Z" stroke="#E7E6E6" stroke-width="4.58333" stroke-miterlimit="8" fill="none" fill-rule="evenodd"/><path d="M1052.5 916C1048.91 916 1046 913.09 1046 909.5L1046 909.5C1046 905.91 1048.91 903 1052.5 903L1169.5 903C1173.09 903 1176 905.91 1176 909.5L1176 909.5C1176 913.09 1173.09 916 1169.5 916Z" fill="#E7E6E6" fill-rule="evenodd"/><path d="M1689.5 260.5C1761.3 260.5 1819.5 318.703 1819.5 390.5 1819.5 462.297 1761.3 520.5 1689.5 520.5 1617.7 520.5 1559.5 462.297 1559.5 390.5 1559.5 318.703 1617.7 260.5 1689.5 260.5Z" stroke="#E7E6E6" stroke-width="4.58333" stroke-miterlimit="8" fill="none" fill-rule="evenodd"/><path d="M1688.5 383C1692.09 383 1695 385.91 1695 389.5L1695 389.5C1695 393.09 1692.09 396 1688.5 396L1572.5 396C1568.91 396 1566 393.09 1566 389.5L1566 389.5C1566 385.91 1568.91 383 1572.5 383Z" fill="#E7E6E6" fill-rule="evenodd"/><path d="M1695 506.5C1695 510.09 1692.09 513 1688.5 513L1688.5 513C1684.91 513 1682 510.09 1682 506.5L1682 389.5C1682 385.91 1684.91 383 1688.5 383L1688.5 383C1692.09 383 1695 385.91 1695 389.5Z" fill="#E7E6E6" fill-rule="evenodd"/><path d="M1299.5 390.5C1299.5 318.703 1357.7 260.5 1429.5 260.5 1501.3 260.5 1559.5 318.703 1559.5 390.5 1559.5 462.297 1501.3 520.5 1429.5 520.5 1357.7 520.5 1299.5 462.297 1299.5 390.5Z" stroke="#E7E6E6" stroke-width="4.58333" stroke-miterlimit="8" fill="none" fill-rule="evenodd"/><path d="M1546.5 383C1550.09 383 1553 385.91 1553 389.5L1553 389.5C1553 393.09 1550.09 396 1546.5 396L1429.5 396C1425.91 396 1423 393.09 1423 389.5L1423 389.5C1423 385.91 1425.91 383 1429.5 383Z" fill="#E7E6E6" fill-rule="evenodd"/><path d="M1819.5 650.5C1819.5 722.297 1761.3 780.5 1689.5 780.5 1617.7 780.5 1559.5 722.297 1559.5 650.5 1559.5 578.703 1617.7 520.5 1689.5 520.5 1761.3 520.5 1819.5 578.703 1819.5 650.5Z" stroke="#E7E6E6" stroke-width="4.58333" stroke-miterlimit="8" fill="none" fill-rule="evenodd"/><path d="M1695 649.5C1695 653.09 1692.09 656 1688.5 656L1688.5 656C1684.91 656 1682 653.09 1682 649.5L1682 532.5C1682 528.91 1684.91 526 1688.5 526L1688.5 526C1692.09 526 1695 528.91 1695 532.5Z" fill="#E7E6E6" fill-rule="evenodd"/><path d="M1572.5 656C1568.91 656 1566 653.09 1566 649.5L1566 649.5C1566 645.91 1568.91 643 1572.5 643L1688.5 643C1692.09 643 1695 645.91 1695 649.5L1695 649.5C1695 653.09 1692.09 656 1688.5 656Z" fill="#E7E6E6" fill-rule="evenodd"/><path d="M1300.5 650.5C1300.5 578.703 1358.48 520.5 1430 520.5 1501.52 520.5 1559.5 578.703 1559.5 650.5 1559.5 722.297 1501.52 780.5 1430 780.5 1358.48 780.5 1300.5 722.297 1300.5 650.5Z" stroke="#E7E6E6" stroke-width="4.58333" stroke-miterlimit="8" fill="none" fill-rule="evenodd"/><path d="M1546.5 643C1550.09 643 1553 645.91 1553 649.5L1553 649.5C1553 653.09 1550.09 656 1546.5 656L1429.5 656C1425.91 656 1423 653.09 1423 649.5L1423 649.5C1423 645.91 1425.91 643 1429.5 643Z" fill="#E7E6E6" fill-rule="evenodd"/><path d="M1300.5 910C1300.5 838.479 1358.48 780.5 1430 780.5 1501.52 780.5 1559.5 838.479 1559.5 910 1559.5 981.521 1501.52 1039.5 1430 1039.5 1358.48 1039.5 1300.5 981.521 1300.5 910Z" stroke="#E7E6E6" stroke-width="4.58333" stroke-miterlimit="8" fill="none" fill-rule="evenodd"/><path d="M1546.5 903C1550.09 903 1553 905.91 1553 909.5L1553 909.5C1553 913.09 1550.09 916 1546.5 916L1429.5 916C1425.91 916 1423 913.09 1423 909.5L1423 909.5C1423 905.91 1425.91 903 1429.5 903Z" fill="#E7E6E6" fill-rule="evenodd"/><path d="M1819.5 910C1819.5 981.521 1761.3 1039.5 1689.5 1039.5 1617.7 1039.5 1559.5 981.521 1559.5 910 1559.5 838.479 1617.7 780.5 1689.5 780.5 1761.3 780.5 1819.5 838.479 1819.5 910Z" stroke="#E7E6E6" stroke-width="4.58333" stroke-miterlimit="8" fill="none" fill-rule="evenodd"/><path d="M1695 909.5C1695 913.09 1692.09 916 1688.5 916L1688.5 916C1684.91 916 1682 913.09 1682 909.5L1682 792.5C1682 788.91 1684.91 786 1688.5 786L1688.5 786C1692.09 786 1695 788.91 1695 792.5Z" fill="#E7E6E6" fill-rule="evenodd"/><path d="M1572.5 916C1568.91 916 1566 913.09 1566 909.5L1566 909.5C1566 905.91 1568.91 903 1572.5 903L1688.5 903C1692.09 903 1695 905.91 1695 909.5L1695 909.5C1695 913.09 1692.09 916 1688.5 916Z" fill="#E7E6E6" fill-rule="evenodd"/><path d="M1949.5 780.5C1877.7 780.5 1819.5 722.297 1819.5 650.5 1819.5 578.703 1877.7 520.5 1949.5 520.5 2021.3 520.5 2079.5 578.703 2079.5 650.5 2079.5 722.297 2021.3 780.5 1949.5 780.5Z" stroke="#E7E6E6" stroke-width="4.58333" stroke-miterlimit="8" fill="none" fill-rule="evenodd"/><path d="M1949.5 656C1945.91 656 1943 653.09 1943 649.5L1943 649.5C1943 645.91 1945.91 643 1949.5 643L2066.5 643C2070.09 643 2073 645.91 2073 649.5L2073 649.5C2073 653.09 2070.09 656 2066.5 656Z" fill="#E7E6E6" fill-rule="evenodd"/><path d="M1943 532.5C1943 528.91 1945.91 526 1949.5 526L1949.5 526C1953.09 526 1956 528.91 1956 532.5L1956 649.5C1956 653.09 1953.09 656 1949.5 656L1949.5 656C1945.91 656 1943 653.09 1943 649.5Z" fill="#E7E6E6" fill-rule="evenodd"/><path d="M1819.5 390.5C1819.5 318.703 1877.7 260.5 1949.5 260.5 2021.3 260.5 2079.5 318.703 2079.5 390.5 2079.5 462.297 2021.3 520.5 1949.5 520.5 1877.7 520.5 1819.5 462.297 1819.5 390.5Z" stroke="#E7E6E6" stroke-width="4.58333" stroke-miterlimit="8" fill="none" fill-rule="evenodd"/><path d="M1942 389.5C1942 385.91 1944.91 383 1948.5 383L1948.5 383C1952.09 383 1955 385.91 1955 389.5L1955 506.5C1955 510.09 1952.09 513 1948.5 513L1948.5 513C1944.91 513 1942 510.09 1942 506.5Z" fill="#E7E6E6" fill-rule="evenodd"/><path d="M2065.5 383C2069.09 383 2072 385.91 2072 389.5L2072 389.5C2072 393.09 2069.09 396 2065.5 396L1948.5 396C1944.91 396 1942 393.09 1942 389.5L1942 389.5C1942 385.91 1944.91 383 1948.5 383Z" fill="#E7E6E6" fill-rule="evenodd"/><path d="M2339.5 390.5C2339.5 462.297 2281.3 520.5 2209.5 520.5 2137.7 520.5 2079.5 462.297 2079.5 390.5 2079.5 318.703 2137.7 260.5 2209.5 260.5 2281.3 260.5 2339.5 318.703 2339.5 390.5Z" stroke="#E7E6E6" stroke-width="4.58333" stroke-miterlimit="8" fill="none" fill-rule="evenodd"/><path d="M2092.5 396C2088.91 396 2086 393.09 2086 389.5L2086 389.5C2086 385.91 2088.91 383 2092.5 383L2209.5 383C2213.09 383 2216 385.91 2216 389.5L2216 389.5C2216 393.09 2213.09 396 2209.5 396Z" fill="#E7E6E6" fill-rule="evenodd"/><path d="M1820.5 910C1820.5 838.479 1878.48 780.5 1950 780.5 2021.52 780.5 2079.5 838.479 2079.5 910 2079.5 981.521 2021.52 1039.5 1950 1039.5 1878.48 1039.5 1820.5 981.521 1820.5 910Z" stroke="#E7E6E6" stroke-width="4.58333" stroke-miterlimit="8" fill="none" fill-rule="evenodd"/><path d="M2066.5 903C2070.09 903 2073 905.91 2073 909.5L2073 909.5C2073 913.09 2070.09 916 2066.5 916L1949.5 916C1945.91 916 1943 913.09 1943 909.5L1943 909.5C1943 905.91 1945.91 903 1949.5 903Z" fill="#E7E6E6" fill-rule="evenodd"/><path d="M2339.5 910C2339.5 981.521 2281.3 1039.5 2209.5 1039.5 2137.7 1039.5 2079.5 981.521 2079.5 910 2079.5 838.479 2137.7 780.5 2209.5 780.5 2281.3 780.5 2339.5 838.479 2339.5 910Z" stroke="#E7E6E6" stroke-width="4.58333" stroke-miterlimit="8" fill="none" fill-rule="evenodd"/><path d="M2216 909.5C2216 913.09 2213.09 916 2209.5 916L2209.5 916C2205.91 916 2203 913.09 2203 909.5L2203 792.5C2203 788.91 2205.91 786 2209.5 786L2209.5 786C2213.09 786 2216 788.91 2216 792.5Z" fill="#E7E6E6" fill-rule="evenodd"/><path d="M2092.5 916C2088.91 916 2086 913.09 2086 909.5L2086 909.5C2086 905.91 2088.91 903 2092.5 903L2209.5 903C2213.09 903 2216 905.91 2216 909.5L2216 909.5C2216 913.09 2213.09 916 2209.5 916Z" fill="#E7E6E6" fill-rule="evenodd"/><path d="M2209.5 520.5C2281.3 520.5 2339.5 578.703 2339.5 650.5 2339.5 722.297 2281.3 780.5 2209.5 780.5 2137.7 780.5 2079.5 722.297 2079.5 650.5 2079.5 578.703 2137.7 520.5 2209.5 520.5Z" stroke="#E7E6E6" stroke-width="4.58333" stroke-miterlimit="8" fill="none" fill-rule="evenodd"/><path d="M2209.5 643C2213.09 643 2216 645.91 2216 649.5L2216 649.5C2216 653.09 2213.09 656 2209.5 656L2092.5 656C2088.91 656 2086 653.09 2086 649.5L2086 649.5C2086 645.91 2088.91 643 2092.5 643Z" fill="#E7E6E6" fill-rule="evenodd"/><path d="M2216 766.5C2216 770.09 2213.09 773 2209.5 773L2209.5 773C2205.91 773 2203 770.09 2203 766.5L2203 649.5C2203 645.91 2205.91 643 2209.5 643L2209.5 643C2213.09 643 2216 645.91 2216 649.5Z" fill="#E7E6E6" fill-rule="evenodd"/><path d="M2468.5 780.5C2396.7 780.5 2338.5 722.297 2338.5 650.5 2338.5 578.703 2396.7 520.5 2468.5 520.5 2540.3 520.5 2598.5 578.703 2598.5 650.5 2598.5 722.297 2540.3 780.5 2468.5 780.5Z" stroke="#E7E6E6" stroke-width="4.58333" stroke-miterlimit="8" fill="none" fill-rule="evenodd"/><path d="M2468.5 656C2464.91 656 2462 653.09 2462 649.5L2462 649.5C2462 645.91 2464.91 643 2468.5 643L2585.5 643C2589.09 643 2592 645.91 2592 649.5L2592 649.5C2592 653.09 2589.09 656 2585.5 656Z" fill="#E7E6E6" fill-rule="evenodd"/><path d="M2462 532.5C2462 528.91 2464.91 526 2468.5 526L2468.5 526C2472.09 526 2475 528.91 2475 532.5L2475 649.5C2475 653.09 2472.09 656 2468.5 656L2468.5 656C2464.91 656 2462 653.09 2462 649.5Z" fill="#E7E6E6" fill-rule="evenodd"/><path d="M2338.5 390.5C2338.5 318.703 2396.7 260.5 2468.5 260.5 2540.3 260.5 2598.5 318.703 2598.5 390.5 2598.5 462.297 2540.3 520.5 2468.5 520.5 2396.7 520.5 2338.5 462.297 2338.5 390.5Z" stroke="#E7E6E6" stroke-width="4.58333" stroke-miterlimit="8" fill="none" fill-rule="evenodd"/><path d="M2461 389.5C2461 385.91 2463.91 383 2467.5 383L2467.5 383C2471.09 383 2474 385.91 2474 389.5L2474 506.5C2474 510.09 2471.09 513 2467.5 513L2467.5 513C2463.91 513 2461 510.09 2461 506.5Z" fill="#E7E6E6" fill-rule="evenodd"/><path d="M2584.5 383C2588.09 383 2591 385.91 2591 389.5L2591 389.5C2591 393.09 2588.09 396 2584.5 396L2467.5 396C2463.91 396 2461 393.09 2461 389.5L2461 389.5C2461 385.91 2463.91 383 2467.5 383Z" fill="#E7E6E6" fill-rule="evenodd"/><path d="M2339.5 910C2339.5 838.479 2397.48 780.5 2469 780.5 2540.52 780.5 2598.5 838.479 2598.5 910 2598.5 981.521 2540.52 1039.5 2469 1039.5 2397.48 1039.5 2339.5 981.521 2339.5 910Z" stroke="#E7E6E6" stroke-width="4.58333" stroke-miterlimit="8" fill="none" fill-rule="evenodd"/><path d="M2585.5 903C2589.09 903 2592 905.91 2592 909.5L2592 909.5C2592 913.09 2589.09 916 2585.5 916L2468.5 916C2464.91 916 2462 913.09 2462 909.5L2462 909.5C2462 905.91 2464.91 903 2468.5 903Z" fill="#E7E6E6" fill-rule="evenodd"/><path d="M2858.5 910C2858.5 981.521 2800.3 1039.5 2728.5 1039.5 2656.7 1039.5 2598.5 981.521 2598.5 910 2598.5 838.479 2656.7 780.5 2728.5 780.5 2800.3 780.5 2858.5 838.479 2858.5 910Z" stroke="#E7E6E6" stroke-width="4.58333" stroke-miterlimit="8" fill="none" fill-rule="evenodd"/><path d="M2734 909.5C2734 913.09 2731.09 916 2727.5 916L2727.5 916C2723.91 916 2721 913.09 2721 909.5L2721 792.5C2721 788.91 2723.91 786 2727.5 786L2727.5 786C2731.09 786 2734 788.91 2734 792.5Z" fill="#E7E6E6" fill-rule="evenodd"/><path d="M2611.5 916C2607.91 916 2605 913.09 2605 909.5L2605 909.5C2605 905.91 2607.91 903 2611.5 903L2727.5 903C2731.09 903 2734 905.91 2734 909.5L2734 909.5C2734 913.09 2731.09 916 2727.5 916Z" fill="#E7E6E6" fill-rule="evenodd"/><path d="M2729.5 260.5C2801.3 260.5 2859.5 318.703 2859.5 390.5 2859.5 462.297 2801.3 520.5 2729.5 520.5 2657.7 520.5 2599.5 462.297 2599.5 390.5 2599.5 318.703 2657.7 260.5 2729.5 260.5Z" stroke="#E7E6E6" stroke-width="4.58333" stroke-miterlimit="8" fill="none" fill-rule="evenodd"/><path d="M2728.5 383C2732.09 383 2735 385.91 2735 389.5L2735 389.5C2735 393.09 2732.09 396 2728.5 396L2611.5 396C2607.91 396 2605 393.09 2605 389.5L2605 389.5C2605 385.91 2607.91 383 2611.5 383Z" fill="#E7E6E6" fill-rule="evenodd"/><path d="M2735 506.5C2735 510.09 2732.09 513 2728.5 513L2728.5 513C2724.91 513 2722 510.09 2722 506.5L2722 389.5C2722 385.91 2724.91 383 2728.5 383L2728.5 383C2732.09 383 2735 385.91 2735 389.5Z" fill="#E7E6E6" fill-rule="evenodd"/><path d="M2599.5 650.5C2599.5 578.703 2657.7 520.5 2729.5 520.5 2801.3 520.5 2859.5 578.703 2859.5 650.5 2859.5 722.297 2801.3 780.5 2729.5 780.5 2657.7 780.5 2599.5 722.297 2599.5 650.5Z" stroke="#E7E6E6" stroke-width="4.58333" stroke-miterlimit="8" fill="none" fill-rule="evenodd"/><path d="M2735 649.5C2735 653.09 2732.09 656 2728.5 656L2728.5 656C2724.91 656 2722 653.09 2722 649.5L2722 532.5C2722 528.91 2724.91 526 2728.5 526L2728.5 526C2732.09 526 2735 528.91 2735 532.5Z" fill="#E7E6E6" fill-rule="evenodd"/><path d="M2735 766.5C2735 770.09 2732.09 773 2728.5 773L2728.5 773C2724.91 773 2722 770.09 2722 766.5L2722 649.5C2722 645.91 2724.91 643 2728.5 643L2728.5 643C2732.09 643 2735 645.91 2735 649.5Z" fill="#E7E6E6" fill-rule="evenodd"/></g></svg>