<svg width="1624" height="611" xmlns="http://www.w3.org/2000/svg" xmlns:xlink="http://www.w3.org/1999/xlink" overflow="hidden"><defs><clipPath id="clip0"><rect x="650" y="1169" width="1624" height="611"/></clipPath></defs><g clip-path="url(#clip0)" transform="translate(-650 -1169)"><rect x="656" y="1228" width="26.0001" height="247" fill="#385724"/><rect x="708" y="1462" width="247" height="26.0001" fill="#806000"/><rect x="942" y="1189" width="26.0001" height="247" fill="#381850"/><rect x="655" y="1514" width="26.0001" height="246" fill="#6B004A"/><rect x="942" y="1514" width="26.0001" height="246" fill="#663300"/><rect x="708" y="1747" width="247" height="26.0001" fill="#663300"/><rect x="669" y="1176" width="247" height="26.0001" fill="#2E4E6B"/><path d="M935 1474.5C935 1463.73 943.73 1455 954.5 1455 965.269 1455 974 1463.73 974 1474.5 974 1485.27 965.269 1494 954.5 1494 943.73 1494 935 1485.27 935 1474.5Z" fill="#806000" fill-rule="evenodd"/><path d="M935 1760.5C935 1749.73 943.73 1741 954.5 1741 965.269 1741 974 1749.73 974 1760.5 974 1771.27 965.269 1780 954.5 1780 943.73 1780 935 1771.27 935 1760.5Z" fill="#663300" fill-rule="evenodd"/><path d="M689 1474.5C689 1485.27 680.269 1494 669.5 1494 658.73 1494 650 1485.27 650 1474.5 650 1463.73 658.73 1455 669.5 1455 680.269 1455 689 1463.73 689 1474.5Z" fill="#385724" fill-rule="evenodd"/><path d="M689 1188.5C689 1199.27 680.269 1208 669.5 1208 658.73 1208 650 1199.27 650 1188.5 650 1177.73 658.73 1169 669.5 1169 680.269 1169 689 1177.73 689 1188.5Z" fill="#2E4E6B" fill-rule="evenodd"/><path d="M650 1760.5C650 1749.73 658.73 1741 669.5 1741 680.269 1741 689 1749.73 689 1760.5 689 1771.27 680.269 1780 669.5 1780 658.73 1780 650 1771.27 650 1760.5Z" fill="#6B004A" fill-rule="evenodd"/><path d="M974 1188.5C974 1199.27 965.269 1208 954.5 1208 943.73 1208 935 1199.27 935 1188.5 935 1177.73 943.73 1169 954.5 1169 965.269 1169 974 1177.73 974 1188.5Z" fill="#381850" fill-rule="evenodd"/><rect x="1306" y="1189" width="26.0001" height="247" fill="#2E4E6B"/><rect x="1358" y="1462" width="247" height="26.0001" fill="#806000"/><rect x="1592" y="1228" width="26.0001" height="247" fill="#806000"/><rect x="1306" y="1514" width="26.0001" height="246" fill="#385724"/><rect x="1592" y="1475" width="26.0001" height="246" fill="#806000"/><rect x="1319" y="1747" width="247" height="26.0001" fill="#385724"/><rect x="1319" y="1176" width="247" height="26.0001" fill="#2E4E6B"/><path d="M1585 1474.5C1585 1463.73 1593.73 1455 1604.5 1455 1615.27 1455 1624 1463.73 1624 1474.5 1624 1485.27 1615.27 1494 1604.5 1494 1593.73 1494 1585 1485.27 1585 1474.5Z" fill="#806000" fill-rule="evenodd"/><path d="M1338 1188.5C1338 1199.27 1329.27 1208 1318.5 1208 1307.73 1208 1299 1199.27 1299 1188.5 1299 1177.73 1307.73 1169 1318.5 1169 1329.27 1169 1338 1177.73 1338 1188.5Z" fill="#2E4E6B" fill-rule="evenodd"/><path d="M1299 1760.5C1299 1749.73 1307.73 1741 1318.5 1741 1329.27 1741 1338 1749.73 1338 1760.5 1338 1771.27 1329.27 1780 1318.5 1780 1307.73 1780 1299 1771.27 1299 1760.5Z" fill="#385724" fill-rule="evenodd"/><rect x="1956" y="1189" width="26.0001" height="247" fill="#5B9BD5"/><rect x="2007" y="1462" width="247" height="26.0001" fill="#7030A0"/><rect x="2242" y="1228" width="26.0002" height="247" fill="#7030A0"/><rect x="1956" y="1475" width="26.0001" height="246" fill="#FFC000"/><rect x="2241" y="1514" width="26.0002" height="246" fill="#70AD47"/><rect x="2007" y="1747" width="247" height="26.0001" fill="#70AD47"/><rect x="1968" y="1176" width="247" height="26.0001" fill="#5B9BD5"/><path d="M2235 1474.5C2235 1463.73 2243.73 1455 2254.5 1455 2265.27 1455 2274 1463.73 2274 1474.5 2274 1485.27 2265.27 1494 2254.5 1494 2243.73 1494 2235 1485.27 2235 1474.5Z" fill="#7030A0" fill-rule="evenodd"/><path d="M1988 1188.5C1988 1199.27 1979.27 1208 1968.5 1208 1957.73 1208 1949 1199.27 1949 1188.5 1949 1177.73 1957.73 1169 1968.5 1169 1979.27 1169 1988 1177.73 1988 1188.5Z" fill="#5B9BD5" fill-rule="evenodd"/><path d="M2235 1760.5C2235 1749.73 2243.73 1741 2254.5 1741 2265.27 1741 2274 1749.73 2274 1760.5 2274 1771.27 2265.27 1780 2254.5 1780 2243.73 1780 2235 1771.27 2235 1760.5Z" fill="#70AD47" fill-rule="evenodd"/><path d="M1949 1474.5C1949 1463.73 1957.73 1455 1968.5 1455 1979.27 1455 1988 1463.73 1988 1474.5 1988 1485.27 1979.27 1494 1968.5 1494 1957.73 1494 1949 1485.27 1949 1474.5Z" fill="#FFC000" fill-rule="evenodd"/><path d="M2244 1475.5C2244 1470.25 2248.48 1466 2254 1466 2259.52 1466 2264 1470.25 2264 1475.5 2264 1480.75 2259.52 1485 2254 1485 2248.48 1485 2244 1480.75 2244 1475.5Z" fill-rule="evenodd"/><path d="M2244 1760.5C2244 1755.25 2248.48 1751 2254 1751 2259.52 1751 2264 1755.25 2264 1760.5 2264 1765.75 2259.52 1770 2254 1770 2248.48 1770 2244 1765.75 2244 1760.5Z" fill-rule="evenodd"/><path d="M1959 1474.5C1959 1469.25 1963.25 1465 1968.5 1465 1973.75 1465 1978 1469.25 1978 1474.5 1978 1479.75 1973.75 1484 1968.5 1484 1963.25 1484 1959 1479.75 1959 1474.5Z" fill-rule="evenodd"/><path d="M1959 1189C1959 1183.48 1963.25 1179 1968.5 1179 1973.75 1179 1978 1183.48 1978 1189 1978 1194.52 1973.75 1199 1968.5 1199 1963.25 1199 1959 1194.52 1959 1189Z" fill-rule="evenodd"/><path d="M1310 1189.5C1310 1184.25 1314.25 1180 1319.5 1180 1324.75 1180 1329 1184.25 1329 1189.5 1329 1194.75 1324.75 1199 1319.5 1199 1314.25 1199 1310 1194.75 1310 1189.5Z" fill-rule="evenodd"/><path d="M1595 1475.5C1595 1470.25 1599.48 1466 1605 1466 1610.52 1466 1615 1470.25 1615 1475.5 1615 1480.75 1610.52 1485 1605 1485 1599.48 1485 1595 1480.75 1595 1475.5Z" fill-rule="evenodd"/><path d="M1310 1761C1310 1755.48 1314.25 1751 1319.5 1751 1324.75 1751 1329 1755.48 1329 1761 1329 1766.52 1324.75 1771 1319.5 1771 1314.25 1771 1310 1766.52 1310 1761Z" fill-rule="evenodd"/><path d="M946 1475.5C946 1470.25 950.253 1466 955.5 1466 960.747 1466 965 1470.25 965 1475.5 965 1480.75 960.747 1485 955.5 1485 950.253 1485 946 1480.75 946 1475.5Z" fill-rule="evenodd"/><path d="M946 1761C946 1755.48 950.253 1751 955.5 1751 960.747 1751 965 1755.48 965 1761 965 1766.52 960.747 1771 955.5 1771 950.253 1771 946 1766.52 946 1761Z" fill-rule="evenodd"/><path d="M946 1189.5C946 1184.25 950.253 1180 955.5 1180 960.747 1180 965 1184.25 965 1189.5 965 1194.75 960.747 1199 955.5 1199 950.253 1199 946 1194.75 946 1189.5Z" fill-rule="evenodd"/><path d="M660 1189.5C660 1184.25 664.253 1180 669.5 1180 674.747 1180 679 1184.25 679 1189.5 679 1194.75 674.747 1199 669.5 1199 664.253 1199 660 1194.75 660 1189.5Z" fill-rule="evenodd"/><path d="M660 1475.5C660 1470.25 664.253 1466 669.5 1466 674.747 1466 679 1470.25 679 1475.5 679 1480.75 674.747 1485 669.5 1485 664.253 1485 660 1480.75 660 1475.5Z" fill-rule="evenodd"/><path d="M660 1761C660 1755.48 664.253 1751 669.5 1751 674.747 1751 679 1755.48 679 1761 679 1766.52 674.747 1771 669.5 1771 664.253 1771 660 1766.52 660 1761Z" fill-rule="evenodd"/></g></svg>