<svg width="1624" height="611" xmlns="http://www.w3.org/2000/svg" xmlns:xlink="http://www.w3.org/1999/xlink" overflow="hidden"><defs><clipPath id="clip0"><rect x="650" y="1169" width="1624" height="611"/></clipPath></defs><g clip-path="url(#clip0)" transform="translate(-650 -1169)"><rect x="656" y="1215" width="26.0001" height="260" fill="#70AD47"/><rect x="695" y="1462" width="260" height="26.0001" fill="#FFC000"/><rect x="942" y="1189" width="26.0001" height="260" fill="#7030A0"/><rect x="655" y="1501" width="26.0001" height="259" fill="#D60093"/><rect x="942" y="1501" width="26.0001" height="259" fill="#CC6600"/><rect x="695" y="1747" width="260" height="26.0001" fill="#CC6600"/><rect x="669" y="1176" width="260" height="26.0001" fill="#5B9BD5"/><path d="M935 1474.5C935 1463.73 943.73 1455 954.5 1455 965.269 1455 974 1463.73 974 1474.5 974 1485.27 965.269 1494 954.5 1494 943.73 1494 935 1485.27 935 1474.5Z" fill="#FFC000" fill-rule="evenodd"/><path d="M935 1760.5C935 1749.73 943.73 1741 954.5 1741 965.269 1741 974 1749.73 974 1760.5 974 1771.27 965.269 1780 954.5 1780 943.73 1780 935 1771.27 935 1760.5Z" fill="#CC6600" fill-rule="evenodd"/><path d="M689 1474.5C689 1485.27 680.269 1494 669.5 1494 658.73 1494 650 1485.27 650 1474.5 650 1463.73 658.73 1455 669.5 1455 680.269 1455 689 1463.73 689 1474.5Z" fill="#70AD47" fill-rule="evenodd"/><path d="M689 1188.5C689 1199.27 680.269 1208 669.5 1208 658.73 1208 650 1199.27 650 1188.5 650 1177.73 658.73 1169 669.5 1169 680.269 1169 689 1177.73 689 1188.5Z" fill="#5B9BD5" fill-rule="evenodd"/><path d="M650 1760.5C650 1749.73 658.73 1741 669.5 1741 680.269 1741 689 1749.73 689 1760.5 689 1771.27 680.269 1780 669.5 1780 658.73 1780 650 1771.27 650 1760.5Z" fill="#D60093" fill-rule="evenodd"/><path d="M974 1188.5C974 1199.27 965.269 1208 954.5 1208 943.73 1208 935 1199.27 935 1188.5 935 1177.73 943.73 1169 954.5 1169 965.269 1169 974 1177.73 974 1188.5Z" fill="#7030A0" fill-rule="evenodd"/><rect x="1306" y="1189" width="26.0001" height="260" fill="#5B9BD5"/><rect x="1345" y="1462" width="260" height="26.0001" fill="#FFC000"/><rect x="1592" y="1215" width="26.0001" height="260" fill="#FFC000"/><rect x="1306" y="1501" width="26.0001" height="259" fill="#70AD47"/><rect x="1592" y="1475" width="26.0001" height="259" fill="#FFC000"/><rect x="1319" y="1747" width="260" height="26.0001" fill="#70AD47"/><rect x="1319" y="1176" width="260" height="26.0001" fill="#5B9BD5"/><path d="M1585 1474.5C1585 1463.73 1593.73 1455 1604.5 1455 1615.27 1455 1624 1463.73 1624 1474.5 1624 1485.27 1615.27 1494 1604.5 1494 1593.73 1494 1585 1485.27 1585 1474.5Z" fill="#FFC000" fill-rule="evenodd"/><path d="M1338 1188.5C1338 1199.27 1329.27 1208 1318.5 1208 1307.73 1208 1299 1199.27 1299 1188.5 1299 1177.73 1307.73 1169 1318.5 1169 1329.27 1169 1338 1177.73 1338 1188.5Z" fill="#5B9BD5" fill-rule="evenodd"/><path d="M1299 1760.5C1299 1749.73 1307.73 1741 1318.5 1741 1329.27 1741 1338 1749.73 1338 1760.5 1338 1771.27 1329.27 1780 1318.5 1780 1307.73 1780 1299 1771.27 1299 1760.5Z" fill="#70AD47" fill-rule="evenodd"/><rect x="1956" y="1189" width="26.0001" height="260" fill="#5B9BD5"/><rect x="1994" y="1462" width="260" height="26.0001" fill="#7030A0"/><rect x="2242" y="1215" width="26.0002" height="260" fill="#7030A0"/><rect x="1956" y="1475" width="26.0001" height="259" fill="#FFC000"/><rect x="2241" y="1501" width="26.0002" height="259" fill="#70AD47"/><rect x="1994" y="1747" width="260" height="26.0001" fill="#70AD47"/><rect x="1968" y="1176" width="260" height="26.0001" fill="#5B9BD5"/><path d="M2235 1474.5C2235 1463.73 2243.73 1455 2254.5 1455 2265.27 1455 2274 1463.73 2274 1474.5 2274 1485.27 2265.27 1494 2254.5 1494 2243.73 1494 2235 1485.27 2235 1474.5Z" fill="#7030A0" fill-rule="evenodd"/><path d="M1988 1188.5C1988 1199.27 1979.27 1208 1968.5 1208 1957.73 1208 1949 1199.27 1949 1188.5 1949 1177.73 1957.73 1169 1968.5 1169 1979.27 1169 1988 1177.73 1988 1188.5Z" fill="#5B9BD5" fill-rule="evenodd"/><path d="M2235 1760.5C2235 1749.73 2243.73 1741 2254.5 1741 2265.27 1741 2274 1749.73 2274 1760.5 2274 1771.27 2265.27 1780 2254.5 1780 2243.73 1780 2235 1771.27 2235 1760.5Z" fill="#70AD47" fill-rule="evenodd"/><path d="M1949 1474.5C1949 1463.73 1957.73 1455 1968.5 1455 1979.27 1455 1988 1463.73 1988 1474.5 1988 1485.27 1979.27 1494 1968.5 1494 1957.73 1494 1949 1485.27 1949 1474.5Z" fill="#FFC000" fill-rule="evenodd"/></g></svg>