<svg width="1845" height="546" xmlns="http://www.w3.org/2000/svg" xmlns:xlink="http://www.w3.org/1999/xlink" overflow="hidden"><defs><clipPath id="clip0"><rect x="896" y="1429" width="1845" height="546"/></clipPath></defs><g clip-path="url(#clip0)" transform="translate(-896 -1429)"><path d="M1130 1429C1137.18 1429 1143 1434.82 1143 1442L1143 1442C1143 1449.18 1137.18 1455 1130 1455L909 1455C901.82 1455 896 1449.18 896 1442L896 1442C896 1434.82 901.82 1429 909 1429Z" fill="#E7E6E6" fill-rule="evenodd"/><path d="M897 1702C897 1694.82 902.82 1689 910 1689L910 1689C917.179 1689 923 1694.82 923 1702L923 1923C923 1930.18 917.179 1936 910 1936L910 1936C902.82 1936 897 1930.18 897 1923Z" fill="#E7E6E6" fill-rule="evenodd"/><path d="M1156 1481C1156 1473.82 1161.82 1468 1169 1468L1169 1468C1176.18 1468 1182 1473.82 1182 1481L1182 1702C1182 1709.18 1176.18 1715 1169 1715L1169 1715C1161.82 1715 1156 1709.18 1156 1702Z" fill="#E7E6E6" fill-rule="evenodd"/><path d="M1169 1689C1176.18 1689 1182 1694.82 1182 1702L1182 1702C1182 1709.18 1176.18 1715 1169 1715L948 1715C940.82 1715 935 1709.18 935 1702L935 1702C935 1694.82 940.82 1689 948 1689Z" fill="#E7E6E6" fill-rule="evenodd"/><path d="M1169 1949C1176.18 1949 1182 1954.82 1182 1962L1182 1962C1182 1969.18 1176.18 1975 1169 1975L948 1975C940.82 1975 935 1969.18 935 1962L935 1962C935 1954.82 940.82 1949 948 1949Z" fill="#E7E6E6" fill-rule="evenodd"/><path d="M1650 1429C1657.18 1429 1663 1434.82 1663 1442L1663 1442C1663 1449.18 1657.18 1455 1650 1455L1429 1455C1421.82 1455 1416 1449.18 1416 1442L1416 1442C1416 1434.82 1421.82 1429 1429 1429Z" fill="#E7E6E6" fill-rule="evenodd"/><path d="M1676 1481C1676 1473.82 1681.82 1468 1689 1468L1689 1468C1696.18 1468 1702 1473.82 1702 1481L1702 1702C1702 1709.18 1696.18 1715 1689 1715L1689 1715C1681.82 1715 1676 1709.18 1676 1702Z" fill="#E7E6E6" fill-rule="evenodd"/><path d="M1689 1689C1696.18 1689 1702 1694.82 1702 1702L1702 1702C1702 1709.18 1696.18 1715 1689 1715L1468 1715C1460.82 1715 1455 1709.18 1455 1702L1455 1702C1455 1694.82 1460.82 1689 1468 1689Z" fill="#E7E6E6" fill-rule="evenodd"/><path d="M1689 1949C1696.18 1949 1702 1954.82 1702 1962L1702 1962C1702 1969.18 1696.18 1975 1689 1975L1468 1975C1460.82 1975 1455 1969.18 1455 1962L1455 1962C1455 1954.82 1460.82 1949 1468 1949Z" fill="#E7E6E6" fill-rule="evenodd"/><path d="M1676 1741C1676 1733.82 1681.82 1728 1689 1728L1689 1728C1696.18 1728 1702 1733.82 1702 1741L1702 1962C1702 1969.18 1696.18 1975 1689 1975L1689 1975C1681.82 1975 1676 1969.18 1676 1962Z" fill="#E7E6E6" fill-rule="evenodd"/><path d="M2170 1429C2177.18 1429 2183 1434.82 2183 1442L2183 1442C2183 1449.18 2177.18 1455 2170 1455L1949 1455C1941.82 1455 1936 1449.18 1936 1442L1936 1442C1936 1434.82 1941.82 1429 1949 1429Z" fill="#E7E6E6" fill-rule="evenodd"/><path d="M2196 1702C2196 1694.82 2201.82 1689 2209 1689L2209 1689C2216.18 1689 2222 1694.82 2222 1702L2222 1923C2222 1930.18 2216.18 1936 2209 1936L2209 1936C2201.82 1936 2196 1930.18 2196 1923Z" fill="#E7E6E6" fill-rule="evenodd"/><path d="M2208 1689C2215.18 1689 2221 1694.82 2221 1702L2221 1702C2221 1709.18 2215.18 1715 2208 1715L1987 1715C1979.82 1715 1974 1709.18 1974 1702L1974 1702C1974 1694.82 1979.82 1689 1987 1689Z" fill="#E7E6E6" fill-rule="evenodd"/><path d="M2209 1949C2216.18 1949 2222 1954.82 2222 1962L2222 1962C2222 1969.18 2216.18 1975 2209 1975L1988 1975C1980.82 1975 1975 1969.18 1975 1962L1975 1962C1975 1954.82 1980.82 1949 1988 1949Z" fill="#E7E6E6" fill-rule="evenodd"/><path d="M2456 1441.51C2456 1434.6 2461.6 1429 2468.51 1429L2468.51 1429C2475.41 1429 2481.01 1434.6 2481.01 1441.51L2481.01 1663.49C2481.01 1670.4 2475.41 1676 2468.51 1676L2468.51 1676C2461.6 1676 2456 1670.4 2456 1663.49Z" fill="#E7E6E6" fill-rule="evenodd"/><path d="M2689 1429C2696.18 1429 2702 1434.82 2702 1442L2702 1442C2702 1449.18 2696.18 1455 2689 1455L2469 1455C2461.82 1455 2456 1449.18 2456 1442L2456 1442C2456 1434.82 2461.82 1429 2469 1429Z" fill="#E7E6E6" fill-rule="evenodd"/><path d="M2715 1481C2715 1473.82 2720.82 1468 2728 1468L2728 1468C2735.18 1468 2741 1473.82 2741 1481L2741 1702C2741 1709.18 2735.18 1715 2728 1715L2728 1715C2720.82 1715 2715 1709.18 2715 1702Z" fill="#E7E6E6" fill-rule="evenodd"/><path d="M2728 1689C2735.18 1689 2741 1694.82 2741 1702L2741 1702C2741 1709.18 2735.18 1715 2728 1715L2507 1715C2499.82 1715 2494 1709.18 2494 1702L2494 1702C2494 1694.82 2499.82 1689 2507 1689Z" fill="#E7E6E6" fill-rule="evenodd"/><path d="M2728 1949C2735.18 1949 2741 1954.82 2741 1962L2741 1962C2741 1969.18 2735.18 1975 2728 1975L2507 1975C2499.82 1975 2494 1969.18 2494 1962L2494 1962C2494 1954.82 2499.82 1949 2507 1949Z" fill="#E7E6E6" fill-rule="evenodd"/><path d="M2715 1741C2715 1733.82 2720.82 1728 2728 1728L2728 1728C2735.18 1728 2741 1733.82 2741 1741L2741 1962C2741 1969.18 2735.18 1975 2728 1975L2728 1975C2720.82 1975 2715 1969.18 2715 1962Z" fill="#E7E6E6" fill-rule="evenodd"/><path d="M1935 1481C1935 1473.82 1940.82 1468 1948 1468L1948 1468C1955.18 1468 1961 1473.82 1961 1481L1961 1702C1961 1709.18 1955.18 1715 1948 1715L1948 1715C1940.82 1715 1935 1709.18 1935 1702Z" fill="#E7E6E6" fill-rule="evenodd"/></g></svg>