<svg width="3682" height="510" xmlns="http://www.w3.org/2000/svg" xmlns:xlink="http://www.w3.org/1999/xlink" overflow="hidden"><defs><clipPath id="clip0"><rect x="206" y="1234" width="3682" height="510"/></clipPath></defs><g clip-path="url(#clip0)" transform="translate(-206 -1234)"><path d="M577 1234 924 1234 924 1697 577 1697ZM684.848 1341.85 684.848 1589.15 816.152 1589.15 816.152 1341.85Z" fill="#181717" fill-rule="evenodd"/><path d="M2429 1234 2776 1234 2776 1697 2429 1697ZM2536.85 1341.85 2536.85 1589.15 2668.15 1589.15 2668.15 1341.85Z" fill="#181717" fill-rule="evenodd"/><path d="M2058 1234 2405 1234 2405 1696 2058 1696ZM2165.85 1341.85 2165.85 1588.15 2297.15 1588.15 2297.15 1341.85Z" fill="#181717" fill-rule="evenodd"/><path d="M2799 1235 3146 1235 3146 1697 2799 1697ZM2906.85 1342.85 2906.85 1589.15 3038.15 1589.15 3038.15 1342.85Z" fill="#181717" fill-rule="evenodd"/><path d="M3170 1234 3517 1234 3517 1697 3170 1697ZM3277.85 1341.85 3277.85 1589.15 3409.15 1589.15 3409.15 1341.85Z" fill="#181717" fill-rule="evenodd"/><path d="M3540 1234 3887 1234 3887 1697 3540 1697ZM3647.85 1341.85 3647.85 1589.15 3779.15 1589.15 3779.15 1341.85Z" fill="#181717" fill-rule="evenodd"/><path d="M1318 1234 1664 1234 1664 1696 1318 1696ZM1425.54 1341.54 1425.54 1588.46 1556.46 1588.46 1556.46 1341.54Z" fill="#181717" fill-rule="evenodd"/><path d="M1689 1235 2035 1235 2035 1697 1689 1697ZM1796.54 1342.54 1796.54 1589.46 1927.46 1589.46 1927.46 1342.54Z" fill="#181717" fill-rule="evenodd"/><path d="M947 1234 1294 1234 1294 1697 947 1697ZM1054.85 1341.85 1054.85 1589.15 1186.15 1589.15 1186.15 1341.85Z" fill="#181717" fill-rule="evenodd"/><path d="M207 1235 553 1235 553 1698 207 1698ZM314.537 1342.54 314.537 1590.46 445.463 1590.46 445.463 1342.54Z" fill="#181717" fill-rule="evenodd"/><path d="M328 1449C328 1452.31 325.314 1455 322 1455L322 1455C318.686 1455 316 1452.31 316 1449L316 1351C316 1347.69 318.686 1345 322 1345L322 1345C325.314 1345 328 1347.69 328 1351Z" fill="#5B9BD5" fill-rule="evenodd"/><path d="M322.5 1356C319.462 1356 317 1353.54 317 1350.5L317 1350.5C317 1347.46 319.462 1345 322.5 1345L421.5 1345C424.538 1345 427 1347.46 427 1350.5L427 1350.5C427 1353.54 424.537 1356 421.5 1356Z" fill="#5B9BD5" fill-rule="evenodd"/><path d="M316 1351C316 1347.69 318.686 1345 322 1345 325.314 1345 328 1347.69 328 1351 328 1354.31 325.314 1357 322 1357 318.686 1357 316 1354.31 316 1351Z" fill="#C00000" fill-rule="evenodd"/><path d="M433 1482.5C433 1479.46 435.463 1477 438.5 1477L438.5 1477C441.538 1477 444 1479.46 444 1482.5L444 1582.5C444 1585.54 441.538 1588 438.5 1588L438.5 1588C435.463 1588 433 1585.54 433 1582.5Z" fill="#70AD47" fill-rule="evenodd"/><path d="M438.5 1577C441.538 1577 444 1579.46 444 1582.5L444 1582.5C444 1585.54 441.538 1588 438.5 1588L339.5 1588C336.462 1588 334 1585.54 334 1582.5L334 1582.5C334 1579.46 336.463 1577 339.5 1577Z" fill="#70AD47" fill-rule="evenodd"/><path d="M433 1582C433 1578.69 435.463 1576 438.5 1576 441.538 1576 444 1578.69 444 1582 444 1585.31 441.538 1588 438.5 1588 435.463 1588 433 1585.31 433 1582Z" fill="#C00000" fill-rule="evenodd"/><path d="M537 1461C540.314 1461 543 1463.69 543 1467L543 1467C543 1470.31 540.314 1473 537 1473L439 1473C435.686 1473 433 1470.31 433 1467L433 1467C433 1463.69 435.686 1461 439 1461Z" fill="#0E0614" fill-rule="evenodd"/><path d="M444 1466C444 1469.31 441.314 1472 438 1472L438 1472C434.686 1472 432 1469.31 432 1466L432 1368C432 1364.69 434.686 1362 438 1362L438 1362C441.314 1362 444 1364.69 444 1368Z" fill="#7030A0" fill-rule="evenodd"/><path d="M438.5 1461C441.538 1461 444 1463.69 444 1467 444 1470.31 441.538 1473 438.5 1473 435.463 1473 433 1470.31 433 1467 433 1463.69 435.463 1461 438.5 1461Z" fill="#C00000" fill-rule="evenodd"/><path d="M328 1566C328 1569.31 325.314 1572 322 1572L322 1572C318.686 1572 316 1569.31 316 1566L316 1468C316 1464.69 318.686 1462 322 1462L322 1462C325.314 1462 328 1464.69 328 1468Z" fill="#FFC000" fill-rule="evenodd"/><path d="M317 1466.5C317 1463.46 319.462 1461 322.5 1461 325.538 1461 328 1463.46 328 1466.5 328 1469.54 325.538 1472 322.5 1472 319.462 1472 317 1469.54 317 1466.5Z" fill="#C00000" fill-rule="evenodd"/><text fill="#E7E6E6" font-family="Bahnschrift Light,Bahnschrift Light_MSFontService,sans-serif" font-weight="300" font-size="23" transform="matrix(1 0 0 1 242.305 1724)">C1P0<tspan font-size="23" x="48.6979" y="0">-</tspan><tspan font-size="23" x="59.5833" y="0">C2P180</tspan><tspan font-size="23" x="133.49" y="0">-</tspan><tspan font-size="23" x="144.375" y="0">C3P0</tspan><tspan font-size="23" x="197.656" y="0">-</tspan><tspan font-size="23" x="208.542" y="0">C4P90</tspan></text><path d="M686 1252C686 1248.69 688.686 1246 692 1246L692 1246C695.314 1246 698 1248.69 698 1252L698 1350C698 1353.31 695.314 1356 692 1356L692 1356C688.686 1356 686 1353.31 686 1350Z" fill="#0C141B" fill-rule="evenodd"/><path d="M691 1345C694.314 1345 697 1347.69 697 1351L697 1351C697 1354.31 694.314 1357 691 1357L593 1357C589.686 1357 587 1354.31 587 1351L587 1351C587 1347.69 589.686 1345 593 1345Z" fill="#0C141B" fill-rule="evenodd"/><path d="M698 1350.5C698 1353.54 695.314 1356 692 1356 688.686 1356 686 1353.54 686 1350.5 686 1347.46 688.686 1345 692 1345 695.314 1345 698 1347.46 698 1350.5Z" fill="#C00000" fill-rule="evenodd"/><path d="M907 1577C910.313 1577 913 1579.69 913 1583L913 1583C913 1586.31 910.313 1589 907 1589L809 1589C805.686 1589 803 1586.31 803 1583L803 1583C803 1579.69 805.686 1577 809 1577Z" fill="#1C2B12" fill-rule="evenodd"/><path d="M814 1582.5C814 1585.54 811.538 1588 808.5 1588L808.5 1588C805.462 1588 803 1585.54 803 1582.5L803 1483.5C803 1480.46 805.462 1478 808.5 1478L808.5 1478C811.538 1478 814 1480.46 814 1483.5Z" fill="#70AD47" fill-rule="evenodd"/><path d="M809 1577C812.314 1577 815 1579.46 815 1582.5 815 1585.54 812.314 1588 809 1588 805.686 1588 803 1585.54 803 1582.5 803 1579.46 805.686 1577 809 1577Z" fill="#C00000" fill-rule="evenodd"/><path d="M909 1461C912.314 1461 915 1463.69 915 1467L915 1467C915 1470.31 912.314 1473 909 1473L810 1473C806.686 1473 804 1470.31 804 1467L804 1467C804 1463.69 806.686 1461 810 1461Z" fill="#0E0614" fill-rule="evenodd"/><path d="M814 1466.5C814 1469.54 811.538 1472 808.5 1472L808.5 1472C805.462 1472 803 1469.54 803 1466.5L803 1367.5C803 1364.46 805.462 1362 808.5 1362L808.5 1362C811.538 1362 814 1364.46 814 1367.5Z" fill="#7030A0" fill-rule="evenodd"/><path d="M809 1461C812.314 1461 815 1463.69 815 1467 815 1470.31 812.314 1473 809 1473 805.686 1473 803 1470.31 803 1467 803 1463.69 805.686 1461 809 1461Z" fill="#C00000" fill-rule="evenodd"/><path d="M592.5 1472C589.462 1472 587 1469.54 587 1466.5L587 1466.5C587 1463.46 589.462 1461 592.5 1461L692.5 1461C695.538 1461 698 1463.46 698 1466.5L698 1466.5C698 1469.54 695.538 1472 692.5 1472Z" fill="#201800" fill-rule="evenodd"/><path d="M692.5 1461C695.538 1461 698 1463.46 698 1466.5 698 1469.54 695.538 1472 692.5 1472 689.463 1472 687 1469.54 687 1466.5 687 1463.46 689.463 1461 692.5 1461Z" fill="#C00000" fill-rule="evenodd"/><text fill="#E7E6E6" font-family="Bahnschrift Light,Bahnschrift Light_MSFontService,sans-serif" font-weight="300" font-size="23" transform="matrix(1 0 0 1 612.795 1724)">C1P180<tspan font-size="23" x="69.3229" y="0">-</tspan><tspan font-size="23" x="80.2084" y="0">C2P90</tspan><tspan font-size="23" x="145.521" y="0">-</tspan><tspan font-size="23" x="156.406" y="0">C3P0</tspan><tspan font-size="23" x="209.688" y="0">-</tspan><tspan font-size="23" x="220.573" y="0">C4P0</tspan></text><path d="M1162 1344C1165.31 1344 1168 1346.69 1168 1350L1168 1350C1168 1353.31 1165.31 1356 1162 1356L1064 1356C1060.69 1356 1058 1353.31 1058 1350L1058 1350C1058 1346.69 1060.69 1344 1064 1344Z" fill="#5B9BD5" fill-rule="evenodd"/><path d="M1068 1350.5C1068 1353.54 1065.54 1356 1062.5 1356L1062.5 1356C1059.46 1356 1057 1353.54 1057 1350.5L1057 1250.5C1057 1247.46 1059.46 1245 1062.5 1245L1062.5 1245C1065.54 1245 1068 1247.46 1068 1250.5Z" fill="#0C141B" fill-rule="evenodd"/><path d="M1063 1356C1059.69 1356 1057 1353.31 1057 1350 1057 1346.69 1059.69 1344 1063 1344 1066.31 1344 1069 1346.69 1069 1350 1069 1353.31 1066.31 1356 1063 1356Z" fill="#C00000" fill-rule="evenodd"/><path d="M1079.5 1587C1076.46 1587 1074 1584.54 1074 1581.5L1074 1581.5C1074 1578.46 1076.46 1576 1079.5 1576L1179.5 1576C1182.54 1576 1185 1578.46 1185 1581.5L1185 1581.5C1185 1584.54 1182.54 1587 1179.5 1587Z" fill="#70AD47" fill-rule="evenodd"/><path d="M1174 1582C1174 1578.69 1176.69 1576 1180 1576L1180 1576C1183.31 1576 1186 1578.69 1186 1582L1186 1680C1186 1683.31 1183.31 1686 1180 1686L1180 1686C1176.69 1686 1174 1683.31 1174 1680Z" fill="#1C2B12" fill-rule="evenodd"/><path d="M1179.5 1588C1176.46 1588 1174 1585.31 1174 1582 1174 1578.69 1176.46 1576 1179.5 1576 1182.54 1576 1185 1578.69 1185 1582 1185 1585.31 1182.54 1588 1179.5 1588Z" fill="#C00000" fill-rule="evenodd"/><path d="M1173 1368C1173 1364.69 1175.69 1362 1179 1362L1179 1362C1182.31 1362 1185 1364.69 1185 1368L1185 1466C1185 1469.31 1182.31 1472 1179 1472L1179 1472C1175.69 1472 1173 1469.31 1173 1466Z" fill="#7030A0" fill-rule="evenodd"/><path d="M1179.5 1461C1182.54 1461 1185 1463.46 1185 1466.5L1185 1466.5C1185 1469.54 1182.54 1472 1179.5 1472L1079.5 1472C1076.46 1472 1074 1469.54 1074 1466.5L1074 1466.5C1074 1463.46 1076.46 1461 1079.5 1461Z" fill="#7030A0" fill-rule="evenodd"/><path d="M1173 1466C1173 1462.69 1175.69 1460 1179 1460 1182.31 1460 1185 1462.69 1185 1466 1185 1469.31 1182.31 1472 1179 1472 1175.69 1472 1173 1469.31 1173 1466Z" fill="#C00000" fill-rule="evenodd"/><path d="M1068 1565C1068 1568.31 1065.31 1571 1062 1571L1062 1571C1058.69 1571 1056 1568.31 1056 1565L1056 1466C1056 1462.69 1058.69 1460 1062 1460L1062 1460C1065.31 1460 1068 1462.69 1068 1466Z" fill="#FFC000" fill-rule="evenodd"/><path d="M1057 1466C1057 1462.69 1059.69 1460 1063 1460 1066.31 1460 1069 1462.69 1069 1466 1069 1469.31 1066.31 1472 1063 1472 1059.69 1472 1057 1469.31 1057 1466Z" fill="#C00000" fill-rule="evenodd"/><text fill="#E7E6E6" font-family="Bahnschrift Light,Bahnschrift Light_MSFontService,sans-serif" font-weight="300" font-size="23" transform="matrix(1 0 0 1 966.853 1724)">C1P90<tspan font-size="23" x="60.7291" y="0">-</tspan><tspan font-size="23" x="71.6146" y="0">C2P180</tspan><tspan font-size="23" x="145.521" y="0">-</tspan><tspan font-size="23" x="156.406" y="0">C3P90</tspan><tspan font-size="23" x="221.719" y="0">-</tspan><tspan font-size="23" x="232.604" y="0">C4P180</tspan></text><path d="M1532 1344C1535.31 1344 1538 1346.69 1538 1350L1538 1350C1538 1353.31 1535.31 1356 1532 1356L1434 1356C1430.69 1356 1428 1353.31 1428 1350L1428 1350C1428 1346.69 1430.69 1344 1434 1344Z" fill="#5B9BD5" fill-rule="evenodd"/><path d="M1439 1350C1439 1353.31 1436.31 1356 1433 1356L1433 1356C1429.69 1356 1427 1353.31 1427 1350L1427 1251C1427 1247.69 1429.69 1245 1433 1245L1433 1245C1436.31 1245 1439 1247.69 1439 1251Z" fill="#0C141B" fill-rule="evenodd"/><path d="M1433.5 1356C1430.46 1356 1428 1353.31 1428 1350 1428 1346.69 1430.46 1344 1433.5 1344 1436.54 1344 1439 1346.69 1439 1350 1439 1353.31 1436.54 1356 1433.5 1356Z" fill="#C00000" fill-rule="evenodd"/><path d="M1544 1482.5C1544 1479.46 1546.46 1477 1549.5 1477L1549.5 1477C1552.54 1477 1555 1479.46 1555 1482.5L1555 1582.5C1555 1585.54 1552.54 1588 1549.5 1588L1549.5 1588C1546.46 1588 1544 1585.54 1544 1582.5Z" fill="#70AD47" fill-rule="evenodd"/><path d="M1549 1576C1552.31 1576 1555 1578.69 1555 1582L1555 1582C1555 1585.31 1552.31 1588 1549 1588L1451 1588C1447.69 1588 1445 1585.31 1445 1582L1445 1582C1445 1578.69 1447.69 1576 1451 1576Z" fill="#70AD47" fill-rule="evenodd"/><path d="M1543 1581.5C1543 1578.46 1545.69 1576 1549 1576 1552.31 1576 1555 1578.46 1555 1581.5 1555 1584.54 1552.31 1587 1549 1587 1545.69 1587 1543 1584.54 1543 1581.5Z" fill="#C00000" fill-rule="evenodd"/><path d="M1544 1367.5C1544 1364.46 1546.46 1362 1549.5 1362L1549.5 1362C1552.54 1362 1555 1364.46 1555 1367.5L1555 1466.5C1555 1469.54 1552.54 1472 1549.5 1472L1549.5 1472C1546.46 1472 1544 1469.54 1544 1466.5Z" fill="#7030A0" fill-rule="evenodd"/><path d="M1549.5 1461C1552.54 1461 1555 1463.46 1555 1466.5L1555 1466.5C1555 1469.54 1552.54 1472 1549.5 1472L1450.5 1472C1447.46 1472 1445 1469.54 1445 1466.5L1445 1466.5C1445 1463.46 1447.46 1461 1450.5 1461Z" fill="#7030A0" fill-rule="evenodd"/><path d="M1544 1466C1544 1462.69 1546.46 1460 1549.5 1460 1552.54 1460 1555 1462.69 1555 1466 1555 1469.31 1552.54 1472 1549.5 1472 1546.46 1472 1544 1469.31 1544 1466Z" fill="#C00000" fill-rule="evenodd"/><path d="M1334 1472C1330.69 1472 1328 1469.31 1328 1466L1328 1466C1328 1462.69 1330.69 1460 1334 1460L1432 1460C1435.31 1460 1438 1462.69 1438 1466L1438 1466C1438 1469.31 1435.31 1472 1432 1472Z" fill="#201800" fill-rule="evenodd"/><path d="M1433 1461C1436.31 1461 1439 1463.46 1439 1466.5 1439 1469.54 1436.31 1472 1433 1472 1429.69 1472 1427 1469.54 1427 1466.5 1427 1463.46 1429.69 1461 1433 1461Z" fill="#C00000" fill-rule="evenodd"/><text fill="#E7E6E6" font-family="Bahnschrift Light,Bahnschrift Light_MSFontService,sans-serif" font-weight="300" font-size="23" transform="matrix(1 0 0 1 1345.79 1724)">C1P90<tspan font-size="23" x="60.7291" y="0">-</tspan><tspan font-size="23" x="71.6145" y="0">C2P90</tspan><tspan font-size="23" x="136.927" y="0">-</tspan><tspan font-size="23" x="147.813" y="0">C3P90</tspan><tspan font-size="23" x="213.125" y="0">-</tspan><tspan font-size="23" x="224.01" y="0">C4P90</tspan></text><path d="M1798 1250.5C1798 1247.46 1800.46 1245 1803.5 1245L1803.5 1245C1806.54 1245 1809 1247.46 1809 1250.5L1809 1349.5C1809 1352.54 1806.54 1355 1803.5 1355L1803.5 1355C1800.46 1355 1798 1352.54 1798 1349.5Z" fill="#0C141B" fill-rule="evenodd"/><path d="M1803.5 1345C1806.54 1345 1809 1347.46 1809 1350.5L1809 1350.5C1809 1353.54 1806.54 1356 1803.5 1356L1704.5 1356C1701.46 1356 1699 1353.54 1699 1350.5L1699 1350.5C1699 1347.46 1701.46 1345 1704.5 1345Z" fill="#0C141B" fill-rule="evenodd"/><path d="M1809 1350C1809 1353.31 1806.54 1356 1803.5 1356 1800.46 1356 1798 1353.31 1798 1350 1798 1346.69 1800.46 1344 1803.5 1344 1806.54 1344 1809 1346.69 1809 1350Z" fill="#C00000" fill-rule="evenodd"/><path d="M2019.5 1577C2022.54 1577 2025 1579.46 2025 1582.5L2025 1582.5C2025 1585.54 2022.54 1588 2019.5 1588L1920.5 1588C1917.46 1588 1915 1585.54 1915 1582.5L1915 1582.5C1915 1579.46 1917.46 1577 1920.5 1577Z" fill="#1C2B12" fill-rule="evenodd"/><path d="M1926 1582C1926 1585.31 1923.31 1588 1920 1588L1920 1588C1916.69 1588 1914 1585.31 1914 1582L1914 1484C1914 1480.69 1916.69 1478 1920 1478L1920 1478C1923.31 1478 1926 1480.69 1926 1484Z" fill="#70AD47" fill-rule="evenodd"/><path d="M1920.5 1576C1923.54 1576 1926 1578.69 1926 1582 1926 1585.31 1923.54 1588 1920.5 1588 1917.46 1588 1915 1585.31 1915 1582 1915 1578.69 1917.46 1576 1920.5 1576Z" fill="#C00000" fill-rule="evenodd"/><path d="M1914 1368C1914 1364.69 1916.69 1362 1920 1362L1920 1362C1923.31 1362 1926 1364.69 1926 1368L1926 1466C1926 1469.31 1923.31 1472 1920 1472L1920 1472C1916.69 1472 1914 1469.31 1914 1466Z" fill="#7030A0" fill-rule="evenodd"/><path d="M1920.5 1461C1923.54 1461 1926 1463.46 1926 1466.5L1926 1466.5C1926 1469.54 1923.54 1472 1920.5 1472L1820.5 1472C1817.46 1472 1815 1469.54 1815 1466.5L1815 1466.5C1815 1463.46 1817.46 1461 1820.5 1461Z" fill="#7030A0" fill-rule="evenodd"/><path d="M1914 1466C1914 1462.69 1916.69 1460 1920 1460 1923.31 1460 1926 1462.69 1926 1466 1926 1469.31 1923.31 1472 1920 1472 1916.69 1472 1914 1469.31 1914 1466Z" fill="#C00000" fill-rule="evenodd"/><path d="M1798 1365.5C1798 1362.46 1800.46 1360 1803.5 1360L1803.5 1360C1806.54 1360 1809 1362.46 1809 1365.5L1809 1465.5C1809 1468.54 1806.54 1471 1803.5 1471L1803.5 1471C1800.46 1471 1798 1468.54 1798 1465.5Z" fill="#FFC000" fill-rule="evenodd"/><path d="M1809 1466C1809 1469.31 1806.54 1472 1803.5 1472 1800.46 1472 1798 1469.31 1798 1466 1798 1462.69 1800.46 1460 1803.5 1460 1806.54 1460 1809 1462.69 1809 1466Z" fill="#C00000" fill-rule="evenodd"/><text fill="#E7E6E6" font-family="Bahnschrift Light,Bahnschrift Light_MSFontService,sans-serif" font-weight="300" font-size="23" transform="matrix(1 0 0 1 1724.35 1724)">C1P180<tspan font-size="23" x="69.3229" y="0">-</tspan><tspan font-size="23" x="80.2083" y="0">C2P0</tspan><tspan font-size="23" x="133.49" y="0">-</tspan><tspan font-size="23" x="144.375" y="0">C3P90</tspan><tspan font-size="23" x="209.688" y="0">-</tspan><tspan font-size="23" x="220.573" y="0">C4P0</tspan></text><path d="M2550 1449.5C2550 1452.54 2547.54 1455 2544.5 1455L2544.5 1455C2541.46 1455 2539 1452.54 2539 1449.5L2539 1350.5C2539 1347.46 2541.46 1345 2544.5 1345L2544.5 1345C2547.54 1345 2550 1347.46 2550 1350.5Z" fill="#5B9BD5" fill-rule="evenodd"/><path d="M2544.5 1355C2541.46 1355 2539 1352.54 2539 1349.5L2539 1349.5C2539 1346.46 2541.46 1344 2544.5 1344L2643.5 1344C2646.54 1344 2649 1346.46 2649 1349.5L2649 1349.5C2649 1352.54 2646.54 1355 2643.5 1355Z" fill="#5B9BD5" fill-rule="evenodd"/><path d="M2539 1350C2539 1346.69 2541.46 1344 2544.5 1344 2547.54 1344 2550 1346.69 2550 1350 2550 1353.31 2547.54 1356 2544.5 1356 2541.46 1356 2539 1353.31 2539 1350Z" fill="#C00000" fill-rule="evenodd"/><path d="M2560.5 1588C2557.46 1588 2555 1585.54 2555 1582.5L2555 1582.5C2555 1579.46 2557.46 1577 2560.5 1577L2660.5 1577C2663.54 1577 2666 1579.46 2666 1582.5L2666 1582.5C2666 1585.54 2663.54 1588 2660.5 1588Z" fill="#70AD47" fill-rule="evenodd"/><path d="M2655 1583C2655 1579.69 2657.69 1577 2661 1577L2661 1577C2664.31 1577 2667 1579.69 2667 1583L2667 1681C2667 1684.31 2664.31 1687 2661 1687L2661 1687C2657.69 1687 2655 1684.31 2655 1681Z" fill="#1C2B12" fill-rule="evenodd"/><path d="M2660.5 1589C2657.46 1589 2655 1586.31 2655 1583 2655 1579.69 2657.46 1577 2660.5 1577 2663.54 1577 2666 1579.69 2666 1583 2666 1586.31 2663.54 1589 2660.5 1589Z" fill="#C00000" fill-rule="evenodd"/><path d="M2560.5 1472C2557.46 1472 2555 1469.54 2555 1466.5L2555 1466.5C2555 1463.46 2557.46 1461 2560.5 1461L2660.5 1461C2663.54 1461 2666 1463.46 2666 1466.5L2666 1466.5C2666 1469.54 2663.54 1472 2660.5 1472Z" fill="#7030A0" fill-rule="evenodd"/><path d="M2655 1467C2655 1463.69 2657.69 1461 2661 1461L2661 1461C2664.31 1461 2667 1463.69 2667 1467L2667 1565C2667 1568.31 2664.31 1571 2661 1571L2661 1571C2657.69 1571 2655 1568.31 2655 1565Z" fill="#7030A0" fill-rule="evenodd"/><path d="M2661 1472C2657.69 1472 2655 1469.54 2655 1466.5 2655 1463.46 2657.69 1461 2661 1461 2664.31 1461 2667 1463.46 2667 1466.5 2667 1469.54 2664.31 1472 2661 1472Z" fill="#C00000" fill-rule="evenodd"/><path d="M2550 1565.5C2550 1568.54 2547.54 1571 2544.5 1571L2544.5 1571C2541.46 1571 2539 1568.54 2539 1565.5L2539 1465.5C2539 1462.46 2541.46 1460 2544.5 1460L2544.5 1460C2547.54 1460 2550 1462.46 2550 1465.5Z" fill="#FFC000" fill-rule="evenodd"/><path d="M2539 1465.5C2539 1462.46 2541.69 1460 2545 1460 2548.31 1460 2551 1462.46 2551 1465.5 2551 1468.54 2548.31 1471 2545 1471 2541.69 1471 2539 1468.54 2539 1465.5Z" fill="#C00000" fill-rule="evenodd"/><text fill="#E7E6E6" font-family="Bahnschrift Light,Bahnschrift Light_MSFontService,sans-serif" font-weight="300" font-size="23" transform="matrix(1 0 0 1 2450.62 1724)">C1P0<tspan font-size="23" x="48.698" y="0">-</tspan><tspan font-size="23" x="59.5835" y="0">C2P180</tspan><tspan font-size="23" x="133.49" y="0">-</tspan><tspan font-size="23" x="144.375" y="0">C3P180</tspan><tspan font-size="23" x="218.281" y="0">-</tspan><tspan font-size="23" x="229.167" y="0">C4P180</tspan></text><path d="M3013.5 1345C3016.54 1345 3019 1347.46 3019 1350.5L3019 1350.5C3019 1353.54 3016.54 1356 3013.5 1356L2914.5 1356C2911.46 1356 2909 1353.54 2909 1350.5L2909 1350.5C2909 1347.46 2911.46 1345 2914.5 1345Z" fill="#5B9BD5" fill-rule="evenodd"/><path d="M2920 1350.5C2920 1353.54 2917.54 1356 2914.5 1356L2914.5 1356C2911.46 1356 2909 1353.54 2909 1350.5L2909 1250.5C2909 1247.46 2911.46 1245 2914.5 1245L2914.5 1245C2917.54 1245 2920 1247.46 2920 1250.5Z" fill="#0C141B" fill-rule="evenodd"/><path d="M2915 1356C2911.69 1356 2909 1353.54 2909 1350.5 2909 1347.46 2911.69 1345 2915 1345 2918.31 1345 2921 1347.46 2921 1350.5 2921 1353.54 2918.31 1356 2915 1356Z" fill="#C00000" fill-rule="evenodd"/><path d="M3130.5 1577C3133.54 1577 3136 1579.46 3136 1582.5L3136 1582.5C3136 1585.54 3133.54 1588 3130.5 1588L3031.5 1588C3028.46 1588 3026 1585.54 3026 1582.5L3026 1582.5C3026 1579.46 3028.46 1577 3031.5 1577Z" fill="#1C2B12" fill-rule="evenodd"/><path d="M3036 1582.5C3036 1585.54 3033.54 1588 3030.5 1588L3030.5 1588C3027.46 1588 3025 1585.54 3025 1582.5L3025 1483.5C3025 1480.46 3027.46 1478 3030.5 1478L3030.5 1478C3033.54 1478 3036 1480.46 3036 1483.5Z" fill="#70AD47" fill-rule="evenodd"/><path d="M3031 1576C3034.31 1576 3037 1578.69 3037 1582 3037 1585.31 3034.31 1588 3031 1588 3027.69 1588 3025 1585.31 3025 1582 3025 1578.69 3027.69 1576 3031 1576Z" fill="#C00000" fill-rule="evenodd"/><path d="M3130 1460C3133.31 1460 3136 1462.69 3136 1466L3136 1466C3136 1469.31 3133.31 1472 3130 1472L3032 1472C3028.69 1472 3026 1469.31 3026 1466L3026 1466C3026 1462.69 3028.69 1460 3032 1460Z" fill="#0E0614" fill-rule="evenodd"/><path d="M3037 1465C3037 1468.31 3034.31 1471 3031 1471L3031 1471C3027.69 1471 3025 1468.31 3025 1465L3025 1367C3025 1363.69 3027.69 1361 3031 1361L3031 1361C3034.31 1361 3037 1363.69 3037 1367Z" fill="#7030A0" fill-rule="evenodd"/><path d="M3031 1460C3034.31 1460 3037 1462.69 3037 1466 3037 1469.31 3034.31 1472 3031 1472 3027.69 1472 3025 1469.31 3025 1466 3025 1462.69 3027.69 1460 3031 1460Z" fill="#C00000" fill-rule="evenodd"/><path d="M2815 1471C2811.69 1471 2809 1468.31 2809 1465L2809 1465C2809 1461.69 2811.69 1459 2815 1459L2913 1459C2916.31 1459 2919 1461.69 2919 1465L2919 1465C2919 1468.31 2916.31 1471 2913 1471Z" fill="#201800" fill-rule="evenodd"/><path d="M2914.5 1459C2917.54 1459 2920 1461.69 2920 1465 2920 1468.31 2917.54 1471 2914.5 1471 2911.46 1471 2909 1468.31 2909 1465 2909 1461.69 2911.46 1459 2914.5 1459Z" fill="#C00000" fill-rule="evenodd"/><text fill="#E7E6E6" font-family="Bahnschrift Light,Bahnschrift Light_MSFontService,sans-serif" font-weight="300" font-size="23" transform="matrix(1 0 0 1 2839.97 1724)">C1P90<tspan font-size="23" x="60.729" y="0">-</tspan><tspan font-size="23" x="71.6145" y="0">C2P90</tspan><tspan font-size="23" x="136.927" y="0">-</tspan><tspan font-size="23" x="147.813" y="0">C3P0</tspan><tspan font-size="23" x="201.094" y="0">-</tspan><tspan font-size="23" x="211.979" y="0">C4P0</tspan></text><path d="M3291 1449C3291 1452.31 3288.31 1455 3285 1455L3285 1455C3281.69 1455 3279 1452.31 3279 1449L3279 1351C3279 1347.69 3281.69 1345 3285 1345L3285 1345C3288.31 1345 3291 1347.69 3291 1351Z" fill="#5B9BD5" fill-rule="evenodd"/><path d="M3286 1356C3282.69 1356 3280 1353.31 3280 1350L3280 1350C3280 1346.69 3282.69 1344 3286 1344L3384 1344C3387.31 1344 3390 1346.69 3390 1350L3390 1350C3390 1353.31 3387.31 1356 3384 1356Z" fill="#5B9BD5" fill-rule="evenodd"/><path d="M3279 1350.5C3279 1347.46 3281.69 1345 3285 1345 3288.31 1345 3291 1347.46 3291 1350.5 3291 1353.54 3288.31 1356 3285 1356 3281.69 1356 3279 1353.54 3279 1350.5Z" fill="#C00000" fill-rule="evenodd"/><path d="M3396 1485C3396 1481.69 3398.69 1479 3402 1479L3402 1479C3405.31 1479 3408 1481.69 3408 1485L3408 1583C3408 1586.31 3405.31 1589 3402 1589L3402 1589C3398.69 1589 3396 1586.31 3396 1583Z" fill="#70AD47" fill-rule="evenodd"/><path d="M3402 1577C3405.31 1577 3408 1579.69 3408 1583L3408 1583C3408 1586.31 3405.31 1589 3402 1589L3303 1589C3299.69 1589 3297 1586.31 3297 1583L3297 1583C3297 1579.69 3299.69 1577 3303 1577Z" fill="#70AD47" fill-rule="evenodd"/><path d="M3396 1583C3396 1579.69 3398.69 1577 3402 1577 3405.31 1577 3408 1579.69 3408 1583 3408 1586.31 3405.31 1589 3402 1589 3398.69 1589 3396 1586.31 3396 1583Z" fill="#C00000" fill-rule="evenodd"/><path d="M3396 1366C3396 1362.69 3398.69 1360 3402 1360L3402 1360C3405.31 1360 3408 1362.69 3408 1366L3408 1465C3408 1468.31 3405.31 1471 3402 1471L3402 1471C3398.69 1471 3396 1468.31 3396 1465Z" fill="#7030A0" fill-rule="evenodd"/><path d="M3402 1459C3405.31 1459 3408 1461.69 3408 1465L3408 1465C3408 1468.31 3405.31 1471 3402 1471L3303 1471C3299.69 1471 3297 1468.31 3297 1465L3297 1465C3297 1461.69 3299.69 1459 3303 1459Z" fill="#7030A0" fill-rule="evenodd"/><path d="M3396 1465C3396 1461.69 3398.69 1459 3402 1459 3405.31 1459 3408 1461.69 3408 1465 3408 1468.31 3405.31 1471 3402 1471 3398.69 1471 3396 1468.31 3396 1465Z" fill="#C00000" fill-rule="evenodd"/><path d="M3291 1565C3291 1568.31 3288.31 1571 3285 1571L3285 1571C3281.69 1571 3279 1568.31 3279 1565L3279 1466C3279 1462.69 3281.69 1460 3285 1460L3285 1460C3288.31 1460 3291 1462.69 3291 1466Z" fill="#FFC000" fill-rule="evenodd"/><path d="M3279 1466C3279 1462.69 3281.69 1460 3285 1460 3288.31 1460 3291 1462.69 3291 1466 3291 1469.31 3288.31 1472 3285 1472 3281.69 1472 3279 1469.31 3279 1466Z" fill="#C00000" fill-rule="evenodd"/><text fill="#E7E6E6" font-family="Bahnschrift Light,Bahnschrift Light_MSFontService,sans-serif" font-weight="300" font-size="23" transform="matrix(1 0 0 1 3200.09 1724)">C1P0<tspan font-size="23" x="48.698" y="0">-</tspan><tspan font-size="23" x="59.5833" y="0">C2P180</tspan><tspan font-size="23" x="133.49" y="0">-</tspan><tspan font-size="23" x="144.375" y="0">C3P90</tspan><tspan font-size="23" x="209.688" y="0">-</tspan><tspan font-size="23" x="220.573" y="0">C4P90</tspan></text><path d="M3661 1449C3661 1452.31 3658.31 1455 3655 1455L3655 1455C3651.69 1455 3649 1452.31 3649 1449L3649 1351C3649 1347.69 3651.69 1345 3655 1345L3655 1345C3658.31 1345 3661 1347.69 3661 1351Z" fill="#5B9BD5" fill-rule="evenodd"/><path d="M3656 1356C3652.69 1356 3650 1353.31 3650 1350L3650 1350C3650 1346.69 3652.69 1344 3656 1344L3754 1344C3757.31 1344 3760 1346.69 3760 1350L3760 1350C3760 1353.31 3757.31 1356 3754 1356Z" fill="#5B9BD5" fill-rule="evenodd"/><path d="M3650 1350.5C3650 1347.46 3652.46 1345 3655.5 1345 3658.54 1345 3661 1347.46 3661 1350.5 3661 1353.54 3658.54 1356 3655.5 1356 3652.46 1356 3650 1353.54 3650 1350.5Z" fill="#C00000" fill-rule="evenodd"/><path d="M3767 1484.5C3767 1481.46 3769.46 1479 3772.5 1479L3772.5 1479C3775.54 1479 3778 1481.46 3778 1484.5L3778 1583.5C3778 1586.54 3775.54 1589 3772.5 1589L3772.5 1589C3769.46 1589 3767 1586.54 3767 1583.5Z" fill="#70AD47" fill-rule="evenodd"/><path d="M3772 1577C3775.31 1577 3778 1579.69 3778 1583L3778 1583C3778 1586.31 3775.31 1589 3772 1589L3674 1589C3670.69 1589 3668 1586.31 3668 1583L3668 1583C3668 1579.69 3670.69 1577 3674 1577Z" fill="#70AD47" fill-rule="evenodd"/><path d="M3766 1582.5C3766 1579.46 3768.69 1577 3772 1577 3775.31 1577 3778 1579.46 3778 1582.5 3778 1585.54 3775.31 1588 3772 1588 3768.69 1588 3766 1585.54 3766 1582.5Z" fill="#C00000" fill-rule="evenodd"/><path d="M3767 1368.5C3767 1365.46 3769.46 1363 3772.5 1363L3772.5 1363C3775.54 1363 3778 1365.46 3778 1368.5L3778 1467.5C3778 1470.54 3775.54 1473 3772.5 1473L3772.5 1473C3769.46 1473 3767 1470.54 3767 1467.5Z" fill="#7030A0" fill-rule="evenodd"/><path d="M3772 1461C3775.31 1461 3778 1463.69 3778 1467L3778 1467C3778 1470.31 3775.31 1473 3772 1473L3674 1473C3670.69 1473 3668 1470.31 3668 1467L3668 1467C3668 1463.69 3670.69 1461 3674 1461Z" fill="#7030A0" fill-rule="evenodd"/><path d="M3767 1467C3767 1463.69 3769.46 1461 3772.5 1461 3775.54 1461 3778 1463.69 3778 1467 3778 1470.31 3775.54 1473 3772.5 1473 3769.46 1473 3767 1470.31 3767 1467Z" fill="#C00000" fill-rule="evenodd"/><path d="M3557 1473C3553.69 1473 3551 1470.31 3551 1467L3551 1467C3551 1463.69 3553.69 1461 3557 1461L3655 1461C3658.31 1461 3661 1463.69 3661 1467L3661 1467C3661 1470.31 3658.31 1473 3655 1473Z" fill="#201800" fill-rule="evenodd"/><path d="M3656 1461C3659.31 1461 3662 1463.69 3662 1467 3662 1470.31 3659.31 1473 3656 1473 3652.69 1473 3650 1470.31 3650 1467 3650 1463.69 3652.69 1461 3656 1461Z" fill="#C00000" fill-rule="evenodd"/><text fill="#E7E6E6" font-family="Bahnschrift Light,Bahnschrift Light_MSFontService,sans-serif" font-weight="300" font-size="23" transform="matrix(1 0 0 1 3575.03 1724)">C1P0<tspan font-size="23" x="48.698" y="0">-</tspan><tspan font-size="23" x="59.5833" y="0">C2P90</tspan><tspan font-size="23" x="124.896" y="0">-</tspan><tspan font-size="23" x="135.781" y="0">C3P90</tspan><tspan font-size="23" x="201.094" y="0">-</tspan><tspan font-size="23" x="211.979" y="0">C4P90</tspan></text><path d="M2273.5 1344C2276.54 1344 2279 1346.46 2279 1349.5L2279 1349.5C2279 1352.54 2276.54 1355 2273.5 1355L2173.5 1355C2170.46 1355 2168 1352.54 2168 1349.5L2168 1349.5C2168 1346.46 2170.46 1344 2173.5 1344Z" fill="#5B9BD5" fill-rule="evenodd"/><path d="M2179 1349C2179 1352.31 2176.31 1355 2173 1355L2173 1355C2169.69 1355 2167 1352.31 2167 1349L2167 1250C2167 1246.69 2169.69 1244 2173 1244L2173 1244C2176.31 1244 2179 1246.69 2179 1250Z" fill="#0C141B" fill-rule="evenodd"/><path d="M2173.5 1355C2170.46 1355 2168 1352.54 2168 1349.5 2168 1346.46 2170.46 1344 2173.5 1344 2176.54 1344 2179 1346.46 2179 1349.5 2179 1352.54 2176.54 1355 2173.5 1355Z" fill="#C00000" fill-rule="evenodd"/><path d="M2190.5 1588C2187.46 1588 2185 1585.54 2185 1582.5L2185 1582.5C2185 1579.46 2187.46 1577 2190.5 1577L2290.5 1577C2293.54 1577 2296 1579.46 2296 1582.5L2296 1582.5C2296 1585.54 2293.54 1588 2290.5 1588Z" fill="#70AD47" fill-rule="evenodd"/><path d="M2284 1583C2284 1579.69 2286.69 1577 2290 1577L2290 1577C2293.31 1577 2296 1579.69 2296 1583L2296 1681C2296 1684.31 2293.31 1687 2290 1687L2290 1687C2286.69 1687 2284 1684.31 2284 1681Z" fill="#1C2B12" fill-rule="evenodd"/><path d="M2289.5 1589C2286.46 1589 2284 1586.31 2284 1583 2284 1579.69 2286.46 1577 2289.5 1577 2292.54 1577 2295 1579.69 2295 1583 2295 1586.31 2292.54 1589 2289.5 1589Z" fill="#C00000" fill-rule="evenodd"/><path d="M2190.5 1471C2187.46 1471 2185 1468.54 2185 1465.5L2185 1465.5C2185 1462.46 2187.46 1460 2190.5 1460L2290.5 1460C2293.54 1460 2296 1462.46 2296 1465.5L2296 1465.5C2296 1468.54 2293.54 1471 2290.5 1471Z" fill="#7030A0" fill-rule="evenodd"/><path d="M2284 1466C2284 1462.69 2286.69 1460 2290 1460L2290 1460C2293.31 1460 2296 1462.69 2296 1466L2296 1565C2296 1568.31 2293.31 1571 2290 1571L2290 1571C2286.69 1571 2284 1568.31 2284 1565Z" fill="#7030A0" fill-rule="evenodd"/><path d="M2290 1471C2286.69 1471 2284 1468.54 2284 1465.5 2284 1462.46 2286.69 1460 2290 1460 2293.31 1460 2296 1462.46 2296 1465.5 2296 1468.54 2293.31 1471 2290 1471Z" fill="#C00000" fill-rule="evenodd"/><path d="M2168 1365.5C2168 1362.46 2170.46 1360 2173.5 1360L2173.5 1360C2176.54 1360 2179 1362.46 2179 1365.5L2179 1465.5C2179 1468.54 2176.54 1471 2173.5 1471L2173.5 1471C2170.46 1471 2168 1468.54 2168 1465.5Z" fill="#FFC000" fill-rule="evenodd"/><path d="M2179 1465.5C2179 1468.54 2176.31 1471 2173 1471 2169.69 1471 2167 1468.54 2167 1465.5 2167 1462.46 2169.69 1460 2173 1460 2176.31 1460 2179 1462.46 2179 1465.5Z" fill="#C00000" fill-rule="evenodd"/><text fill="#E7E6E6" font-family="Bahnschrift Light,Bahnschrift Light_MSFontService,sans-serif" font-weight="300" font-size="23" transform="matrix(1 0 0 1 2083.89 1724)">C1P90<tspan font-size="23" x="60.7293" y="0">-</tspan><tspan font-size="23" x="71.6145" y="0">C2P0</tspan><tspan font-size="23" x="124.896" y="0">-</tspan><tspan font-size="23" x="135.781" y="0">C3P180</tspan><tspan font-size="23" x="209.688" y="0">-</tspan><tspan font-size="23" x="220.573" y="0">C4P180</tspan></text></g></svg>