<svg width="1249" height="153" xmlns="http://www.w3.org/2000/svg" xmlns:xlink="http://www.w3.org/1999/xlink" overflow="hidden"><defs><clipPath id="clip0"><rect x="1819" y="171" width="1249" height="153"/></clipPath></defs><g clip-path="url(#clip0)" transform="translate(-1819 -171)"><rect x="2079" y="178" width="5.99976" height="67" fill="#1A1A1A"/><rect x="2085" y="245" width="67" height="5.99983" fill="#E7E6E6"/><rect x="2152" y="178" width="6.00024" height="67" fill="#E7E6E6"/><rect x="2079" y="251" width="5.99976" height="67" fill="#E7E6E6"/><rect x="2152" y="251" width="6.00024" height="67" fill="#1A1A1A"/><rect x="2085" y="318" width="67" height="6.00018" fill="#E7E6E6"/><rect x="2085" y="172" width="67" height="6.0002" fill="#E7E6E6"/><rect x="2209" y="178" width="6.00024" height="67" fill="#1A1A1A"/><rect x="2215" y="245" width="67" height="5.99983" fill="#E7E6E6"/><rect x="2282" y="178" width="5.99976" height="67" fill="#E7E6E6"/><rect x="2209" y="251" width="6.00024" height="67" fill="#1A1A1A"/><rect x="2282" y="251" width="5.99976" height="67" fill="#E7E6E6"/><rect x="2215" y="318" width="67" height="6.00018" fill="#E7E6E6"/><rect x="2215" y="172" width="67" height="6.0002" fill="#E7E6E6"/><rect x="2339" y="178" width="6.00024" height="67" fill="#E7E6E6"/><rect x="2345" y="245" width="67" height="5.99983" fill="#E7E6E6"/><rect x="2412" y="178" width="5.99976" height="67" fill="#E7E6E6"/><rect x="2339" y="251" width="6.00024" height="67" fill="#1A1A1A"/><rect x="2412" y="251" width="5.99976" height="67" fill="#E7E6E6"/><rect x="2345" y="318" width="67" height="6.00018" fill="#1A1A1A"/><rect x="2345" y="172" width="67" height="6.0002" fill="#1A1A1A"/><rect x="2469" y="178" width="5.99976" height="67" fill="#E7E6E6"/><rect x="2475" y="245" width="67" height="5.99983" fill="#E7E6E6"/><rect x="2542" y="178" width="5.99976" height="67" fill="#1A1A1A"/><rect x="2469" y="251" width="5.99976" height="67" fill="#1A1A1A"/><rect x="2542" y="251" width="5.99976" height="67" fill="#E7E6E6"/><rect x="2475" y="318" width="67" height="6.00018" fill="#E7E6E6"/><rect x="2475" y="172" width="67" height="6.0002" fill="#E7E6E6"/><rect x="2598" y="178" width="6.99976" height="67" fill="#E7E6E6"/><rect x="2605" y="245" width="67" height="5.99983" fill="#E7E6E6"/><rect x="2672" y="178" width="6.00024" height="67" fill="#1A1A1A"/><rect x="2598" y="251" width="6.99976" height="67" fill="#E7E6E6"/><rect x="2672" y="251" width="6.00024" height="67" fill="#E7E6E6"/><rect x="2605" y="318" width="67" height="6.00018" fill="#E7E6E6"/><rect x="2605" y="172" width="67" height="6.0002" fill="#E7E6E6"/><rect x="2728" y="178" width="6.99976" height="67" fill="#1A1A1A"/><rect x="2735" y="245" width="66" height="5.99983" fill="#1A1A1A"/><rect x="2801" y="178" width="7.00024" height="67" fill="#E7E6E6"/><rect x="2728" y="251" width="6.99976" height="67" fill="#1A1A1A"/><rect x="2801" y="251" width="7.00024" height="67" fill="#E7E6E6"/><rect x="2735" y="318" width="66" height="6.00018" fill="#1A1A1A"/><rect x="2735" y="172" width="66" height="6.0002" fill="#E7E6E6"/><rect x="2858" y="178" width="7.00024" height="67" fill="#E7E6E6"/><rect x="2865" y="245" width="66" height="5.99983" fill="#E7E6E6"/><rect x="2931" y="178" width="6.99976" height="67" fill="#E7E6E6"/><rect x="2858" y="251" width="7.00024" height="67" fill="#E7E6E6"/><rect x="2931" y="251" width="6.99976" height="67" fill="#E7E6E6"/><rect x="2865" y="318" width="66" height="6.00018" fill="#E7E6E6"/><rect x="2865" y="172" width="66" height="6.0002" fill="#E7E6E6"/><rect x="2988" y="178" width="7.00024" height="67" fill="#E7E6E6"/><rect x="2995" y="245" width="66" height="5.99983" fill="#E7E6E6"/><rect x="3061" y="178" width="6.99976" height="67" fill="#E7E6E6"/><rect x="2988" y="251" width="7.00024" height="67" fill="#1A1A1A"/><rect x="3061" y="251" width="6.99976" height="67" fill="#E7E6E6"/><rect x="2995" y="318" width="66" height="6.00018" fill="#E7E6E6"/><rect x="2995" y="172" width="66" height="6.0002" fill="#E7E6E6"/><rect x="1819" y="178" width="6.99988" height="67" fill="#FFFFFF"/><rect x="1826" y="245" width="66" height="5.99983" fill="#1A1A1A"/><rect x="1892" y="178" width="6.99988" height="67" fill="#FFFFFF"/><rect x="1819" y="251" width="6.99988" height="67" fill="#FFFFFF"/><rect x="1892" y="251" width="6.99988" height="67" fill="#FFFFFF"/><rect x="1826" y="318" width="66" height="6.00018" fill="#FFFFFF"/><rect x="1826" y="172" width="66" height="6.0002" fill="#FFFFFF"/><rect x="1949" y="178" width="5.99988" height="67" fill="#1A1A1A"/><rect x="1955" y="245" width="67" height="5.99983" fill="#1A1A1A"/><rect x="2022" y="178" width="7.00024" height="67" fill="#E7E6E6"/><rect x="1949" y="251" width="5.99988" height="67" fill="#1A1A1A"/><rect x="2022" y="251" width="7.00024" height="67" fill="#E7E6E6"/><rect x="1955" y="318" width="67" height="6.00018" fill="#1A1A1A"/><rect x="1955" y="171" width="67" height="7.00023" fill="#1A1A1A"/></g></svg>