<svg width="2293" height="2425" xmlns="http://www.w3.org/2000/svg" xmlns:xlink="http://www.w3.org/1999/xlink" overflow="hidden"><defs><clipPath id="clip0"><rect x="1052" y="65" width="2293" height="2425"/></clipPath></defs><g clip-path="url(#clip0)" transform="translate(-1052 -65)"><path d="M1.76445-1.46234 440.522 527.942 436.993 530.866-1.76445 1.46234ZM442.891 520.026 447.532 539.991 428.776 531.725Z" fill="#E7E6E6" transform="matrix(1 0 0 -1 2203.5 1307.49)"/><path d="M1243.88 1095.24 2000.43 1222.64 1999.67 1227.16 1243.12 1099.76ZM1997.05 1215.1 2013.61 1227.18 1994.01 1233.18Z" fill="#E7E6E6"/><path d="M1570.26 523.033 2007.03 1047.4 2003.51 1050.33 1566.74 525.967ZM2009.38 1039.47 2014.07 1059.43 1995.29 1051.21Z" fill="#E7E6E6"/><path d="M2215.79 598.5 2215.79 1026.48 2211.21 1026.48 2211.21 598.5ZM2222.67 1021.9 2213.5 1040.23 2204.33 1021.9Z" fill="#E7E6E6"/><path d="M1.75873-1.46922 444.842 528.925 441.324 531.863-1.75873 1.46922ZM447.18 521.001 451.899 540.947 433.11 532.754Z" fill="#E7E6E6" transform="matrix(-1 0 0 1 2838.4 508.5)"/><path d="M0.380336-2.25989 768.461 127.007 767.7 131.527-0.380336 2.25989ZM765.083 119.467 781.641 131.549 762.041 137.546Z" fill="#E7E6E6" transform="matrix(-1 0 0 1 3166.14 1091.5)"/><path d="M3042.54 1770.88 2393.12 1381.54 2395.47 1377.61 3044.9 1766.95ZM2393.51 1389.79 2382.5 1372.5 2402.94 1374.06Z" fill="#E7E6E6"/><path d="M1.17673-1.96648 642.453 381.771 640.1 385.704-1.17673 1.96648ZM642.048 373.517 653.073 390.797 632.634 389.249Z" fill="#E7E6E6" transform="matrix(1 0 0 -1 1360.5 1769.3)"/><path d="M2.16852-0.741104 204.163 590.311 199.826 591.793-2.16852 0.741104ZM209.187 583.75 206.441 604.062 191.838 589.679Z" fill="#E7E6E6" transform="matrix(1 0 0 -1 1874.5 2174.56)"/><path d="M2537.66 2177.23 2316.14 1581.19 2320.44 1579.59 2541.95 2175.63ZM2311.29 1587.88 2313.5 1567.5 2328.48 1581.49Z" fill="#E7E6E6"/><text fill="#E7E6E6" font-family="Bahnschrift Light,Bahnschrift Light_MSFontService,sans-serif" font-weight="300" font-size="28" transform="matrix(0.984795 0.173722 -0.173722 0.984795 1627.07 1149)">C1P0<tspan font-size="28" x="58.4111" y="-0.149559">-</tspan><tspan font-size="28" x="71.5381" y="-0.434324">C2P180 + C3P0</tspan></text><text fill="#E7E6E6" font-family="Bahnschrift Light,Bahnschrift Light_MSFontService,sans-serif" font-weight="300" font-size="28" transform="matrix(0.857167 -0.515038 0.515038 0.857167 1624.16 1601)">C1P0<tspan font-size="28" x="58.3873" y="0.083601">-</tspan><tspan font-size="28" x="71.6742" y="-0.0992565">C2P180</tspan><tspan font-size="28" x="159.676" y="0.279106">-</tspan><tspan font-size="28" x="172.963" y="0.0962524">C3P0</tspan><tspan font-size="28" x="236.169" y="0.741882">-</tspan><tspan font-size="28" x="249.456" y="0.559029">C4P90</tspan></text><text fill="#E7E6E6" font-family="Bahnschrift Light,Bahnschrift Light_MSFontService,sans-serif" font-weight="300" font-size="28" transform="matrix(0.319577 -0.94756 0.94756 0.319577 1950.08 1914)">C1P0<tspan font-size="28" x="58.084" y="0.119228">-</tspan><tspan font-size="28" x="71.7481" y="-0.0449257">C2P180+</tspan><tspan font-size="28" x="174.135" y="0.0106735">C3P0 + C4P90</tspan></text><text fill="#E7E6E6" font-family="Bahnschrift Light,Bahnschrift Light_MSFontService,sans-serif" font-weight="300" font-size="28" transform="matrix(0.35102 0.936368 -0.936368 0.35102 2367.06 1672)">C3P0 + C4P90</text><text fill="#E7E6E6" font-family="Bahnschrift Light,Bahnschrift Light_MSFontService,sans-serif" font-weight="300" font-size="28" transform="matrix(0.85954 0.511068 -0.511068 0.85954 2518.09 1438)">C1P0<tspan font-size="28" x="58.5061" y="0.115675">-</tspan><tspan font-size="28" x="71.8191" y="0.343895">C2P180</tspan><tspan font-size="28" x="160.002" y="0.265678">-</tspan><tspan font-size="28" x="172.803" y="-0.365517">C4P90</tspan></text><text fill="#E7E6E6" font-family="Bahnschrift Light,Bahnschrift Light_MSFontService,sans-serif" font-weight="300" font-size="28" transform="matrix(0.987688 -0.156434 0.156434 0.987688 2652.58 1166)">C3P0</text><text fill="#E7E6E6" font-family="Bahnschrift Light,Bahnschrift Light_MSFontService,sans-serif" font-weight="300" font-size="28" transform="matrix(0.638868 -0.769316 0.769316 0.638868 2468.55 934)">C2P180<tspan font-size="28" x="87.5551" y="0.559635">-</tspan><tspan font-size="28" x="101.396" y="0.00853729">C3P0</tspan></text><text fill="#E7E6E6" font-family="Bahnschrift Light,Bahnschrift Light_MSFontService,sans-serif" font-weight="300" font-size="28" transform="matrix(0.641964 0.766734 -0.766734 0.641964 1804.26 790)">C1P0<tspan font-size="28" x="58.5862" y="0.124521">-</tspan><tspan font-size="28" x="71.6841" y="0.0581818">C4P90 + C3P0</tspan></text><text fill="#E7E6E6" font-family="Bahnschrift Light,Bahnschrift Light_MSFontService,sans-serif" font-weight="300" font-size="28" transform="matrix(6.12323e-17 1 -1 6.12323e-17 2221.92 694)">C1P0<tspan font-size="28" x="58" y="3.55148e-15">-</tspan><tspan font-size="28" x="71" y="4.3475e-15">C2P180</tspan><tspan font-size="28" x="160" y="9.79717e-15">-</tspan><tspan font-size="28" x="173" y="1.05932e-14">C4P90</tspan></text><path d="M0.37373-2.26099 766.347 124.35 765.599 128.872-0.37373 2.26099ZM762.943 116.82 779.536 128.853 759.953 134.908Z" fill="#E7E6E6" transform="matrix(1 0 0 -1 2197.5 1278.35)"/><path d="M2201.68 1293.53 2847.36 1679.78 2845.01 1683.71 2199.32 1297.47ZM2846.96 1671.53 2857.98 1688.8 2837.55 1687.26Z" fill="#E7E6E6"/><path d="M2289.65 1567.71 2424.5 1936.12 2420.19 1937.69 2285.35 1569.29ZM2429.38 1929.45 2427.07 1949.82 2412.16 1935.75Z" fill="#E7E6E6"/><path d="M2.17021-0.736146 126.138 364.729 121.797 366.201-2.17021 0.736146ZM131.176 358.18 128.384 378.486 113.814 364.069Z" fill="#E7E6E6" transform="matrix(-1 0 0 1 2106.88 1569.5)"/><path d="M1.17288-1.96878 638.874 377.934 636.528 381.871-1.17288 1.96878ZM638.456 369.682 649.514 386.94 629.073 385.432Z" fill="#E7E6E6" transform="matrix(-1 0 0 1 2191.01 1301.5)"/><path d="M2190.34 1281.12 1435.68 1154.04 1436.44 1149.52 2191.1 1276.61ZM1439.06 1161.58 1422.5 1149.5 1442.1 1143.51Z" fill="#E7E6E6"/><path d="M2199.16 1323.03 1752.57 789.513 1756.08 786.571 2202.67 1320.09ZM1750.24 797.442 1745.5 777.5 1764.3 785.674Z" fill="#E7E6E6"/><path d="M2185.21 1040.23 2185.21 612.25 2189.79 612.25 2189.79 1040.23ZM2178.33 616.833 2187.5 598.5 2196.67 616.833Z" fill="#E7E6E6"/><text fill="#E7E6E6" font-family="Bahnschrift Light,Bahnschrift Light_MSFontService,sans-serif" font-weight="300" font-size="28" transform="matrix(0.638868 -0.769316 0.769316 0.638868 2503.18 998)">C2P90<tspan font-size="28" x="77.9609" y="-0.0366478">-</tspan><tspan font-size="28" x="91.0324" y="0.0511246">C3P90</tspan></text><text fill="#E7E6E6" font-family="Bahnschrift Light,Bahnschrift Light_MSFontService,sans-serif" font-weight="300" font-size="28" transform="matrix(0.987688 -0.156434 0.156434 0.987688 2662.08 1233)">C3P90</text><text fill="#E7E6E6" font-family="Bahnschrift Light,Bahnschrift Light_MSFontService,sans-serif" font-weight="300" font-size="28" transform="matrix(0.85954 0.511068 -0.511068 0.85954 2491.92 1507)">C1P90<tspan font-size="28" x="72.6656" y="-0.159437">-</tspan><tspan font-size="28" x="85.4673" y="-0.790634">C2P190</tspan><tspan font-size="28" x="172.804" y="-0.365639">-</tspan><tspan font-size="28" x="186.116" y="-0.137299">C4P0</tspan></text><text fill="#E7E6E6" font-family="Bahnschrift Light,Bahnschrift Light_MSFontService,sans-serif" font-weight="300" font-size="28" transform="matrix(0.35102 0.936368 -0.936368 0.35102 2292.84 1680)">C4P180<tspan font-size="28" x="89.6672" y="0.109627">-</tspan><tspan font-size="28" x="102.527" y="-0.00929642">C3P180</tspan></text><text fill="#E7E6E6" font-family="Bahnschrift Light,Bahnschrift Light_MSFontService,sans-serif" font-weight="300" font-size="28" transform="matrix(0.319577 -0.94756 0.94756 0.319577 2015.48 1936)">C1P90<tspan font-size="28" x="72.8126" y="-0.0176105">-</tspan><tspan font-size="28" x="86.4767" y="-0.181881">C2P0</tspan><tspan font-size="28" x="149.825" y="-0.0992393">-</tspan><tspan font-size="28" x="162.542" y="0.0561867">C4P180 + C3P180</tspan></text><text fill="#E7E6E6" font-family="Bahnschrift Light,Bahnschrift Light_MSFontService,sans-serif" font-weight="300" font-size="28" transform="matrix(0.857167 -0.515038 0.515038 0.857167 1643.99 1664)">C1P180<tspan font-size="28" x="83.1833" y="-0.183666">-</tspan><tspan font-size="28" x="96.4702" y="-0.366524">C2P0</tspan><tspan font-size="28" x="160.191" y="-0.578064">-</tspan><tspan font-size="28" x="172.963" y="0.0962524">C4P0 + C3P90</tspan></text><text fill="#E7E6E6" font-family="Bahnschrift Light,Bahnschrift Light_MSFontService,sans-serif" font-weight="300" font-size="28" transform="matrix(0.987688 0.156434 -0.156434 0.987688 1623.68 1219)">C1P90<tspan font-size="28" x="72.7005" y="-0.377513">-</tspan><tspan font-size="28" x="86.0245" y="0.549574">C2P90 + C3P90</tspan></text><text fill="#E7E6E6" font-family="Bahnschrift Light,Bahnschrift Light_MSFontService,sans-serif" font-weight="300" font-size="28" transform="matrix(0.641964 0.766734 -0.766734 0.641964 1748.88 835)">C1P90<tspan font-size="28" x="72.923" y="0.136139">-</tspan><tspan font-size="28" x="86.0209" y="0.0697975">C4P180 + C3P90</tspan></text><text fill="#E7E6E6" font-family="Bahnschrift Light,Bahnschrift Light_MSFontService,sans-serif" font-weight="300" font-size="28" transform="matrix(6.12323e-17 1 -1 6.12323e-17 2156.42 692)">C1P180<tspan font-size="28" x="84" y="5.14352e-15">-</tspan><tspan font-size="28" x="97" y="5.93954e-15">C2P90</tspan><tspan font-size="28" x="175" y="1.07157e-14">-</tspan><tspan font-size="28" x="188" y="1.15117e-14">C4P0</tspan></text><rect x="2014" y="1039" width="370" height="494" fill="#181717"/><path d="M2143 1268C2143 1271.31 2140.31 1274 2137 1274L2137 1274C2133.69 1274 2131 1271.31 2131 1268L2131 1163C2131 1159.69 2133.69 1157 2137 1157L2137 1157C2140.31 1157 2143 1159.69 2143 1163Z" fill="#5B9BD5" fill-rule="evenodd"/><path d="M2137.5 1169C2133.91 1169 2131 1166.09 2131 1162.5L2131 1162.5C2131 1158.91 2133.91 1156 2137.5 1156L2242.5 1156C2246.09 1156 2249 1158.91 2249 1162.5L2249 1162.5C2249 1166.09 2246.09 1169 2242.5 1169Z" fill="#5B9BD5" fill-rule="evenodd"/><path d="M2131 1163C2131 1159.69 2133.69 1157 2137 1157 2140.31 1157 2143 1159.69 2143 1163 2143 1166.31 2140.31 1169 2137 1169 2133.69 1169 2131 1166.31 2131 1163Z" fill="#C00000" fill-rule="evenodd"/><path d="M2255 1304.5C2255 1300.91 2257.91 1298 2261.5 1298L2261.5 1298C2265.09 1298 2268 1300.91 2268 1304.5L2268 1409.5C2268 1413.09 2265.09 1416 2261.5 1416L2261.5 1416C2257.91 1416 2255 1413.09 2255 1409.5Z" fill="#70AD47" fill-rule="evenodd"/><path d="M2261 1404C2264.31 1404 2267 1406.69 2267 1410L2267 1410C2267 1413.31 2264.31 1416 2261 1416L2156 1416C2152.69 1416 2150 1413.31 2150 1410L2150 1410C2150 1406.69 2152.69 1404 2156 1404Z" fill="#70AD47" fill-rule="evenodd"/><path d="M2255 1410C2255 1406.69 2257.69 1404 2261 1404 2264.31 1404 2267 1406.69 2267 1410 2267 1413.31 2264.31 1416 2261 1416 2257.69 1416 2255 1413.31 2255 1410Z" fill="#C00000" fill-rule="evenodd"/><path d="M2367 1281C2370.31 1281 2373 1283.69 2373 1287L2373 1287C2373 1290.31 2370.31 1293 2367 1293L2261 1293C2257.69 1293 2255 1290.31 2255 1287L2255 1287C2255 1283.69 2257.69 1281 2261 1281Z" fill="#381850" fill-rule="evenodd"/><path d="M2267 1287C2267 1290.31 2264.31 1293 2261 1293L2261 1293C2257.69 1293 2255 1290.31 2255 1287L2255 1181C2255 1177.69 2257.69 1175 2261 1175L2261 1175C2264.31 1175 2267 1177.69 2267 1181Z" fill="#7030A0" fill-rule="evenodd"/><path d="M2261 1281C2264.31 1281 2267 1283.69 2267 1287 2267 1290.31 2264.31 1293 2261 1293 2257.69 1293 2255 1290.31 2255 1287 2255 1283.69 2257.69 1281 2261 1281Z" fill="#C00000" fill-rule="evenodd"/><path d="M2143 1393C2143 1396.31 2140.31 1399 2137 1399L2137 1399C2133.69 1399 2131 1396.31 2131 1393L2131 1287C2131 1283.69 2133.69 1281 2137 1281L2137 1281C2140.31 1281 2143 1283.69 2143 1287Z" fill="#FFC000" fill-rule="evenodd"/><path d="M2131 1286.5C2131 1282.91 2133.91 1280 2137.5 1280 2141.09 1280 2144 1282.91 2144 1286.5 2144 1290.09 2141.09 1293 2137.5 1293 2133.91 1293 2131 1290.09 2131 1286.5Z" fill="#C00000" fill-rule="evenodd"/><rect x="2125" y="1151" width="148" height="6.00024" fill="#E7E6E6"/><rect x="2125" y="1416" width="148" height="6.00024" fill="#E7E6E6"/><rect x="2267" y="1151" width="5.99976" height="271" fill="#E7E6E6"/><rect x="2125" y="1151" width="5.99976" height="271" fill="#E7E6E6"/><text fill="#E7E6E6" font-family="Bahnschrift Light,Bahnschrift Light_MSFontService,sans-serif" font-weight="300" font-size="23" transform="matrix(1 0 0 1 2061.15 1560)">C1P0<tspan font-size="23" x="48.698" y="0">-</tspan><tspan font-size="23" x="59.5833" y="0">C2P180</tspan><tspan font-size="23" x="133.49" y="0">-</tspan><tspan font-size="23" x="144.375" y="0">C3P0</tspan><tspan font-size="23" x="197.656" y="0">-</tspan><tspan font-size="23" x="208.542" y="0">C4P90</tspan></text><rect x="2014" y="65" width="370" height="494" fill="#181717"/><path d="M2130 83.5001C2130 79.9102 2132.91 77 2136.5 77L2136.5 77C2140.09 77 2143 79.9102 2143 83.5001L2143 188.5C2143 192.09 2140.09 195 2136.5 195L2136.5 195C2132.91 195 2130 192.09 2130 188.5Z" fill="#2E4E6B" fill-rule="evenodd"/><path d="M2136 183C2139.31 183 2142 185.686 2142 189L2142 189C2142 192.314 2139.31 195 2136 195L2031 195C2027.69 195 2025 192.314 2025 189L2025 189C2025 185.686 2027.69 183 2031 183Z" fill="#2E4E6B" fill-rule="evenodd"/><path d="M2143 188.5C2143 192.09 2140.09 195 2136.5 195 2132.91 195 2130 192.09 2130 188.5 2130 184.91 2132.91 182 2136.5 182 2140.09 182 2143 184.91 2143 188.5Z" fill="#C00000" fill-rule="evenodd"/><path d="M2366 430C2369.31 430 2372 432.687 2372 436L2372 436C2372 439.314 2369.31 442 2366 442L2261 442C2257.69 442 2255 439.314 2255 436L2255 436C2255 432.687 2257.69 430 2261 430Z" fill="#385724" fill-rule="evenodd"/><path d="M2267 436C2267 439.314 2264.31 442 2261 442L2261 442C2257.69 442 2255 439.314 2255 436L2255 330C2255 326.686 2257.69 324 2261 324L2261 324C2264.31 324 2267 326.686 2267 330Z" fill="#70AD47" fill-rule="evenodd"/><path d="M2261 429C2264.31 429 2267 431.91 2267 435.5 2267 439.09 2264.31 442 2261 442 2257.69 442 2255 439.09 2255 435.5 2255 431.91 2257.69 429 2261 429Z" fill="#C00000" fill-rule="evenodd"/><path d="M2367.5 306C2371.09 306 2374 308.91 2374 312.5L2374 312.5C2374 316.09 2371.09 319 2367.5 319L2262.5 319C2258.91 319 2256 316.09 2256 312.5L2256 312.5C2256 308.91 2258.91 306 2262.5 306Z" fill="#381850" fill-rule="evenodd"/><path d="M2267 312C2267 315.314 2264.31 318 2261 318L2261 318C2257.69 318 2255 315.314 2255 312L2255 207C2255 203.686 2257.69 201 2261 201L2261 201C2264.31 201 2267 203.686 2267 207Z" fill="#7030A0" fill-rule="evenodd"/><path d="M2261 306C2264.31 306 2267 308.91 2267 312.5 2267 316.09 2264.31 319 2261 319 2257.69 319 2255 316.09 2255 312.5 2255 308.91 2257.69 306 2261 306Z" fill="#C00000" fill-rule="evenodd"/><path d="M2031 318C2027.69 318 2025 315.314 2025 312L2025 312C2025 308.686 2027.69 306 2031 306L2137 306C2140.31 306 2143 308.687 2143 312L2143 312C2143 315.314 2140.31 318 2137 318Z" fill="#806000" fill-rule="evenodd"/><path d="M2137 306C2140.31 306 2143 308.686 2143 312 2143 315.314 2140.31 318 2137 318 2133.69 318 2131 315.314 2131 312 2131 308.686 2133.69 306 2137 306Z" fill="#C00000" fill-rule="evenodd"/><rect x="2125" y="177" width="148" height="5.99983" fill="#E7E6E6"/><rect x="2125" y="441" width="148" height="5.99985" fill="#E7E6E6"/><rect x="2267" y="177" width="5.99976" height="270" fill="#E7E6E6"/><rect x="2125" y="177" width="5.99976" height="270" fill="#E7E6E6"/><text fill="#E7E6E6" font-family="Bahnschrift Light,Bahnschrift Light_MSFontService,sans-serif" font-weight="300" font-size="23" transform="matrix(1 0 0 1 2061.18 586)">C1P180<tspan font-size="23" x="69.323" y="0">-</tspan><tspan font-size="23" x="80.2083" y="0">C2P90</tspan><tspan font-size="23" x="145.521" y="0">-</tspan><tspan font-size="23" x="156.406" y="0">C3P0</tspan><tspan font-size="23" x="209.688" y="0">-</tspan><tspan font-size="23" x="220.573" y="0">C4P0</tspan></text><rect x="1376" y="286" width="370" height="493" fill="#181717"/><path d="M1605 403C1608.31 403 1611 405.686 1611 409L1611 409C1611 412.314 1608.31 415 1605 415L1499 415C1495.69 415 1493 412.314 1493 409L1493 409C1493 405.686 1495.69 403 1499 403Z" fill="#5B9BD5" fill-rule="evenodd"/><path d="M1505 409C1505 412.314 1502.31 415 1499 415L1499 415C1495.69 415 1493 412.314 1493 409L1493 303C1493 299.686 1495.69 297 1499 297L1499 297C1502.31 297 1505 299.686 1505 303Z" fill="#2E4E6B" fill-rule="evenodd"/><path d="M1499.5 415C1495.91 415 1493 412.314 1493 409 1493 405.686 1495.91 403 1499.5 403 1503.09 403 1506 405.686 1506 409 1506 412.314 1503.09 415 1499.5 415Z" fill="#C00000" fill-rule="evenodd"/><path d="M1517 662C1513.69 662 1511 659.314 1511 656L1511 656C1511 652.687 1513.69 650 1517 650L1623 650C1626.31 650 1629 652.687 1629 656L1629 656C1629 659.314 1626.31 662 1623 662Z" fill="#70AD47" fill-rule="evenodd"/><path d="M1618 656C1618 652.686 1620.69 650 1624 650L1624 650C1627.31 650 1630 652.686 1630 656L1630 762C1630 765.314 1627.31 768 1624 768L1624 768C1620.69 768 1618 765.314 1618 762Z" fill="#385724" fill-rule="evenodd"/><path d="M1623.5 662C1619.91 662 1617 659.314 1617 656 1617 652.687 1619.91 650 1623.5 650 1627.09 650 1630 652.687 1630 656 1630 659.314 1627.09 662 1623.5 662Z" fill="#C00000" fill-rule="evenodd"/><path d="M1617 427C1617 423.686 1619.69 421 1623 421L1623 421C1626.31 421 1629 423.686 1629 427L1629 533C1629 536.314 1626.31 539 1623 539L1623 539C1619.69 539 1617 536.314 1617 533Z" fill="#7030A0" fill-rule="evenodd"/><path d="M1623 527C1626.31 527 1629 529.686 1629 533L1629 533C1629 536.313 1626.31 539 1623 539L1517 539C1513.69 539 1511 536.313 1511 533L1511 533C1511 529.686 1513.69 527 1517 527Z" fill="#7030A0" fill-rule="evenodd"/><path d="M1617 533C1617 529.686 1619.69 527 1623 527 1626.31 527 1629 529.686 1629 533 1629 536.314 1626.31 539 1623 539 1619.69 539 1617 536.314 1617 533Z" fill="#C00000" fill-rule="evenodd"/><path d="M1504 638C1504 641.314 1501.31 644 1498 644L1498 644C1494.69 644 1492 641.314 1492 638L1492 533C1492 529.686 1494.69 527 1498 527L1498 527C1501.31 527 1504 529.686 1504 533Z" fill="#FFC000" fill-rule="evenodd"/><path d="M1493 532.5C1493 528.91 1495.69 526 1499 526 1502.31 526 1505 528.91 1505 532.5 1505 536.09 1502.31 539 1499 539 1495.69 539 1493 536.09 1493 532.5Z" fill="#C00000" fill-rule="evenodd"/><rect x="1487" y="397" width="148" height="6.99988" fill="#E7E6E6"/><rect x="1487" y="662" width="148" height="5.99982" fill="#E7E6E6"/><rect x="1629" y="398" width="5.99988" height="270" fill="#E7E6E6"/><rect x="1487" y="398" width="5.99988" height="270" fill="#E7E6E6"/><text fill="#E7E6E6" font-family="Bahnschrift Light,Bahnschrift Light_MSFontService,sans-serif" font-weight="300" font-size="23" transform="matrix(1 0 0 1 1406.91 807)">C1P90<tspan font-size="23" x="60.7293" y="0">-</tspan><tspan font-size="23" x="71.6146" y="0">C2P180</tspan><tspan font-size="23" x="145.521" y="0">-</tspan><tspan font-size="23" x="156.406" y="0">C3P90</tspan><tspan font-size="23" x="221.719" y="0">-</tspan><tspan font-size="23" x="232.604" y="0">C4P180</tspan></text><rect x="1053" y="870" width="370" height="494" fill="#181717"/><path d="M1281 988C1284.31 988 1287 990.686 1287 994L1287 994C1287 997.314 1284.31 1000 1281 1000L1176 1000C1172.69 1000 1170 997.314 1170 994L1170 994C1170 990.686 1172.69 988 1176 988Z" fill="#5B9BD5" fill-rule="evenodd"/><path d="M1182 993.5C1182 997.09 1179.09 1000 1175.5 1000L1175.5 1000C1171.91 1000 1169 997.09 1169 993.5L1169 888.5C1169 884.91 1171.91 882 1175.5 882L1175.5 882C1179.09 882 1182 884.91 1182 888.5Z" fill="#2E4E6B" fill-rule="evenodd"/><path d="M1176 1000C1172.69 1000 1170 997.314 1170 994 1170 990.686 1172.69 988 1176 988 1179.31 988 1182 990.686 1182 994 1182 997.314 1179.31 1000 1176 1000Z" fill="#C00000" fill-rule="evenodd"/><path d="M1293 1135.5C1293 1131.91 1295.91 1129 1299.5 1129L1299.5 1129C1303.09 1129 1306 1131.91 1306 1135.5L1306 1240.5C1306 1244.09 1303.09 1247 1299.5 1247L1299.5 1247C1295.91 1247 1293 1244.09 1293 1240.5Z" fill="#70AD47" fill-rule="evenodd"/><path d="M1299 1235C1302.31 1235 1305 1237.69 1305 1241L1305 1241C1305 1244.31 1302.31 1247 1299 1247L1194 1247C1190.69 1247 1188 1244.31 1188 1241L1188 1241C1188 1237.69 1190.69 1235 1194 1235Z" fill="#70AD47" fill-rule="evenodd"/><path d="M1293 1240.5C1293 1236.91 1295.69 1234 1299 1234 1302.31 1234 1305 1236.91 1305 1240.5 1305 1244.09 1302.31 1247 1299 1247 1295.69 1247 1293 1244.09 1293 1240.5Z" fill="#C00000" fill-rule="evenodd"/><path d="M1293 1012.5C1293 1008.91 1295.91 1006 1299.5 1006L1299.5 1006C1303.09 1006 1306 1008.91 1306 1012.5L1306 1117.5C1306 1121.09 1303.09 1124 1299.5 1124L1299.5 1124C1295.91 1124 1293 1121.09 1293 1117.5Z" fill="#7030A0" fill-rule="evenodd"/><path d="M1298.5 1111C1302.09 1111 1305 1113.91 1305 1117.5L1305 1117.5C1305 1121.09 1302.09 1124 1298.5 1124L1194.5 1124C1190.91 1124 1188 1121.09 1188 1117.5L1188 1117.5C1188 1113.91 1190.91 1111 1194.5 1111Z" fill="#7030A0" fill-rule="evenodd"/><path d="M1293 1117.5C1293 1113.91 1295.91 1111 1299.5 1111 1303.09 1111 1306 1113.91 1306 1117.5 1306 1121.09 1303.09 1124 1299.5 1124 1295.91 1124 1293 1121.09 1293 1117.5Z" fill="#C00000" fill-rule="evenodd"/><path d="M1069.5 1124C1065.91 1124 1063 1121.09 1063 1117.5L1063 1117.5C1063 1113.91 1065.91 1111 1069.5 1111L1174.5 1111C1178.09 1111 1181 1113.91 1181 1117.5L1181 1117.5C1181 1121.09 1178.09 1124 1174.5 1124Z" fill="#806000" fill-rule="evenodd"/><path d="M1175.5 1111C1179.09 1111 1182 1113.91 1182 1117.5 1182 1121.09 1179.09 1124 1175.5 1124 1171.91 1124 1169 1121.09 1169 1117.5 1169 1113.91 1171.91 1111 1175.5 1111Z" fill="#C00000" fill-rule="evenodd"/><rect x="1164" y="982" width="148" height="5.99982" fill="#E7E6E6"/><rect x="1164" y="1247" width="148" height="5.99988" fill="#E7E6E6"/><rect x="1305" y="982" width="7.00024" height="271" fill="#E7E6E6"/><rect x="1164" y="982" width="6.00024" height="271" fill="#E7E6E6"/><text fill="#E7E6E6" font-family="Bahnschrift Light,Bahnschrift Light_MSFontService,sans-serif" font-weight="300" font-size="23" transform="matrix(1 0 0 1 1091.95 1392)">C1P90<tspan font-size="23" x="60.7293" y="0">-</tspan><tspan font-size="23" x="71.6146" y="0">C2P90</tspan><tspan font-size="23" x="136.927" y="0">-</tspan><tspan font-size="23" x="147.813" y="0">C3P90</tspan><tspan font-size="23" x="213.125" y="0">-</tspan><tspan font-size="23" x="224.011" y="0">C4P90</tspan></text><rect x="1169" y="1533" width="371" height="494" fill="#181717"/><path d="M1286 1550C1286 1546.69 1288.69 1544 1292 1544L1292 1544C1295.31 1544 1298 1546.69 1298 1550L1298 1656C1298 1659.31 1295.31 1662 1292 1662L1292 1662C1288.69 1662 1286 1659.31 1286 1656Z" fill="#2E4E6B" fill-rule="evenodd"/><path d="M1292 1651C1295.31 1651 1298 1653.69 1298 1657L1298 1657C1298 1660.31 1295.31 1663 1292 1663L1186 1663C1182.69 1663 1180 1660.31 1180 1657L1180 1657C1180 1653.69 1182.69 1651 1186 1651Z" fill="#2E4E6B" fill-rule="evenodd"/><path d="M1298 1656.5C1298 1660.09 1295.31 1663 1292 1663 1288.69 1663 1286 1660.09 1286 1656.5 1286 1652.91 1288.69 1650 1292 1650 1295.31 1650 1298 1652.91 1298 1656.5Z" fill="#C00000" fill-rule="evenodd"/><path d="M1523 1898C1526.31 1898 1529 1900.69 1529 1904L1529 1904C1529 1907.31 1526.31 1910 1523 1910L1417 1910C1413.69 1910 1411 1907.31 1411 1904L1411 1904C1411 1900.69 1413.69 1898 1417 1898Z" fill="#385724" fill-rule="evenodd"/><path d="M1423 1903.5C1423 1907.09 1420.09 1910 1416.5 1910L1416.5 1910C1412.91 1910 1410 1907.09 1410 1903.5L1410 1798.5C1410 1794.91 1412.91 1792 1416.5 1792L1416.5 1792C1420.09 1792 1423 1794.91 1423 1798.5Z" fill="#70AD47" fill-rule="evenodd"/><path d="M1417 1898C1420.31 1898 1423 1900.69 1423 1904 1423 1907.31 1420.31 1910 1417 1910 1413.69 1910 1411 1907.31 1411 1904 1411 1900.69 1413.69 1898 1417 1898Z" fill="#C00000" fill-rule="evenodd"/><path d="M1410 1675.5C1410 1671.91 1412.91 1669 1416.5 1669L1416.5 1669C1420.09 1669 1423 1671.91 1423 1675.5L1423 1779.5C1423 1783.09 1420.09 1786 1416.5 1786L1416.5 1786C1412.91 1786 1410 1783.09 1410 1779.5Z" fill="#7030A0" fill-rule="evenodd"/><path d="M1415.5 1774C1419.09 1774 1422 1776.91 1422 1780.5L1422 1780.5C1422 1784.09 1419.09 1787 1415.5 1787L1311.5 1787C1307.91 1787 1305 1784.09 1305 1780.5L1305 1780.5C1305 1776.91 1307.91 1774 1311.5 1774Z" fill="#7030A0" fill-rule="evenodd"/><path d="M1410 1780C1410 1776.69 1412.91 1774 1416.5 1774 1420.09 1774 1423 1776.69 1423 1780 1423 1783.31 1420.09 1786 1416.5 1786 1412.91 1786 1410 1783.31 1410 1780Z" fill="#C00000" fill-rule="evenodd"/><path d="M1286 1673C1286 1669.69 1288.69 1667 1292 1667L1292 1667C1295.31 1667 1298 1669.69 1298 1673L1298 1779C1298 1782.31 1295.31 1785 1292 1785L1292 1785C1288.69 1785 1286 1782.31 1286 1779Z" fill="#FFC000" fill-rule="evenodd"/><path d="M1298 1780C1298 1783.31 1295.31 1786 1292 1786 1288.69 1786 1286 1783.31 1286 1780 1286 1776.69 1288.69 1774 1292 1774 1295.31 1774 1298 1776.69 1298 1780Z" fill="#C00000" fill-rule="evenodd"/><rect x="1280" y="1645" width="149" height="6.00024" fill="#E7E6E6"/><rect x="1280" y="1909" width="148" height="7.00024" fill="#E7E6E6"/><rect x="1422" y="1645" width="6.99988" height="270" fill="#E7E6E6"/><rect x="1280" y="1645" width="6.99988" height="270" fill="#E7E6E6"/><text fill="#E7E6E6" font-family="Bahnschrift Light,Bahnschrift Light_MSFontService,sans-serif" font-weight="300" font-size="23" transform="matrix(1 0 0 1 1216.93 2055)">C1P180<tspan font-size="23" x="69.323" y="0">-</tspan><tspan font-size="23" x="80.2084" y="0">C2P0</tspan><tspan font-size="23" x="133.49" y="0">-</tspan><tspan font-size="23" x="144.375" y="0">C3P90</tspan><tspan font-size="23" x="209.688" y="0">-</tspan><tspan font-size="23" x="220.573" y="0">C4P0</tspan></text><rect x="2339" y="1949" width="370" height="494" fill="#181717"/><path d="M2468 2177.5C2468 2181.09 2465.09 2184 2461.5 2184L2461.5 2184C2457.91 2184 2455 2181.09 2455 2177.5L2455 2072.5C2455 2068.91 2457.91 2066 2461.5 2066L2461.5 2066C2465.09 2066 2468 2068.91 2468 2072.5Z" fill="#5B9BD5" fill-rule="evenodd"/><path d="M2462.5 2078C2458.91 2078 2456 2075.09 2456 2071.5L2456 2071.5C2456 2067.91 2458.91 2065 2462.5 2065L2566.5 2065C2570.09 2065 2573 2067.91 2573 2071.5L2573 2071.5C2573 2075.09 2570.09 2078 2566.5 2078Z" fill="#5B9BD5" fill-rule="evenodd"/><path d="M2455 2072C2455 2068.69 2457.91 2066 2461.5 2066 2465.09 2066 2468 2068.69 2468 2072 2468 2075.31 2465.09 2078 2461.5 2078 2457.91 2078 2455 2075.31 2455 2072Z" fill="#C00000" fill-rule="evenodd"/><path d="M2479 2326C2475.69 2326 2473 2323.31 2473 2320L2473 2320C2473 2316.69 2475.69 2314 2479 2314L2585 2314C2588.31 2314 2591 2316.69 2591 2320L2591 2320C2591 2323.31 2588.31 2326 2585 2326Z" fill="#70AD47" fill-rule="evenodd"/><path d="M2580 2320C2580 2316.69 2582.69 2314 2586 2314L2586 2314C2589.31 2314 2592 2316.69 2592 2320L2592 2426C2592 2429.31 2589.31 2432 2586 2432L2586 2432C2582.69 2432 2580 2429.31 2580 2426Z" fill="#385724" fill-rule="evenodd"/><path d="M2585 2327C2581.69 2327 2579 2324.09 2579 2320.5 2579 2316.91 2581.69 2314 2585 2314 2588.31 2314 2591 2316.91 2591 2320.5 2591 2324.09 2588.31 2327 2585 2327Z" fill="#C00000" fill-rule="evenodd"/><path d="M2479.5 2203C2475.91 2203 2473 2200.09 2473 2196.5L2473 2196.5C2473 2192.91 2475.91 2190 2479.5 2190L2584.5 2190C2588.09 2190 2591 2192.91 2591 2196.5L2591 2196.5C2591 2200.09 2588.09 2203 2584.5 2203Z" fill="#7030A0" fill-rule="evenodd"/><path d="M2580 2197C2580 2193.69 2582.69 2191 2586 2191L2586 2191C2589.31 2191 2592 2193.69 2592 2197L2592 2302C2592 2305.31 2589.31 2308 2586 2308L2586 2308C2582.69 2308 2580 2305.31 2580 2302Z" fill="#7030A0" fill-rule="evenodd"/><path d="M2586 2203C2582.69 2203 2580 2200.09 2580 2196.5 2580 2192.91 2582.69 2190 2586 2190 2589.31 2190 2592 2192.91 2592 2196.5 2592 2200.09 2589.31 2203 2586 2203Z" fill="#C00000" fill-rule="evenodd"/><path d="M2468 2301C2468 2304.31 2465.31 2307 2462 2307L2462 2307C2458.69 2307 2456 2304.31 2456 2301L2456 2196C2456 2192.69 2458.69 2190 2462 2190L2462 2190C2465.31 2190 2468 2192.69 2468 2196Z" fill="#FFC000" fill-rule="evenodd"/><path d="M2456 2195C2456 2191.69 2458.69 2189 2462 2189 2465.31 2189 2468 2191.69 2468 2195 2468 2198.31 2465.31 2201 2462 2201 2458.69 2201 2456 2198.31 2456 2195Z" fill="#C00000" fill-rule="evenodd"/><rect x="2450" y="2060" width="148" height="6.99976" fill="#E7E6E6"/><rect x="2450" y="2325" width="148" height="5.99976" fill="#E7E6E6"/><rect x="2592" y="2061" width="6.00024" height="270" fill="#E7E6E6"/><rect x="2450" y="2061" width="6.00024" height="270" fill="#E7E6E6"/><text fill="#E7E6E6" font-family="Bahnschrift Light,Bahnschrift Light_MSFontService,sans-serif" font-weight="300" font-size="23" transform="matrix(1 0 0 1 2371.61 2471)">C1P0<tspan font-size="23" x="48.698" y="0">-</tspan><tspan font-size="23" x="59.5833" y="0">C2P180</tspan><tspan font-size="23" x="133.49" y="0">-</tspan><tspan font-size="23" x="144.375" y="0">C3P180</tspan><tspan font-size="23" x="218.281" y="0">-</tspan><tspan font-size="23" x="229.167" y="0">C4P180</tspan></text><rect x="2858" y="1533" width="371" height="494" fill="#181717"/><path d="M3087 1651C3090.31 1651 3093 1653.69 3093 1657L3093 1657C3093 1660.31 3090.31 1663 3087 1663L2981 1663C2977.69 1663 2975 1660.31 2975 1657L2975 1657C2975 1653.69 2977.69 1651 2981 1651Z" fill="#5B9BD5" fill-rule="evenodd"/><path d="M2987 1657C2987 1660.31 2984.31 1663 2981 1663L2981 1663C2977.69 1663 2975 1660.31 2975 1657L2975 1551C2975 1547.69 2977.69 1545 2981 1545L2981 1545C2984.31 1545 2987 1547.69 2987 1551Z" fill="#2E4E6B" fill-rule="evenodd"/><path d="M2981 1663C2977.69 1663 2975 1660.31 2975 1657 2975 1653.69 2977.69 1651 2981 1651 2984.31 1651 2987 1653.69 2987 1657 2987 1660.31 2984.31 1663 2981 1663Z" fill="#C00000" fill-rule="evenodd"/><path d="M3211 1898C3214.31 1898 3217 1900.69 3217 1904L3217 1904C3217 1907.31 3214.31 1910 3211 1910L3106 1910C3102.69 1910 3100 1907.31 3100 1904L3100 1904C3100 1900.69 3102.69 1898 3106 1898Z" fill="#385724" fill-rule="evenodd"/><path d="M3111 1903.5C3111 1907.09 3108.09 1910 3104.5 1910L3104.5 1910C3100.91 1910 3098 1907.09 3098 1903.5L3098 1798.5C3098 1794.91 3100.91 1792 3104.5 1792L3104.5 1792C3108.09 1792 3111 1794.91 3111 1798.5Z" fill="#70AD47" fill-rule="evenodd"/><path d="M3105 1898C3108.31 1898 3111 1900.69 3111 1904 3111 1907.31 3108.31 1910 3105 1910 3101.69 1910 3099 1907.31 3099 1904 3099 1900.69 3101.69 1898 3105 1898Z" fill="#C00000" fill-rule="evenodd"/><path d="M3211 1774C3214.31 1774 3217 1776.69 3217 1780L3217 1780C3217 1783.31 3214.31 1786 3211 1786L3106 1786C3102.69 1786 3100 1783.31 3100 1780L3100 1780C3100 1776.69 3102.69 1774 3106 1774Z" fill="#381850" fill-rule="evenodd"/><path d="M3111 1780C3111 1783.31 3108.31 1786 3105 1786L3105 1786C3101.69 1786 3099 1783.31 3099 1780L3099 1674C3099 1670.69 3101.69 1668 3105 1668L3105 1668C3108.31 1668 3111 1670.69 3111 1674Z" fill="#7030A0" fill-rule="evenodd"/><path d="M3105 1774C3108.31 1774 3111 1776.69 3111 1780 3111 1783.31 3108.31 1786 3105 1786 3101.69 1786 3099 1783.31 3099 1780 3099 1776.69 3101.69 1774 3105 1774Z" fill="#C00000" fill-rule="evenodd"/><path d="M2874 1785C2870.69 1785 2868 1782.31 2868 1779L2868 1779C2868 1775.69 2870.69 1773 2874 1773L2980 1773C2983.31 1773 2986 1775.69 2986 1779L2986 1779C2986 1782.31 2983.31 1785 2980 1785Z" fill="#806000" fill-rule="evenodd"/><path d="M2981 1773C2984.31 1773 2987 1775.69 2987 1779 2987 1782.31 2984.31 1785 2981 1785 2977.69 1785 2975 1782.31 2975 1779 2975 1775.69 2977.69 1773 2981 1773Z" fill="#C00000" fill-rule="evenodd"/><rect x="2969" y="1645" width="148" height="6.00024" fill="#E7E6E6"/><rect x="2969" y="1909" width="148" height="7.00024" fill="#E7E6E6"/><rect x="3111" y="1645" width="6.00024" height="270" fill="#E7E6E6"/><rect x="2969" y="1645" width="6.99976" height="270" fill="#E7E6E6"/><text fill="#E7E6E6" font-family="Bahnschrift Light,Bahnschrift Light_MSFontService,sans-serif" font-weight="300" font-size="23" transform="matrix(1 0 0 1 2910.2 2055)">C1P90<tspan font-size="23" x="60.729" y="0">-</tspan><tspan font-size="23" x="71.6145" y="0">C2P90</tspan><tspan font-size="23" x="136.927" y="0">-</tspan><tspan font-size="23" x="147.813" y="0">C3P0</tspan><tspan font-size="23" x="201.094" y="0">-</tspan><tspan font-size="23" x="211.979" y="0">C4P0</tspan></text><rect x="2975" y="870" width="370" height="494" fill="#181717"/><path d="M3104 1100C3104 1103.31 3101.31 1106 3098 1106L3098 1106C3094.69 1106 3092 1103.31 3092 1100L3092 994C3092 990.686 3094.69 988 3098 988L3098 988C3101.31 988 3104 990.686 3104 994Z" fill="#5B9BD5" fill-rule="evenodd"/><path d="M3098 1000C3094.69 1000 3092 997.314 3092 994L3092 994C3092 990.686 3094.69 988 3098 988L3204 988C3207.31 988 3210 990.687 3210 994L3210 994C3210 997.314 3207.31 1000 3204 1000Z" fill="#5B9BD5" fill-rule="evenodd"/><path d="M3092 994.5C3092 990.91 3094.69 988 3098 988 3101.31 988 3104 990.91 3104 994.5 3104 998.09 3101.31 1001 3098 1001 3094.69 1001 3092 998.09 3092 994.5Z" fill="#C00000" fill-rule="evenodd"/><path d="M3217 1137C3217 1133.69 3219.69 1131 3223 1131L3223 1131C3226.31 1131 3229 1133.69 3229 1137L3229 1243C3229 1246.31 3226.31 1249 3223 1249L3223 1249C3219.69 1249 3217 1246.31 3217 1243Z" fill="#70AD47" fill-rule="evenodd"/><path d="M3222.5 1236C3226.09 1236 3229 1238.91 3229 1242.5L3229 1242.5C3229 1246.09 3226.09 1249 3222.5 1249L3117.5 1249C3113.91 1249 3111 1246.09 3111 1242.5L3111 1242.5C3111 1238.91 3113.91 1236 3117.5 1236Z" fill="#70AD47" fill-rule="evenodd"/><path d="M3216 1242C3216 1238.69 3218.91 1236 3222.5 1236 3226.09 1236 3229 1238.69 3229 1242 3229 1245.31 3226.09 1248 3222.5 1248 3218.91 1248 3216 1245.31 3216 1242Z" fill="#C00000" fill-rule="evenodd"/><path d="M3217 1011C3217 1007.69 3219.69 1005 3223 1005L3223 1005C3226.31 1005 3229 1007.69 3229 1011L3229 1116C3229 1119.31 3226.31 1122 3223 1122L3223 1122C3219.69 1122 3217 1119.31 3217 1116Z" fill="#7030A0" fill-rule="evenodd"/><path d="M3222.5 1110C3226.09 1110 3229 1112.91 3229 1116.5L3229 1116.5C3229 1120.09 3226.09 1123 3222.5 1123L3117.5 1123C3113.91 1123 3111 1120.09 3111 1116.5L3111 1116.5C3111 1112.91 3113.91 1110 3117.5 1110Z" fill="#7030A0" fill-rule="evenodd"/><path d="M3217 1116.5C3217 1112.91 3219.69 1110 3223 1110 3226.31 1110 3229 1112.91 3229 1116.5 3229 1120.09 3226.31 1123 3223 1123 3219.69 1123 3217 1120.09 3217 1116.5Z" fill="#C00000" fill-rule="evenodd"/><path d="M3104 1222.5C3104 1226.09 3101.09 1229 3097.5 1229L3097.5 1229C3093.91 1229 3091 1226.09 3091 1222.5L3091 1117.5C3091 1113.91 3093.91 1111 3097.5 1111L3097.5 1111C3101.09 1111 3104 1113.91 3104 1117.5Z" fill="#FFC000" fill-rule="evenodd"/><path d="M3092 1117C3092 1113.69 3094.69 1111 3098 1111 3101.31 1111 3104 1113.69 3104 1117 3104 1120.31 3101.31 1123 3098 1123 3094.69 1123 3092 1120.31 3092 1117Z" fill="#C00000" fill-rule="evenodd"/><rect x="3086" y="982" width="148" height="5.99982" fill="#E7E6E6"/><rect x="3086" y="1247" width="148" height="5.99988" fill="#E7E6E6"/><rect x="3228" y="982" width="5.99976" height="271" fill="#E7E6E6"/><rect x="3086" y="982" width="6.00024" height="271" fill="#E7E6E6"/><text fill="#E7E6E6" font-family="Bahnschrift Light,Bahnschrift Light_MSFontService,sans-serif" font-weight="300" font-size="23" transform="matrix(1 0 0 1 3016.82 1392)">C1P0<tspan font-size="23" x="48.698" y="0">-</tspan><tspan font-size="23" x="59.5835" y="0">C2P180</tspan><tspan font-size="23" x="133.49" y="0">-</tspan><tspan font-size="23" x="144.375" y="0">C3P90</tspan><tspan font-size="23" x="209.688" y="0">-</tspan><tspan font-size="23" x="220.573" y="0">C4P90</tspan></text><rect x="2650" y="286" width="371" height="494" fill="#181717"/><path d="M2779 515C2779 518.314 2776.31 521 2773 521L2773 521C2769.69 521 2767 518.314 2767 515L2767 410C2767 406.686 2769.69 404 2773 404L2773 404C2776.31 404 2779 406.686 2779 410Z" fill="#5B9BD5" fill-rule="evenodd"/><path d="M2773 415C2769.69 415 2767 412.314 2767 409L2767 409C2767 405.686 2769.69 403 2773 403L2879 403C2882.31 403 2885 405.687 2885 409L2885 409C2885 412.314 2882.31 415 2879 415Z" fill="#5B9BD5" fill-rule="evenodd"/><path d="M2767 410C2767 406.686 2769.69 404 2773 404 2776.31 404 2779 406.686 2779 410 2779 413.314 2776.31 416 2773 416 2769.69 416 2767 413.314 2767 410Z" fill="#C00000" fill-rule="evenodd"/><path d="M2892 552C2892 548.686 2894.69 546 2898 546L2898 546C2901.31 546 2904 548.686 2904 552L2904 658C2904 661.314 2901.31 664 2898 664L2898 664C2894.69 664 2892 661.314 2892 658Z" fill="#70AD47" fill-rule="evenodd"/><path d="M2898 652C2901.31 652 2904 654.686 2904 658L2904 658C2904 661.314 2901.31 664 2898 664L2792 664C2788.69 664 2786 661.314 2786 658L2786 658C2786 654.686 2788.69 652 2792 652Z" fill="#70AD47" fill-rule="evenodd"/><path d="M2891 657C2891 653.686 2893.91 651 2897.5 651 2901.09 651 2904 653.686 2904 657 2904 660.314 2901.09 663 2897.5 663 2893.91 663 2891 660.314 2891 657Z" fill="#C00000" fill-rule="evenodd"/><path d="M2892 429C2892 425.686 2894.69 423 2898 423L2898 423C2901.31 423 2904 425.686 2904 429L2904 535C2904 538.314 2901.31 541 2898 541L2898 541C2894.69 541 2892 538.314 2892 535Z" fill="#7030A0" fill-rule="evenodd"/><path d="M2898 528C2901.31 528 2904 530.686 2904 534L2904 534C2904 537.314 2901.31 540 2898 540L2792 540C2788.69 540 2786 537.313 2786 534L2786 534C2786 530.686 2788.69 528 2792 528Z" fill="#7030A0" fill-rule="evenodd"/><path d="M2892 534C2892 530.686 2894.69 528 2898 528 2901.31 528 2904 530.686 2904 534 2904 537.314 2901.31 540 2898 540 2894.69 540 2892 537.314 2892 534Z" fill="#C00000" fill-rule="evenodd"/><path d="M2667 540C2663.69 540 2661 537.314 2661 534L2661 534C2661 530.687 2663.69 528 2667 528L2773 528C2776.31 528 2779 530.687 2779 534L2779 534C2779 537.314 2776.31 540 2773 540Z" fill="#806000" fill-rule="evenodd"/><path d="M2773.5 528C2777.09 528 2780 530.686 2780 534 2780 537.314 2777.09 540 2773.5 540 2769.91 540 2767 537.314 2767 534 2767 530.686 2769.91 528 2773.5 528Z" fill="#C00000" fill-rule="evenodd"/><rect x="2762" y="397" width="148" height="6.99988" fill="#E7E6E6"/><rect x="2761" y="662" width="149" height="5.99982" fill="#E7E6E6"/><rect x="2903" y="398" width="6.99976" height="270" fill="#E7E6E6"/><rect x="2762" y="398" width="5.99976" height="270" fill="#E7E6E6"/><text fill="#E7E6E6" font-family="Bahnschrift Light,Bahnschrift Light_MSFontService,sans-serif" font-weight="300" font-size="23" transform="matrix(1 0 0 1 2696.52 808)">C1P0<tspan font-size="23" x="48.698" y="0">-</tspan><tspan font-size="23" x="59.5833" y="0">C2P90</tspan><tspan font-size="23" x="124.896" y="0">-</tspan><tspan font-size="23" x="135.781" y="0">C3P90</tspan><tspan font-size="23" x="201.094" y="0">-</tspan><tspan font-size="23" x="211.979" y="0">C4P90</tspan></text><rect x="1689" y="1949" width="370" height="494" fill="#181717"/><path d="M1917.5 2065C1921.09 2065 1924 2067.91 1924 2071.5L1924 2071.5C1924 2075.09 1921.09 2078 1917.5 2078L1813.5 2078C1809.91 2078 1807 2075.09 1807 2071.5L1807 2071.5C1807 2067.91 1809.91 2065 1813.5 2065Z" fill="#5B9BD5" fill-rule="evenodd"/><path d="M1818 2070.5C1818 2074.09 1815.09 2077 1811.5 2077L1811.5 2077C1807.91 2077 1805 2074.09 1805 2070.5L1805 1966.5C1805 1962.91 1807.91 1960 1811.5 1960L1811.5 1960C1815.09 1960 1818 1962.91 1818 1966.5Z" fill="#2E4E6B" fill-rule="evenodd"/><path d="M1812 2078C1808.69 2078 1806 2075.09 1806 2071.5 1806 2067.91 1808.69 2065 1812 2065 1815.31 2065 1818 2067.91 1818 2071.5 1818 2075.09 1815.31 2078 1812 2078Z" fill="#C00000" fill-rule="evenodd"/><path d="M1831 2326C1827.69 2326 1825 2323.31 1825 2320L1825 2320C1825 2316.69 1827.69 2314 1831 2314L1936 2314C1939.31 2314 1942 2316.69 1942 2320L1942 2320C1942 2323.31 1939.31 2326 1936 2326Z" fill="#70AD47" fill-rule="evenodd"/><path d="M1930 2320C1930 2316.69 1932.69 2314 1936 2314L1936 2314C1939.31 2314 1942 2316.69 1942 2320L1942 2426C1942 2429.31 1939.31 2432 1936 2432L1936 2432C1932.69 2432 1930 2429.31 1930 2426Z" fill="#385724" fill-rule="evenodd"/><path d="M1935.5 2327C1931.91 2327 1929 2324.09 1929 2320.5 1929 2316.91 1931.91 2314 1935.5 2314 1939.09 2314 1942 2316.91 1942 2320.5 1942 2324.09 1939.09 2327 1935.5 2327Z" fill="#C00000" fill-rule="evenodd"/><path d="M1831.5 2202C1827.91 2202 1825 2199.09 1825 2195.5L1825 2195.5C1825 2191.91 1827.91 2189 1831.5 2189L1935.5 2189C1939.09 2189 1942 2191.91 1942 2195.5L1942 2195.5C1942 2199.09 1939.09 2202 1935.5 2202Z" fill="#7030A0" fill-rule="evenodd"/><path d="M1930 2196C1930 2192.69 1932.69 2190 1936 2190L1936 2190C1939.31 2190 1942 2192.69 1942 2196L1942 2301C1942 2304.31 1939.31 2307 1936 2307L1936 2307C1932.69 2307 1930 2304.31 1930 2301Z" fill="#7030A0" fill-rule="evenodd"/><path d="M1936 2202C1932.69 2202 1930 2199.09 1930 2195.5 1930 2191.91 1932.69 2189 1936 2189 1939.31 2189 1942 2191.91 1942 2195.5 1942 2199.09 1939.31 2202 1936 2202Z" fill="#C00000" fill-rule="evenodd"/><path d="M1806 2089C1806 2085.69 1808.69 2083 1812 2083L1812 2083C1815.31 2083 1818 2085.69 1818 2089L1818 2195C1818 2198.31 1815.31 2201 1812 2201L1812 2201C1808.69 2201 1806 2198.31 1806 2195Z" fill="#FFC000" fill-rule="evenodd"/><path d="M1818 2195.5C1818 2199.09 1815.31 2202 1812 2202 1808.69 2202 1806 2199.09 1806 2195.5 1806 2191.91 1808.69 2189 1812 2189 1815.31 2189 1818 2191.91 1818 2195.5Z" fill="#C00000" fill-rule="evenodd"/><rect x="1800" y="2060" width="148" height="6.99976" fill="#E7E6E6"/><rect x="1800" y="2325" width="148" height="5.99976" fill="#E7E6E6"/><rect x="1942" y="2061" width="6.00024" height="270" fill="#E7E6E6"/><rect x="1800" y="2061" width="6.00024" height="270" fill="#E7E6E6"/><text fill="#E7E6E6" font-family="Bahnschrift Light,Bahnschrift Light_MSFontService,sans-serif" font-weight="300" font-size="23" transform="matrix(1 0 0 1 1726.3 2471)">C1P90<tspan font-size="23" x="60.7291" y="0">-</tspan><tspan font-size="23" x="71.6146" y="0">C2P0</tspan><tspan font-size="23" x="124.896" y="0">-</tspan><tspan font-size="23" x="135.781" y="0">C3P180</tspan><tspan font-size="23" x="209.688" y="0">-</tspan><tspan font-size="23" x="220.573" y="0">C4P180</tspan></text></g></svg>