<svg width="1998" height="858" xmlns="http://www.w3.org/2000/svg" xmlns:xlink="http://www.w3.org/1999/xlink" overflow="hidden"><defs><clipPath id="clip0"><rect x="648" y="164" width="1998" height="858"/></clipPath></defs><g clip-path="url(#clip0)" transform="translate(-648 -164)"><path d="M2198.5 499.5C2132.23 499.5 2078.5 445.998 2078.5 380 2078.5 314.002 2132.23 260.5 2198.5 260.5 2264.77 260.5 2318.5 314.002 2318.5 380 2318.5 445.998 2264.77 499.5 2198.5 499.5Z" stroke="#381850" stroke-width="4.58333" stroke-miterlimit="8" fill="none" fill-rule="evenodd"/><path d="M2311.5 374C2315.09 374 2318 376.91 2318 380.5L2318 380.5C2318 384.09 2315.09 387 2311.5 387L2198.5 387C2194.91 387 2192 384.09 2192 380.5L2192 380.5C2192 376.91 2194.91 374 2198.5 374Z" fill="#7030A0" fill-rule="evenodd"/><path d="M2204 381C2204 384.314 2201.31 387 2198 387L2198 387C2194.69 387 2192 384.314 2192 381L2192 267C2192 263.686 2194.69 261 2198 261L2198 261C2201.31 261 2204 263.686 2204 267Z" fill="#7030A0" fill-rule="evenodd"/><path d="M2191 380.5C2191 376.91 2193.91 374 2197.5 374 2201.09 374 2204 376.91 2204 380.5 2204 384.09 2201.09 387 2197.5 387 2193.91 387 2191 384.09 2191 380.5Z" fill="#C00000" fill-rule="evenodd"/><path d="M1993.5 380C1993.5 445.998 1940 499.5 1874 499.5 1808 499.5 1754.5 445.998 1754.5 380 1754.5 314.002 1808 260.5 1874 260.5 1940 260.5 1993.5 314.002 1993.5 380Z" stroke="#806000" stroke-width="4.58333" stroke-miterlimit="8" fill="none" fill-rule="evenodd"/><path d="M1868 266.5C1868 262.91 1870.91 260 1874.5 260L1874.5 260C1878.09 260 1881 262.91 1881 266.5L1881 379.5C1881 383.09 1878.09 386 1874.5 386L1874.5 386C1870.91 386 1868 383.09 1868 379.5Z" fill="#FFC000" fill-rule="evenodd"/><path d="M1881 381C1881 384.314 1878.09 387 1874.5 387 1870.91 387 1868 384.314 1868 381 1868 377.686 1870.91 375 1874.5 375 1878.09 375 1881 377.686 1881 381Z" fill="#C00000" fill-rule="evenodd"/><path d="M1429.5 380C1429.5 314.002 1483 260.5 1549 260.5 1615 260.5 1668.5 314.002 1668.5 380 1668.5 445.998 1615 499.5 1549 499.5 1483 499.5 1429.5 445.998 1429.5 380Z" stroke="#2E4E6B" stroke-width="4.58333" stroke-miterlimit="8" fill="none" fill-rule="evenodd"/><path d="M1555 492.5C1555 496.09 1552.09 499 1548.5 499L1548.5 499C1544.91 499 1542 496.09 1542 492.5L1542 379.5C1542 375.91 1544.91 373 1548.5 373L1548.5 373C1552.09 373 1555 375.91 1555 379.5Z" fill="#5B9BD5" fill-rule="evenodd"/><path d="M1548 385C1544.69 385 1542 382.314 1542 379L1542 379C1542 375.686 1544.69 373 1548 373L1662 373C1665.31 373 1668 375.686 1668 379L1668 379C1668 382.314 1665.31 385 1662 385Z" fill="#5B9BD5" fill-rule="evenodd"/><path d="M1555 379C1555 382.314 1552.09 385 1548.5 385 1544.91 385 1542 382.314 1542 379 1542 375.686 1544.91 373 1548.5 373 1552.09 373 1555 375.686 1555 379Z" fill="#C00000" fill-rule="evenodd"/><path d="M2524 499.5C2458 499.5 2404.5 445.998 2404.5 380 2404.5 314.002 2458 260.5 2524 260.5 2590 260.5 2643.5 314.002 2643.5 380 2643.5 445.998 2590 499.5 2524 499.5Z" stroke="#385724" stroke-width="4.58333" stroke-miterlimit="8" fill="none" fill-rule="evenodd"/><path d="M2635.5 374C2639.09 374 2642 376.91 2642 380.5L2642 380.5C2642 384.09 2639.09 387 2635.5 387L2522.5 387C2518.91 387 2516 384.09 2516 380.5L2516 380.5C2516 376.91 2518.91 374 2522.5 374Z" fill="#70AD47" fill-rule="evenodd"/><path d="M2528 381C2528 384.314 2525.31 387 2522 387L2522 387C2518.69 387 2516 384.314 2516 381L2516 267C2516 263.686 2518.69 261 2522 261L2522 261C2525.31 261 2528 263.686 2528 267Z" fill="#70AD47" fill-rule="evenodd"/><path d="M2522.5 374C2526.09 374 2529 376.91 2529 380.5 2529 384.09 2526.09 387 2522.5 387 2518.91 387 2516 384.09 2516 380.5 2516 376.91 2518.91 374 2522.5 374Z" fill="#C00000" fill-rule="evenodd"/><text fill="#E7E6E6" font-family="Bahnschrift Light,Bahnschrift Light_MSFontService,sans-serif" font-weight="300" font-size="55" transform="matrix(1 0 0 1 1337.99 401)">P0</text><path d="M2643.5 640C2643.5 705.998 2590 759.5 2524 759.5 2458 759.5 2404.5 705.998 2404.5 640 2404.5 574.002 2458 520.5 2524 520.5 2590 520.5 2643.5 574.002 2643.5 640Z" stroke="#385724" stroke-width="4.58333" stroke-miterlimit="8" fill="none" fill-rule="evenodd"/><path d="M2518 526.5C2518 522.91 2520.91 520 2524.5 520L2524.5 520C2528.09 520 2531 522.91 2531 526.5L2531 639.5C2531 643.09 2528.09 646 2524.5 646L2524.5 646C2520.91 646 2518 643.09 2518 639.5Z" fill="#70AD47" fill-rule="evenodd"/><path d="M2523.5 634C2527.09 634 2530 636.91 2530 640.5L2530 640.5C2530 644.09 2527.09 647 2523.5 647L2410.5 647C2406.91 647 2404 644.09 2404 640.5L2404 640.5C2404 636.91 2406.91 634 2410.5 634Z" fill="#70AD47" fill-rule="evenodd"/><path d="M2518 640.5C2518 636.91 2520.69 634 2524 634 2527.31 634 2530 636.91 2530 640.5 2530 644.09 2527.31 647 2524 647 2520.69 647 2518 644.09 2518 640.5Z" fill="#C00000" fill-rule="evenodd"/><path d="M1549 759.5C1483 759.5 1429.5 705.998 1429.5 640 1429.5 574.002 1483 520.5 1549 520.5 1615 520.5 1668.5 574.002 1668.5 640 1668.5 705.998 1615 759.5 1549 759.5Z" stroke="#2E4E6B" stroke-width="4.58333" stroke-miterlimit="8" fill="none" fill-rule="evenodd"/><path d="M1662 634C1665.31 634 1668 636.686 1668 640L1668 640C1668 643.314 1665.31 646 1662 646L1548 646C1544.69 646 1542 643.314 1542 640L1542 640C1542 636.686 1544.69 634 1548 634Z" fill="#5B9BD5" fill-rule="evenodd"/><path d="M1555 639.5C1555 643.09 1552.09 646 1548.5 646L1548.5 646C1544.91 646 1542 643.09 1542 639.5L1542 526.5C1542 522.91 1544.91 520 1548.5 520L1548.5 520C1552.09 520 1555 522.91 1555 526.5Z" fill="#5B9BD5" fill-rule="evenodd"/><path d="M1548.5 633C1552.09 633 1555 635.91 1555 639.5 1555 643.09 1552.09 646 1548.5 646 1544.91 646 1542 643.09 1542 639.5 1542 635.91 1544.91 633 1548.5 633Z" fill="#C00000" fill-rule="evenodd"/><path d="M1874 520.5C1940 520.5 1993.5 574.002 1993.5 640 1993.5 705.998 1940 759.5 1874 759.5 1808 759.5 1754.5 705.998 1754.5 640 1754.5 574.002 1808 520.5 1874 520.5Z" stroke="#806000" stroke-width="4.58333" stroke-miterlimit="8" fill="none" fill-rule="evenodd"/><path d="M1761.5 645C1757.91 645 1755 642.09 1755 638.5L1755 638.5C1755 634.91 1757.91 632 1761.5 632L1874.5 632C1878.09 632 1881 634.91 1881 638.5L1881 638.5C1881 642.09 1878.09 645 1874.5 645Z" fill="#FFC000" fill-rule="evenodd"/><path d="M1875.5 632C1879.09 632 1882 634.91 1882 638.5 1882 642.09 1879.09 645 1875.5 645 1871.91 645 1869 642.09 1869 638.5 1869 634.91 1871.91 632 1875.5 632Z" fill="#C00000" fill-rule="evenodd"/><path d="M2318.5 640C2318.5 705.998 2265 759.5 2199 759.5 2133 759.5 2079.5 705.998 2079.5 640 2079.5 574.002 2133 520.5 2199 520.5 2265 520.5 2318.5 574.002 2318.5 640Z" stroke="#381850" stroke-width="4.58333" stroke-miterlimit="8" fill="none" fill-rule="evenodd"/><path d="M2193 526.5C2193 522.91 2195.91 520 2199.5 520L2199.5 520C2203.09 520 2206 522.91 2206 526.5L2206 638.5C2206 642.09 2203.09 645 2199.5 645L2199.5 645C2195.91 645 2193 642.09 2193 638.5Z" fill="#7030A0" fill-rule="evenodd"/><path d="M2199.5 633C2203.09 633 2206 635.91 2206 639.5L2206 639.5C2206 643.09 2203.09 646 2199.5 646L2086.5 646C2082.91 646 2080 643.09 2080 639.5L2080 639.5C2080 635.91 2082.91 633 2086.5 633Z" fill="#7030A0" fill-rule="evenodd"/><path d="M2198.5 633C2202.09 633 2205 635.91 2205 639.5 2205 643.09 2202.09 646 2198.5 646 2194.91 646 2192 643.09 2192 639.5 2192 635.91 2194.91 633 2198.5 633Z" fill="#C00000" fill-rule="evenodd"/><text fill="#E7E6E6" font-family="Bahnschrift Light,Bahnschrift Light_MSFontService,sans-serif" font-weight="300" font-size="55" transform="matrix(1 0 0 1 1309.91 661)">P90<tspan font-size="55" x="212.681" y="-425">C1</tspan><tspan font-size="55" x="532.327" y="-425">C2</tspan><tspan font-size="55" x="856.844" y="-425">C3</tspan><tspan font-size="55" x="1180.5" y="-425">C4</tspan></text><path d="M2199 780.5C2265 780.5 2318.5 834.002 2318.5 900 2318.5 965.998 2265 1019.5 2199 1019.5 2133 1019.5 2079.5 965.998 2079.5 900 2079.5 834.002 2133 780.5 2199 780.5Z" stroke="#381850" stroke-width="4.58333" stroke-miterlimit="8" fill="none" fill-rule="evenodd"/><path d="M2085 904C2081.69 904 2079 901.314 2079 898L2079 898C2079 894.686 2081.69 892 2085 892L2199 892C2202.31 892 2205 894.686 2205 898L2205 898C2205 901.314 2202.31 904 2199 904Z" fill="#7030A0" fill-rule="evenodd"/><path d="M2193 898C2193 894.686 2195.69 892 2199 892L2199 892C2202.31 892 2205 894.686 2205 898L2205 1012C2205 1015.31 2202.31 1018 2199 1018L2199 1018C2195.69 1018 2193 1015.31 2193 1012Z" fill="#7030A0" fill-rule="evenodd"/><path d="M2192 899C2192 895.686 2194.91 893 2198.5 893 2202.09 893 2205 895.686 2205 899 2205 902.314 2202.09 905 2198.5 905 2194.91 905 2192 902.314 2192 899Z" fill="#C00000" fill-rule="evenodd"/><path d="M1754.5 900C1754.5 834.002 1808 780.5 1874 780.5 1940 780.5 1993.5 834.002 1993.5 900 1993.5 965.998 1940 1019.5 1874 1019.5 1808 1019.5 1754.5 965.998 1754.5 900Z" stroke="#806000" stroke-width="4.58333" stroke-miterlimit="8" fill="none" fill-rule="evenodd"/><path d="M1879 1011.5C1879 1015.09 1876.09 1018 1872.5 1018L1872.5 1018C1868.91 1018 1866 1015.09 1866 1011.5L1866 898.5C1866 894.91 1868.91 892 1872.5 892L1872.5 892C1876.09 892 1879 894.91 1879 898.5Z" fill="#FFC000" fill-rule="evenodd"/><path d="M1866 897.5C1866 893.91 1868.91 891 1872.5 891 1876.09 891 1879 893.91 1879 897.5 1879 901.09 1876.09 904 1872.5 904 1868.91 904 1866 901.09 1866 897.5Z" fill="#C00000" fill-rule="evenodd"/><path d="M1668.5 900C1668.5 965.998 1615 1019.5 1549 1019.5 1483 1019.5 1429.5 965.998 1429.5 900 1429.5 834.002 1483 780.5 1549 780.5 1615 780.5 1668.5 834.002 1668.5 900Z" stroke="#2E4E6B" stroke-width="4.58333" stroke-miterlimit="8" fill="none" fill-rule="evenodd"/><path d="M1543 786.5C1543 782.91 1545.91 780 1549.5 780L1549.5 780C1553.09 780 1556 782.91 1556 786.5L1556 899.5C1556 903.09 1553.09 906 1549.5 906L1549.5 906C1545.91 906 1543 903.09 1543 899.5Z" fill="#5B9BD5" fill-rule="evenodd"/><path d="M1548.5 893C1552.09 893 1555 895.91 1555 899.5L1555 899.5C1555 903.09 1552.09 906 1548.5 906L1435.5 906C1431.91 906 1429 903.09 1429 899.5L1429 899.5C1429 895.91 1431.91 893 1435.5 893Z" fill="#5B9BD5" fill-rule="evenodd"/><path d="M1543 899.5C1543 895.91 1545.91 893 1549.5 893 1553.09 893 1556 895.91 1556 899.5 1556 903.09 1553.09 906 1549.5 906 1545.91 906 1543 903.09 1543 899.5Z" fill="#C00000" fill-rule="evenodd"/><path d="M2524 779.5C2590 779.5 2643.5 833.226 2643.5 899.5 2643.5 965.774 2590 1019.5 2524 1019.5 2458 1019.5 2404.5 965.774 2404.5 899.5 2404.5 833.226 2458 779.5 2524 779.5Z" stroke="#385724" stroke-width="4.58333" stroke-miterlimit="8" fill="none" fill-rule="evenodd"/><path d="M2410 904C2406.69 904 2404 901.314 2404 898L2404 898C2404 894.686 2406.69 892 2410 892L2524 892C2527.31 892 2530 894.686 2530 898L2530 898C2530 901.314 2527.31 904 2524 904Z" fill="#70AD47" fill-rule="evenodd"/><path d="M2518 898.5C2518 894.91 2520.91 892 2524.5 892L2524.5 892C2528.09 892 2531 894.91 2531 898.5L2531 1011.5C2531 1015.09 2528.09 1018 2524.5 1018L2524.5 1018C2520.91 1018 2518 1015.09 2518 1011.5Z" fill="#70AD47" fill-rule="evenodd"/><path d="M2524.5 905C2520.91 905 2518 902.09 2518 898.5 2518 894.91 2520.91 892 2524.5 892 2528.09 892 2531 894.91 2531 898.5 2531 902.09 2528.09 905 2524.5 905Z" fill="#C00000" fill-rule="evenodd"/><text fill="#E7E6E6" font-family="Bahnschrift Light,Bahnschrift Light_MSFontService,sans-serif" font-weight="300" font-size="55" transform="matrix(1 0 0 1 1288.72 921)">P180</text><path d="M1025.59 646.5C1119.24 646.549 1195.22 730.591 1195.5 834.444L1025.51 835Z" fill="#181717" fill-rule="evenodd"/><path d="M1025.59 646.5C1119.24 646.549 1195.22 730.591 1195.5 834.444" stroke="#385724" stroke-width="4.58333" stroke-miterlimit="8" fill="none" fill-rule="evenodd"/><path d="M652.5 439.275C652.628 343.729 732.425 266.375 830.732 266.5 928.96 266.624 1008.52 344.06 1008.5 439.529L830.5 439.5Z" fill="#181717" fill-rule="evenodd"/><path d="M652.5 439.275C652.628 343.729 732.425 266.375 830.732 266.5 928.96 266.624 1008.52 344.06 1008.5 439.529" stroke="#2E4E6B" stroke-width="4.58333" stroke-miterlimit="8" fill="none" fill-rule="evenodd"/><path d="M1008.22 436.937C1013.74 535.363 938.881 619.659 841.007 625.216 837.674 625.406 834.337 625.5 831 625.5" stroke="#2E4E6B" stroke-width="4.58333" stroke-miterlimit="8" fill="none" fill-rule="evenodd"/><path d="M827.921 814.5C729.89 814.456 650.456 734.503 650.5 635.92 650.544 537.368 730 457.5 828 457.5L828 636Z" fill="#181717" fill-rule="evenodd"/><path d="M827.921 814.5C729.89 814.456 650.456 734.503 650.5 635.92 650.544 537.368 730 457.5 828 457.5" stroke="#806000" stroke-width="4.58333" stroke-miterlimit="8" fill="none" fill-rule="evenodd"/><path d="M1019.78 814.491C921.203 815.475 840.493 736.359 839.509 637.781 838.525 539.203 917.641 458.492 1016.22 457.509 1020.66 457.464 1025.11 457.586 1029.55 457.874" stroke="#381850" stroke-width="4.58333" stroke-miterlimit="8" fill="none" fill-rule="evenodd"/><path d="M839 610.5C839 615.747 834.747 620 829.5 620L829.5 620C824.253 620 820 615.747 820 610.5L820 447.5C820 442.253 824.253 438 829.5 438L829.5 438C834.747 438 839 442.253 839 447.5Z" fill="#5B9BD5" fill-rule="evenodd"/><path d="M830.5 456C825.253 456 821 451.747 821 446.5L821 446.5C821 441.253 825.253 437 830.5 437L992.5 437C997.747 437 1002 441.253 1002 446.5L1002 446.5C1002 451.747 997.747 456 992.5 456Z" fill="#5B9BD5" fill-rule="evenodd"/><path d="M1009 660.5C1009 655.253 1013.25 651 1018.5 651L1018.5 651C1023.75 651 1028 655.253 1028 660.5L1028 823.5C1028 828.747 1023.75 833 1018.5 833L1018.5 833C1013.25 833 1009 828.747 1009 823.5Z" fill="#70AD47" fill-rule="evenodd"/><path d="M1017.5 815C1022.75 815 1027 819.254 1027 824.5L1027 824.5C1027 829.747 1022.75 834 1017.5 834L854.5 834C849.253 834 845 829.747 845 824.5L845 824.5C845 819.254 849.253 815 854.5 815Z" fill="#70AD47" fill-rule="evenodd"/><path d="M1008 471.5C1008 466.253 1012.25 462 1017.5 462L1017.5 462C1022.75 462 1027 466.253 1027 471.5L1027 634.5C1027 639.747 1022.75 644 1017.5 644L1017.5 644C1012.25 644 1008 639.747 1008 634.5Z" fill="#7030A0" fill-rule="evenodd"/><path d="M1017.5 626C1022.75 626 1027 630.253 1027 635.5L1027 635.5C1027 640.747 1022.75 645 1017.5 645L854.5 645C849.253 645 845 640.747 845 635.5L845 635.5C845 630.253 849.253 626 854.5 626Z" fill="#7030A0" fill-rule="evenodd"/><path d="M838 799.5C838 804.747 833.747 809 828.5 809L828.5 809C823.253 809 819 804.747 819 799.5L819 636.5C819 631.253 823.253 627 828.5 627L828.5 627C833.747 627 838 631.253 838 636.5Z" fill="#FFC000" fill-rule="evenodd"/><path d="M816 637C816 629.82 821.82 624 829 624 836.18 624 842 629.82 842 637 842 644.18 836.18 650 829 650 821.82 650 816 644.18 816 637Z" fill="#FFC000" fill-rule="evenodd"/><path d="M1026.62 1001.5C923.765 1001.31 840.5 925.7 840.5 832.5L1027 832.5Z" fill="#181717" fill-rule="evenodd"/><path d="M1026.62 1001.5C923.765 1001.31 840.5 925.7 840.5 832.5" stroke="#385724" stroke-width="4.58333" stroke-miterlimit="8" fill="none" fill-rule="evenodd"/><path d="M1027.08 457.5C1121.16 457.55 1197.42 541.384 1197.5 644.838L1027 645Z" fill="#181717" fill-rule="evenodd"/><path d="M1027.08 457.5C1121.16 457.55 1197.42 541.384 1197.5 644.838" stroke="#381850" stroke-width="4.58333" stroke-miterlimit="8" fill="none" fill-rule="evenodd"/><text fill="#5B9BD5" font-family="Bahnschrift Light,Bahnschrift Light_MSFontService,sans-serif" font-weight="300" font-size="55" transform="matrix(1 0 0 1 888.657 398)">C1<tspan fill="#FFC000" font-size="55" x="-164.845" y="332">C2</tspan><tspan fill="#7030A0" font-size="55" x="166.812" y="173">C3</tspan><tspan fill="#70AD47" font-size="55" x="165.666" y="375">C4</tspan></text><path d="M841.057 838.56C833.271 740.56 906.626 654.821 1004.9 647.056 1013.36 646.388 1021.85 646.322 1030.32 646.858" stroke="#385724" stroke-width="4.58333" stroke-miterlimit="8" fill="none" fill-rule="evenodd"/><path d="M1004 634C1004 626.82 1009.6 621 1016.5 621 1023.4 621 1029 626.82 1029 634 1029 641.18 1023.4 647 1016.5 647 1009.6 647 1004 641.18 1004 634Z" fill="#7030A0" fill-rule="evenodd"/><path d="M817 447C817 439.82 822.82 434 830 434 837.18 434 843 439.82 843 447 843 454.18 837.18 460 830 460 822.82 460 817 454.18 817 447Z" fill="#5B9BD5" fill-rule="evenodd"/><path d="M1003 824C1003 816.82 1008.82 811 1016 811 1023.18 811 1029 816.82 1029 824 1029 831.18 1023.18 837 1016 837 1008.82 837 1003 831.18 1003 824Z" fill="#70AD47" fill-rule="evenodd"/></g></svg>