<svg width="1307" height="1114" xmlns="http://www.w3.org/2000/svg" xmlns:xlink="http://www.w3.org/1999/xlink" overflow="hidden"><defs><clipPath id="clip0"><rect x="1415" y="1208" width="1307" height="1114"/></clipPath></defs><g clip-path="url(#clip0)" transform="translate(-1415 -1208)"><path d="M1831 1784.51 1831 1265" stroke="#E7E6E6" stroke-width="2.29167" stroke-miterlimit="8" fill="none" fill-rule="evenodd"/><path d="M2111 1553 2546.24 1553.12" stroke="#E7E6E6" stroke-width="2.29167" stroke-miterlimit="8" fill="none" fill-rule="evenodd"/><path d="M2350 1793.51 2350 1274" stroke="#E7E6E6" stroke-width="2.29167" stroke-miterlimit="8" fill="none" fill-rule="evenodd"/><path d="M2398.49 1656.94 2508.73 1767.18 2214.75 2061.16 2104.51 1950.92Z" fill="#005696" fill-rule="evenodd"/><path d="M2352.55 1702.87 2462.8 1813.12 2260.69 2015.23 2150.44 1904.98Z" fill="#0072C8" fill-rule="evenodd"/><path d="M2416.66 1721.45C2424.27 1713.84 2436.61 1713.84 2444.22 1721.45 2451.83 1729.06 2451.83 1741.4 2444.22 1749.01 2436.61 1756.62 2424.27 1756.62 2416.66 1749.01 2409.05 1741.4 2409.05 1729.06 2416.66 1721.45Z" fill-rule="evenodd"/><path d="M2168.82 1969.29C2176.43 1961.68 2188.77 1961.68 2196.38 1969.29 2203.99 1976.9 2203.99 1989.24 2196.38 1996.85 2188.77 2004.46 2176.43 2004.46 2168.82 1996.85 2161.21 1989.24 2161.21 1976.9 2168.82 1969.29Z" fill-rule="evenodd"/><path d="M2449.02 1707.47 2458.2 1716.65 2435.24 1739.62 2426.05 1730.43Z" fill-rule="evenodd"/><path d="M2178 1978.48 2187.19 1987.67 2164.22 2010.63 2155.04 2001.45Z" fill-rule="evenodd"/><path d="M2297.43 1758C2327.88 1727.55 2377.23 1727.55 2407.67 1758 2438.12 1788.44 2438.12 1837.79 2407.67 1868.24 2377.23 1898.68 2327.88 1898.68 2297.43 1868.24 2266.99 1837.79 2266.99 1788.44 2297.43 1758Z" fill="#008FFA" fill-rule="evenodd"/><path d="M2333 1813.5C2333 1802.73 2341.73 1794 2352.5 1794 2363.27 1794 2372 1802.73 2372 1813.5 2372 1824.27 2363.27 1833 2352.5 1833 2341.73 1833 2333 1824.27 2333 1813.5Z" fill="#FFC000" fill-rule="evenodd"/><path d="M2045.85 1709.07 1935.61 1598.83 2229.59 1304.85 2339.83 1415.1Z" fill="#005696" fill-rule="evenodd"/><path d="M2091.79 1663.14 1981.55 1552.9 2183.66 1350.79 2293.9 1461.03Z" fill="#0072C8" fill-rule="evenodd"/><path d="M2027.68 1644.57C2020.07 1652.18 2007.73 1652.18 2000.12 1644.57 1992.51 1636.96 1992.51 1624.62 2000.12 1617.01 2007.73 1609.4 2020.07 1609.4 2027.68 1617.01 2035.29 1624.62 2035.29 1636.96 2027.68 1644.57Z" fill-rule="evenodd"/><path d="M2275.52 1396.72C2267.91 1404.33 2255.57 1404.33 2247.96 1396.72 2240.35 1389.11 2240.35 1376.77 2247.96 1369.16 2255.57 1361.55 2267.91 1361.55 2275.52 1369.16 2283.14 1376.77 2283.14 1389.11 2275.52 1396.72Z" fill-rule="evenodd"/><path d="M1995.33 1658.55 1986.14 1649.36 2009.11 1626.39 2018.29 1635.58Z" fill-rule="evenodd"/><path d="M2266.34 1387.54 2257.15 1378.35 2280.12 1355.38 2289.3 1364.57Z" fill-rule="evenodd"/><path d="M2146.91 1608.02C2116.47 1638.46 2067.11 1638.46 2036.67 1608.02 2006.22 1577.58 2006.22 1528.22 2036.67 1497.78 2067.11 1467.33 2116.47 1467.33 2146.91 1497.78 2177.35 1528.22 2177.35 1577.58 2146.91 1608.02Z" fill="#008FFA" fill-rule="evenodd"/><path d="M2072 1552.5C2072 1541.73 2080.73 1533 2091.5 1533 2102.27 1533 2111 1541.73 2111 1552.5 2111 1563.27 2102.27 1572 2091.5 1572 2080.73 1572 2072 1563.27 2072 1552.5Z" fill="#FFC000" fill-rule="evenodd"/><path d="M2045.85 1968.92 1935.61 1858.67 2229.59 1564.7 2339.83 1674.94Z" fill="#005696" fill-rule="evenodd"/><path d="M2091.79 1922.98 1981.55 1812.74 2183.66 1610.63 2293.9 1720.87Z" fill="#0072C8" fill-rule="evenodd"/><path d="M2027.68 1904.41C2020.07 1912.02 2007.73 1912.02 2000.12 1904.41 1992.51 1896.8 1992.51 1884.46 2000.12 1876.85 2007.73 1869.24 2020.07 1869.24 2027.68 1876.85 2035.29 1884.46 2035.29 1896.8 2027.68 1904.41Z" fill-rule="evenodd"/><path d="M2275.52 1656.56C2267.91 1664.18 2255.57 1664.18 2247.96 1656.56 2240.35 1648.95 2240.35 1636.61 2247.96 1629 2255.57 1621.39 2267.91 1621.39 2275.52 1629 2283.14 1636.61 2283.14 1648.95 2275.52 1656.56Z" fill-rule="evenodd"/><path d="M1995.33 1918.39 1986.14 1909.2 2009.11 1886.24 2018.29 1895.42Z" fill-rule="evenodd"/><path d="M2266.34 1647.38 2257.15 1638.19 2280.12 1615.22 2289.3 1624.41Z" fill-rule="evenodd"/><path d="M2146.91 1867.86C2116.47 1898.3 2067.11 1898.3 2036.67 1867.86 2006.22 1837.42 2006.22 1788.06 2036.67 1757.62 2067.11 1727.18 2116.47 1727.18 2146.91 1757.62 2177.35 1788.06 2177.35 1837.42 2146.91 1867.86Z" fill="#008FFA" fill-rule="evenodd"/><path d="M2072 1812.5C2072 1801.73 2080.73 1793 2091.5 1793 2102.27 1793 2111 1801.73 2111 1812.5 2111 1823.27 2102.27 1832 2091.5 1832 2080.73 1832 2072 1823.27 2072 1812.5Z" fill="#FFC000" fill-rule="evenodd"/><path d="M2398.49 1916.78 2508.73 2027.02 2214.75 2321 2104.51 2210.76Z" fill="#005696" fill-rule="evenodd"/><path d="M2352.55 1962.72 2462.8 2072.96 2260.69 2275.07 2150.44 2164.83Z" fill="#0072C8" fill-rule="evenodd"/><path d="M2416.66 1981.29C2424.27 1973.68 2436.61 1973.68 2444.22 1981.29 2451.83 1988.9 2451.83 2001.24 2444.22 2008.85 2436.61 2016.46 2424.27 2016.46 2416.66 2008.85 2409.05 2001.24 2409.05 1988.9 2416.66 1981.29Z" fill-rule="evenodd"/><path d="M2168.82 2229.14C2176.43 2221.52 2188.77 2221.52 2196.38 2229.14 2203.99 2236.75 2203.99 2249.08 2196.38 2256.7 2188.77 2264.31 2176.43 2264.31 2168.82 2256.7 2161.21 2249.08 2161.21 2236.75 2168.82 2229.14Z" fill-rule="evenodd"/><path d="M2449.02 1967.31 2458.2 1976.5 2435.24 1999.46 2426.05 1990.28Z" fill-rule="evenodd"/><path d="M2178 2238.32 2187.19 2247.51 2164.22 2270.48 2155.04 2261.29Z" fill-rule="evenodd"/><path d="M2297.43 2017.84C2327.88 1987.4 2377.23 1987.4 2407.67 2017.84 2438.12 2048.28 2438.12 2097.64 2407.67 2128.08 2377.23 2158.52 2327.88 2158.52 2297.43 2128.08 2266.99 2097.64 2266.99 2048.28 2297.43 2017.84Z" fill="#008FFA" fill-rule="evenodd"/><path d="M2333 2072.5C2333 2061.73 2341.73 2053 2352.5 2053 2363.27 2053 2372 2061.73 2372 2072.5 2372 2083.27 2363.27 2092 2352.5 2092 2341.73 2092 2333 2083.27 2333 2072.5Z" fill="#FFC000" fill-rule="evenodd"/><path d="M2118 2072C2118 2064.82 2123.82 2059 2131 2059L2352 2059C2359.18 2059 2365 2064.82 2365 2072L2365 2072C2365 2079.18 2359.18 2085 2352 2085L2131 2085C2123.82 2085 2118 2079.18 2118 2072Z" fill="#FFC000" fill-rule="evenodd"/><path d="M2352 1838C2359.18 1838 2365 1843.82 2365 1851L2365 2072C2365 2079.18 2359.18 2085 2352 2085L2352 2085C2344.82 2085 2339 2079.18 2339 2072L2339 1851C2339 1843.82 2344.82 1838 2352 1838Z" fill="#FFC000" fill-rule="evenodd"/><path d="M2118 1812C2118 1804.82 2123.82 1799 2131 1799L2352 1799C2359.18 1799 2365 1804.82 2365 1812L2365 1812C2365 1819.18 2359.18 1825 2352 1825L2131 1825C2123.82 1825 2118 1819.18 2118 1812Z" fill="#FFC000" fill-rule="evenodd"/><path d="M22.9166-1.1458 236.926-1.1455 236.926 1.14616 22.9166 1.14587ZM27.5 9.16671 0 0 27.5-9.16663ZM232.343-9.16634 259.843 0.000360892 232.342 9.16699Z" fill="#E7E6E6" transform="matrix(6.12323e-17 1 1 -6.12323e-17 2530 1553)"/><text fill="#E7E6E6" font-family="Bahnschrift Light,Bahnschrift Light_MSFontService,sans-serif" font-weight="300" font-size="50" transform="matrix(1 0 0 1 2546.98 1701)">20mm</text><path d="M22.9166-1.1458 236.926-1.1455 236.926 1.14616 22.9166 1.14587ZM27.5 9.16671 0 0 27.5-9.16663ZM232.343-9.16634 259.843 0.000360892 232.342 9.16699Z" fill="#E7E6E6" transform="matrix(1 0 0 -1 2092 1284)"/><text fill="#E7E6E6" font-family="Bahnschrift Light,Bahnschrift Light_MSFontService,sans-serif" font-weight="300" font-size="50" transform="matrix(1 0 0 1 2150.23 1275)">20mm</text><path d="M2091.52 1533.18 2091 1273" stroke="#E7E6E6" stroke-width="2.29167" stroke-miterlimit="8" fill="none" fill-rule="evenodd"/><path d="M2092 1540C2099.18 1540 2105 1545.82 2105 1553L2105 1774C2105 1781.18 2099.18 1787 2092 1787L2092 1787C2084.82 1787 2079 1781.18 2079 1774L2079 1553C2079 1545.82 2084.82 1540 2092 1540Z" fill="#FFC000" fill-rule="evenodd"/><path d="M2092 1799C2099.18 1799 2105 1804.82 2105 1812L2105 2033C2105 2040.18 2099.18 2046 2092 2046L2092 2046C2084.82 2046 2079 2040.18 2079 2033L2079 1812C2079 1804.82 2084.82 1799 2092 1799Z" fill="#FFC000" fill-rule="evenodd"/><path d="M0 0 175.394 0.563714" stroke="#E7E6E6" stroke-width="2.29167" stroke-miterlimit="8" fill="none" fill-rule="evenodd" transform="matrix(1 0 0 -1 2372 1813.56)"/><path d="M2079 1553C2079 1545.82 2084.82 1540 2092 1540L2312 1540C2319.18 1540 2325 1545.82 2325 1553L2325 1553C2325 1560.18 2319.18 1566 2312 1566L2092 1566C2084.82 1566 2079 1560.18 2079 1553Z" fill="#FFC000" fill-rule="evenodd"/><path d="M2352 1579C2359.18 1579 2365 1584.82 2365 1592L2365 1812C2365 1819.18 2359.18 1825 2352 1825L2352 1825C2344.82 1825 2339 1819.18 2339 1812L2339 1592C2339 1584.82 2344.82 1579 2352 1579Z" fill="#FFC000" fill-rule="evenodd"/><path d="M1878.29 1657.06 1988.53 1767.31 1694.55 2061.28 1584.31 1951.04Z" fill="#005696" fill-rule="evenodd"/><path d="M1832.35 1703 1942.59 1813.24 1740.48 2015.35 1630.24 1905.11Z" fill="#0072C8" fill-rule="evenodd"/><path d="M1896.46 1721.57C1904.07 1713.96 1916.41 1713.96 1924.02 1721.57 1931.63 1729.18 1931.63 1741.52 1924.02 1749.13 1916.41 1756.74 1904.07 1756.74 1896.46 1749.13 1888.85 1741.52 1888.85 1729.18 1896.46 1721.57Z" fill-rule="evenodd"/><path d="M1648.61 1969.42C1656.23 1961.8 1668.56 1961.8 1676.18 1969.42 1683.79 1977.03 1683.79 1989.36 1676.18 1996.98 1668.56 2004.59 1656.23 2004.59 1648.61 1996.98 1641 1989.36 1641 1977.03 1648.61 1969.42Z" fill-rule="evenodd"/><path d="M1928.81 1707.59 1938 1716.78 1915.03 1739.74 1905.85 1730.56Z" fill-rule="evenodd"/><path d="M1657.8 1978.6 1666.99 1987.79 1644.02 2010.76 1634.83 2001.57Z" fill-rule="evenodd"/><path d="M1777.23 1758.12C1807.67 1727.68 1857.03 1727.68 1887.47 1758.12 1917.91 1788.56 1917.91 1837.92 1887.47 1868.36 1857.03 1898.8 1807.67 1898.8 1777.23 1868.36 1746.79 1837.92 1746.79 1788.56 1777.23 1758.12Z" fill="#008FFA" fill-rule="evenodd"/><path d="M1813 1813.5C1813 1802.73 1821.73 1794 1832.5 1794 1843.27 1794 1852 1802.73 1852 1813.5 1852 1824.27 1843.27 1833 1832.5 1833 1821.73 1833 1813 1824.27 1813 1813.5Z" fill="#FFC000" fill-rule="evenodd"/><path d="M1525.65 1709.2 1415.41 1598.95 1709.39 1304.98 1819.63 1415.22Z" fill="#005696" fill-rule="evenodd"/><path d="M1571.59 1663.26 1461.34 1553.02 1663.45 1350.91 1773.7 1461.15Z" fill="#0072C8" fill-rule="evenodd"/><path d="M1507.48 1644.69C1499.87 1652.3 1487.53 1652.3 1479.92 1644.69 1472.31 1637.08 1472.31 1624.74 1479.92 1617.13 1487.53 1609.52 1499.87 1609.52 1507.48 1617.13 1515.09 1624.74 1515.09 1637.08 1507.48 1644.69Z" fill-rule="evenodd"/><path d="M1755.32 1396.84C1747.71 1404.46 1735.37 1404.46 1727.76 1396.84 1720.15 1389.23 1720.15 1376.89 1727.76 1369.28 1735.37 1361.67 1747.71 1361.67 1755.32 1369.28 1762.93 1376.89 1762.93 1389.23 1755.32 1396.84Z" fill-rule="evenodd"/><path d="M1475.12 1658.67 1465.94 1649.48 1488.9 1626.52 1498.09 1635.7Z" fill-rule="evenodd"/><path d="M1746.14 1387.66 1736.95 1378.47 1759.92 1355.5 1769.1 1364.69Z" fill-rule="evenodd"/><path d="M1626.71 1608.14C1596.26 1638.58 1546.91 1638.58 1516.46 1608.14 1486.02 1577.7 1486.02 1528.34 1516.46 1497.9 1546.91 1467.46 1596.26 1467.46 1626.71 1497.9 1657.15 1528.34 1657.15 1577.7 1626.71 1608.14Z" fill="#008FFA" fill-rule="evenodd"/><path d="M1552 1553.5C1552 1542.73 1560.73 1534 1571.5 1534 1582.27 1534 1591 1542.73 1591 1553.5 1591 1564.27 1582.27 1573 1571.5 1573 1560.73 1573 1552 1564.27 1552 1553.5Z" fill="#FFC000" fill-rule="evenodd"/><path d="M1525.65 1969.04 1415.41 1858.8 1709.39 1564.82 1819.63 1675.06Z" fill="#005696" fill-rule="evenodd"/><path d="M1571.59 1923.11 1461.34 1812.86 1663.45 1610.75 1773.7 1721Z" fill="#0072C8" fill-rule="evenodd"/><path d="M1507.48 1904.53C1499.87 1912.14 1487.53 1912.14 1479.92 1904.53 1472.31 1896.92 1472.31 1884.58 1479.92 1876.97 1487.53 1869.36 1499.87 1869.36 1507.48 1876.97 1515.09 1884.58 1515.09 1896.92 1507.48 1904.53Z" fill-rule="evenodd"/><path d="M1755.32 1656.69C1747.71 1664.3 1735.37 1664.3 1727.76 1656.69 1720.15 1649.08 1720.15 1636.74 1727.76 1629.13 1735.37 1621.52 1747.71 1621.52 1755.32 1629.13 1762.93 1636.74 1762.93 1649.08 1755.32 1656.69Z" fill-rule="evenodd"/><path d="M1475.12 1918.51 1465.94 1909.32 1488.9 1886.36 1498.09 1895.54Z" fill-rule="evenodd"/><path d="M1746.14 1647.5 1736.95 1638.31 1759.92 1615.35 1769.1 1624.53Z" fill-rule="evenodd"/><path d="M1626.71 1867.98C1596.26 1898.43 1546.91 1898.43 1516.46 1867.98 1486.02 1837.54 1486.02 1788.18 1516.46 1757.74 1546.91 1727.3 1596.26 1727.3 1626.71 1757.74 1657.15 1788.18 1657.15 1837.54 1626.71 1867.98Z" fill="#008FFA" fill-rule="evenodd"/><path d="M1552 1812.5C1552 1801.73 1560.73 1793 1571.5 1793 1582.27 1793 1591 1801.73 1591 1812.5 1591 1823.27 1582.27 1832 1571.5 1832 1560.73 1832 1552 1823.27 1552 1812.5Z" fill="#FFC000" fill-rule="evenodd"/><path d="M1878.29 1916.91 1988.53 2027.15 1694.55 2321.13 1584.31 2210.88Z" fill="#005696" fill-rule="evenodd"/><path d="M1832.35 1962.84 1942.59 2073.08 1740.48 2275.19 1630.24 2164.95Z" fill="#0072C8" fill-rule="evenodd"/><path d="M1896.46 1981.41C1904.07 1973.8 1916.41 1973.8 1924.02 1981.41 1931.63 1989.02 1931.63 2001.36 1924.02 2008.97 1916.41 2016.58 1904.07 2016.58 1896.46 2008.97 1888.85 2001.36 1888.85 1989.02 1896.46 1981.41Z" fill-rule="evenodd"/><path d="M1648.61 2229.26C1656.23 2221.65 1668.56 2221.65 1676.18 2229.26 1683.79 2236.87 1683.79 2249.21 1676.18 2256.82 1668.56 2264.43 1656.23 2264.43 1648.61 2256.82 1641 2249.21 1641 2236.87 1648.61 2229.26Z" fill-rule="evenodd"/><path d="M1928.81 1967.43 1938 1976.62 1915.03 1999.59 1905.85 1990.4Z" fill-rule="evenodd"/><path d="M1657.8 2238.44 1666.99 2247.63 1644.02 2270.6 1634.83 2261.41Z" fill-rule="evenodd"/><path d="M1777.23 2017.96C1807.67 1987.52 1857.03 1987.52 1887.47 2017.96 1917.91 2048.4 1917.91 2097.76 1887.47 2128.2 1857.03 2158.65 1807.67 2158.65 1777.23 2128.2 1746.79 2097.76 1746.79 2048.4 1777.23 2017.96Z" fill="#008FFA" fill-rule="evenodd"/><path d="M1813 2073.5C1813 2062.73 1821.73 2054 1832.5 2054 1843.27 2054 1852 2062.73 1852 2073.5 1852 2084.27 1843.27 2093 1832.5 2093 1821.73 2093 1813 2084.27 1813 2073.5Z" fill="#FFC000" fill-rule="evenodd"/><path d="M1598 2072C1598 2064.82 1603.82 2059 1611 2059L1832 2059C1839.18 2059 1845 2064.82 1845 2072L1845 2072C1845 2079.18 1839.18 2085 1832 2085L1611 2085C1603.82 2085 1598 2079.18 1598 2072Z" fill="#FFC000" fill-rule="evenodd"/><path d="M1832 1838C1839.18 1838 1845 1843.82 1845 1851L1845 2072C1845 2079.18 1839.18 2085 1832 2085L1832 2085C1824.82 2085 1819 2079.18 1819 2072L1819 1851C1819 1843.82 1824.82 1838 1832 1838Z" fill="#FFC000" fill-rule="evenodd"/><path d="M1598 1813C1598 1805.82 1603.82 1800 1611 1800L1832 1800C1839.18 1800 1845 1805.82 1845 1813L1845 1813C1845 1820.18 1839.18 1826 1832 1826L1611 1826C1603.82 1826 1598 1820.18 1598 1813Z" fill="#FFC000" fill-rule="evenodd"/><path d="M1572 1540C1579.18 1540 1585 1545.82 1585 1553L1585 1774C1585 1781.18 1579.18 1787 1572 1787L1572 1787C1564.82 1787 1559 1781.18 1559 1774L1559 1553C1559 1545.82 1564.82 1540 1572 1540Z" fill="#FFC000" fill-rule="evenodd"/><path d="M1572 1799C1579.18 1799 1585 1804.82 1585 1812L1585 2033C1585 2040.18 1579.18 2046 1572 2046L1572 2046C1564.82 2046 1559 2040.18 1559 2033L1559 1812C1559 1804.82 1564.82 1799 1572 1799Z" fill="#FFC000" fill-rule="evenodd"/><path d="M1558 1553C1558 1545.82 1563.82 1540 1571 1540L1792 1540C1799.18 1540 1805 1545.82 1805 1553L1805 1553C1805 1560.18 1799.18 1566 1792 1566L1571 1566C1563.82 1566 1558 1560.18 1558 1553Z" fill="#FFC000" fill-rule="evenodd"/><path d="M1831 1579C1838.18 1579 1844 1584.82 1844 1592L1844 1813C1844 1820.18 1838.18 1826 1831 1826L1831 1826C1823.82 1826 1818 1820.18 1818 1813L1818 1592C1818 1584.82 1823.82 1579 1831 1579Z" fill="#FFC000" fill-rule="evenodd"/><path d="M22.9166-1.1458 236.926-1.1455 236.926 1.14616 22.9166 1.14587ZM27.5 9.16671 0 0 27.5-9.16663ZM232.343-9.16634 259.843 0.000360892 232.342 9.16699Z" fill="#E7E6E6" transform="matrix(1 0 0 -1 1831 1284)"/><text fill="#E7E6E6" font-family="Bahnschrift Light,Bahnschrift Light_MSFontService,sans-serif" font-weight="300" font-size="50" transform="matrix(1 0 0 1 1892.17 1275)">20mm</text></g></svg>