<svg width="3984" height="488" xmlns="http://www.w3.org/2000/svg" xmlns:xlink="http://www.w3.org/1999/xlink" overflow="hidden"><defs><clipPath id="clip0"><rect x="236" y="892" width="3984" height="488"/></clipPath></defs><g clip-path="url(#clip0)" transform="translate(-236 -892)"><rect x="4066" y="1081" width="123" height="90.0001" fill="#FFC000"/><text font-family="Bahnschrift Light,Bahnschrift Light_MSFontService,sans-serif" font-weight="300" font-size="46" transform="matrix(1 0 0 1 4080.07 1145)">P180</text><rect x="4067" y="1171" width="122" height="90.9998" fill="#7030A0"/><text font-family="Bahnschrift Light,Bahnschrift Light_MSFontService,sans-serif" font-weight="300" font-size="46" transform="matrix(1 0 0 1 4101.48 1235)">P0</text><rect x="2392" y="1171" width="560" height="90.9998" fill="#7030A0"/><text font-family="Bahnschrift Light,Bahnschrift Light_MSFontService,sans-serif" font-weight="300" font-size="46" transform="matrix(1 0 0 1 2624.47 1235)">P180</text><rect x="343" y="991" width="371" height="90.0001" fill="#5B9BD5"/><text font-family="Bahnschrift Light,Bahnschrift Light_MSFontService,sans-serif" font-weight="300" font-size="46" transform="matrix(1 0 0 1 501.363 1055)">P0</text><rect x="343" y="1261" width="372" height="91.0001" fill="#70AD47"/><text font-family="Bahnschrift Light,Bahnschrift Light_MSFontService,sans-serif" font-weight="300" font-size="46" transform="matrix(1 0 0 1 490.09 1325)">P90</text><rect x="343" y="1171" width="745" height="90.9998" fill="#7030A0"/><text font-family="Bahnschrift Light,Bahnschrift Light_MSFontService,sans-serif" font-weight="300" font-size="46" transform="matrix(1 0 0 1 688.636 1235)">P0</text><rect x="342" y="1081" width="373" height="90.9998" fill="#FFC000"/><text font-family="Bahnschrift Light,Bahnschrift Light_MSFontService,sans-serif" font-weight="300" font-size="46" transform="matrix(1 0 0 1 481.31 1145)">P180</text><rect x="2951" y="1081" width="371" height="90.0001" fill="#FFC000"/><text font-family="Bahnschrift Light,Bahnschrift Light_MSFontService,sans-serif" font-weight="300" font-size="46" transform="matrix(1 0 0 1 3097.9 1144)">P90</text><rect x="3135" y="991" width="187" height="90.0001" fill="#5B9BD5"/><text font-family="Bahnschrift Light,Bahnschrift Light_MSFontService,sans-serif" font-weight="300" font-size="46" transform="matrix(1 0 0 1 3189.65 1055)">P90</text><rect x="2578" y="1081" width="374" height="90.9998" fill="#FFC000"/><text font-family="Bahnschrift Light,Bahnschrift Light_MSFontService,sans-serif" font-weight="300" font-size="46" transform="matrix(1 0 0 1 2717.54 1145)">P180</text><rect x="2207" y="1261" width="834" height="91.0001" fill="#70AD47"/><text font-family="Bahnschrift Light,Bahnschrift Light_MSFontService,sans-serif" font-weight="300" font-size="46" transform="matrix(1 0 0 1 2576.51 1325)">P180</text><rect x="1834" y="1262" width="373" height="90.0001" fill="#70AD47"/><text font-family="Bahnschrift Light,Bahnschrift Light_MSFontService,sans-serif" font-weight="300" font-size="46" transform="matrix(1 0 0 1 1993.97 1326)">P0</text><rect x="1461" y="1262" width="374" height="90.0001" fill="#70AD47"/><text font-family="Bahnschrift Light,Bahnschrift Light_MSFontService,sans-serif" font-weight="300" font-size="46" transform="matrix(1 0 0 1 1609.02 1326)">P90</text><rect x="716" y="1262" width="372" height="90.0001" fill="#70AD47"/><text font-family="Bahnschrift Light,Bahnschrift Light_MSFontService,sans-serif" font-weight="300" font-size="46" transform="matrix(1 0 0 1 874.939 1325)">P0</text><rect x="1087" y="1172" width="1305" height="90.0001" fill="#7030A0"/><text font-family="Bahnschrift Light,Bahnschrift Light_MSFontService,sans-serif" font-weight="300" font-size="46" transform="matrix(1 0 0 1 1700.81 1235)">P90</text><rect x="1087" y="1081" width="374" height="90.9998" fill="#FFC000"/><text font-family="Bahnschrift Light,Bahnschrift Light_MSFontService,sans-serif" font-weight="300" font-size="46" transform="matrix(1 0 0 1 1226.55 1145)">P180</text><rect x="1087" y="990" width="747" height="91.0001" fill="#5B9BD5"/><text font-family="Bahnschrift Light,Bahnschrift Light_MSFontService,sans-serif" font-weight="300" font-size="46" transform="matrix(1 0 0 1 1421.82 1054)">P90</text><rect x="1087" y="1262" width="374" height="91.0001" fill="#70AD47"/><text font-family="Bahnschrift Light,Bahnschrift Light_MSFontService,sans-serif" font-weight="300" font-size="46" transform="matrix(1 0 0 1 1226.63 1326)">P180</text><rect x="3695" y="1082" width="373" height="89.9998" fill="#FFC000"/><text font-family="Bahnschrift Light,Bahnschrift Light_MSFontService,sans-serif" font-weight="300" font-size="46" transform="matrix(1 0 0 1 3842.68 1145)">P90</text><rect x="1831" y="1080" width="750" height="91.0001" fill="#FFC000"/><text font-family="Bahnschrift Light,Bahnschrift Light_MSFontService,sans-serif" font-weight="300" font-size="46" transform="matrix(1 0 0 1 2179.04 1144)">P0</text><rect x="1461" y="1081" width="373" height="90.9998" fill="#FFC000"/><text font-family="Bahnschrift Light,Bahnschrift Light_MSFontService,sans-serif" font-weight="300" font-size="46" transform="matrix(1 0 0 1 1608.57 1145)">P90</text><rect x="713" y="1080" width="375" height="91.0001" fill="#FFC000"/><text font-family="Bahnschrift Light,Bahnschrift Light_MSFontService,sans-serif" font-weight="300" font-size="46" transform="matrix(1 0 0 1 861.919 1144)">P90</text><rect x="3322" y="990" width="867" height="91.0001" fill="#5B9BD5"/><text font-family="Bahnschrift Light,Bahnschrift Light_MSFontService,sans-serif" font-weight="300" font-size="46" transform="matrix(1 0 0 1 3729.02 1054)">P0</text><rect x="2577" y="990" width="562" height="90.0001" fill="#5B9BD5"/><text font-family="Bahnschrift Light,Bahnschrift Light_MSFontService,sans-serif" font-weight="300" font-size="46" transform="matrix(1 0 0 1 2830.88 1054)">P0</text><rect x="2205" y="991" width="372" height="90.0001" fill="#5B9BD5"/><text font-family="Bahnschrift Light,Bahnschrift Light_MSFontService,sans-serif" font-weight="300" font-size="46" transform="matrix(1 0 0 1 2352.52 1054)">P90</text><rect x="1832" y="990" width="375" height="91.0001" fill="#5B9BD5"/><text font-family="Bahnschrift Light,Bahnschrift Light_MSFontService,sans-serif" font-weight="300" font-size="46" transform="matrix(1 0 0 1 1972.11 1054)">P180</text><rect x="714" y="991" width="374" height="91.0001" fill="#5B9BD5"/><text font-family="Bahnschrift Light,Bahnschrift Light_MSFontService,sans-serif" font-weight="300" font-size="46" transform="matrix(1 0 0 1 853.163 1055)">P180</text><path d="M342 990 344.007 1352.57" stroke="#E7E6E6" stroke-width="2.29167" stroke-miterlimit="8" fill="none" fill-rule="evenodd"/><path d="M260 990 4190.12 990.097" stroke="#E7E6E6" stroke-width="2.29167" stroke-miterlimit="8" fill="none" fill-rule="evenodd"/><path d="M714 990 715.147 1170.75" stroke="#E7E6E6" stroke-width="2.29167" stroke-miterlimit="8" fill="none" fill-rule="evenodd"/><path d="M1460 1081 1460.34 1171.94" stroke="#E7E6E6" stroke-width="2.29167" stroke-miterlimit="8" fill="none" fill-rule="evenodd"/><path d="M1832 990 1832 1171.89" stroke="#E7E6E6" stroke-width="2.29167" stroke-miterlimit="8" fill="none" fill-rule="evenodd"/><path d="M2204 990 2204 1079.83" stroke="#E7E6E6" stroke-width="2.29167" stroke-miterlimit="8" fill="none" fill-rule="evenodd"/><path d="M2577 990 2577 1171.89" stroke="#E7E6E6" stroke-width="2.29167" stroke-miterlimit="8" fill="none" fill-rule="evenodd"/><path d="M4066 990 4068.01 1352.57" stroke="#E7E6E6" stroke-width="2.29167" stroke-miterlimit="8" fill="none" fill-rule="evenodd"/><text fill="#E7E6E6" font-family="Bahnschrift Light,Bahnschrift Light_MSFontService,sans-serif" font-weight="300" font-size="55" transform="matrix(1 0 0 1 326.782 964)">0<tspan font-size="55" x="378.618" y="0">1</tspan><tspan font-size="55" x="747.888" y="0">2</tspan><tspan font-size="55" x="1117.75" y="0">3</tspan><tspan font-size="55" x="1487.03" y="0">4</tspan><tspan font-size="55" x="1862.87" y="0">5</tspan><tspan font-size="55" x="2236.16" y="0">6</tspan><tspan font-size="55" x="2610.99" y="0">7</tspan><tspan font-size="55" x="2981.05" y="0">8</tspan><tspan font-size="55" x="3353.56" y="0">9</tspan><tspan font-size="55" x="3724.85" y="0">0</tspan><tspan font-size="55" x="-51.7909" y="94">C1</tspan><tspan font-size="55" x="-57.5221" y="184">C2</tspan><tspan font-size="55" x="-56.6357" y="275">C3</tspan><tspan font-size="55" x="-57.2675" y="365">C4</tspan></text><rect x="2950" y="1171" width="469" height="90.9998" fill="#7030A0"/><text font-family="Bahnschrift Light,Bahnschrift Light_MSFontService,sans-serif" font-weight="300" font-size="46" transform="matrix(1 0 0 1 3157.24 1235)">P0</text><rect x="3039" y="1262" width="285" height="90.0001" fill="#70AD47"/><text font-family="Bahnschrift Light,Bahnschrift Light_MSFontService,sans-serif" font-weight="300" font-size="46" transform="matrix(1 0 0 1 3154.49 1326)">P0</text><rect x="3323" y="1080" width="372" height="91.0001" fill="#FFC000"/><text font-family="Bahnschrift Light,Bahnschrift Light_MSFontService,sans-serif" font-weight="300" font-size="46" transform="matrix(1 0 0 1 3461.42 1144)">P180</text><rect x="3416" y="1171" width="652" height="90.9998" fill="#7030A0"/><text font-family="Bahnschrift Light,Bahnschrift Light_MSFontService,sans-serif" font-weight="300" font-size="46" transform="matrix(1 0 0 1 3703.42 1235)">P90</text><rect x="3322" y="1262" width="867" height="90.0001" fill="#70AD47"/><text font-family="Bahnschrift Light,Bahnschrift Light_MSFontService,sans-serif" font-weight="300" font-size="46" transform="matrix(1 0 0 1 3717.28 1326)">P90</text><path d="M262 1350.85 4169.2 1350.85 4169.2 1353.15 262 1353.15ZM4164.62 1338.25 4192.12 1352 4164.62 1365.75Z" fill="#E7E6E6"/><path d="M260 1261 4190.12 1261" stroke="#E7E6E6" stroke-width="2.29167" stroke-miterlimit="8" fill="none" fill-rule="evenodd"/><path d="M0 0 0.000360892 181.89" stroke="#E7E6E6" stroke-width="2.29167" stroke-miterlimit="8" fill="none" fill-rule="evenodd" transform="matrix(-1 0 0 1 2949 1080)"/><path d="M1087 990 1089.01 1352.57" stroke="#E7E6E6" stroke-width="2.29167" stroke-miterlimit="8" fill="none" fill-rule="evenodd"/><path d="M3321 990 3321 1170.59" stroke="#E7E6E6" stroke-width="2.29167" stroke-miterlimit="8" fill="none" fill-rule="evenodd"/><path d="M0 0 3930.12 0.813451" stroke="#E7E6E6" stroke-width="2.29167" stroke-miterlimit="8" fill="none" fill-rule="evenodd" transform="matrix(1 0 0 -1 260 1080.81)"/><path d="M260 1171 4190.12 1171" stroke="#E7E6E6" stroke-width="2.29167" stroke-miterlimit="8" fill="none" fill-rule="evenodd"/><path d="M0 0 0.000360892 90.9449" stroke="#E7E6E6" stroke-width="2.29167" stroke-miterlimit="8" fill="none" fill-rule="evenodd" transform="matrix(1 0 0 -1 715 1352.94)"/><path d="M1461 1262 1461.34 1352.94" stroke="#E7E6E6" stroke-width="2.29167" stroke-miterlimit="8" fill="none" fill-rule="evenodd"/><path d="M1834 1262 1834.34 1352.94" stroke="#E7E6E6" stroke-width="2.29167" stroke-miterlimit="8" fill="none" fill-rule="evenodd"/><path d="M2392 1171 2392.34 1261.94" stroke="#E7E6E6" stroke-width="2.29167" stroke-miterlimit="8" fill="none" fill-rule="evenodd"/><path d="M2207 1262 2207.34 1352.94" stroke="#E7E6E6" stroke-width="2.29167" stroke-miterlimit="8" fill="none" fill-rule="evenodd"/><path d="M3042 1261 3042.34 1351.94" stroke="#E7E6E6" stroke-width="2.29167" stroke-miterlimit="8" fill="none" fill-rule="evenodd"/><path d="M3136 990 3136.34 1080.94" stroke="#E7E6E6" stroke-width="2.29167" stroke-miterlimit="8" fill="none" fill-rule="evenodd"/><path d="M3321 1261 3321.34 1351.94" stroke="#E7E6E6" stroke-width="2.29167" stroke-miterlimit="8" fill="none" fill-rule="evenodd"/><path d="M3417 1170 3417.34 1260.94" stroke="#E7E6E6" stroke-width="2.29167" stroke-miterlimit="8" fill="none" fill-rule="evenodd"/><path d="M3694 1080 3694 1170.94" stroke="#E7E6E6" stroke-width="2.29167" stroke-miterlimit="8" fill="none" fill-rule="evenodd"/></g></svg>