<svg width="2883" height="2994" xmlns="http://www.w3.org/2000/svg" xmlns:xlink="http://www.w3.org/1999/xlink" overflow="hidden"><defs><clipPath id="clip0"><rect x="507" y="416" width="2883" height="2994"/></clipPath></defs><g clip-path="url(#clip0)" transform="translate(-507 -416)"><path d="M1787 1715 2112 1715 2112 2148 1787 2148ZM1888.01 1816.01 1888.01 2046.99 2010.99 2046.99 2010.99 1816.01Z" fill="#181717" fill-rule="evenodd"/><path d="M1901 1915.5C1901 1918.54 1898.54 1921 1895.5 1921L1895.5 1921C1892.46 1921 1890 1918.54 1890 1915.5L1890 1823.5C1890 1820.46 1892.46 1818 1895.5 1818L1895.5 1818C1898.54 1818 1901 1820.46 1901 1823.5Z" fill="#5B9BD5" fill-rule="evenodd"/><path d="M1895.5 1828C1892.46 1828 1890 1825.54 1890 1822.5L1890 1822.5C1890 1819.46 1892.46 1817 1895.5 1817L1987.5 1817C1990.54 1817 1993 1819.46 1993 1822.5L1993 1822.5C1993 1825.54 1990.54 1828 1987.5 1828Z" fill="#5B9BD5" fill-rule="evenodd"/><path d="M1890 1823.5C1890 1820.46 1892.46 1818 1895.5 1818 1898.54 1818 1901 1820.46 1901 1823.5 1901 1826.54 1898.54 1829 1895.5 1829 1892.46 1829 1890 1826.54 1890 1823.5Z" fill="#C00000" fill-rule="evenodd"/><path d="M1999 1947.5C1999 1944.46 2001.46 1942 2004.5 1942L2004.5 1942C2007.54 1942 2010 1944.46 2010 1947.5L2010 2039.5C2010 2042.54 2007.54 2045 2004.5 2045L2004.5 2045C2001.46 2045 1999 2042.54 1999 2039.5Z" fill="#70AD47" fill-rule="evenodd"/><path d="M2003.5 2035C2006.54 2035 2009 2037.46 2009 2040.5L2009 2040.5C2009 2043.54 2006.54 2046 2003.5 2046L1911.5 2046C1908.46 2046 1906 2043.54 1906 2040.5L1906 2040.5C1906 2037.46 1908.46 2035 1911.5 2035Z" fill="#70AD47" fill-rule="evenodd"/><path d="M1999 2040C1999 2037.24 2001.24 2035 2004 2035 2006.76 2035 2009 2037.24 2009 2040 2009 2042.76 2006.76 2045 2004 2045 2001.24 2045 1999 2042.76 1999 2040Z" fill="#C00000" fill-rule="evenodd"/><path d="M2097 1927C2099.76 1927 2102 1929.24 2102 1932L2102 1932C2102 1934.76 2099.76 1937 2097 1937L2004 1937C2001.24 1937 1999 1934.76 1999 1932L1999 1932C1999 1929.24 2001.24 1927 2004 1927Z" fill="#0E0614" fill-rule="evenodd"/><path d="M2009 1931.5C2009 1934.54 2006.54 1937 2003.5 1937L2003.5 1937C2000.46 1937 1998 1934.54 1998 1931.5L1998 1839.5C1998 1836.46 2000.46 1834 2003.5 1834L2003.5 1834C2006.54 1834 2009 1836.46 2009 1839.5Z" fill="#7030A0" fill-rule="evenodd"/><path d="M2004 1927C2006.76 1927 2009 1929.24 2009 1932 2009 1934.76 2006.76 1937 2004 1937 2001.24 1937 1999 1934.76 1999 1932 1999 1929.24 2001.24 1927 2004 1927Z" fill="#C00000" fill-rule="evenodd"/><path d="M1901 2025.5C1901 2028.54 1898.54 2031 1895.5 2031L1895.5 2031C1892.46 2031 1890 2028.54 1890 2025.5L1890 1932.5C1890 1929.46 1892.46 1927 1895.5 1927L1895.5 1927C1898.54 1927 1901 1929.46 1901 1932.5Z" fill="#FFC000" fill-rule="evenodd"/><path d="M1890 1931.5C1890 1928.46 1892.46 1926 1895.5 1926 1898.54 1926 1901 1928.46 1901 1931.5 1901 1934.54 1898.54 1937 1895.5 1937 1892.46 1937 1890 1934.54 1890 1931.5Z" fill="#C00000" fill-rule="evenodd"/><text fill="#E7E6E6" font-family="Bahnschrift Light,Bahnschrift Light_MSFontService,sans-serif" font-weight="300" font-size="20" transform="matrix(1 0 0 1 1827.1 2172)">C1P0<tspan font-size="20" x="43.5416" y="0">-</tspan><tspan font-size="20" x="53.2813" y="0">C2P180</tspan><tspan font-size="20" x="118.594" y="0">-</tspan><tspan font-size="20" x="128.333" y="0">C3P0</tspan><tspan font-size="20" x="175.885" y="0">-</tspan><tspan font-size="20" x="185.625" y="0">C4P90</tspan></text><path d="M1786 416 2111 416 2111 848 1786 848ZM1887.01 517.01 1887.01 746.99 2009.99 746.99 2009.99 517.01Z" fill="#181717" fill-rule="evenodd"/><path d="M1889 432C1889 429.238 1891.24 427 1894 427L1894 427C1896.76 427 1899 429.238 1899 432L1899 525C1899 527.761 1896.76 530 1894 530L1894 530C1891.24 530 1889 527.761 1889 525Z" fill="#0C141B" fill-rule="evenodd"/><path d="M1894 520C1896.76 520 1899 522.239 1899 525L1899 525C1899 527.762 1896.76 530 1894 530L1801 530C1798.24 530 1796 527.762 1796 525L1796 525C1796 522.239 1798.24 520 1801 520Z" fill="#0C141B" fill-rule="evenodd"/><path d="M1899 524.5C1899 527.538 1896.76 530 1894 530 1891.24 530 1889 527.538 1889 524.5 1889 521.463 1891.24 519 1894 519 1896.76 519 1899 521.463 1899 524.5Z" fill="#C00000" fill-rule="evenodd"/><path d="M2096 737C2098.76 737 2101 739.239 2101 742L2101 742C2101 744.762 2098.76 747 2096 747L2003 747C2000.24 747 1998 744.762 1998 742L1998 742C1998 739.239 2000.24 737 2003 737Z" fill="#1C2B12" fill-rule="evenodd"/><path d="M2009 741.5C2009 744.537 2006.54 747 2003.5 747L2003.5 747C2000.46 747 1998 744.537 1998 741.5L1998 648.5C1998 645.462 2000.46 643 2003.5 643L2003.5 643C2006.54 643 2009 645.463 2009 648.5Z" fill="#70AD47" fill-rule="evenodd"/><path d="M2003.5 736C2006.54 736 2009 738.462 2009 741.5 2009 744.537 2006.54 747 2003.5 747 2000.46 747 1998 744.537 1998 741.5 1998 738.462 2000.46 736 2003.5 736Z" fill="#C00000" fill-rule="evenodd"/><path d="M2096.5 628C2099.54 628 2102 630.463 2102 633.5L2102 633.5C2102 636.538 2099.54 639 2096.5 639L2004.5 639C2001.46 639 1999 636.538 1999 633.5L1999 633.5C1999 630.463 2001.46 628 2004.5 628Z" fill="#0E0614" fill-rule="evenodd"/><path d="M2009 632.5C2009 635.538 2006.54 638 2003.5 638L2003.5 638C2000.46 638 1998 635.538 1998 632.5L1998 540.5C1998 537.462 2000.46 535 2003.5 535L2003.5 535C2006.54 535 2009 537.462 2009 540.5Z" fill="#7030A0" fill-rule="evenodd"/><path d="M2003.5 628C2006.54 628 2009 630.463 2009 633.5 2009 636.538 2006.54 639 2003.5 639 2000.46 639 1998 636.538 1998 633.5 1998 630.463 2000.46 628 2003.5 628Z" fill="#C00000" fill-rule="evenodd"/><path d="M1801.5 638C1798.46 638 1796 635.538 1796 632.5L1796 632.5C1796 629.463 1798.46 627 1801.5 627L1893.5 627C1896.54 627 1899 629.463 1899 632.5L1899 632.5C1899 635.538 1896.54 638 1893.5 638Z" fill="#201800" fill-rule="evenodd"/><path d="M1894.5 628C1897.54 628 1900 630.239 1900 633 1900 635.762 1897.54 638 1894.5 638 1891.46 638 1889 635.762 1889 633 1889 630.239 1891.46 628 1894.5 628Z" fill="#C00000" fill-rule="evenodd"/><text fill="#E7E6E6" font-family="Bahnschrift Light,Bahnschrift Light_MSFontService,sans-serif" font-weight="300" font-size="20" transform="matrix(1 0 0 1 1826.57 873)">C1P180<tspan font-size="20" x="61.875" y="0">-</tspan><tspan font-size="20" x="71.6146" y="0">C2P90</tspan><tspan font-size="20" x="128.906" y="0">-</tspan><tspan font-size="20" x="138.646" y="0">C3P0</tspan><tspan font-size="20" x="186.198" y="0">-</tspan><tspan font-size="20" x="195.938" y="0">C4P0</tspan></text><path d="M2622 720 2946 720 2946 1152 2622 1152ZM2722.7 820.699 2722.7 1051.3 2845.3 1051.3 2845.3 820.699Z" fill="#181717" fill-rule="evenodd"/><path d="M2822.5 823C2825.54 823 2828 825.462 2828 828.5L2828 828.5C2828 831.537 2825.54 834 2822.5 834L2730.5 834C2727.46 834 2725 831.537 2725 828.5L2725 828.5C2725 825.462 2727.46 823 2730.5 823Z" fill="#5B9BD5" fill-rule="evenodd"/><path d="M2735 827.5C2735 830.537 2732.54 833 2729.5 833L2729.5 833C2726.46 833 2724 830.537 2724 827.5L2724 735.5C2724 732.463 2726.46 730 2729.5 730L2729.5 730C2732.54 730 2735 732.463 2735 735.5Z" fill="#0C141B" fill-rule="evenodd"/><path d="M2730.5 834C2727.46 834 2725 831.537 2725 828.5 2725 825.462 2727.46 823 2730.5 823 2733.54 823 2736 825.462 2736 828.5 2736 831.537 2733.54 834 2730.5 834Z" fill="#C00000" fill-rule="evenodd"/><path d="M2746.5 1050C2743.46 1050 2741 1047.54 2741 1044.5L2741 1044.5C2741 1041.46 2743.46 1039 2746.5 1039L2838.5 1039C2841.54 1039 2844 1041.46 2844 1044.5L2844 1044.5C2844 1047.54 2841.54 1050 2838.5 1050Z" fill="#70AD47" fill-rule="evenodd"/><path d="M2834 1044.5C2834 1041.46 2836.46 1039 2839.5 1039L2839.5 1039C2842.54 1039 2845 1041.46 2845 1044.5L2845 1137.5C2845 1140.54 2842.54 1143 2839.5 1143L2839.5 1143C2836.46 1143 2834 1140.54 2834 1137.5Z" fill="#1C2B12" fill-rule="evenodd"/><path d="M2839 1050C2836.24 1050 2834 1047.54 2834 1044.5 2834 1041.46 2836.24 1039 2839 1039 2841.76 1039 2844 1041.46 2844 1044.5 2844 1047.54 2841.76 1050 2839 1050Z" fill="#C00000" fill-rule="evenodd"/><path d="M2833 844.5C2833 841.463 2835.46 839 2838.5 839L2838.5 839C2841.54 839 2844 841.463 2844 844.5L2844 936.5C2844 939.537 2841.54 942 2838.5 942L2838.5 942C2835.46 942 2833 939.537 2833 936.5Z" fill="#7030A0" fill-rule="evenodd"/><path d="M2838.5 931C2841.54 931 2844 933.463 2844 936.5L2844 936.5C2844 939.538 2841.54 942 2838.5 942L2746.5 942C2743.46 942 2741 939.538 2741 936.5L2741 936.5C2741 933.463 2743.46 931 2746.5 931Z" fill="#7030A0" fill-rule="evenodd"/><path d="M2833 936.5C2833 933.462 2835.46 931 2838.5 931 2841.54 931 2844 933.462 2844 936.5 2844 939.537 2841.54 942 2838.5 942 2835.46 942 2833 939.537 2833 936.5Z" fill="#C00000" fill-rule="evenodd"/><path d="M2735 1028.5C2735 1031.54 2732.54 1034 2729.5 1034L2729.5 1034C2726.46 1034 2724 1031.54 2724 1028.5L2724 936.5C2724 933.462 2726.46 931 2729.5 931L2729.5 931C2732.54 931 2735 933.462 2735 936.5Z" fill="#FFC000" fill-rule="evenodd"/><path d="M2724 936.5C2724 933.462 2726.46 931 2729.5 931 2732.54 931 2735 933.462 2735 936.5 2735 939.537 2732.54 942 2729.5 942 2726.46 942 2724 939.537 2724 936.5Z" fill="#C00000" fill-rule="evenodd"/><text fill="#E7E6E6" font-family="Bahnschrift Light,Bahnschrift Light_MSFontService,sans-serif" font-weight="300" font-size="20" transform="matrix(1 0 0 1 2647.64 1177)">C1P90<tspan font-size="20" x="53.854" y="0">-</tspan><tspan font-size="20" x="63.5938" y="0">C2P180</tspan><tspan font-size="20" x="128.906" y="0">-</tspan><tspan font-size="20" x="138.646" y="0">C3P90</tspan><tspan font-size="20" x="196.51" y="0">-</tspan><tspan font-size="20" x="206.25" y="0">C4P180</tspan></text><path d="M3066 1489 3390 1489 3390 1921 3066 1921ZM3166.7 1589.7 3166.7 1820.3 3289.3 1820.3 3289.3 1589.7Z" fill="#181717" fill-rule="evenodd"/><path d="M3266.5 1592C3269.54 1592 3272 1594.46 3272 1597.5L3272 1597.5C3272 1600.54 3269.54 1603 3266.5 1603L3174.5 1603C3171.46 1603 3169 1600.54 3169 1597.5L3169 1597.5C3169 1594.46 3171.46 1592 3174.5 1592Z" fill="#5B9BD5" fill-rule="evenodd"/><path d="M3179 1598C3179 1600.76 3176.76 1603 3174 1603L3174 1603C3171.24 1603 3169 1600.76 3169 1598L3169 1505C3169 1502.24 3171.24 1500 3174 1500L3174 1500C3176.76 1500 3179 1502.24 3179 1505Z" fill="#0C141B" fill-rule="evenodd"/><path d="M3174.5 1603C3171.46 1603 3169 1600.54 3169 1597.5 3169 1594.46 3171.46 1592 3174.5 1592 3177.54 1592 3180 1594.46 3180 1597.5 3180 1600.54 3177.54 1603 3174.5 1603Z" fill="#C00000" fill-rule="evenodd"/><path d="M3277 1721.5C3277 1718.46 3279.46 1716 3282.5 1716L3282.5 1716C3285.54 1716 3288 1718.46 3288 1721.5L3288 1813.5C3288 1816.54 3285.54 1819 3282.5 1819L3282.5 1819C3279.46 1819 3277 1816.54 3277 1813.5Z" fill="#70AD47" fill-rule="evenodd"/><path d="M3282.5 1809C3285.54 1809 3288 1811.46 3288 1814.5L3288 1814.5C3288 1817.54 3285.54 1820 3282.5 1820L3190.5 1820C3187.46 1820 3185 1817.54 3185 1814.5L3185 1814.5C3185 1811.46 3187.46 1809 3190.5 1809Z" fill="#70AD47" fill-rule="evenodd"/><path d="M3277 1813.5C3277 1810.46 3279.46 1808 3282.5 1808 3285.54 1808 3288 1810.46 3288 1813.5 3288 1816.54 3285.54 1819 3282.5 1819 3279.46 1819 3277 1816.54 3277 1813.5Z" fill="#C00000" fill-rule="evenodd"/><path d="M3277 1613.5C3277 1610.46 3279.46 1608 3282.5 1608L3282.5 1608C3285.54 1608 3288 1610.46 3288 1613.5L3288 1705.5C3288 1708.54 3285.54 1711 3282.5 1711L3282.5 1711C3279.46 1711 3277 1708.54 3277 1705.5Z" fill="#7030A0" fill-rule="evenodd"/><path d="M3282.5 1701C3285.54 1701 3288 1703.46 3288 1706.5L3288 1706.5C3288 1709.54 3285.54 1712 3282.5 1712L3190.5 1712C3187.46 1712 3185 1709.54 3185 1706.5L3185 1706.5C3185 1703.46 3187.46 1701 3190.5 1701Z" fill="#7030A0" fill-rule="evenodd"/><path d="M3277 1706C3277 1703.24 3279.46 1701 3282.5 1701 3285.54 1701 3288 1703.24 3288 1706 3288 1708.76 3285.54 1711 3282.5 1711 3279.46 1711 3277 1708.76 3277 1706Z" fill="#C00000" fill-rule="evenodd"/><path d="M3081 1711C3078.24 1711 3076 1708.76 3076 1706L3076 1706C3076 1703.24 3078.24 1701 3081 1701L3174 1701C3176.76 1701 3179 1703.24 3179 1706L3179 1706C3179 1708.76 3176.76 1711 3174 1711Z" fill="#201800" fill-rule="evenodd"/><path d="M3174 1701C3176.76 1701 3179 1703.46 3179 1706.5 3179 1709.54 3176.76 1712 3174 1712 3171.24 1712 3169 1709.54 3169 1706.5 3169 1703.46 3171.24 1701 3174 1701Z" fill="#C00000" fill-rule="evenodd"/><text fill="#E7E6E6" font-family="Bahnschrift Light,Bahnschrift Light_MSFontService,sans-serif" font-weight="300" font-size="20" transform="matrix(1 0 0 1 3099.83 1946)">C1P90<tspan font-size="20" x="53.854" y="0">-</tspan><tspan font-size="20" x="63.5938" y="0">C2P90</tspan><tspan font-size="20" x="120.885" y="0">-</tspan><tspan font-size="20" x="130.625" y="0">C3P90</tspan><tspan font-size="20" x="188.49" y="0">-</tspan><tspan font-size="20" x="198.229" y="0">C4P90</tspan></text><path d="M2912 2365 3236 2365 3236 2797 2912 2797ZM3012.7 2465.7 3012.7 2696.3 3135.3 2696.3 3135.3 2465.7Z" fill="#181717" fill-rule="evenodd"/><path d="M3014 2379.5C3014 2376.46 3016.46 2374 3019.5 2374L3019.5 2374C3022.54 2374 3025 2376.46 3025 2379.5L3025 2471.5C3025 2474.54 3022.54 2477 3019.5 2477L3019.5 2477C3016.46 2477 3014 2474.54 3014 2471.5Z" fill="#0C141B" fill-rule="evenodd"/><path d="M3019 2468C3021.76 2468 3024 2470.24 3024 2473L3024 2473C3024 2475.76 3021.76 2478 3019 2478L2926 2478C2923.24 2478 2921 2475.76 2921 2473L2921 2473C2921 2470.24 2923.24 2468 2926 2468Z" fill="#0C141B" fill-rule="evenodd"/><path d="M3025 2472.5C3025 2475.54 3022.54 2478 3019.5 2478 3016.46 2478 3014 2475.54 3014 2472.5 3014 2469.46 3016.46 2467 3019.5 2467 3022.54 2467 3025 2469.46 3025 2472.5Z" fill="#C00000" fill-rule="evenodd"/><path d="M3222 2685C3224.76 2685 3227 2687.24 3227 2690L3227 2690C3227 2692.76 3224.76 2695 3222 2695L3129 2695C3126.24 2695 3124 2692.76 3124 2690L3124 2690C3124 2687.24 3126.24 2685 3129 2685Z" fill="#1C2B12" fill-rule="evenodd"/><path d="M3134 2689.5C3134 2692.54 3131.54 2695 3128.5 2695L3128.5 2695C3125.46 2695 3123 2692.54 3123 2689.5L3123 2597.5C3123 2594.46 3125.46 2592 3128.5 2592L3128.5 2592C3131.54 2592 3134 2594.46 3134 2597.5Z" fill="#70AD47" fill-rule="evenodd"/><path d="M3128.5 2684C3131.54 2684 3134 2686.46 3134 2689.5 3134 2692.54 3131.54 2695 3128.5 2695 3125.46 2695 3123 2692.54 3123 2689.5 3123 2686.46 3125.46 2684 3128.5 2684Z" fill="#C00000" fill-rule="evenodd"/><path d="M3123 2488.5C3123 2485.46 3125.46 2483 3128.5 2483L3128.5 2483C3131.54 2483 3134 2485.46 3134 2488.5L3134 2581.5C3134 2584.54 3131.54 2587 3128.5 2587L3128.5 2587C3125.46 2587 3123 2584.54 3123 2581.5Z" fill="#7030A0" fill-rule="evenodd"/><path d="M3127.5 2576C3130.54 2576 3133 2578.46 3133 2581.5L3133 2581.5C3133 2584.54 3130.54 2587 3127.5 2587L3035.5 2587C3032.46 2587 3030 2584.54 3030 2581.5L3030 2581.5C3030 2578.46 3032.46 2576 3035.5 2576Z" fill="#7030A0" fill-rule="evenodd"/><path d="M3123 2581.5C3123 2578.46 3125.46 2576 3128.5 2576 3131.54 2576 3134 2578.46 3134 2581.5 3134 2584.54 3131.54 2587 3128.5 2587 3125.46 2587 3123 2584.54 3123 2581.5Z" fill="#C00000" fill-rule="evenodd"/><path d="M3014 2487.5C3014 2484.46 3016.46 2482 3019.5 2482L3019.5 2482C3022.54 2482 3025 2484.46 3025 2487.5L3025 2580.5C3025 2583.54 3022.54 2586 3019.5 2586L3019.5 2586C3016.46 2586 3014 2583.54 3014 2580.5Z" fill="#FFC000" fill-rule="evenodd"/><path d="M3024 2580.5C3024 2583.54 3021.76 2586 3019 2586 3016.24 2586 3014 2583.54 3014 2580.5 3014 2577.46 3016.24 2575 3019 2575 3021.76 2575 3024 2577.46 3024 2580.5Z" fill="#C00000" fill-rule="evenodd"/><text fill="#E7E6E6" font-family="Bahnschrift Light,Bahnschrift Light_MSFontService,sans-serif" font-weight="300" font-size="20" transform="matrix(1 0 0 1 2951.79 2822)">C1P180<tspan font-size="20" x="61.875" y="0">-</tspan><tspan font-size="20" x="71.6145" y="0">C2P0</tspan><tspan font-size="20" x="118.594" y="0">-</tspan><tspan font-size="20" x="128.333" y="0">C3P90</tspan><tspan font-size="20" x="186.198" y="0">-</tspan><tspan font-size="20" x="195.938" y="0">C4P0</tspan></text><path d="M2231 2936 2555 2936 2555 3368 2231 3368ZM2331.7 3036.7 2331.7 3267.3 2454.3 3267.3 2454.3 3036.7Z" fill="#181717" fill-rule="evenodd"/><path d="M2431.5 3039C2434.54 3039 2437 3041.46 2437 3044.5L2437 3044.5C2437 3047.54 2434.54 3050 2431.5 3050L2339.5 3050C2336.46 3050 2334 3047.54 2334 3044.5L2334 3044.5C2334 3041.46 2336.46 3039 2339.5 3039Z" fill="#5B9BD5" fill-rule="evenodd"/><path d="M2343 3044C2343 3046.76 2340.76 3049 2338 3049L2338 3049C2335.24 3049 2333 3046.76 2333 3044L2333 2951C2333 2948.24 2335.24 2946 2338 2946L2338 2946C2340.76 2946 2343 2948.24 2343 2951Z" fill="#0C141B" fill-rule="evenodd"/><path d="M2338.5 3050C2335.46 3050 2333 3047.54 2333 3044.5 2333 3041.46 2335.46 3039 2338.5 3039 2341.54 3039 2344 3041.46 2344 3044.5 2344 3047.54 2341.54 3050 2338.5 3050Z" fill="#C00000" fill-rule="evenodd"/><path d="M2354 3267C2351.24 3267 2349 3264.76 2349 3262L2349 3262C2349 3259.24 2351.24 3257 2354 3257L2448 3257C2450.76 3257 2453 3259.24 2453 3262L2453 3262C2453 3264.76 2450.76 3267 2448 3267Z" fill="#70AD47" fill-rule="evenodd"/><path d="M2442 3262.5C2442 3259.46 2444.46 3257 2447.5 3257L2447.5 3257C2450.54 3257 2453 3259.46 2453 3262.5L2453 3354.5C2453 3357.54 2450.54 3360 2447.5 3360L2447.5 3360C2444.46 3360 2442 3357.54 2442 3354.5Z" fill="#1C2B12" fill-rule="evenodd"/><path d="M2446.5 3268C2443.46 3268 2441 3265.54 2441 3262.5 2441 3259.46 2443.46 3257 2446.5 3257 2449.54 3257 2452 3259.46 2452 3262.5 2452 3265.54 2449.54 3268 2446.5 3268Z" fill="#C00000" fill-rule="evenodd"/><path d="M2354.5 3158C2351.46 3158 2349 3155.54 2349 3152.5L2349 3152.5C2349 3149.46 2351.46 3147 2354.5 3147L2447.5 3147C2450.54 3147 2453 3149.46 2453 3152.5L2453 3152.5C2453 3155.54 2450.54 3158 2447.5 3158Z" fill="#7030A0" fill-rule="evenodd"/><path d="M2442 3153.5C2442 3150.46 2444.46 3148 2447.5 3148L2447.5 3148C2450.54 3148 2453 3150.46 2453 3153.5L2453 3245.5C2453 3248.54 2450.54 3251 2447.5 3251L2447.5 3251C2444.46 3251 2442 3248.54 2442 3245.5Z" fill="#7030A0" fill-rule="evenodd"/><path d="M2447 3158C2444.24 3158 2442 3155.54 2442 3152.5 2442 3149.46 2444.24 3147 2447 3147 2449.76 3147 2452 3149.46 2452 3152.5 2452 3155.54 2449.76 3158 2447 3158Z" fill="#C00000" fill-rule="evenodd"/><path d="M2333 3059.5C2333 3056.46 2335.46 3054 2338.5 3054L2338.5 3054C2341.54 3054 2344 3056.46 2344 3059.5L2344 3152.5C2344 3155.54 2341.54 3158 2338.5 3158L2338.5 3158C2335.46 3158 2333 3155.54 2333 3152.5Z" fill="#FFC000" fill-rule="evenodd"/><path d="M2344 3152.5C2344 3155.54 2341.54 3158 2338.5 3158 2335.46 3158 2333 3155.54 2333 3152.5 2333 3149.46 2335.46 3147 2338.5 3147 2341.54 3147 2344 3149.46 2344 3152.5Z" fill="#C00000" fill-rule="evenodd"/><text fill="#E7E6E6" font-family="Bahnschrift Light,Bahnschrift Light_MSFontService,sans-serif" font-weight="300" font-size="20" transform="matrix(1 0 0 1 2261.58 3394)">C1P90<tspan font-size="20" x="53.854" y="0">-</tspan><tspan font-size="20" x="63.5938" y="0">C2P0</tspan><tspan font-size="20" x="110.573" y="0">-</tspan><tspan font-size="20" x="120.313" y="0">C3P180</tspan><tspan font-size="20" x="186.198" y="0">-</tspan><tspan font-size="20" x="195.938" y="0">C4P180</tspan></text><path d="M1342 2936 1666 2936 1666 3369 1342 3369ZM1442.7 3036.7 1442.7 3268.3 1565.3 3268.3 1565.3 3036.7Z" fill="#181717" fill-rule="evenodd"/><path d="M1455 3138C1455 3140.76 1452.76 3143 1450 3143L1450 3143C1447.24 3143 1445 3140.76 1445 3138L1445 3044C1445 3041.24 1447.24 3039 1450 3039L1450 3039C1452.76 3039 1455 3041.24 1455 3044Z" fill="#5B9BD5" fill-rule="evenodd"/><path d="M1450 3049C1447.24 3049 1445 3046.76 1445 3044L1445 3044C1445 3041.24 1447.24 3039 1450 3039L1543 3039C1545.76 3039 1548 3041.24 1548 3044L1548 3044C1548 3046.76 1545.76 3049 1543 3049Z" fill="#5B9BD5" fill-rule="evenodd"/><path d="M1445 3044.5C1445 3041.46 1447.24 3039 1450 3039 1452.76 3039 1455 3041.46 1455 3044.5 1455 3047.54 1452.76 3050 1450 3050 1447.24 3050 1445 3047.54 1445 3044.5Z" fill="#C00000" fill-rule="evenodd"/><path d="M1466 3267C1463.24 3267 1461 3264.76 1461 3262L1461 3262C1461 3259.24 1463.24 3257 1466 3257L1559 3257C1561.76 3257 1564 3259.24 1564 3262L1564 3262C1564 3264.76 1561.76 3267 1559 3267Z" fill="#70AD47" fill-rule="evenodd"/><path d="M1554 3262C1554 3259.24 1556.24 3257 1559 3257L1559 3257C1561.76 3257 1564 3259.24 1564 3262L1564 3355C1564 3357.76 1561.76 3360 1559 3360L1559 3360C1556.24 3360 1554 3357.76 1554 3355Z" fill="#1C2B12" fill-rule="evenodd"/><path d="M1558.5 3268C1555.46 3268 1553 3265.54 1553 3262.5 1553 3259.46 1555.46 3257 1558.5 3257 1561.54 3257 1564 3259.46 1564 3262.5 1564 3265.54 1561.54 3268 1558.5 3268Z" fill="#C00000" fill-rule="evenodd"/><path d="M1466.5 3159C1463.46 3159 1461 3156.54 1461 3153.5L1461 3153.5C1461 3150.46 1463.46 3148 1466.5 3148L1558.5 3148C1561.54 3148 1564 3150.46 1564 3153.5L1564 3153.5C1564 3156.54 1561.54 3159 1558.5 3159Z" fill="#7030A0" fill-rule="evenodd"/><path d="M1554 3153.5C1554 3150.46 1556.46 3148 1559.5 3148L1559.5 3148C1562.54 3148 1565 3150.46 1565 3153.5L1565 3246.5C1565 3249.54 1562.54 3252 1559.5 3252L1559.5 3252C1556.46 3252 1554 3249.54 1554 3246.5Z" fill="#7030A0" fill-rule="evenodd"/><path d="M1559.5 3159C1556.46 3159 1554 3156.54 1554 3153.5 1554 3150.46 1556.46 3148 1559.5 3148 1562.54 3148 1565 3150.46 1565 3153.5 1565 3156.54 1562.54 3159 1559.5 3159Z" fill="#C00000" fill-rule="evenodd"/><path d="M1456 3245.5C1456 3248.54 1453.54 3251 1450.5 3251L1450.5 3251C1447.46 3251 1445 3248.54 1445 3245.5L1445 3153.5C1445 3150.46 1447.46 3148 1450.5 3148L1450.5 3148C1453.54 3148 1456 3150.46 1456 3153.5Z" fill="#FFC000" fill-rule="evenodd"/><path d="M1445 3152.5C1445 3149.46 1447.46 3147 1450.5 3147 1453.54 3147 1456 3149.46 1456 3152.5 1456 3155.54 1453.54 3158 1450.5 3158 1447.46 3158 1445 3155.54 1445 3152.5Z" fill="#C00000" fill-rule="evenodd"/><text fill="#E7E6E6" font-family="Bahnschrift Light,Bahnschrift Light_MSFontService,sans-serif" font-weight="300" font-size="20" transform="matrix(1 0 0 1 1369.48 3394)">C1P0<tspan font-size="20" x="43.5418" y="0">-</tspan><tspan font-size="20" x="53.2813" y="0">C2P180</tspan><tspan font-size="20" x="118.594" y="0">-</tspan><tspan font-size="20" x="128.333" y="0">C3P180</tspan><tspan font-size="20" x="194.219" y="0">-</tspan><tspan font-size="20" x="203.958" y="0">C4P180</tspan></text><path d="M661 2365 986 2365 986 2797 661 2797ZM762.01 2466.01 762.01 2695.99 884.99 2695.99 884.99 2466.01Z" fill="#181717" fill-rule="evenodd"/><path d="M862 2468C864.761 2468 867 2470.24 867 2473L867 2473C867 2475.76 864.761 2478 862 2478L769 2478C766.239 2478 764 2475.76 764 2473L764 2473C764 2470.24 766.239 2468 769 2468Z" fill="#5B9BD5" fill-rule="evenodd"/><path d="M774 2473C774 2475.76 771.762 2478 769 2478L769 2478C766.239 2478 764 2475.76 764 2473L764 2380C764 2377.24 766.239 2375 769 2375L769 2375C771.762 2375 774 2377.24 774 2380Z" fill="#0C141B" fill-rule="evenodd"/><path d="M769.5 2478C766.463 2478 764 2475.54 764 2472.5 764 2469.46 766.463 2467 769.5 2467 772.538 2467 775 2469.46 775 2472.5 775 2475.54 772.538 2478 769.5 2478Z" fill="#C00000" fill-rule="evenodd"/><path d="M972 2685C974.761 2685 977 2687.24 977 2690L977 2690C977 2692.76 974.761 2695 972 2695L878 2695C875.239 2695 873 2692.76 873 2690L873 2690C873 2687.24 875.239 2685 878 2685Z" fill="#1C2B12" fill-rule="evenodd"/><path d="M883 2689.5C883 2692.54 880.538 2695 877.5 2695L877.5 2695C874.463 2695 872 2692.54 872 2689.5L872 2597.5C872 2594.46 874.463 2592 877.5 2592L877.5 2592C880.538 2592 883 2594.46 883 2597.5Z" fill="#70AD47" fill-rule="evenodd"/><path d="M878.5 2684C881.538 2684 884 2686.46 884 2689.5 884 2692.54 881.538 2695 878.5 2695 875.463 2695 873 2692.54 873 2689.5 873 2686.46 875.463 2684 878.5 2684Z" fill="#C00000" fill-rule="evenodd"/><path d="M972 2576C974.761 2576 977 2578.24 977 2581L977 2581C977 2583.76 974.761 2586 972 2586L878 2586C875.239 2586 873 2583.76 873 2581L873 2581C873 2578.24 875.239 2576 878 2576Z" fill="#0E0614" fill-rule="evenodd"/><path d="M883 2581C883 2583.76 880.762 2586 878 2586L878 2586C875.239 2586 873 2583.76 873 2581L873 2488C873 2485.24 875.239 2483 878 2483L878 2483C880.762 2483 883 2485.24 883 2488Z" fill="#7030A0" fill-rule="evenodd"/><path d="M878.5 2576C881.537 2576 884 2578.24 884 2581 884 2583.76 881.537 2586 878.5 2586 875.462 2586 873 2583.76 873 2581 873 2578.24 875.462 2576 878.5 2576Z" fill="#C00000" fill-rule="evenodd"/><path d="M675.5 2586C672.462 2586 670 2583.54 670 2580.5L670 2580.5C670 2577.46 672.462 2575 675.5 2575L768.5 2575C771.538 2575 774 2577.46 774 2580.5L774 2580.5C774 2583.54 771.538 2586 768.5 2586Z" fill="#201800" fill-rule="evenodd"/><path d="M769 2575C771.762 2575 774 2577.46 774 2580.5 774 2583.54 771.762 2586 769 2586 766.239 2586 764 2583.54 764 2580.5 764 2577.46 766.239 2575 769 2575Z" fill="#C00000" fill-rule="evenodd"/><text fill="#E7E6E6" font-family="Bahnschrift Light,Bahnschrift Light_MSFontService,sans-serif" font-weight="300" font-size="20" transform="matrix(1 0 0 1 705.934 2822)">C1P90<tspan font-size="20" x="53.8542" y="0">-</tspan><tspan font-size="20" x="63.5938" y="0">C2P90</tspan><tspan font-size="20" x="120.885" y="0">-</tspan><tspan font-size="20" x="130.625" y="0">C3P0</tspan><tspan font-size="20" x="178.177" y="0">-</tspan><tspan font-size="20" x="187.917" y="0">C4P0</tspan></text><path d="M507 1489 831 1489 831 1921 507 1921ZM607.699 1589.7 607.699 1820.3 730.301 1820.3 730.301 1589.7Z" fill="#181717" fill-rule="evenodd"/><path d="M620 1690.5C620 1693.54 617.538 1696 614.5 1696L614.5 1696C611.462 1696 609 1693.54 609 1690.5L609 1597.5C609 1594.46 611.463 1592 614.5 1592L614.5 1592C617.538 1592 620 1594.46 620 1597.5Z" fill="#5B9BD5" fill-rule="evenodd"/><path d="M614.5 1603C611.462 1603 609 1600.54 609 1597.5L609 1597.5C609 1594.46 611.462 1592 614.5 1592L706.5 1592C709.537 1592 712 1594.46 712 1597.5L712 1597.5C712 1600.54 709.537 1603 706.5 1603Z" fill="#5B9BD5" fill-rule="evenodd"/><path d="M609 1598C609 1595.24 611.463 1593 614.5 1593 617.538 1593 620 1595.24 620 1598 620 1600.76 617.538 1603 614.5 1603 611.463 1603 609 1600.76 609 1598Z" fill="#C00000" fill-rule="evenodd"/><path d="M718 1722.5C718 1719.46 720.463 1717 723.5 1717L723.5 1717C726.538 1717 729 1719.46 729 1722.5L729 1815.5C729 1818.54 726.538 1821 723.5 1821L723.5 1821C720.463 1821 718 1818.54 718 1815.5Z" fill="#70AD47" fill-rule="evenodd"/><path d="M723.5 1810C726.538 1810 729 1812.46 729 1815.5L729 1815.5C729 1818.54 726.538 1821 723.5 1821L631.5 1821C628.462 1821 626 1818.54 626 1815.5L626 1815.5C626 1812.46 628.462 1810 631.5 1810Z" fill="#70AD47" fill-rule="evenodd"/><path d="M718 1814.5C718 1811.46 720.463 1809 723.5 1809 726.538 1809 729 1811.46 729 1814.5 729 1817.54 726.538 1820 723.5 1820 720.463 1820 718 1817.54 718 1814.5Z" fill="#C00000" fill-rule="evenodd"/><path d="M718 1612.5C718 1609.46 720.463 1607 723.5 1607L723.5 1607C726.538 1607 729 1609.46 729 1612.5L729 1704.5C729 1707.54 726.538 1710 723.5 1710L723.5 1710C720.463 1710 718 1707.54 718 1704.5Z" fill="#7030A0" fill-rule="evenodd"/><path d="M724 1700C726.762 1700 729 1702.24 729 1705L729 1705C729 1707.76 726.762 1710 724 1710L631 1710C628.239 1710 626 1707.76 626 1705L626 1705C626 1702.24 628.239 1700 631 1700Z" fill="#7030A0" fill-rule="evenodd"/><path d="M718 1704.5C718 1701.46 720.463 1699 723.5 1699 726.538 1699 729 1701.46 729 1704.5 729 1707.54 726.538 1710 723.5 1710 720.463 1710 718 1707.54 718 1704.5Z" fill="#C00000" fill-rule="evenodd"/><path d="M619 1799C619 1801.76 616.762 1804 614 1804L614 1804C611.239 1804 609 1801.76 609 1799L609 1705C609 1702.24 611.239 1700 614 1700L614 1700C616.762 1700 619 1702.24 619 1705Z" fill="#FFC000" fill-rule="evenodd"/><path d="M609 1705.5C609 1702.46 611.463 1700 614.5 1700 617.538 1700 620 1702.46 620 1705.5 620 1708.54 617.538 1711 614.5 1711 611.463 1711 609 1708.54 609 1705.5Z" fill="#C00000" fill-rule="evenodd"/><text fill="#E7E6E6" font-family="Bahnschrift Light,Bahnschrift Light_MSFontService,sans-serif" font-weight="300" font-size="20" transform="matrix(1 0 0 1 541.836 1946)">C1P0<tspan font-size="20" x="43.5416" y="0">-</tspan><tspan font-size="20" x="53.2813" y="0">C2P180</tspan><tspan font-size="20" x="118.594" y="0">-</tspan><tspan font-size="20" x="128.333" y="0">C3P90</tspan><tspan font-size="20" x="186.198" y="0">-</tspan><tspan font-size="20" x="195.938" y="0">C4P90</tspan></text><path d="M951 720 1275 720 1275 1152 951 1152ZM1051.7 820.699 1051.7 1051.3 1174.3 1051.3 1174.3 820.699Z" fill="#181717" fill-rule="evenodd"/><path d="M1064 920.5C1064 923.538 1061.54 926 1058.5 926L1058.5 926C1055.46 926 1053 923.538 1053 920.5L1053 828.5C1053 825.462 1055.46 823 1058.5 823L1058.5 823C1061.54 823 1064 825.462 1064 828.5Z" fill="#5B9BD5" fill-rule="evenodd"/><path d="M1059 833C1056.24 833 1054 830.761 1054 828L1054 828C1054 825.239 1056.24 823 1059 823L1152 823C1154.76 823 1157 825.239 1157 828L1157 828C1157 830.761 1154.76 833 1152 833Z" fill="#5B9BD5" fill-rule="evenodd"/><path d="M1053 828.5C1053 825.462 1055.46 823 1058.5 823 1061.54 823 1064 825.462 1064 828.5 1064 831.537 1061.54 834 1058.5 834 1055.46 834 1053 831.537 1053 828.5Z" fill="#C00000" fill-rule="evenodd"/><path d="M1163 953.5C1163 950.462 1165.46 948 1168.5 948L1168.5 948C1171.54 948 1174 950.462 1174 953.5L1174 1045.5C1174 1048.54 1171.54 1051 1168.5 1051L1168.5 1051C1165.46 1051 1163 1048.54 1163 1045.5Z" fill="#70AD47" fill-rule="evenodd"/><path d="M1168 1041C1170.76 1041 1173 1043.24 1173 1046L1173 1046C1173 1048.76 1170.76 1051 1168 1051L1075 1051C1072.24 1051 1070 1048.76 1070 1046L1070 1046C1070 1043.24 1072.24 1041 1075 1041Z" fill="#70AD47" fill-rule="evenodd"/><path d="M1162 1045.5C1162 1042.46 1164.46 1040 1167.5 1040 1170.54 1040 1173 1042.46 1173 1045.5 1173 1048.54 1170.54 1051 1167.5 1051 1164.46 1051 1162 1048.54 1162 1045.5Z" fill="#C00000" fill-rule="evenodd"/><path d="M1163 845C1163 842.239 1165.24 840 1168 840L1168 840C1170.76 840 1173 842.239 1173 845L1173 938C1173 940.761 1170.76 943 1168 943L1168 943C1165.24 943 1163 940.761 1163 938Z" fill="#7030A0" fill-rule="evenodd"/><path d="M1167.5 932C1170.54 932 1173 934.463 1173 937.5L1173 937.5C1173 940.538 1170.54 943 1167.5 943L1075.5 943C1072.46 943 1070 940.538 1070 937.5L1070 937.5C1070 934.463 1072.46 932 1075.5 932Z" fill="#7030A0" fill-rule="evenodd"/><path d="M1163 937.5C1163 934.462 1165.24 932 1168 932 1170.76 932 1173 934.462 1173 937.5 1173 940.537 1170.76 943 1168 943 1165.24 943 1163 940.537 1163 937.5Z" fill="#C00000" fill-rule="evenodd"/><path d="M966.5 943C963.462 943 961 940.538 961 937.5L961 937.5C961 934.463 963.462 932 966.5 932L1058.5 932C1061.54 932 1064 934.463 1064 937.5L1064 937.5C1064 940.538 1061.54 943 1058.5 943Z" fill="#201800" fill-rule="evenodd"/><path d="M1059 932C1061.76 932 1064 934.462 1064 937.5 1064 940.537 1061.76 943 1059 943 1056.24 943 1054 940.537 1054 937.5 1054 934.462 1056.24 932 1059 932Z" fill="#C00000" fill-rule="evenodd"/><text fill="#E7E6E6" font-family="Bahnschrift Light,Bahnschrift Light_MSFontService,sans-serif" font-weight="300" font-size="20" transform="matrix(1 0 0 1 990.443 1177)">C1P0<tspan font-size="20" x="43.5416" y="0">-</tspan><tspan font-size="20" x="53.2813" y="0">C2P90</tspan><tspan font-size="20" x="110.573" y="0">-</tspan><tspan font-size="20" x="120.313" y="0">C3P90</tspan><tspan font-size="20" x="178.177" y="0">-</tspan><tspan font-size="20" x="187.917" y="0">C4P90</tspan></text><path d="M1983.79 932.417 1983.79 1689.03 1979.21 1689.03 1979.21 932.417ZM1967.75 937 1981.5 909.5 1995.25 937Z" fill="#E7E6E6"/><path d="M1918.79 909.5 1918.79 1666.11 1914.21 1666.11 1914.21 909.5ZM1930.25 1661.53 1916.5 1689.03 1902.75 1661.53Z" fill="#E7E6E6"/><text fill="#E7E6E6" font-family="Bahnschrift Light,Bahnschrift Light_MSFontService,sans-serif" font-weight="300" font-size="23" transform="matrix(-1.83697e-16 -1 1 -1.83697e-16 2017.76 1405)">C1P180<tspan font-size="23" x="70" y="1.28588e-14">-</tspan><tspan font-size="23" x="81" y="1.48795e-14">C2P90</tspan><tspan font-size="23" x="146" y="2.68198e-14">-</tspan><tspan font-size="23" x="157" y="2.88404e-14">C4P0</tspan><tspan font-size="23" x="1" y="-118.206">C1P0</tspan><tspan font-size="23" x="50" y="-118.206">-</tspan><tspan font-size="23" x="61" y="-118.206">C2P180</tspan><tspan font-size="23" x="135" y="-118.206">-</tspan><tspan font-size="23" x="146" y="-118.206">C4P90</tspan></text><path d="M2593.99 1233.49 2141.05 1773.28 2137.54 1770.34 2590.48 1230.55ZM2578.75 1226.69 2606.96 1214.47 2599.82 1244.37Z" fill="#E7E6E6"/><path d="M2138.57 1668.05 2591.5 1128.26 2595.01 1131.21 2142.08 1671ZM2153.8 1674.85 2125.59 1687.08 2132.74 1657.17Z" fill="#E7E6E6"/><text fill="#E7E6E6" font-family="Bahnschrift Light,Bahnschrift Light_MSFontService,sans-serif" font-weight="300" font-size="23" transform="matrix(0.642788 -0.766044 0.766044 0.642788 2324.43 1608)">C1P90<tspan font-size="23" x="61.0959" y="-0.307795">-</tspan><tspan font-size="23" x="71.7219" y="-0.0900307">C4P180 + C3P90</tspan><tspan font-size="23" x="75.4471" y="-118.553">C1P0</tspan><tspan font-size="23" x="123.912" y="-118.357">-</tspan><tspan font-size="23" x="134.537" y="-118.139">C4P90 + C3P0</tspan></text><path d="M3017.89 1793.97 2138.43 1949.05 2137.64 1944.53 3017.1 1789.46ZM3010.59 1778.97 3040.06 1787.74 3015.37 1806.05Z" fill="#E7E6E6"/><path d="M2160.36 1874.56 3039.82 1719.49 3040.62 1724 2161.16 1879.08ZM2167.66 1889.57 2138.19 1880.8 2162.89 1862.48Z" fill="#E7E6E6"/><text fill="#E7E6E6" font-family="Bahnschrift Light,Bahnschrift Light_MSFontService,sans-serif" font-weight="300" font-size="23" transform="matrix(0.984808 -0.173648 0.173648 0.984808 2484.37 1923)">C1P90<tspan font-size="23" x="60.8079" y="-0.447614">-</tspan><tspan font-size="23" x="71.7123" y="-0.555725">C2P90 + C3P90</tspan><tspan font-size="23" x="19.5214" y="-118.409">C1P0</tspan><tspan font-size="23" x="68.3137" y="-118.945">-</tspan><tspan font-size="23" x="79.0444" y="-118.068">C2P180 + C3P0</tspan></text><path d="M2861.44 2513.97 2133.06 2093.44 2135.35 2089.47 2863.73 2510ZM2865.49 2497.79 2882.43 2523.44 2851.74 2521.6Z" fill="#E7E6E6"/><path d="M2158.51 2027.83 2886.89 2448.36 2884.6 2452.33 2156.22 2031.8ZM2154.46 2044.01 2137.52 2018.36 2168.21 2020.2Z" fill="#E7E6E6"/><text fill="#E7E6E6" font-family="Bahnschrift Light,Bahnschrift Light_MSFontService,sans-serif" font-weight="300" font-size="23" transform="matrix(0.866025 0.5 -0.5 0.866025 2367.1 2268)">C1P180<tspan font-size="23" x="69.4922" y="0.293186">-</tspan><tspan font-size="23" x="80.1562" y="-0.0901871">C2P0</tspan><tspan font-size="23" x="133.617" y="0.221085">-</tspan><tspan font-size="23" x="144.281" y="-0.162411">C4P0 + C3P90</tspan><tspan font-size="23" x="-29.9656" y="-117.799">C1P0</tspan><tspan font-size="23" x="18.558" y="-118.102">-</tspan><tspan font-size="23" x="29.2221" y="-118.485">C2P180</tspan><tspan font-size="23" x="103.152" y="-118.444">-</tspan><tspan font-size="23" x="114.316" y="-117.962">C3P0</tspan><tspan font-size="23" x="167.277" y="-118.517">-</tspan><tspan font-size="23" x="178.441" y="-118.034">C4P90</tspan></text><path d="M2253.97 2889.24 2006.31 2208.78 2010.61 2207.21 2258.28 2887.67ZM2267.48 2879.44 2263.96 2909.99 2241.64 2888.85Z" fill="#E7E6E6"/><path d="M2087.19 2227.67 2334.86 2908.13 2330.55 2909.7 2082.88 2229.24ZM2073.68 2237.47 2077.2 2206.92 2099.53 2228.06Z" fill="#E7E6E6"/><text fill="#E7E6E6" font-family="Bahnschrift Light,Bahnschrift Light_MSFontService,sans-serif" font-weight="300" font-size="23" transform="matrix(0.34202 0.939693 -0.939693 0.34202 2049.62 2428)">C1P90<tspan font-size="23" x="60.6664" y="-0.0227451">-</tspan><tspan font-size="23" x="71.3367" y="-0.101154">C2P0</tspan><tspan font-size="23" x="124.554" y="-0.124531">-</tspan><tspan font-size="23" x="135.224" y="-0.202713">C4P180 + C3P180</tspan><tspan font-size="23" x="29.2828" y="-118.463">C1P0</tspan><tspan font-size="23" x="78.2051" y="-118.381">-</tspan><tspan font-size="23" x="88.8755" y="-118.46">C2P180+C3P0 + C4P90</tspan></text><path d="M1631.52 2908.08 1879.19 2227.62 1883.5 2229.19 1635.83 2909.65ZM1866.85 2228.01 1889.18 2206.87 1892.7 2237.42Z" fill="#E7E6E6"/><path d="M1821.6 2209.32 1573.93 2889.78 1569.62 2888.21 1817.29 2207.75ZM1586.27 2889.39 1563.94 2910.53 1560.42 2879.99Z" fill="#E7E6E6"/><text fill="#E7E6E6" font-family="Bahnschrift Light,Bahnschrift Light_MSFontService,sans-serif" font-weight="300" font-size="23" transform="matrix(0.34202 -0.939693 0.939693 0.34202 1770.47 2640)">C3P0 + C4P90<tspan font-size="23" x="-29.1786" y="-118.177">C4P180</tspan><tspan font-size="23" x="46.319" y="-118.339">-</tspan><tspan font-size="23" x="56.9893" y="-118.261">C3P180</tspan></text><path d="M1012.36 2520.27 1740.74 2099.74 1743.03 2103.71 1014.65 2524.24ZM1731.04 2092.11 1761.73 2090.27 1744.79 2115.92Z" fill="#E7E6E6"/><path d="M1759.57 2019.15 1031.19 2439.68 1028.9 2435.71 1757.28 2015.18ZM1040.89 2447.31 1010.2 2449.15 1027.14 2423.49Z" fill="#E7E6E6"/><text fill="#E7E6E6" font-family="Bahnschrift Light,Bahnschrift Light_MSFontService,sans-serif" font-weight="300" font-size="23" transform="matrix(0.866025 -0.5 0.5 0.866025 1314.06 2391)">C1P0<tspan font-size="23" x="49.0234" y="-0.563843">-</tspan><tspan font-size="23" x="59.6875" y="-0.180405">C2P180</tspan><tspan font-size="23" x="133.617" y="-0.221024">-</tspan><tspan font-size="23" x="144.281" y="0.162411">C4P90</tspan><tspan font-size="23" x="37.5194" y="-118.057">C1P90</tspan><tspan font-size="23" x="98.5663" y="-118.607">-</tspan><tspan font-size="23" x="109.23" y="-118.224">C2P190</tspan><tspan font-size="23" x="182.301" y="-118.761">-</tspan><tspan font-size="23" x="192.965" y="-118.377">C4P0</tspan></text><path d="M859.608 1787.25 1739.07 1942.32 1738.27 1946.83 858.812 1791.76ZM1736.55 1930.24 1761.24 1948.56 1731.77 1957.32Z" fill="#E7E6E6"/><path d="M1758.48 1884.43 879.02 1729.36 879.816 1724.85 1759.28 1879.92ZM881.544 1741.44 856.849 1723.13 886.319 1714.36Z" fill="#E7E6E6"/><text fill="#E7E6E6" font-family="Bahnschrift Light,Bahnschrift Light_MSFontService,sans-serif" font-weight="300" font-size="23" transform="matrix(0.984808 0.173648 -0.173648 0.984808 1275.92 1900)">C3P0<tspan font-size="23" x="-16.93" y="-117.851">C3P90</tspan></text><path d="M1295.49 1210.85 1744.25 1745.66 1740.74 1748.61 1291.98 1213.8ZM1750.08 1734.79 1757.23 1764.69 1729.02 1752.46Z" fill="#E7E6E6"/><path d="M1777.9 1691.83 1316.61 1142.09 1320.12 1139.15 1781.41 1688.89ZM1310.78 1152.97 1303.64 1123.06 1331.85 1135.29Z" fill="#E7E6E6"/><text fill="#E7E6E6" font-family="Bahnschrift Light,Bahnschrift Light_MSFontService,sans-serif" font-weight="300" font-size="23" transform="matrix(0.642788 0.766044 -0.766044 0.642788 1452.04 1458)">C2P180<tspan font-size="23" x="73.4348" y="-0.395679">-</tspan><tspan font-size="23" x="84.8268" y="0.029438">C3P0</tspan><tspan font-size="23" x="-52.3532" y="-118.072">C2P90</tspan><tspan font-size="23" x="12.9346" y="-118.093">-</tspan><tspan font-size="23" x="23.5605" y="-118.31">C3P90</tspan></text><path d="M2162.15 758.952 2598.44 917.748 2596.87 922.055 2160.59 763.259ZM2160.97 775.594 2139.84 753.268 2170.38 749.753Z" fill="#E7E6E6"/><path d="M2570.72 843.408 2134.44 684.612 2136 680.305 2572.29 839.101ZM2571.9 826.766 2593.04 849.092 2562.5 852.608Z" fill="#E7E6E6"/><text fill="#E7E6E6" font-family="Bahnschrift Light,Bahnschrift Light_MSFontService,sans-serif" font-weight="300" font-size="23" transform="matrix(0.939693 0.34202 -0.34202 0.939693 2224.58 823)">C1P180<tspan font-size="23" x="69.4223" y="0.272631">-</tspan><tspan font-size="23" x="80.0604" y="-0.406816">C2P90</tspan><tspan font-size="23" x="145.599" y="0.215126">-</tspan><tspan font-size="23" x="156.237" y="-0.464321">C3P0</tspan><tspan font-size="23" x="209.784" y="0.265617">-</tspan><tspan font-size="23" x="220.422" y="-0.413826">C4P0</tspan><tspan font-size="23" x="-39.7765" y="-118.545">C1P90</tspan><tspan font-size="23" x="21.0312" y="-118.329">-</tspan><tspan font-size="23" x="32.0114" y="-118.069">C2P180</tspan><tspan font-size="23" x="105.823" y="-118.33">-</tspan><tspan font-size="23" x="116.803" y="-118.069">C3P90</tspan><tspan font-size="23" x="182" y="-118.387">-</tspan><tspan font-size="23" x="192.98" y="-118.127">C4P180</tspan></text><path d="M2911.07 1231.83 3042.53 1459.52 3038.56 1461.81 2907.1 1234.12ZM2899.47 1243.82 2897.63 1213.13 2923.29 1230.07Z" fill="#E7E6E6"/><path d="M3103.3 1444.02 2971.84 1216.33 2975.81 1214.04 3107.27 1441.73ZM3114.9 1432.03 3116.74 1462.72 3091.08 1445.78Z" fill="#E7E6E6"/><text fill="#E7E6E6" font-family="Bahnschrift Light,Bahnschrift Light_MSFontService,sans-serif" font-weight="300" font-size="23" transform="matrix(0.5 0.866025 -0.866025 0.5 2898.49 1288)">C2P180<tspan font-size="23" x="73.9022" y="-0.00234222">-</tspan><tspan font-size="23" x="84.4177" y="-0.215797">C4P180</tspan><tspan font-size="23" x="48.8461" y="-118.604">C2P90</tspan><tspan font-size="23" x="114.538" y="-118.385">-</tspan><tspan font-size="23" x="125.053" y="-118.598">C4P90</tspan></text><path d="M3147.95 2005.92 3089.88 2335.21 3085.37 2334.41 3143.43 2005.12ZM3131.35 2007.65 3149.67 1982.95 3158.44 2012.42Z" fill="#E7E6E6"/><path d="M3154.25 2317.89 3213.44 1982.21 3217.95 1983 3158.76 2318.69ZM3170.84 2316.16 3152.52 2340.86 3143.76 2311.39Z" fill="#E7E6E6"/><text fill="#E7E6E6" font-family="Bahnschrift Light,Bahnschrift Light_MSFontService,sans-serif" font-weight="300" font-size="23" transform="matrix(0.173648 -0.984808 0.984808 0.173648 3082.55 2260)">C1P90<tspan font-size="23" x="60.9197" y="-0.0334492">-</tspan><tspan font-size="23" x="71.096" y="0.0914907">C2P90</tspan><tspan font-size="23" x="137.078" y="-0.0266323">-</tspan><tspan font-size="23" x="147.254" y="0.0985489">C4P90</tspan><tspan font-size="23" x="15.7796" y="118.284">C1P180</tspan><tspan font-size="23" x="85.8217" y="118.157">-</tspan><tspan font-size="23" x="95.998" y="118.282">C2P0</tspan><tspan font-size="23" x="149.799" y="118.191">-</tspan><tspan font-size="23" x="159.976" y="118.316">C4P0</tspan></text><path d="M2871.08 2729.04 2585.08 2969.02 2582.13 2965.51 2868.13 2725.53ZM2857.25 2719.7 2887.16 2712.56 2874.93 2740.77Z" fill="#E7E6E6"/><path d="M2598.86 3036.27 2884.86 2796.29 2887.81 2799.81 2601.81 3039.79ZM2612.68 3045.62 2582.78 3052.76 2595.01 3024.55Z" fill="#E7E6E6"/><text fill="#E7E6E6" font-family="Bahnschrift Light,Bahnschrift Light_MSFontService,sans-serif" font-weight="300" font-size="23" transform="matrix(0.766044 -0.642788 0.642788 0.766044 2636.54 2899)">C1P180<tspan font-size="23" x="68.9629" y="0.428799">-</tspan><tspan font-size="23" x="79.8503" y="0.426609">C3P90 + C4P0</tspan><tspan font-size="23" x="-65.3176" y="118.811">C1P90</tspan><tspan font-size="23" x="-4.61151" y="118.839">-</tspan><tspan font-size="23" x="6.27576" y="118.836">C4P180 + C3P180</tspan></text><path d="M1694.5 3138.21 2182.74 3138.21 2182.74 3142.79 1694.5 3142.79ZM2178.16 3126.75 2205.66 3140.5 2178.16 3154.25Z" fill="#E7E6E6"/><path d="M1717.42 3203.21 2205.66 3203.21 2205.66 3207.79 1717.42 3207.79ZM1722 3219.25 1694.5 3205.5 1722 3191.75Z" fill="#E7E6E6"/><text fill="#E7E6E6" font-family="Bahnschrift Light,Bahnschrift Light_MSFontService,sans-serif" font-weight="300" font-size="23" transform="matrix(1 0 0 1 1886.65 3122)">C1P90<tspan font-size="23" x="60.7291" y="0">-</tspan><tspan font-size="23" x="71.6146" y="0">C2P0</tspan><tspan font-size="23" x="-5.0271" y="118">C1P0</tspan><tspan font-size="23" x="43.6709" y="118">-</tspan><tspan font-size="23" x="54.5563" y="118">C2P180</tspan></text><path d="M1295.01 2952.51 1013.98 2716.71 1016.93 2713.2 1297.95 2949ZM1301.81 2937.28 1314.03 2965.49 1284.13 2958.34Z" fill="#E7E6E6"/><path d="M1034.09 2812.4 1315.11 3048.2 1312.16 3051.71 1031.14 2815.91ZM1027.29 2827.63 1015.06 2799.42 1044.96 2806.56Z" fill="#E7E6E6"/><text fill="#E7E6E6" font-family="Bahnschrift Light,Bahnschrift Light_MSFontService,sans-serif" font-weight="300" font-size="23" transform="matrix(0.766044 0.642788 -0.642788 0.766044 1035.88 2709)">C1P0<tspan font-size="23" x="48.5036" y="-0.231693">-</tspan><tspan font-size="23" x="59.3909" y="-0.229424">C2P180</tspan><tspan font-size="23" x="132.972" y="-0.617065">-</tspan><tspan font-size="23" x="143.859" y="-0.614716">C4P180 + C3P180</tspan><tspan font-size="23" x="91.3647" y="117.842">C2P90</tspan><tspan font-size="23" x="156.689" y="117.855">-</tspan><tspan font-size="23" x="167.576" y="117.858">C3P0 + C4P0 + C1P90</tspan></text><path d="M805.754 2314.2 747.692 1984.91 752.205 1984.12 810.268 2313.41ZM820.756 2306.9 811.991 2336.37 793.674 2311.68Z" fill="#E7E6E6"/><path d="M690.086 2005.91 748.148 2335.2 743.634 2335.99 685.572 2006.71ZM675.083 2013.21 683.849 1983.74 702.166 2008.43Z" fill="#E7E6E6"/><text fill="#E7E6E6" font-family="Bahnschrift Light,Bahnschrift Light_MSFontService,sans-serif" font-weight="300" font-size="23" transform="matrix(0.173648 0.984808 -0.984808 0.173648 774.577 2021)">C1P90<tspan font-size="23" x="60.9197" y="0.0336294">-</tspan><tspan font-size="23" x="71.096" y="-0.0914307">C2P90</tspan><tspan font-size="23" x="137.078" y="0.0266323">-</tspan><tspan font-size="23" x="147.254" y="-0.0984287">C4P0 + C3P0</tspan><tspan font-size="23" x="-22.8691" y="118.18">C1P0</tspan><tspan font-size="23" x="25.8701" y="118.187">-</tspan><tspan font-size="23" x="37.0312" y="118.235">C2P180</tspan><tspan font-size="23" x="110.166" y="118.099">-</tspan><tspan font-size="23" x="121.327" y="118.148">C4P90 + C3P90</tspan></text><path d="M868.298 1444.49 1003 1211.18 1006.97 1213.47 872.267 1446.78ZM884.482 1448.54 858.824 1465.48 860.666 1434.79Z" fill="#E7E6E6"/><path d="M919.899 1234.36 788.444 1462.05 784.475 1459.75 915.929 1232.07ZM903.714 1230.31 929.372 1213.37 927.53 1244.06Z" fill="#E7E6E6"/><text fill="#E7E6E6" font-family="Bahnschrift Light,Bahnschrift Light_MSFontService,sans-serif" font-weight="300" font-size="23" transform="matrix(0.5 -0.866025 0.866025 0.5 944.872 1389)">C2P180<tspan font-size="23" x="-30.0424" y="-118.035">C2P90</tspan></text></g></svg>