<svg width="4092" height="807" xmlns="http://www.w3.org/2000/svg" xmlns:xlink="http://www.w3.org/1999/xlink" overflow="hidden"><defs><clipPath id="clip0"><rect x="78" y="804" width="4092" height="807"/></clipPath></defs><g clip-path="url(#clip0)" transform="translate(-78 -804)"><path d="M273.5 1192.21 454.658 1192.23 454.658 1196.81 273.5 1196.79ZM450.076 1185.35 468.408 1194.52 450.074 1203.68Z" fill="#E7E6E6"/><path d="M0.000233344-2.29167 181.187-2.27322 181.187 2.31012-0.000233344 2.29167ZM176.605-9.14868 194.937 0.0198491 176.603 9.18465Z" fill="#E7E6E6" transform="matrix(1 0 0 -1 663.5 1194.52)"/><path d="M0.000441108-2.29167 181.243-2.25678 181.242 2.32655-0.000441108 2.29167ZM176.661-9.13266 194.992 0.0375328 176.657 9.20067Z" fill="#E7E6E6" transform="matrix(1 0 0 -1 1052.5 1194.54)"/><path d="M1442.5 1192.21 1623.63 1192.28 1623.63 1196.86 1442.5 1196.79ZM1619.05 1185.4 1637.38 1194.57 1619.05 1203.73Z" fill="#E7E6E6"/><path d="M1.83333-1.375 188.465 247.466 184.799 250.216-1.83333 1.375ZM191.215 239.674 194.882 259.841 176.549 250.674Z" fill="#E7E6E6" transform="matrix(1 0 0 -1 1832.5 1194.34)"/><path d="M1834.33 1193.12 2020.97 1441.97 2017.3 1444.72 1830.67 1195.88ZM2023.72 1434.18 2027.38 1454.34 2009.05 1445.18Z" fill="#404040"/><path d="M2224.33 933.125 2410.97 1181.97 2407.3 1184.72 2220.67 935.875ZM2413.71 1174.17 2417.38 1194.34 2399.05 1185.17Z" fill="#E7E6E6"/><path d="M1.83334-1.375 188.465 247.469 184.799 250.219-1.83334 1.375ZM191.215 239.677 194.882 259.844 176.549 250.677Z" fill="#404040" transform="matrix(1 0 0 -1 2222.5 1454.34)"/><path d="M2611.5 1192.21 2792.63 1192.21 2792.63 1196.79 2611.5 1196.79ZM2788.05 1185.33 2806.38 1194.5 2788.05 1203.67Z" fill="#E7E6E6"/><path d="M3001.5 1192.21 3182.63 1192.21 3182.63 1196.79 3001.5 1196.79ZM3178.05 1185.33 3196.38 1194.5 3178.05 1203.67Z" fill="#E7E6E6"/><path d="M1.83333-1.375 188.465 247.466 184.799 250.216-1.83333 1.375ZM191.215 239.674 194.882 259.841 176.549 250.674Z" fill="#404040" transform="matrix(1 0 0 -1 3391.5 1194.34)"/><path d="M3393.33 1193.12 3579.97 1441.97 3576.3 1444.72 3389.67 1195.88ZM3582.72 1434.18 3586.38 1454.34 3568.05 1445.18Z" fill="#E7E6E6"/><path d="M3783.33 933.125 3970.02 1181.93 3966.35 1184.68 3779.67 935.876ZM3972.77 1174.14 3976.44 1194.31 3958.1 1185.14Z" fill="#404040"/><path d="M1.83324-1.37513 188.52 247.504 184.853 250.255-1.83324 1.37513ZM191.269 239.713 194.937 259.879 176.603 250.714Z" fill="#E7E6E6" transform="matrix(1 0 0 -1 3781.5 1454.38)"/><text fill="#E7E6E6" font-family="Bahnschrift Light,Bahnschrift Light_MSFontService,sans-serif" font-weight="300" font-size="14" transform="matrix(1 0 0 1 306.968 1183)">C1P180<tspan font-size="14" x="41.8229" y="0">-</tspan><tspan font-size="14" x="48.6979" y="0">C2P90</tspan><tspan font-size="14" x="87.0833" y="0">-</tspan>C4P0<tspan font-size="14" x="360.545" y="0">C1P90</tspan><tspan font-size="14" x="396.639" y="0">-</tspan>C2P180<tspan font-size="14" x="447.628" y="0">-</tspan>C3P90<tspan font-size="14" x="493.462" y="0">-</tspan>C4P180<tspan font-size="14" x="800.439" y="0">C2P90</tspan><tspan font-size="14" x="838.825" y="0">-</tspan>C4P90<tspan font-size="14" x="1172.73" y="0">C1P180</tspan><tspan font-size="14" x="1214.55" y="0">-</tspan>C2P0<tspan font-size="14" x="1252.94" y="0">-</tspan>C4P0</text><text fill="#E7E6E6" font-family="Bahnschrift Light,Bahnschrift Light_MSFontService,sans-serif" font-weight="300" font-size="14" transform="matrix(0.601815 -0.798635 0.798635 0.601815 1889.62 1097)">C1P90<tspan font-size="14" x="36.2329" y="-0.104933">-</tspan><tspan font-size="14" x="42.7161" y="0.190405">C4P180 + C3P180</tspan></text><text fill="#404040" font-family="Bahnschrift Light,Bahnschrift Light_MSFontService,sans-serif" font-weight="300" font-size="14" transform="matrix(0.601815 0.798635 -0.798635 0.601815 1868.88 1224)">C1P0<tspan font-size="14" x="28.9511" y="-0.201643">-</tspan><tspan font-size="14" x="36.2329" y="0.104933">C2P90</tspan><tspan font-size="14" x="74.0944" y="-0.289856">-</tspan><tspan font-size="14" x="81.3762" y="0.0167198">C4P180</tspan><tspan fill="#7F7F7F" font-size="14" x="130.16" y="0.0817947">+ C3P180</tspan><tspan fill="#E7E6E6" font-size="14" x="79.5531" y="-467.808">C1P0</tspan><tspan fill="#E7E6E6" font-size="14" x="108.504" y="-468.01">-</tspan><tspan fill="#E7E6E6" font-size="14" x="115.786" y="-467.703">C2P180</tspan></text><text fill="#404040" font-family="Bahnschrift Light,Bahnschrift Light_MSFontService,sans-serif" font-weight="300" font-size="14" transform="matrix(0.601815 -0.798635 0.798635 0.601815 2310.41 1316)">C2P180</text><text fill="#E7E6E6" font-family="Bahnschrift Light,Bahnschrift Light_MSFontService,sans-serif" font-weight="300" font-size="14" transform="matrix(1 0 0 1 2621.49 1183)">C2P90<tspan font-size="14" x="38.3853" y="0">-</tspan>C3P0 + C4P0 + C1P90<tspan font-size="14" x="390.623" y="0">C1P0</tspan>-C2P180<tspan font-size="14" x="470.832" y="0">-</tspan>C4P90 + C3P0</text><text fill="#404040" font-family="Bahnschrift Light,Bahnschrift Light_MSFontService,sans-serif" font-weight="300" font-size="14" transform="matrix(0.601815 -0.798635 0.798635 0.601815 3470.57 1068)">C1P90<tspan font-size="14" x="36.2329" y="-0.104933">-</tspan><tspan font-size="14" x="42.716" y="0.190308">C2P0</tspan></text><text fill="#E7E6E6" font-family="Bahnschrift Light,Bahnschrift Light_MSFontService,sans-serif" font-weight="300" font-size="14" transform="matrix(0.601815 0.798635 -0.798635 0.601815 3472.24 1283)">C2P90</text><text fill="#E7E6E6" font-family="Bahnschrift Light,Bahnschrift Light_MSFontService,sans-serif" font-weight="300" font-size="14" transform="matrix(0.601815 -0.798635 0.798635 0.601815 3857.75 1331)">C2P180<tspan font-size="14" x="43.9297" y="0.139309">-</tspan><tspan font-size="14" x="51.2115" y="-0.167267">C3P0</tspan></text><text fill="#404040" font-family="Bahnschrift Light,Bahnschrift Light_MSFontService,sans-serif" font-weight="300" font-size="14" transform="matrix(0.601815 0.798635 -0.798635 0.601815 3835.46 988)">C1P0<tspan font-size="14" x="28.9511" y="-0.201643">-</tspan><tspan font-size="14" x="35.4342" y="-0.496883">C2P180 + C3P0</tspan></text><rect x="3976" y="1064" width="194" height="260" fill="#181717"/><path d="M4044 1184.5C4044 1186.43 4042.43 1188 4040.5 1188L4040.5 1188C4038.57 1188 4037 1186.43 4037 1184.5L4037 1129.5C4037 1127.57 4038.57 1126 4040.5 1126L4040.5 1126C4042.43 1126 4044 1127.57 4044 1129.5Z" fill="#5B9BD5" fill-rule="evenodd"/><path d="M4040 1132C4038.34 1132 4037 1130.66 4037 1129L4037 1129C4037 1127.34 4038.34 1126 4040 1126L4096 1126C4097.66 1126 4099 1127.34 4099 1129L4099 1129C4099 1130.66 4097.66 1132 4096 1132Z" fill="#5B9BD5" fill-rule="evenodd"/><path d="M4037 1129C4037 1127.34 4038.57 1126 4040.5 1126 4042.43 1126 4044 1127.34 4044 1129 4044 1130.66 4042.43 1132 4040.5 1132 4038.57 1132 4037 1130.66 4037 1129Z" fill="#C00000" fill-rule="evenodd"/><path d="M4103 1203C4103 1201.34 4104.34 1200 4106 1200L4106 1200C4107.66 1200 4109 1201.34 4109 1203L4109 1259C4109 1260.66 4107.66 1262 4106 1262L4106 1262C4104.34 1262 4103 1260.66 4103 1259Z" fill="#70AD47" fill-rule="evenodd"/><path d="M4106 1256C4107.66 1256 4109 1257.34 4109 1259L4109 1259C4109 1260.66 4107.66 1262 4106 1262L4050 1262C4048.34 1262 4047 1260.66 4047 1259L4047 1259C4047 1257.34 4048.34 1256 4050 1256Z" fill="#70AD47" fill-rule="evenodd"/><path d="M4102 1259C4102 1257.34 4103.57 1256 4105.5 1256 4107.43 1256 4109 1257.34 4109 1259 4109 1260.66 4107.43 1262 4105.5 1262 4103.57 1262 4102 1260.66 4102 1259Z" fill="#C00000" fill-rule="evenodd"/><path d="M4160.5 1191C4162.43 1191 4164 1192.57 4164 1194.5L4164 1194.5C4164 1196.43 4162.43 1198 4160.5 1198L4105.5 1198C4103.57 1198 4102 1196.43 4102 1194.5L4102 1194.5C4102 1192.57 4103.57 1191 4105.5 1191Z" fill="#381850" fill-rule="evenodd"/><path d="M4109 1193.5C4109 1195.43 4107.43 1197 4105.5 1197L4105.5 1197C4103.57 1197 4102 1195.43 4102 1193.5L4102 1138.5C4102 1136.57 4103.57 1135 4105.5 1135L4105.5 1135C4107.43 1135 4109 1136.57 4109 1138.5Z" fill="#7030A0" fill-rule="evenodd"/><path d="M4106 1191C4107.66 1191 4109 1192.34 4109 1194 4109 1195.66 4107.66 1197 4106 1197 4104.34 1197 4103 1195.66 4103 1194 4103 1192.34 4104.34 1191 4106 1191Z" fill="#C00000" fill-rule="evenodd"/><path d="M4044 1249.5C4044 1251.43 4042.43 1253 4040.5 1253L4040.5 1253C4038.57 1253 4037 1251.43 4037 1249.5L4037 1194.5C4037 1192.57 4038.57 1191 4040.5 1191L4040.5 1191C4042.43 1191 4044 1192.57 4044 1194.5Z" fill="#FFC000" fill-rule="evenodd"/><path d="M4037 1194C4037 1192.34 4038.57 1191 4040.5 1191 4042.43 1191 4044 1192.34 4044 1194 4044 1195.66 4042.43 1197 4040.5 1197 4038.57 1197 4037 1195.66 4037 1194Z" fill="#C00000" fill-rule="evenodd"/><rect x="4034" y="1123" width="78" height="3.00012" fill="#E7E6E6"/><rect x="4034" y="1262" width="78" height="3.00012" fill="#E7E6E6"/><rect x="4109" y="1123" width="3" height="142" fill="#E7E6E6"/><rect x="4034" y="1123" width="3" height="142" fill="#E7E6E6"/><text fill="#E7E6E6" font-family="Bahnschrift Light,Bahnschrift Light_MSFontService,sans-serif" font-weight="300" font-size="14" transform="matrix(1 0 0 1 3990.11 1339)">C1P0<tspan font-size="14" x="29.2188" y="0">-</tspan>C2P180<tspan font-size="14" x="80.2083" y="0">-</tspan>C3P0<tspan font-size="14" x="119.167" y="0">-</tspan>C4P90</text><rect x="468" y="1064" width="195" height="260" fill="#181717"/><path d="M529 1073.5C529 1071.57 530.567 1070 532.5 1070L532.5 1070C534.433 1070 536 1071.57 536 1073.5L536 1128.5C536 1130.43 534.433 1132 532.5 1132L532.5 1132C530.567 1132 529 1130.43 529 1128.5Z" fill="#2E4E6B" fill-rule="evenodd"/><path d="M531.5 1126C533.433 1126 535 1127.57 535 1129.5L535 1129.5C535 1131.43 533.433 1133 531.5 1133L476.5 1133C474.567 1133 473 1131.43 473 1129.5L473 1129.5C473 1127.57 474.567 1126 476.5 1126Z" fill="#2E4E6B" fill-rule="evenodd"/><path d="M536 1129C536 1130.66 534.433 1132 532.5 1132 530.567 1132 529 1130.66 529 1129 529 1127.34 530.567 1126 532.5 1126 534.433 1126 536 1127.34 536 1129Z" fill="#C00000" fill-rule="evenodd"/><path d="M652.5 1256C654.433 1256 656 1257.57 656 1259.5L656 1259.5C656 1261.43 654.433 1263 652.5 1263L598.5 1263C596.567 1263 595 1261.43 595 1259.5L595 1259.5C595 1257.57 596.567 1256 598.5 1256Z" fill="#385724" fill-rule="evenodd"/><path d="M601 1258.5C601 1260.43 599.433 1262 597.5 1262L597.5 1262C595.567 1262 594 1260.43 594 1258.5L594 1203.5C594 1201.57 595.567 1200 597.5 1200L597.5 1200C599.433 1200 601 1201.57 601 1203.5Z" fill="#70AD47" fill-rule="evenodd"/><path d="M598 1256C599.657 1256 601 1257.34 601 1259 601 1260.66 599.657 1262 598 1262 596.343 1262 595 1260.66 595 1259 595 1257.34 596.343 1256 598 1256Z" fill="#C00000" fill-rule="evenodd"/><path d="M653.5 1191C655.433 1191 657 1192.57 657 1194.5L657 1194.5C657 1196.43 655.433 1198 653.5 1198L598.5 1198C596.567 1198 595 1196.43 595 1194.5L595 1194.5C595 1192.57 596.567 1191 598.5 1191Z" fill="#381850" fill-rule="evenodd"/><path d="M601 1194C601 1195.66 599.657 1197 598 1197L598 1197C596.343 1197 595 1195.66 595 1194L595 1138C595 1136.34 596.343 1135 598 1135L598 1135C599.657 1135 601 1136.34 601 1138Z" fill="#7030A0" fill-rule="evenodd"/><path d="M598 1191C599.657 1191 601 1192.57 601 1194.5 601 1196.43 599.657 1198 598 1198 596.343 1198 595 1196.43 595 1194.5 595 1192.57 596.343 1191 598 1191Z" fill="#C00000" fill-rule="evenodd"/><path d="M477 1197C475.343 1197 474 1195.66 474 1194L474 1194C474 1192.34 475.343 1191 477 1191L532 1191C533.657 1191 535 1192.34 535 1194L535 1194C535 1195.66 533.657 1197 532 1197Z" fill="#806000" fill-rule="evenodd"/><path d="M532.5 1191C534.433 1191 536 1192.34 536 1194 536 1195.66 534.433 1197 532.5 1197 530.567 1197 529 1195.66 529 1194 529 1192.34 530.567 1191 532.5 1191Z" fill="#C00000" fill-rule="evenodd"/><rect x="526" y="1123" width="78.0001" height="3.00012" fill="#E7E6E6"/><rect x="526" y="1262" width="78.0001" height="3.00012" fill="#E7E6E6"/><rect x="601" y="1123" width="3.00012" height="142" fill="#E7E6E6"/><rect x="526" y="1123" width="3.00012" height="142" fill="#E7E6E6"/><text fill="#E7E6E6" font-family="Bahnschrift Light,Bahnschrift Light_MSFontService,sans-serif" font-weight="300" font-size="14" transform="matrix(1 0 0 1 482.247 1339)">C1P180<tspan font-size="14" x="41.8229" y="0">-</tspan><tspan font-size="14" x="48.6979" y="0">C2P90</tspan><tspan font-size="14" x="87.0833" y="0">-</tspan>C3P0<tspan font-size="14" x="126.042" y="0">-</tspan>C4P0</text><rect x="858" y="1064" width="194" height="260" fill="#181717"/><path d="M978 1126C979.657 1126 981 1127.34 981 1129L981 1129C981 1130.66 979.657 1132 978 1132L922 1132C920.343 1132 919 1130.66 919 1129L919 1129C919 1127.34 920.343 1126 922 1126Z" fill="#5B9BD5" fill-rule="evenodd"/><path d="M925 1129C925 1130.66 923.657 1132 922 1132L922 1132C920.343 1132 919 1130.66 919 1129L919 1073C919 1071.34 920.343 1070 922 1070L922 1070C923.657 1070 925 1071.34 925 1073Z" fill="#2E4E6B" fill-rule="evenodd"/><path d="M922.5 1132C920.567 1132 919 1130.66 919 1129 919 1127.34 920.567 1126 922.5 1126 924.433 1126 926 1127.34 926 1129 926 1130.66 924.433 1132 922.5 1132Z" fill="#C00000" fill-rule="evenodd"/><path d="M932 1262C930.343 1262 929 1260.66 929 1259L929 1259C929 1257.34 930.343 1256 932 1256L988 1256C989.657 1256 991 1257.34 991 1259L991 1259C991 1260.66 989.657 1262 988 1262Z" fill="#70AD47" fill-rule="evenodd"/><path d="M985 1259C985 1257.34 986.343 1256 988 1256L988 1256C989.657 1256 991 1257.34 991 1259L991 1315C991 1316.66 989.657 1318 988 1318L988 1318C986.343 1318 985 1316.66 985 1315Z" fill="#385724" fill-rule="evenodd"/><path d="M988 1262C986.343 1262 985 1260.66 985 1259 985 1257.34 986.343 1256 988 1256 989.657 1256 991 1257.34 991 1259 991 1260.66 989.657 1262 988 1262Z" fill="#C00000" fill-rule="evenodd"/><path d="M984 1138.5C984 1136.57 985.567 1135 987.5 1135L987.5 1135C989.433 1135 991 1136.57 991 1138.5L991 1193.5C991 1195.43 989.433 1197 987.5 1197L987.5 1197C985.567 1197 984 1195.43 984 1193.5Z" fill="#7030A0" fill-rule="evenodd"/><path d="M988 1191C989.657 1191 991 1192.34 991 1194L991 1194C991 1195.66 989.657 1197 988 1197L932 1197C930.343 1197 929 1195.66 929 1194L929 1194C929 1192.34 930.343 1191 932 1191Z" fill="#7030A0" fill-rule="evenodd"/><path d="M984 1194C984 1192.34 985.567 1191 987.5 1191 989.433 1191 991 1192.34 991 1194 991 1195.66 989.433 1197 987.5 1197 985.567 1197 984 1195.66 984 1194Z" fill="#C00000" fill-rule="evenodd"/><path d="M925 1250C925 1251.66 923.657 1253 922 1253L922 1253C920.343 1253 919 1251.66 919 1250L919 1194C919 1192.34 920.343 1191 922 1191L922 1191C923.657 1191 925 1192.34 925 1194Z" fill="#FFC000" fill-rule="evenodd"/><path d="M919 1194C919 1192.34 920.567 1191 922.5 1191 924.433 1191 926 1192.34 926 1194 926 1195.66 924.433 1197 922.5 1197 920.567 1197 919 1195.66 919 1194Z" fill="#C00000" fill-rule="evenodd"/><rect x="916" y="1123" width="78" height="3.00012" fill="#E7E6E6"/><rect x="916" y="1262" width="78" height="3.00012" fill="#E7E6E6"/><rect x="991" y="1123" width="3.00012" height="142" fill="#E7E6E6"/><rect x="916" y="1123" width="2.99976" height="142" fill="#E7E6E6"/><text fill="#E7E6E6" font-family="Bahnschrift Light,Bahnschrift Light_MSFontService,sans-serif" font-weight="300" font-size="14" transform="matrix(1 0 0 1 862.256 1339)">C1P90<tspan font-size="14" x="36.0938" y="0">-</tspan>C2P180<tspan font-size="14" x="87.0834" y="0">-</tspan>C3P90<tspan font-size="14" x="132.917" y="0">-</tspan>C4P180</text><rect x="1247" y="1064" width="195" height="260" fill="#181717"/><path d="M1368 1126C1369.66 1126 1371 1127.34 1371 1129L1371 1129C1371 1130.66 1369.66 1132 1368 1132L1312 1132C1310.34 1132 1309 1130.66 1309 1129L1309 1129C1309 1127.34 1310.34 1126 1312 1126Z" fill="#5B9BD5" fill-rule="evenodd"/><path d="M1315 1129C1315 1130.66 1313.66 1132 1312 1132L1312 1132C1310.34 1132 1309 1130.66 1309 1129L1309 1073C1309 1071.34 1310.34 1070 1312 1070L1312 1070C1313.66 1070 1315 1071.34 1315 1073Z" fill="#2E4E6B" fill-rule="evenodd"/><path d="M1312.5 1132C1310.57 1132 1309 1130.66 1309 1129 1309 1127.34 1310.57 1126 1312.5 1126 1314.43 1126 1316 1127.34 1316 1129 1316 1130.66 1314.43 1132 1312.5 1132Z" fill="#C00000" fill-rule="evenodd"/><path d="M1374 1203.5C1374 1201.57 1375.57 1200 1377.5 1200L1377.5 1200C1379.43 1200 1381 1201.57 1381 1203.5L1381 1258.5C1381 1260.43 1379.43 1262 1377.5 1262L1377.5 1262C1375.57 1262 1374 1260.43 1374 1258.5Z" fill="#70AD47" fill-rule="evenodd"/><path d="M1377 1256C1378.66 1256 1380 1257.34 1380 1259L1380 1259C1380 1260.66 1378.66 1262 1377 1262L1322 1262C1320.34 1262 1319 1260.66 1319 1259L1319 1259C1319 1257.34 1320.34 1256 1322 1256Z" fill="#70AD47" fill-rule="evenodd"/><path d="M1374 1259C1374 1257.34 1375.34 1256 1377 1256 1378.66 1256 1380 1257.34 1380 1259 1380 1260.66 1378.66 1262 1377 1262 1375.34 1262 1374 1260.66 1374 1259Z" fill="#C00000" fill-rule="evenodd"/><path d="M1374 1138.5C1374 1136.57 1375.57 1135 1377.5 1135L1377.5 1135C1379.43 1135 1381 1136.57 1381 1138.5L1381 1193.5C1381 1195.43 1379.43 1197 1377.5 1197L1377.5 1197C1375.57 1197 1374 1195.43 1374 1193.5Z" fill="#7030A0" fill-rule="evenodd"/><path d="M1377 1191C1378.66 1191 1380 1192.34 1380 1194L1380 1194C1380 1195.66 1378.66 1197 1377 1197L1322 1197C1320.34 1197 1319 1195.66 1319 1194L1319 1194C1319 1192.34 1320.34 1191 1322 1191Z" fill="#7030A0" fill-rule="evenodd"/><path d="M1374 1194C1374 1192.34 1375.57 1191 1377.5 1191 1379.43 1191 1381 1192.34 1381 1194 1381 1195.66 1379.43 1197 1377.5 1197 1375.57 1197 1374 1195.66 1374 1194Z" fill="#C00000" fill-rule="evenodd"/><path d="M1256 1197C1254.34 1197 1253 1195.66 1253 1194L1253 1194C1253 1192.34 1254.34 1191 1256 1191L1312 1191C1313.66 1191 1315 1192.34 1315 1194L1315 1194C1315 1195.66 1313.66 1197 1312 1197Z" fill="#806000" fill-rule="evenodd"/><path d="M1312 1191C1313.66 1191 1315 1192.34 1315 1194 1315 1195.66 1313.66 1197 1312 1197 1310.34 1197 1309 1195.66 1309 1194 1309 1192.34 1310.34 1191 1312 1191Z" fill="#C00000" fill-rule="evenodd"/><rect x="1306" y="1123" width="78" height="3.00012" fill="#E7E6E6"/><rect x="1306" y="1262" width="78" height="3.00012" fill="#E7E6E6"/><rect x="1380" y="1123" width="3.99976" height="142" fill="#E7E6E6"/><rect x="1306" y="1123" width="3.00012" height="142" fill="#E7E6E6"/><text fill="#E7E6E6" font-family="Bahnschrift Light,Bahnschrift Light_MSFontService,sans-serif" font-weight="300" font-size="14" transform="matrix(1 0 0 1 1257.72 1339)">C1P90<tspan font-size="14" x="36.0938" y="0">-</tspan>C2P90<tspan font-size="14" x="81.3541" y="0">-</tspan>C3P90<tspan font-size="14" x="127.188" y="0">-</tspan>C4P90</text><rect x="1637" y="1064" width="195" height="260" fill="#181717"/><path d="M1698 1073.5C1698 1071.57 1699.57 1070 1701.5 1070L1701.5 1070C1703.43 1070 1705 1071.57 1705 1073.5L1705 1128.5C1705 1130.43 1703.43 1132 1701.5 1132L1701.5 1132C1699.57 1132 1698 1130.43 1698 1128.5Z" fill="#2E4E6B" fill-rule="evenodd"/><path d="M1702 1126C1703.66 1126 1705 1127.34 1705 1129L1705 1129C1705 1130.66 1703.66 1132 1702 1132L1646 1132C1644.34 1132 1643 1130.66 1643 1129L1643 1129C1643 1127.34 1644.34 1126 1646 1126Z" fill="#2E4E6B" fill-rule="evenodd"/><path d="M1705 1129C1705 1130.66 1703.43 1132 1701.5 1132 1699.57 1132 1698 1130.66 1698 1129 1698 1127.34 1699.57 1126 1701.5 1126 1703.43 1126 1705 1127.34 1705 1129Z" fill="#C00000" fill-rule="evenodd"/><path d="M1822.5 1256C1824.43 1256 1826 1257.57 1826 1259.5L1826 1259.5C1826 1261.43 1824.43 1263 1822.5 1263L1767.5 1263C1765.57 1263 1764 1261.43 1764 1259.5L1764 1259.5C1764 1257.57 1765.57 1256 1767.5 1256Z" fill="#385724" fill-rule="evenodd"/><path d="M1770 1259C1770 1260.66 1768.66 1262 1767 1262L1767 1262C1765.34 1262 1764 1260.66 1764 1259L1764 1204C1764 1202.34 1765.34 1201 1767 1201L1767 1201C1768.66 1201 1770 1202.34 1770 1204Z" fill="#70AD47" fill-rule="evenodd"/><path d="M1767.5 1256C1769.43 1256 1771 1257.34 1771 1259 1771 1260.66 1769.43 1262 1767.5 1262 1765.57 1262 1764 1260.66 1764 1259 1764 1257.34 1765.57 1256 1767.5 1256Z" fill="#C00000" fill-rule="evenodd"/><path d="M1764 1138C1764 1136.34 1765.34 1135 1767 1135L1767 1135C1768.66 1135 1770 1136.34 1770 1138L1770 1194C1770 1195.66 1768.66 1197 1767 1197L1767 1197C1765.34 1197 1764 1195.66 1764 1194Z" fill="#7030A0" fill-rule="evenodd"/><path d="M1767 1191C1768.66 1191 1770 1192.34 1770 1194L1770 1194C1770 1195.66 1768.66 1197 1767 1197L1711 1197C1709.34 1197 1708 1195.66 1708 1194L1708 1194C1708 1192.34 1709.34 1191 1711 1191Z" fill="#7030A0" fill-rule="evenodd"/><path d="M1764 1194C1764 1192.34 1765.34 1191 1767 1191 1768.66 1191 1770 1192.34 1770 1194 1770 1195.66 1768.66 1197 1767 1197 1765.34 1197 1764 1195.66 1764 1194Z" fill="#C00000" fill-rule="evenodd"/><path d="M1698 1138.5C1698 1136.57 1699.57 1135 1701.5 1135L1701.5 1135C1703.43 1135 1705 1136.57 1705 1138.5L1705 1193.5C1705 1195.43 1703.43 1197 1701.5 1197L1701.5 1197C1699.57 1197 1698 1195.43 1698 1193.5Z" fill="#FFC000" fill-rule="evenodd"/><path d="M1705 1194C1705 1195.66 1703.43 1197 1701.5 1197 1699.57 1197 1698 1195.66 1698 1194 1698 1192.34 1699.57 1191 1701.5 1191 1703.43 1191 1705 1192.34 1705 1194Z" fill="#C00000" fill-rule="evenodd"/><rect x="1695" y="1123" width="78" height="3.00012" fill="#E7E6E6"/><rect x="1695" y="1262" width="78" height="3.00012" fill="#E7E6E6"/><rect x="1770" y="1123" width="3.00012" height="142" fill="#E7E6E6"/><rect x="1695" y="1123" width="4.00012" height="142" fill="#E7E6E6"/><text fill="#E7E6E6" font-family="Bahnschrift Light,Bahnschrift Light_MSFontService,sans-serif" font-weight="300" font-size="14" transform="matrix(1 0 0 1 1651.66 1340)">C1P180<tspan font-size="14" x="41.8229" y="0">-</tspan><tspan font-size="14" x="48.6979" y="0">C2P0</tspan><tspan font-size="14" x="80.2083" y="0">-</tspan>C3P90<tspan font-size="14" x="126.042" y="0">-</tspan>C4P0</text><rect x="2417" y="1064" width="194" height="260" fill="#181717"/><path d="M2484 1185C2484 1186.66 2482.66 1188 2481 1188L2481 1188C2479.34 1188 2478 1186.66 2478 1185L2478 1129C2478 1127.34 2479.34 1126 2481 1126L2481 1126C2482.66 1126 2484 1127.34 2484 1129Z" fill="#5B9BD5" fill-rule="evenodd"/><path d="M2481.5 1132C2479.57 1132 2478 1130.43 2478 1128.5L2478 1128.5C2478 1126.57 2479.57 1125 2481.5 1125L2536.5 1125C2538.43 1125 2540 1126.57 2540 1128.5L2540 1128.5C2540 1130.43 2538.43 1132 2536.5 1132Z" fill="#5B9BD5" fill-rule="evenodd"/><path d="M2478 1129C2478 1127.34 2479.34 1126 2481 1126 2482.66 1126 2484 1127.34 2484 1129 2484 1130.66 2482.66 1132 2481 1132 2479.34 1132 2478 1130.66 2478 1129Z" fill="#C00000" fill-rule="evenodd"/><path d="M2490.5 1263C2488.57 1263 2487 1261.43 2487 1259.5L2487 1259.5C2487 1257.57 2488.57 1256 2490.5 1256L2545.5 1256C2547.43 1256 2549 1257.57 2549 1259.5L2549 1259.5C2549 1261.43 2547.43 1263 2545.5 1263Z" fill="#70AD47" fill-rule="evenodd"/><path d="M2543 1259.5C2543 1257.57 2544.57 1256 2546.5 1256L2546.5 1256C2548.43 1256 2550 1257.57 2550 1259.5L2550 1314.5C2550 1316.43 2548.43 1318 2546.5 1318L2546.5 1318C2544.57 1318 2543 1316.43 2543 1314.5Z" fill="#385724" fill-rule="evenodd"/><path d="M2546.5 1263C2544.57 1263 2543 1261.43 2543 1259.5 2543 1257.57 2544.57 1256 2546.5 1256 2548.43 1256 2550 1257.57 2550 1259.5 2550 1261.43 2548.43 1263 2546.5 1263Z" fill="#C00000" fill-rule="evenodd"/><path d="M2490.5 1198C2488.57 1198 2487 1196.43 2487 1194.5L2487 1194.5C2487 1192.57 2488.57 1191 2490.5 1191L2545.5 1191C2547.43 1191 2549 1192.57 2549 1194.5L2549 1194.5C2549 1196.43 2547.43 1198 2545.5 1198Z" fill="#7030A0" fill-rule="evenodd"/><path d="M2543 1194.5C2543 1192.57 2544.57 1191 2546.5 1191L2546.5 1191C2548.43 1191 2550 1192.57 2550 1194.5L2550 1249.5C2550 1251.43 2548.43 1253 2546.5 1253L2546.5 1253C2544.57 1253 2543 1251.43 2543 1249.5Z" fill="#7030A0" fill-rule="evenodd"/><path d="M2546.5 1198C2544.57 1198 2543 1196.43 2543 1194.5 2543 1192.57 2544.57 1191 2546.5 1191 2548.43 1191 2550 1192.57 2550 1194.5 2550 1196.43 2548.43 1198 2546.5 1198Z" fill="#C00000" fill-rule="evenodd"/><path d="M2485 1249.5C2485 1251.43 2483.43 1253 2481.5 1253L2481.5 1253C2479.57 1253 2478 1251.43 2478 1249.5L2478 1194.5C2478 1192.57 2479.57 1191 2481.5 1191L2481.5 1191C2483.43 1191 2485 1192.57 2485 1194.5Z" fill="#FFC000" fill-rule="evenodd"/><path d="M2478 1194C2478 1192.34 2479.57 1191 2481.5 1191 2483.43 1191 2485 1192.34 2485 1194 2485 1195.66 2483.43 1197 2481.5 1197 2479.57 1197 2478 1195.66 2478 1194Z" fill="#C00000" fill-rule="evenodd"/><rect x="2475" y="1123" width="78" height="3.00012" fill="#E7E6E6"/><rect x="2475" y="1262" width="78" height="3.00012" fill="#E7E6E6"/><rect x="2550" y="1123" width="3" height="142" fill="#E7E6E6"/><rect x="2475" y="1123" width="3" height="142" fill="#E7E6E6"/><text fill="#E7E6E6" font-family="Bahnschrift Light,Bahnschrift Light_MSFontService,sans-serif" font-weight="300" font-size="14" transform="matrix(1 0 0 1 2422.02 1340)">C1P0<tspan font-size="14" x="29.2188" y="0">-</tspan>C2P180<tspan font-size="14" x="80.2085" y="0">-</tspan>C3P180<tspan font-size="14" x="131.771" y="0">-</tspan>C4P180</text><rect x="2806" y="1064" width="195" height="260" fill="#181717"/><path d="M2927 1126C2928.66 1126 2930 1127.34 2930 1129L2930 1129C2930 1130.66 2928.66 1132 2927 1132L2871 1132C2869.34 1132 2868 1130.66 2868 1129L2868 1129C2868 1127.34 2869.34 1126 2871 1126Z" fill="#5B9BD5" fill-rule="evenodd"/><path d="M2874 1129C2874 1130.66 2872.66 1132 2871 1132L2871 1132C2869.34 1132 2868 1130.66 2868 1129L2868 1073C2868 1071.34 2869.34 1070 2871 1070L2871 1070C2872.66 1070 2874 1071.34 2874 1073Z" fill="#2E4E6B" fill-rule="evenodd"/><path d="M2871 1132C2869.34 1132 2868 1130.66 2868 1129 2868 1127.34 2869.34 1126 2871 1126 2872.66 1126 2874 1127.34 2874 1129 2874 1130.66 2872.66 1132 2871 1132Z" fill="#C00000" fill-rule="evenodd"/><path d="M2991.5 1256C2993.43 1256 2995 1257.57 2995 1259.5L2995 1259.5C2995 1261.43 2993.43 1263 2991.5 1263L2936.5 1263C2934.57 1263 2933 1261.43 2933 1259.5L2933 1259.5C2933 1257.57 2934.57 1256 2936.5 1256Z" fill="#385724" fill-rule="evenodd"/><path d="M2939 1260C2939 1261.66 2937.66 1263 2936 1263L2936 1263C2934.34 1263 2933 1261.66 2933 1260L2933 1204C2933 1202.34 2934.34 1201 2936 1201L2936 1201C2937.66 1201 2939 1202.34 2939 1204Z" fill="#70AD47" fill-rule="evenodd"/><path d="M2936.5 1256C2938.43 1256 2940 1257.57 2940 1259.5 2940 1261.43 2938.43 1263 2936.5 1263 2934.57 1263 2933 1261.43 2933 1259.5 2933 1257.57 2934.57 1256 2936.5 1256Z" fill="#C00000" fill-rule="evenodd"/><path d="M2992 1191C2993.66 1191 2995 1192.34 2995 1194L2995 1194C2995 1195.66 2993.66 1197 2992 1197L2936 1197C2934.34 1197 2933 1195.66 2933 1194L2933 1194C2933 1192.34 2934.34 1191 2936 1191Z" fill="#381850" fill-rule="evenodd"/><path d="M2939 1194C2939 1195.66 2937.66 1197 2936 1197L2936 1197C2934.34 1197 2933 1195.66 2933 1194L2933 1138C2933 1136.34 2934.34 1135 2936 1135L2936 1135C2937.66 1135 2939 1136.34 2939 1138Z" fill="#7030A0" fill-rule="evenodd"/><path d="M2936 1191C2937.66 1191 2939 1192.34 2939 1194 2939 1195.66 2937.66 1197 2936 1197 2934.34 1197 2933 1195.66 2933 1194 2933 1192.34 2934.34 1191 2936 1191Z" fill="#C00000" fill-rule="evenodd"/><path d="M2815.5 1197C2813.57 1197 2812 1195.43 2812 1193.5L2812 1193.5C2812 1191.57 2813.57 1190 2815.5 1190L2869.5 1190C2871.43 1190 2873 1191.57 2873 1193.5L2873 1193.5C2873 1195.43 2871.43 1197 2869.5 1197Z" fill="#806000" fill-rule="evenodd"/><path d="M2871 1190C2872.66 1190 2874 1191.57 2874 1193.5 2874 1195.43 2872.66 1197 2871 1197 2869.34 1197 2868 1195.43 2868 1193.5 2868 1191.57 2869.34 1190 2871 1190Z" fill="#C00000" fill-rule="evenodd"/><rect x="2865" y="1123" width="77.9998" height="3.00012" fill="#E7E6E6"/><rect x="2865" y="1262" width="77.9998" height="3.00012" fill="#E7E6E6"/><rect x="2939" y="1123" width="3.99976" height="142" fill="#E7E6E6"/><rect x="2865" y="1123" width="2.99976" height="142" fill="#E7E6E6"/><text fill="#E7E6E6" font-family="Bahnschrift Light,Bahnschrift Light_MSFontService,sans-serif" font-weight="300" font-size="14" transform="matrix(1 0 0 1 2823.82 1340)">C1P90<tspan font-size="14" x="36.0938" y="0">-</tspan>C2P90<tspan font-size="14" x="81.354" y="0">-</tspan>C3P0<tspan font-size="14" x="120.313" y="0">-</tspan>C4P0</text><rect x="3196" y="1064" width="195" height="260" fill="#181717"/><path d="M3264 1184.5C3264 1186.43 3262.43 1188 3260.5 1188L3260.5 1188C3258.57 1188 3257 1186.43 3257 1184.5L3257 1129.5C3257 1127.57 3258.57 1126 3260.5 1126L3260.5 1126C3262.43 1126 3264 1127.57 3264 1129.5Z" fill="#5B9BD5" fill-rule="evenodd"/><path d="M3261 1132C3259.34 1132 3258 1130.66 3258 1129L3258 1129C3258 1127.34 3259.34 1126 3261 1126L3317 1126C3318.66 1126 3320 1127.34 3320 1129L3320 1129C3320 1130.66 3318.66 1132 3317 1132Z" fill="#5B9BD5" fill-rule="evenodd"/><path d="M3257 1129.5C3257 1127.57 3258.57 1126 3260.5 1126 3262.43 1126 3264 1127.57 3264 1129.5 3264 1131.43 3262.43 1133 3260.5 1133 3258.57 1133 3257 1131.43 3257 1129.5Z" fill="#C00000" fill-rule="evenodd"/><path d="M3323 1204.5C3323 1202.57 3324.57 1201 3326.5 1201L3326.5 1201C3328.43 1201 3330 1202.57 3330 1204.5L3330 1259.5C3330 1261.43 3328.43 1263 3326.5 1263L3326.5 1263C3324.57 1263 3323 1261.43 3323 1259.5Z" fill="#70AD47" fill-rule="evenodd"/><path d="M3326 1257C3327.66 1257 3329 1258.34 3329 1260L3329 1260C3329 1261.66 3327.66 1263 3326 1263L3270 1263C3268.34 1263 3267 1261.66 3267 1260L3267 1260C3267 1258.34 3268.34 1257 3270 1257Z" fill="#70AD47" fill-rule="evenodd"/><path d="M3323 1259.5C3323 1257.57 3324.34 1256 3326 1256 3327.66 1256 3329 1257.57 3329 1259.5 3329 1261.43 3327.66 1263 3326 1263 3324.34 1263 3323 1261.43 3323 1259.5Z" fill="#C00000" fill-rule="evenodd"/><path d="M3323 1138.5C3323 1136.57 3324.57 1135 3326.5 1135L3326.5 1135C3328.43 1135 3330 1136.57 3330 1138.5L3330 1193.5C3330 1195.43 3328.43 1197 3326.5 1197L3326.5 1197C3324.57 1197 3323 1195.43 3323 1193.5Z" fill="#7030A0" fill-rule="evenodd"/><path d="M3325.5 1190C3327.43 1190 3329 1191.57 3329 1193.5L3329 1193.5C3329 1195.43 3327.43 1197 3325.5 1197L3271.5 1197C3269.57 1197 3268 1195.43 3268 1193.5L3268 1193.5C3268 1191.57 3269.57 1190 3271.5 1190Z" fill="#7030A0" fill-rule="evenodd"/><path d="M3323 1193.5C3323 1191.57 3324.57 1190 3326.5 1190 3328.43 1190 3330 1191.57 3330 1193.5 3330 1195.43 3328.43 1197 3326.5 1197 3324.57 1197 3323 1195.43 3323 1193.5Z" fill="#C00000" fill-rule="evenodd"/><path d="M3264 1249.5C3264 1251.43 3262.43 1253 3260.5 1253L3260.5 1253C3258.57 1253 3257 1251.43 3257 1249.5L3257 1194.5C3257 1192.57 3258.57 1191 3260.5 1191L3260.5 1191C3262.43 1191 3264 1192.57 3264 1194.5Z" fill="#FFC000" fill-rule="evenodd"/><path d="M3257 1194C3257 1192.34 3258.57 1191 3260.5 1191 3262.43 1191 3264 1192.34 3264 1194 3264 1195.66 3262.43 1197 3260.5 1197 3258.57 1197 3257 1195.66 3257 1194Z" fill="#C00000" fill-rule="evenodd"/><rect x="3255" y="1123" width="77" height="3.00012" fill="#E7E6E6"/><rect x="3255" y="1262" width="77" height="3.00012" fill="#E7E6E6"/><rect x="3329" y="1123" width="3" height="142" fill="#E7E6E6"/><rect x="3255" y="1123" width="3" height="142" fill="#E7E6E6"/><text fill="#E7E6E6" font-family="Bahnschrift Light,Bahnschrift Light_MSFontService,sans-serif" font-weight="300" font-size="14" transform="matrix(1 0 0 1 3207.28 1340)">C1P0<tspan font-size="14" x="29.2188" y="0">-</tspan>C2P180<tspan font-size="14" x="80.2083" y="0">-</tspan>C3P90<tspan font-size="14" x="126.042" y="0">-</tspan>C4P90</text><rect x="3586" y="804" width="195" height="260" fill="#181717"/><path d="M3654 867.5C3654 869.433 3652.43 871 3650.5 871L3650.5 871C3648.57 871 3647 869.433 3647 867.5L3647 812.5C3647 810.567 3648.57 809 3650.5 809L3650.5 809C3652.43 809 3654 810.567 3654 812.5Z" fill="#2E4E6B" fill-rule="evenodd"/><path d="M3650 872C3648.34 872 3647 870.657 3647 869L3647 869C3647 867.344 3648.34 866 3650 866L3706 866C3707.66 866 3709 867.344 3709 869L3709 869C3709 870.657 3707.66 872 3706 872Z" fill="#5B9BD5" fill-rule="evenodd"/><path d="M3647 869.5C3647 867.567 3648.57 866 3650.5 866 3652.43 866 3654 867.567 3654 869.5 3654 871.433 3652.43 873 3650.5 873 3648.57 873 3647 871.433 3647 869.5Z" fill="#C00000" fill-rule="evenodd"/><path d="M3713 944C3713 942.343 3714.34 941 3716 941L3716 941C3717.66 941 3719 942.343 3719 944L3719 1000C3719 1001.66 3717.66 1003 3716 1003L3716 1003C3714.34 1003 3713 1001.66 3713 1000Z" fill="#70AD47" fill-rule="evenodd"/><path d="M3716 997C3717.66 997 3719 998.343 3719 1000L3719 1000C3719 1001.66 3717.66 1003 3716 1003L3660 1003C3658.34 1003 3657 1001.66 3657 1000L3657 1000C3657 998.343 3658.34 997 3660 997Z" fill="#70AD47" fill-rule="evenodd"/><path d="M3713 999.5C3713 997.567 3714.34 996 3716 996 3717.66 996 3719 997.567 3719 999.5 3719 1001.43 3717.66 1003 3716 1003 3714.34 1003 3713 1001.43 3713 999.5Z" fill="#C00000" fill-rule="evenodd"/><path d="M3713 879C3713 877.343 3714.34 876 3716 876L3716 876C3717.66 876 3719 877.343 3719 879L3719 935C3719 936.657 3717.66 938 3716 938L3716 938C3714.34 938 3713 936.657 3713 935Z" fill="#7030A0" fill-rule="evenodd"/><path d="M3716 932C3717.66 932 3719 933.343 3719 935L3719 935C3719 936.657 3717.66 938 3716 938L3660 938C3658.34 938 3657 936.657 3657 935L3657 935C3657 933.343 3658.34 932 3660 932Z" fill="#7030A0" fill-rule="evenodd"/><path d="M3713 935C3713 933.343 3714.34 932 3716 932 3717.66 932 3719 933.343 3719 935 3719 936.657 3717.66 938 3716 938 3714.34 938 3713 936.657 3713 935Z" fill="#C00000" fill-rule="evenodd"/><path d="M3647 879C3647 877.343 3648.34 876 3650 876L3650 876C3651.66 876 3653 877.343 3653 879L3653 935C3653 936.657 3651.66 938 3650 938L3650 938C3648.34 938 3647 936.657 3647 935Z" fill="#FFC000" fill-rule="evenodd"/><path d="M3650.5 932C3652.43 932 3654 933.343 3654 935 3654 936.657 3652.43 938 3650.5 938 3648.57 938 3647 936.657 3647 935 3647 933.343 3648.57 932 3650.5 932Z" fill="#C00000" fill-rule="evenodd"/><rect x="3644" y="863" width="78" height="2.99976" fill="#E7E6E6"/><rect x="3644" y="1002" width="78" height="4.00012" fill="#E7E6E6"/><rect x="3719" y="863" width="3" height="142" fill="#E7E6E6"/><rect x="3644" y="863" width="3.99976" height="142" fill="#E7E6E6"/><text fill="#E7E6E6" font-family="Bahnschrift Light,Bahnschrift Light_MSFontService,sans-serif" font-weight="300" font-size="14" transform="matrix(1 0 0 1 3600.02 1080)">C1P90<tspan font-size="14" x="36.0938" y="0">-</tspan>C2P0<tspan font-size="14" x="74.479" y="0">-</tspan>C3P90<tspan font-size="14" x="120.313" y="0">-</tspan>C4P90</text><rect x="2027" y="1324" width="195" height="260" fill="#181717"/><path d="M2147.5 1385C2149.43 1385 2151 1386.57 2151 1388.5L2151 1388.5C2151 1390.43 2149.43 1392 2147.5 1392L2092.5 1392C2090.57 1392 2089 1390.43 2089 1388.5L2089 1388.5C2089 1386.57 2090.57 1385 2092.5 1385Z" fill="#5B9BD5" fill-rule="evenodd"/><path d="M2095 1444.5C2095 1446.43 2093.43 1448 2091.5 1448L2091.5 1448C2089.57 1448 2088 1446.43 2088 1444.5L2088 1389.5C2088 1387.57 2089.57 1386 2091.5 1386L2091.5 1386C2093.43 1386 2095 1387.57 2095 1389.5Z" fill="#5B9BD5" fill-rule="evenodd"/><path d="M2091.5 1392C2089.57 1392 2088 1390.43 2088 1388.5 2088 1386.57 2089.57 1385 2091.5 1385 2093.43 1385 2095 1386.57 2095 1388.5 2095 1390.43 2093.43 1392 2091.5 1392Z" fill="#C00000" fill-rule="evenodd"/><path d="M2101.5 1523C2099.57 1523 2098 1521.43 2098 1519.5L2098 1519.5C2098 1517.57 2099.57 1516 2101.5 1516L2156.5 1516C2158.43 1516 2160 1517.57 2160 1519.5L2160 1519.5C2160 1521.43 2158.43 1523 2156.5 1523Z" fill="#70AD47" fill-rule="evenodd"/><path d="M2154 1519C2154 1517.34 2155.34 1516 2157 1516L2157 1516C2158.66 1516 2160 1517.34 2160 1519L2160 1575C2160 1576.66 2158.66 1578 2157 1578L2157 1578C2155.34 1578 2154 1576.66 2154 1575Z" fill="#385724" fill-rule="evenodd"/><path d="M2156.5 1523C2154.57 1523 2153 1521.43 2153 1519.5 2153 1517.57 2154.57 1516 2156.5 1516 2158.43 1516 2160 1517.57 2160 1519.5 2160 1521.43 2158.43 1523 2156.5 1523Z" fill="#C00000" fill-rule="evenodd"/><path d="M2101.5 1457C2099.57 1457 2098 1455.43 2098 1453.5L2098 1453.5C2098 1451.57 2099.57 1450 2101.5 1450L2156.5 1450C2158.43 1450 2160 1451.57 2160 1453.5L2160 1453.5C2160 1455.43 2158.43 1457 2156.5 1457Z" fill="#7030A0" fill-rule="evenodd"/><path d="M2154 1454C2154 1452.34 2155.34 1451 2157 1451L2157 1451C2158.66 1451 2160 1452.34 2160 1454L2160 1510C2160 1511.66 2158.66 1513 2157 1513L2157 1513C2155.34 1513 2154 1511.66 2154 1510Z" fill="#7030A0" fill-rule="evenodd"/><path d="M2157 1457C2155.34 1457 2154 1455.43 2154 1453.5 2154 1451.57 2155.34 1450 2157 1450 2158.66 1450 2160 1451.57 2160 1453.5 2160 1455.43 2158.66 1457 2157 1457Z" fill="#C00000" fill-rule="evenodd"/><path d="M2089.5 1450C2091.43 1450 2093 1451.57 2093 1453.5L2093 1453.5C2093 1455.43 2091.43 1457 2089.5 1457L2035.5 1457C2033.57 1457 2032 1455.43 2032 1453.5L2032 1453.5C2032 1451.57 2033.57 1450 2035.5 1450Z" fill="#806000" fill-rule="evenodd"/><path d="M2095 1454C2095 1455.66 2093.43 1457 2091.5 1457 2089.57 1457 2088 1455.66 2088 1454 2088 1452.34 2089.57 1451 2091.5 1451 2093.43 1451 2095 1452.34 2095 1454Z" fill="#C00000" fill-rule="evenodd"/><rect x="2085" y="1383" width="78" height="3.00012" fill="#E7E6E6"/><rect x="2085" y="1522" width="78" height="2.99976" fill="#E7E6E6"/><rect x="2160" y="1383" width="2.99976" height="142" fill="#E7E6E6"/><rect x="2085" y="1383" width="3" height="142" fill="#E7E6E6"/><text fill="#E7E6E6" font-family="Bahnschrift Light,Bahnschrift Light_MSFontService,sans-serif" font-weight="300" font-size="14" transform="matrix(1 0 0 1 2035.12 1599)">C1P0<tspan font-size="14" x="29.2186" y="0">-</tspan>C2P90<tspan font-size="14" x="74.4791" y="0">-</tspan>C3P180<tspan font-size="14" x="126.042" y="0">-</tspan>C4P180</text><rect x="78" y="1064" width="195" height="260" fill="#181717"/><path d="M146 1185C146 1186.66 144.657 1188 143 1188L143 1188C141.343 1188 140 1186.66 140 1185L140 1129C140 1127.34 141.343 1126 143 1126L143 1126C144.657 1126 146 1127.34 146 1129Z" fill="#5B9BD5" fill-rule="evenodd"/><path d="M143 1132C141.343 1132 140 1130.66 140 1129L140 1129C140 1127.34 141.343 1126 143 1126L199 1126C200.657 1126 202 1127.34 202 1129L202 1129C202 1130.66 200.657 1132 199 1132Z" fill="#5B9BD5" fill-rule="evenodd"/><path d="M140 1129C140 1127.34 141.343 1126 143 1126 144.657 1126 146 1127.34 146 1129 146 1130.66 144.657 1132 143 1132 141.343 1132 140 1130.66 140 1129Z" fill="#C00000" fill-rule="evenodd"/><path d="M205 1203.5C205 1201.57 206.567 1200 208.5 1200L208.5 1200C210.433 1200 212 1201.57 212 1203.5L212 1258.5C212 1260.43 210.433 1262 208.5 1262L208.5 1262C206.567 1262 205 1260.43 205 1258.5Z" fill="#70AD47" fill-rule="evenodd"/><path d="M208 1256C209.657 1256 211 1257.34 211 1259L211 1259C211 1260.66 209.657 1262 208 1262L152 1262C150.343 1262 149 1260.66 149 1259L149 1259C149 1257.34 150.343 1256 152 1256Z" fill="#70AD47" fill-rule="evenodd"/><path d="M205 1259C205 1257.34 206.343 1256 208 1256 209.657 1256 211 1257.34 211 1259 211 1260.66 209.657 1262 208 1262 206.343 1262 205 1260.66 205 1259Z" fill="#C00000" fill-rule="evenodd"/><path d="M263.5 1191C265.433 1191 267 1192.57 267 1194.5L267 1194.5C267 1196.43 265.433 1198 263.5 1198L208.5 1198C206.567 1198 205 1196.43 205 1194.5L205 1194.5C205 1192.57 206.567 1191 208.5 1191Z" fill="#381850" fill-rule="evenodd"/><path d="M211 1194C211 1195.66 209.657 1197 208 1197L208 1197C206.343 1197 205 1195.66 205 1194L205 1138C205 1136.34 206.343 1135 208 1135L208 1135C209.657 1135 211 1136.34 211 1138Z" fill="#7030A0" fill-rule="evenodd"/><path d="M208 1191C209.657 1191 211 1192.34 211 1194 211 1195.66 209.657 1197 208 1197 206.343 1197 205 1195.66 205 1194 205 1192.34 206.343 1191 208 1191Z" fill="#C00000" fill-rule="evenodd"/><path d="M146 1250C146 1251.66 144.657 1253 143 1253L143 1253C141.343 1253 140 1251.66 140 1250L140 1194C140 1192.34 141.343 1191 143 1191L143 1191C144.657 1191 146 1192.34 146 1194Z" fill="#FFC000" fill-rule="evenodd"/><path d="M140 1194C140 1192.34 141.343 1191 143 1191 144.657 1191 146 1192.34 146 1194 146 1195.66 144.657 1197 143 1197 141.343 1197 140 1195.66 140 1194Z" fill="#C00000" fill-rule="evenodd"/><rect x="136" y="1123" width="78" height="3.00012" fill="#E7E6E6"/><rect x="136" y="1262" width="78" height="3.00012" fill="#E7E6E6"/><rect x="211" y="1123" width="3.00009" height="142" fill="#E7E6E6"/><rect x="136" y="1123" width="3.99977" height="142" fill="#E7E6E6"/><text fill="#E7E6E6" font-family="Bahnschrift Light,Bahnschrift Light_MSFontService,sans-serif" font-weight="300" font-size="14" transform="matrix(1 0 0 1 92.4684 1339)">C1P0<tspan font-size="14" x="29.2188" y="0">-</tspan>C2P180<tspan font-size="14" x="80.2083" y="0">-</tspan>C3P0<tspan font-size="14" x="119.167" y="0">-</tspan>C4P90</text><rect x="2027" y="804" width="195" height="260" fill="#181717"/><path d="M2148 866C2149.66 866 2151 867.343 2151 869L2151 869C2151 870.657 2149.66 872 2148 872L2092 872C2090.34 872 2089 870.657 2089 869L2089 869C2089 867.343 2090.34 866 2092 866Z" fill="#5B9BD5" fill-rule="evenodd"/><path d="M2095 868.5C2095 870.433 2093.43 872 2091.5 872L2091.5 872C2089.57 872 2088 870.433 2088 868.5L2088 813.5C2088 811.567 2089.57 810 2091.5 810L2091.5 810C2093.43 810 2095 811.567 2095 813.5Z" fill="#2E4E6B" fill-rule="evenodd"/><path d="M2091.5 872C2089.57 872 2088 870.657 2088 869 2088 867.343 2089.57 866 2091.5 866 2093.43 866 2095 867.343 2095 869 2095 870.657 2093.43 872 2091.5 872Z" fill="#C00000" fill-rule="evenodd"/><path d="M2101.5 1003C2099.57 1003 2098 1001.43 2098 999.5L2098 999.5C2098 997.567 2099.57 996 2101.5 996L2156.5 996C2158.43 996 2160 997.567 2160 999.5L2160 999.5C2160 1001.43 2158.43 1003 2156.5 1003Z" fill="#70AD47" fill-rule="evenodd"/><path d="M2154 1000C2154 998.343 2155.34 997 2157 997L2157 997C2158.66 997 2160 998.343 2160 1000L2160 1055C2160 1056.66 2158.66 1058 2157 1058L2157 1058C2155.34 1058 2154 1056.66 2154 1055Z" fill="#385724" fill-rule="evenodd"/><path d="M2156.5 1003C2154.57 1003 2153 1001.66 2153 1000 2153 998.343 2154.57 997 2156.5 997 2158.43 997 2160 998.343 2160 1000 2160 1001.66 2158.43 1003 2156.5 1003Z" fill="#C00000" fill-rule="evenodd"/><path d="M2101 937C2099.34 937 2098 935.657 2098 934L2098 934C2098 932.343 2099.34 931 2101 931L2157 931C2158.66 931 2160 932.343 2160 934L2160 934C2160 935.657 2158.66 937 2157 937Z" fill="#7030A0" fill-rule="evenodd"/><path d="M2154 934C2154 932.343 2155.34 931 2157 931L2157 931C2158.66 931 2160 932.343 2160 934L2160 990C2160 991.657 2158.66 993 2157 993L2157 993C2155.34 993 2154 991.657 2154 990Z" fill="#7030A0" fill-rule="evenodd"/><path d="M2157 937C2155.34 937 2154 935.657 2154 934 2154 932.343 2155.34 931 2157 931 2158.66 931 2160 932.343 2160 934 2160 935.657 2158.66 937 2157 937Z" fill="#C00000" fill-rule="evenodd"/><path d="M2088 878.5C2088 876.567 2089.57 875 2091.5 875L2091.5 875C2093.43 875 2095 876.567 2095 878.5L2095 933.5C2095 935.433 2093.43 937 2091.5 937L2091.5 937C2089.57 937 2088 935.433 2088 933.5Z" fill="#FFC000" fill-rule="evenodd"/><path d="M2095 934C2095 935.657 2093.43 937 2091.5 937 2089.57 937 2088 935.657 2088 934 2088 932.343 2089.57 931 2091.5 931 2093.43 931 2095 932.343 2095 934Z" fill="#C00000" fill-rule="evenodd"/><rect x="2085" y="863" width="78" height="2.99976" fill="#E7E6E6"/><rect x="2085" y="1002" width="78" height="4.00012" fill="#E7E6E6"/><rect x="2160" y="863" width="2.99976" height="142" fill="#E7E6E6"/><rect x="2085" y="863" width="3" height="142" fill="#E7E6E6"/><text fill="#E7E6E6" font-family="Bahnschrift Light,Bahnschrift Light_MSFontService,sans-serif" font-weight="300" font-size="14" transform="matrix(1 0 0 1 2035.12 1080)">C1P90<tspan font-size="14" x="36.0936" y="0">-</tspan>C2P0<tspan font-size="14" x="74.4791" y="0">-</tspan>C3P180<tspan font-size="14" x="126.042" y="0">-</tspan>C4P180</text><rect x="3586" y="1324" width="195" height="260" fill="#181717"/><path d="M3654 1444.5C3654 1446.43 3652.43 1448 3650.5 1448L3650.5 1448C3648.57 1448 3647 1446.43 3647 1444.5L3647 1389.5C3647 1387.57 3648.57 1386 3650.5 1386L3650.5 1386C3652.43 1386 3654 1387.57 3654 1389.5Z" fill="#5B9BD5" fill-rule="evenodd"/><path d="M3650 1392C3648.34 1392 3647 1390.66 3647 1389L3647 1389C3647 1387.34 3648.34 1386 3650 1386L3706 1386C3707.66 1386 3709 1387.34 3709 1389L3709 1389C3709 1390.66 3707.66 1392 3706 1392Z" fill="#5B9BD5" fill-rule="evenodd"/><path d="M3647 1389C3647 1387.34 3648.57 1386 3650.5 1386 3652.43 1386 3654 1387.34 3654 1389 3654 1390.66 3652.43 1392 3650.5 1392 3648.57 1392 3647 1390.66 3647 1389Z" fill="#C00000" fill-rule="evenodd"/><path d="M3713 1464C3713 1462.34 3714.34 1461 3716 1461L3716 1461C3717.66 1461 3719 1462.34 3719 1464L3719 1520C3719 1521.66 3717.66 1523 3716 1523L3716 1523C3714.34 1523 3713 1521.66 3713 1520Z" fill="#70AD47" fill-rule="evenodd"/><path d="M3715.5 1516C3717.43 1516 3719 1517.57 3719 1519.5L3719 1519.5C3719 1521.43 3717.43 1523 3715.5 1523L3660.5 1523C3658.57 1523 3657 1521.43 3657 1519.5L3657 1519.5C3657 1517.57 3658.57 1516 3660.5 1516Z" fill="#70AD47" fill-rule="evenodd"/><path d="M3713 1519.5C3713 1517.57 3714.34 1516 3716 1516 3717.66 1516 3719 1517.57 3719 1519.5 3719 1521.43 3717.66 1523 3716 1523 3714.34 1523 3713 1521.43 3713 1519.5Z" fill="#C00000" fill-rule="evenodd"/><path d="M3713 1399C3713 1397.34 3714.34 1396 3716 1396L3716 1396C3717.66 1396 3719 1397.34 3719 1399L3719 1455C3719 1456.66 3717.66 1458 3716 1458L3716 1458C3714.34 1458 3713 1456.66 3713 1455Z" fill="#7030A0" fill-rule="evenodd"/><path d="M3715.5 1451C3717.43 1451 3719 1452.57 3719 1454.5L3719 1454.5C3719 1456.43 3717.43 1458 3715.5 1458L3660.5 1458C3658.57 1458 3657 1456.43 3657 1454.5L3657 1454.5C3657 1452.57 3658.57 1451 3660.5 1451Z" fill="#7030A0" fill-rule="evenodd"/><path d="M3713 1454.5C3713 1452.57 3714.34 1451 3716 1451 3717.66 1451 3719 1452.57 3719 1454.5 3719 1456.43 3717.66 1458 3716 1458 3714.34 1458 3713 1456.43 3713 1454.5Z" fill="#C00000" fill-rule="evenodd"/><path d="M3595.5 1458C3593.57 1458 3592 1456.43 3592 1454.5L3592 1454.5C3592 1452.57 3593.57 1451 3595.5 1451L3650.5 1451C3652.43 1451 3654 1452.57 3654 1454.5L3654 1454.5C3654 1456.43 3652.43 1458 3650.5 1458Z" fill="#806000" fill-rule="evenodd"/><path d="M3650.5 1451C3652.43 1451 3654 1452.57 3654 1454.5 3654 1456.43 3652.43 1458 3650.5 1458 3648.57 1458 3647 1456.43 3647 1454.5 3647 1452.57 3648.57 1451 3650.5 1451Z" fill="#C00000" fill-rule="evenodd"/><rect x="3644" y="1383" width="78" height="3.00012" fill="#E7E6E6"/><rect x="3644" y="1522" width="78" height="2.99976" fill="#E7E6E6"/><rect x="3719" y="1383" width="3" height="142" fill="#E7E6E6"/><rect x="3644" y="1383" width="3.99976" height="142" fill="#E7E6E6"/><text fill="#E7E6E6" font-family="Bahnschrift Light,Bahnschrift Light_MSFontService,sans-serif" font-weight="300" font-size="14" transform="matrix(1 0 0 1 3600.02 1599)">C1P0<tspan font-size="14" x="29.2188" y="0">-</tspan>C2P90<tspan font-size="14" x="74.479" y="0">-</tspan>C3P90<tspan font-size="14" x="120.313" y="0">-</tspan>C4P90</text></g></svg>